<?xml version="1.0" standalone="no"?>
<!DOCTYPE svg PUBLIC "-//W3C//DTD SVG 1.1//EN" "http://www.w3.org/Graphics/SVG/1.1/DTD/svg11.dtd" >
<svg>
<metadata>
Created by FontForge 20090622 at Fri May 18 08:29:10 2018
 By deploy user
Copyright (c) 2014 by Grilli Type. All rights reserved.
</metadata>
<defs>
<font id="GTWalsheimProTrial-Thin" horiz-adv-x="586" >
  <font-face 
    font-family="GT Walsheim Pro Trial Thin"
    font-weight="300"
    font-stretch="normal"
    units-per-em="1000"
    panose-1="2 0 5 3 3 0 0 2 0 3"
    ascent="720"
    descent="-280"
    x-height="431"
    cap-height="700"
    bbox="-36 -279 1267 714"
    underline-thickness="50"
    underline-position="-25"
    unicode-range="U+0020-U+FB01"
  />
<missing-glyph horiz-adv-x="550" 
d="M422 342v158h-30v-158h30zM302 452v-110h30v110h-30zM50 0v700h450v-700h-450zM303 260h-30v-109h30v109zM295 453q-6 2 -11 2q-18 0 -31 -21v18h-27v-110h29v50q0 35 30 35q7 0 10 -1v27zM439 452v-110h30v110h-30zM89 307v-29h44v-127h30v127h44v29h-118zM427 151h29
v158h-29v-158zM266 234v28q-3 1 -10 1q-20 0 -30 -21v18h-28v-109h30v49q0 35 28 35q6 0 10 -1zM301 500v-29h32v29h-32zM438 500v-29h32v29h-32zM181 399q0 -12 -9 -22.5t-27 -10.5q-41 0 -41 53q0 25 10.5 40t29.5 15q24 0 31 -23l30 12q-14 39 -60 39q-35 0 -54.5 -23
t-19.5 -59q0 -35 18 -58t49 -23q32 0 43 20l4 -17h23v87h-67v-28h40v-2zM304 309h-32v-30h32v30zM376 342v158h-29v-158h29zM385 151h29q-3 15 -3 21v40q0 27 -10 39t-36 12q-49 0 -51 -37h29q1 15 21 15q18 0 18 -22q-32 -3 -50 -8q-21 -9 -21 -29q0 -16 10.5 -25t27.5 -9
q25 0 35 19q0 -11 1 -16zM382 201v-3q0 -28 -24 -28q-17 0 -17 13t23 16z" />
    <glyph glyph-name=".notdef" horiz-adv-x="550" 
d="M422 342v158h-30v-158h30zM302 452v-110h30v110h-30zM50 0v700h450v-700h-450zM303 260h-30v-109h30v109zM295 453q-6 2 -11 2q-18 0 -31 -21v18h-27v-110h29v50q0 35 30 35q7 0 10 -1v27zM439 452v-110h30v110h-30zM89 307v-29h44v-127h30v127h44v29h-118zM427 151h29
v158h-29v-158zM266 234v28q-3 1 -10 1q-20 0 -30 -21v18h-28v-109h30v49q0 35 28 35q6 0 10 -1zM301 500v-29h32v29h-32zM438 500v-29h32v29h-32zM181 399q0 -12 -9 -22.5t-27 -10.5q-41 0 -41 53q0 25 10.5 40t29.5 15q24 0 31 -23l30 12q-14 39 -60 39q-35 0 -54.5 -23
t-19.5 -59q0 -35 18 -58t49 -23q32 0 43 20l4 -17h23v87h-67v-28h40v-2zM304 309h-32v-30h32v30zM376 342v158h-29v-158h29zM385 151h29q-3 15 -3 21v40q0 27 -10 39t-36 12q-49 0 -51 -37h29q1 15 21 15q18 0 18 -22q-32 -3 -50 -8q-21 -9 -21 -29q0 -16 10.5 -25t27.5 -9
q25 0 35 19q0 -11 1 -16zM382 201v-3q0 -28 -24 -28q-17 0 -17 13t23 16z" />
    <glyph glyph-name=".null" horiz-adv-x="0" 
 />
    <glyph glyph-name=".null" horiz-adv-x="0" 
 />
    <glyph glyph-name="nonmarkingreturn" horiz-adv-x="333" 
 />
    <glyph glyph-name="space" unicode=" " horiz-adv-x="257" 
 />
    <glyph glyph-name="exclam" unicode="!" horiz-adv-x="203" 
d="M53 45q0 21 14 35t34 14q21 0 35.5 -14t14.5 -35t-14.5 -35t-35.5 -14q-20 0 -34 14t-14 35z" />
    <glyph glyph-name="comma" unicode="," horiz-adv-x="229" 
d="M53 44q0 21 14.5 35.5t38.5 14.5q32 0 51 -27.5t19 -69.5q0 -113 -115 -113v28q30 0 48.5 13.5t21.5 38.5q5 26 -4 41q-10 -10 -26 -10q-21 0 -34.5 14t-13.5 35z" />
    <glyph glyph-name="hyphen" unicode="-" horiz-adv-x="294" 
d="M264 305v-40h-234v40h234z" />
    <glyph glyph-name="period" unicode="." horiz-adv-x="203" 
d="M53 45q0 21 14 35t34 14q21 0 35.5 -14t14.5 -35t-14.5 -35t-35.5 -14q-20 0 -34 14t-14 35z" />
    <glyph glyph-name="zero" unicode="0" horiz-adv-x="576" 
d="M62 212v275q0 94 62.5 160t162.5 66q101 0 164 -66t63 -160v-275q0 -94 -63 -159.5t-164 -65.5q-99 0 -162 66t-63 159zM470 212v275q0 77 -50.5 131t-132.5 54q-80 0 -130.5 -54t-50.5 -131v-275q0 -77 50.5 -130.5t130.5 -53.5q82 0 132.5 53.5t50.5 130.5z" />
    <glyph glyph-name="one" unicode="1" horiz-adv-x="303" 
d="M34 546v38q86 0 112.5 25t26.5 91h42v-700h-45v546h-136z" />
    <glyph glyph-name="two" unicode="2" horiz-adv-x="526" 
d="M48 0q0 157 48 227t169 113q41 15 67 27.5t52 33.5t38 50.5t12 69.5q0 66 -44 107t-123 41q-80 0 -128 -50t-48 -128h-44q0 96 61.5 157.5t159.5 61.5t154 -52.5t56 -139.5q0 -47 -16 -83.5t-46.5 -61t-59.5 -39t-70 -29.5q-109 -41 -149.5 -97t-40.5 -167h388v-41h-436z
" />
    <glyph glyph-name="three" unicode="3" horiz-adv-x="538" 
d="M33 195h44q0 -74 50 -119t132 -45q81 0 130.5 44t49.5 112q0 69 -47 111.5t-129 42.5h-56v41h56q77 0 120.5 39.5t43.5 103.5q0 65 -46 104.5t-122 39.5q-79 0 -124 -41t-45 -110h-44q0 86 58 139t153 53t154.5 -51.5t59.5 -133.5q0 -63 -36 -107t-100 -56
q69 -13 108.5 -60t39.5 -115q0 -88 -62.5 -142.5t-162.5 -54.5q-99 0 -162 56.5t-63 148.5z" />
    <glyph glyph-name="four" unicode="4" horiz-adv-x="539" 
d="M344 0v255h-272v445h44v-404h228v227h44v-227h123v-41h-123v-255h-44z" />
    <glyph glyph-name="five" unicode="5" horiz-adv-x="582" 
d="M90 298v402h387v-41h-346v-314q21 42 69 67t102 25q101 0 162 -64t61 -158t-63.5 -159.5t-164.5 -65.5q-99 0 -162 66t-63 159h44q0 -77 50.5 -130.5t130.5 -53.5q82 0 133 53.5t51 130.5t-51 129t-133 52q-114 0 -158 -98h-49z" />
    <glyph glyph-name="six" unicode="6" horiz-adv-x="529" 
d="M262 -10q-99 0 -162 66t-63 159q0 70 36 126l223 359h51l-185 -293q32 34 100 34q101 0 164 -66t63 -160t-63 -159.5t-164 -65.5zM262 31q82 0 132.5 53.5t50.5 130.5t-50.5 131t-132.5 54q-80 0 -130.5 -54t-50.5 -131t50.5 -130.5t130.5 -53.5z" />
    <glyph glyph-name="seven" unicode="7" horiz-adv-x="442" 
d="M38 700h409l-337 -700h-47l318 659h-343v41z" />
    <glyph glyph-name="eight" unicode="8" horiz-adv-x="561" 
d="M281 -10q-103 0 -164.5 55t-61.5 142q0 65 38 113.5t107 61.5q-64 13 -98.5 57t-34.5 104q0 82 58 134.5t156 52.5q97 0 155.5 -52.5t58.5 -134.5q0 -59 -34.5 -103.5t-98.5 -57.5q69 -13 106.5 -61t37.5 -114q0 -86 -61 -141.5t-164 -55.5zM281 379q78 0 124 40t46 103
q0 65 -46.5 106t-123.5 41t-123 -41t-46 -106q0 -63 45.5 -103t123.5 -40zM281 31q82 0 131.5 43.5t49.5 112.5q0 68 -48.5 111t-132.5 43q-85 0 -133.5 -43t-48.5 -111q0 -69 49.5 -112.5t132.5 -43.5z" />
    <glyph glyph-name="nine" unicode="9" horiz-adv-x="529" 
d="M268 710q99 0 161.5 -65.5t62.5 -159.5q0 -70 -36 -126l-223 -359h-51l185 293q-29 -34 -96 -34q-103 0 -167 65t-64 161q0 94 63.5 159.5t164.5 65.5zM268 669q-82 0 -133 -53.5t-51 -130.5t51 -131t133 -54q80 0 130 54t50 131q0 76 -50 130t-130 54z" />
    <glyph glyph-name="colon" unicode=":" horiz-adv-x="203" 
d="M53 45q0 21 14 35t34 14q21 0 35.5 -14t14.5 -35t-14.5 -35t-35.5 -14q-20 0 -34 14t-14 35z" />
    <glyph glyph-name="semicolon" unicode=";" horiz-adv-x="229" 
d="M53 44q0 21 14.5 35.5t38.5 14.5q32 0 51 -27.5t19 -69.5q0 -113 -115 -113v28q30 0 48.5 13.5t21.5 38.5q5 26 -4 41q-10 -10 -26 -10q-21 0 -34.5 14t-13.5 35z" />
    <glyph glyph-name="question" unicode="?" horiz-adv-x="203" 
d="M53 45q0 21 14 35t34 14q21 0 35.5 -14t14.5 -35t-14.5 -35t-35.5 -14q-20 0 -34 14t-14 35z" />
    <glyph glyph-name="A" unicode="A" horiz-adv-x="534" 
d="M416 185l-149 449l-150 -449h299zM525 0h-46l-49 144h-327l-49 -144h-46l241 700h36z" />
    <glyph glyph-name="B" unicode="B" horiz-adv-x="576" 
d="M88 0v700h239q87 0 138 -54t51 -128q0 -61 -36.5 -108.5t-91.5 -57.5q54 -9 93 -56.5t39 -110.5q0 -74 -52.5 -129.5t-140.5 -55.5h-239zM132 372h199q63 0 102 42.5t39 100.5q0 59 -40.5 101.5t-104.5 42.5h-195v-287zM333 331h-201v-290h196q66 0 107 42.5t41 102.5
q0 57 -40.5 101t-102.5 44z" />
    <glyph glyph-name="C" unicode="C" horiz-adv-x="774" 
d="M682 197h49q-32 -93 -118.5 -152t-202.5 -59q-165 0 -265 106t-100 259q0 148 97 255.5t255 107.5q138 0 223.5 -66.5t110.5 -173.5h-46q-24 89 -96.5 144t-187.5 55q-141 0 -226 -95t-85 -227q0 -136 88.5 -230t235.5 -94q93 0 166 47.5t102 122.5z" />
    <glyph glyph-name="D" unicode="D" horiz-adv-x="690" 
d="M88 700h193q84 0 154 -29.5t115 -79t69.5 -112t24.5 -129.5t-24.5 -129.5t-69.5 -112t-115 -79t-154 -29.5h-193v700zM281 659h-149v-618h149q145 0 232 92.5t87 216.5t-87 216.5t-232 92.5z" />
    <glyph glyph-name="E" unicode="E" horiz-adv-x="541" 
d="M458 659h-326v-291h326v-41h-326v-286h326v-41h-370v700h370v-41z" />
    <glyph glyph-name="F" unicode="F" horiz-adv-x="538" 
d="M458 659h-326v-305h326v-41h-326v-313h-44v700h370v-41z" />
    <glyph glyph-name="G" unicode="G" horiz-adv-x="831" 
d="M453 269v41h346v-41h-72q-15 -131 -97.5 -207t-227.5 -76q-84 0 -152.5 30t-112.5 81t-68 116t-24 137q0 149 98.5 256.5t258.5 107.5q106 0 184 -51t100 -130h-45q-22 61 -87 100.5t-152 39.5q-141 0 -226.5 -95.5t-85.5 -227.5q0 -134 84.5 -228.5t231.5 -94.5
q123 0 193 65.5t82 176.5h-228z" />
    <glyph glyph-name="H" unicode="H" horiz-adv-x="661" 
d="M529 0v327h-397v-327h-44v700h44v-332h397v332h44v-700h-44z" />
    <glyph glyph-name="I" unicode="I" horiz-adv-x="221" 
d="M88 0v700h45v-700h-45z" />
    <glyph glyph-name="J" unicode="J" horiz-adv-x="535" 
d="M460 700v-489q0 -103 -59.5 -164t-156.5 -61q-96 0 -161 62t-65 163h44q0 -84 52.5 -134t129.5 -50q78 0 125 49.5t47 134.5v489h44z" />
    <glyph glyph-name="K" unicode="K" horiz-adv-x="556" 
d="M492 0l-360 339v-339h-44v700h44v-339l360 339h59l-370 -350l370 -350h-59z" />
    <glyph glyph-name="L" unicode="L" horiz-adv-x="418" 
d="M132 41h253v-41h-297v700h44v-659z" />
    <glyph glyph-name="M" unicode="M" horiz-adv-x="809" 
d="M721 700v-700h-44v598l-254 -598h-38l-253 598v-598h-44v700h43l273 -637l273 637h44z" />
    <glyph glyph-name="N" unicode="N" horiz-adv-x="660" 
d="M138 700l390 -626v626h44v-700h-49l-391 626v-626h-44v700h50z" />
    <glyph glyph-name="O" unicode="O" horiz-adv-x="809" 
d="M404 -14q-161 0 -260 108t-99 256t99 256t260 108q108 0 191.5 -52t125.5 -134t42 -178t-42 -178t-125.5 -134t-191.5 -52zM404 27q141 0 227.5 95.5t86.5 227.5t-86.5 227.5t-227.5 95.5t-227 -96t-86 -227t86 -227t227 -96z" />
    <glyph glyph-name="P" unicode="P" horiz-adv-x="595" 
d="M88 0v700h235q102 0 165 -65.5t63 -160.5q0 -94 -63 -159t-165 -65h-191v-250h-44zM323 291q82 0 133 53.5t51 129.5q0 78 -51 131.5t-133 53.5h-191v-368h191z" />
    <glyph glyph-name="Q" unicode="Q" horiz-adv-x="809" 
d="M763 350q0 -146 -88.5 -244.5t-223.5 -113.5l66 -92l-39 -20l-75 106q-161 1 -259.5 108.5t-98.5 255.5t99 256t260 108q108 0 191.5 -52t125.5 -134t42 -178zM404 27q141 0 227.5 95.5t86.5 227.5t-86.5 227.5t-227.5 95.5t-227 -96t-86 -227t86 -227t227 -96z" />
    <glyph glyph-name="R" unicode="R" horiz-adv-x="599" 
d="M323 291q82 0 133 53.5t51 129.5q0 78 -51 131.5t-133 53.5h-191v-368h191zM88 0v700h235q102 0 165 -65.5t63 -160.5q0 -79 -46.5 -139.5t-124.5 -78.5l165 -256h-52l-160 250h-201v-250h-44z" />
    <glyph glyph-name="S" unicode="S" horiz-adv-x="573" 
d="M49 211h44q0 -82 54.5 -133t148.5 -51q86 0 136 39.5t50 108.5q0 32 -11 57.5t-26 41t-41.5 28t-47 18.5t-52.5 13q-47 12 -70.5 19t-59.5 23.5t-53 35.5t-30.5 51t-13.5 75q0 78 58.5 127.5t161.5 49.5q98 0 155.5 -55t59.5 -151h-44q-2 78 -47 121.5t-123 43.5
q-85 0 -131 -38t-46 -98q0 -33 11 -58t25.5 -40t43 -27.5t48 -18t56.5 -14.5q40 -10 65.5 -18t58 -24t51.5 -35.5t32.5 -51.5t13.5 -72q0 -91 -63 -141.5t-170 -50.5q-110 0 -177 62.5t-67 162.5z" />
    <glyph glyph-name="T" unicode="T" horiz-adv-x="469" 
d="M212 0v659h-196v41h437v-41h-197v-659h-44z" />
    <glyph glyph-name="U" unicode="U" horiz-adv-x="606" 
d="M75 212v488h44v-488q0 -77 51 -131t132 -54q83 0 134 54t51 131v488h44v-488q0 -94 -63.5 -160t-165.5 -66q-100 0 -163.5 66t-63.5 160z" />
    <glyph glyph-name="V" unicode="V" horiz-adv-x="550" 
d="M544 700l-250 -700h-37l-251 700h47l222 -633l223 633h46z" />
    <glyph glyph-name="W" unicode="W" horiz-adv-x="926" 
d="M649 0l-186 628l-185 -628h-37l-235 700h47l206 -629l186 629h37l186 -629l205 629h47l-235 -700h-36z" />
    <glyph glyph-name="X" unicode="X" horiz-adv-x="520" 
d="M260 388l198 312h50l-223 -350l223 -350h-50l-198 311l-198 -311h-50l223 350l-223 350h50z" />
    <glyph glyph-name="Y" unicode="Y" horiz-adv-x="548" 
d="M545 700l-362 -700h-49l143 275l-270 425h52l241 -380l197 380h48z" />
    <glyph glyph-name="Z" unicode="Z" horiz-adv-x="540" 
d="M38 659v41h495l-440 -659h455v-41h-531l440 659h-419z" />
    <glyph glyph-name="underscore" unicode="_" horiz-adv-x="294" 
d="M264 305v-40h-234v40h234z" />
    <glyph glyph-name="a" unicode="a" 
d="M270 30q83 0 134 54t51 131q0 78 -51 132t-134 54q-81 0 -131.5 -54t-50.5 -132q0 -77 50.5 -131t131.5 -54zM455 431h43v-431h-43v109q-22 -54 -71.5 -86.5t-114.5 -32.5q-99 0 -161.5 66t-62.5 159q0 94 62.5 160t161.5 66q65 0 114.5 -32.5t71.5 -87.5v110z" />
    <glyph glyph-name="b" unicode="b" 
d="M130 109v-109h-42v700h42v-379q22 54 72 87t115 33q99 0 161 -66t62 -160q0 -93 -62 -159t-161 -66q-65 0 -115 32.5t-72 86.5zM316 30q81 0 131.5 54t50.5 131q0 78 -50.5 132t-131.5 54q-83 0 -134.5 -54t-51.5 -132q0 -77 51.5 -131t134.5 -54z" />
    <glyph glyph-name="c" unicode="c" horiz-adv-x="519" 
d="M465 274h-43q-6 55 -44.5 91.5t-113.5 36.5q-80 0 -126 -54.5t-46 -131.5q0 -78 45.5 -132t128.5 -54q135 0 158 118h43q-10 -71 -61.5 -114.5t-141.5 -43.5q-100 0 -157 66.5t-57 159.5t57 159t157 66q95 0 144.5 -48t56.5 -119z" />
    <glyph glyph-name="d" unicode="d" 
d="M270 30q83 0 134 54t51 131q0 78 -51 132t-134 54q-81 0 -131.5 -54t-50.5 -132q0 -77 50.5 -131t131.5 -54zM455 0v109q-22 -54 -71.5 -86.5t-114.5 -32.5q-99 0 -161.5 66t-62.5 159q0 94 62.5 160t161.5 66q65 0 114.5 -32.5t71.5 -87.5v379h43v-700h-43z" />
    <glyph glyph-name="e" unicode="e" horiz-adv-x="513" 
d="M458 211h-366q1 -78 44.5 -130.5t127.5 -52.5q56 0 94 26.5t52 66.5h44q-13 -56 -64 -93.5t-126 -37.5q-103 0 -158.5 65t-55.5 161q0 99 56 162t155 63q83 0 141 -55.5t58 -137.5q0 -21 -2 -37zM260 406q-73 0 -117.5 -43.5t-49.5 -115.5h325q0 70 -45.5 114.5
t-112.5 44.5z" />
    <glyph glyph-name="f" unicode="f" horiz-adv-x="322" 
d="M316 695v-38q-24 10 -58 10q-39 0 -64 -23t-25 -90v-123h147v-38h-147v-393h-42v393h-103v38h103v120q0 49 11.5 82t32.5 48t40.5 20t43.5 5q32 0 61 -11z" />
    <glyph glyph-name="g" unicode="g" horiz-adv-x="585" 
d="M270 401q-81 0 -131.5 -54t-50.5 -131q0 -78 50.5 -132t131.5 -54q83 0 134 54t51 132q0 77 -51 131t-134 54zM498 431v-471q0 -126 -59 -182.5t-171 -56.5q-109 0 -161.5 59t-56.5 151h42q4 -75 46 -122.5t130 -47.5q92 0 139.5 46.5t47.5 152.5v150
q-22 -55 -71.5 -87.5t-114.5 -32.5q-99 0 -161.5 66t-62.5 160q0 93 62.5 159t161.5 66q65 0 114.5 -32.5t71.5 -87.5v110h43z" />
    <glyph glyph-name="h" unicode="h" horiz-adv-x="558" 
d="M88 0v700h42v-381q18 52 64.5 87t111.5 35q86 0 130 -52q43 -47 43 -138v-251h-42v240q0 72 -36 116.5t-106 44.5q-77 0 -121 -56t-44 -126v-219h-42z" />
    <glyph glyph-name="i" unicode="i" horiz-adv-x="218" 
d="M60 606q0 21 14.5 35.5t34.5 14.5q21 0 35.5 -14.5t14.5 -35.5q0 -20 -14.5 -34.5t-35.5 -14.5q-20 0 -34.5 14.5t-14.5 34.5zM88 0v431h42v-431h-42z" />
    <glyph glyph-name="j" unicode="j" horiz-adv-x="218" 
d="M61 606q0 21 14 35.5t35 14.5t35 -14.5t14 -35.5q0 -20 -14 -34.5t-35 -14.5t-35 14.5t-14 34.5zM130 431v-579q0 -61 -27.5 -94t-72.5 -33q-41 0 -66 12v41q29 -13 57 -13q31 0 49 24.5t18 66.5v575h42z" />
    <glyph glyph-name="k" unicode="k" horiz-adv-x="432" 
d="M416 431l-233 -216l233 -215h-59l-227 208v-208h-42v700h42v-478l227 209h59z" />
    <glyph glyph-name="l" unicode="l" horiz-adv-x="218" 
d="M88 0v700h42v-700h-42z" />
    <glyph glyph-name="m" unicode="m" horiz-adv-x="799" 
d="M719 0h-42v260q0 73 -32 107t-84 34q-64 0 -100 -53t-36 -130v-218h-42v243q0 158 -117 158q-63 0 -99.5 -53.5t-36.5 -129.5v-218h-42v431h42v-113q11 50 49.5 86.5t94.5 36.5q125 0 143 -125q11 51 52 88t99 37q68 0 109.5 -41t41.5 -129v-271z" />
    <glyph glyph-name="n" unicode="n" horiz-adv-x="558" 
d="M88 0v431h42v-112q18 52 64.5 87t111.5 35q86 0 130 -52q43 -47 43 -138v-251h-42v240q0 72 -36 116.5t-106 44.5q-77 0 -121 -56t-44 -126v-219h-42z" />
    <glyph glyph-name="o" unicode="o" horiz-adv-x="543" 
d="M270 -10q-99 0 -162 66t-63 159q0 94 62.5 160t162.5 66q102 0 165 -66t63 -160t-63.5 -159.5t-164.5 -65.5zM270 30q83 0 134 54t51 131q0 78 -51 132t-134 54q-81 0 -131.5 -54t-50.5 -132q0 -77 50.5 -131t131.5 -54z" />
    <glyph glyph-name="p" unicode="p" 
d="M316 401q-83 0 -134.5 -54t-51.5 -131q0 -78 51.5 -132t134.5 -54q81 0 131.5 54t50.5 132q0 77 -50.5 131t-131.5 54zM130 431v-110q22 54 72 87t115 33q99 0 161 -66t62 -159q0 -94 -62 -160t-161 -66q-65 0 -115 33t-72 87v-379h-42v700h42z" />
    <glyph glyph-name="q" unicode="q" 
d="M456 321v110h42v-700h-42v379q-22 -54 -72 -87t-115 -33q-98 0 -160.5 66t-62.5 160q0 93 62.5 159t160.5 66q65 0 115 -33t72 -87zM271 401q-81 0 -132 -54t-51 -131q0 -78 51 -132t132 -54q83 0 134 54t51 132q0 77 -51 131t-134 54z" />
    <glyph glyph-name="r" unicode="r" horiz-adv-x="340" 
d="M338 431v-40q-22 6 -43 6q-80 0 -122.5 -60.5t-42.5 -141.5v-195h-42v431h42v-119q22 62 66.5 94t98.5 32q26 0 43 -7z" />
    <glyph glyph-name="s" unicode="s" horiz-adv-x="448" 
d="M240 232q33 -7 47 -10.5t39.5 -12.5t37 -20t21 -30.5t9.5 -44.5q0 -59 -43 -91.5t-121 -32.5q-80 0 -131 38.5t-51 117.5h42q0 -62 39 -90.5t102 -28.5q59 0 90.5 22.5t31.5 62.5q0 22 -10 37.5t-28.5 24.5t-40.5 15t-52 12q-10 2 -16 3q-36 7 -55.5 12.5t-43.5 18
t-34.5 33.5t-10.5 51q0 57 43 89.5t114 32.5q75 0 121.5 -38t46.5 -105h-42q0 51 -34 78.5t-91 27.5q-53 0 -85 -22.5t-32 -63.5q0 -17 7.5 -30t16 -20.5t30.5 -15t35.5 -10.5t47.5 -10z" />
    <glyph glyph-name="t" unicode="t" horiz-adv-x="317" 
d="M312 39v-39q-34 -6 -72 -6q-27 0 -45.5 4.5t-38.5 19t-30.5 46t-10.5 79.5v250h-95v38h95v176h42v-176h139v-38h-139v-244q0 -70 23.5 -92.5t66.5 -22.5q37 0 65 5z" />
    <glyph glyph-name="u" unicode="u" horiz-adv-x="556" 
d="M425 431h43v-431h-43v112q-19 -52 -65 -87t-111 -35q-85 0 -129 52q-44 49 -44 138v251h43v-240q0 -73 36 -117.5t106 -44.5q76 0 120 56.5t44 126.5v219z" />
    <glyph glyph-name="v" unicode="v" horiz-adv-x="458" 
d="M11 431h46l171 -372l173 372h46l-202 -431h-34z" />
    <glyph glyph-name="w" unicode="w" horiz-adv-x="695" 
d="M483 0l-136 382l-136 -382h-33l-166 431h45l137 -370l132 370h43l131 -370l137 370h46l-166 -431h-34z" />
    <glyph glyph-name="x" unicode="x" horiz-adv-x="427" 
d="M238 216l159 -216h-50l-134 183l-133 -183h-50l158 216l-157 215h50l132 -182l133 182h50z" />
    <glyph glyph-name="y" unicode="y" horiz-adv-x="562" 
d="M280 -279q-102 0 -149.5 51.5t-49.5 155.5h42q4 -86 40.5 -127.5t117.5 -41.5q79 0 117 42.5t38 141.5v169q-19 -53 -64 -87.5t-110 -34.5q-88 0 -134 49q-41 44 -41 149v243h42v-233q0 -84 32.5 -126.5t112.5 -42.5q76 0 119 56.5t43 126.5v219h42v-488
q0 -118 -48.5 -170t-149.5 -52z" />
    <glyph glyph-name="z" unicode="z" horiz-adv-x="427" 
d="M41 431h352l-288 -392h291v-39h-368l288 391h-275v40z" />
    <glyph glyph-name="Agrave" unicode="&#xc0;" horiz-adv-x="534" 
d="M416 185l-149 449l-150 -449h299zM525 0h-46l-49 144h-327l-49 -144h-46l241 700h36z" />
    <glyph glyph-name="Aacute" unicode="&#xc1;" horiz-adv-x="534" 
d="M416 185l-149 449l-150 -449h299zM525 0h-46l-49 144h-327l-49 -144h-46l241 700h36z" />
    <glyph glyph-name="Acircumflex" unicode="&#xc2;" horiz-adv-x="534" 
d="M416 185l-149 449l-150 -449h299zM525 0h-46l-49 144h-327l-49 -144h-46l241 700h36z" />
    <glyph glyph-name="Atilde" unicode="&#xc3;" horiz-adv-x="534" 
d="M416 185l-149 449l-150 -449h299zM525 0h-46l-49 144h-327l-49 -144h-46l241 700h36z" />
    <glyph glyph-name="Adieresis" unicode="&#xc4;" horiz-adv-x="534" 
d="M416 185l-149 449l-150 -449h299zM525 0h-46l-49 144h-327l-49 -144h-46l241 700h36z" />
    <glyph glyph-name="Aring" unicode="&#xc5;" horiz-adv-x="534" 
d="M416 185l-149 449l-150 -449h299zM525 0h-46l-49 144h-327l-49 -144h-46l241 700h36z" />
    <glyph glyph-name="AE" unicode="&#xc6;" horiz-adv-x="1075" 
d="M416 185l-149 449l-150 -449h299zM525 0h-46l-49 144h-327l-49 -144h-46l241 700h36zM992 659h-326v-291h326v-41h-326v-286h326v-41h-370v700h370v-41z" />
    <glyph glyph-name="Ccedilla" unicode="&#xc7;" horiz-adv-x="774" 
d="M682 197h49q-32 -93 -118.5 -152t-202.5 -59q-165 0 -265 106t-100 259q0 148 97 255.5t255 107.5q138 0 223.5 -66.5t110.5 -173.5h-46q-24 89 -96.5 144t-187.5 55q-141 0 -226 -95t-85 -227q0 -136 88.5 -230t235.5 -94q93 0 166 47.5t102 122.5z" />
    <glyph glyph-name="Egrave" unicode="&#xc8;" horiz-adv-x="541" 
d="M458 659h-326v-291h326v-41h-326v-286h326v-41h-370v700h370v-41z" />
    <glyph glyph-name="Eacute" unicode="&#xc9;" horiz-adv-x="541" 
d="M458 659h-326v-291h326v-41h-326v-286h326v-41h-370v700h370v-41z" />
    <glyph glyph-name="Ecircumflex" unicode="&#xca;" horiz-adv-x="541" 
d="M458 659h-326v-291h326v-41h-326v-286h326v-41h-370v700h370v-41z" />
    <glyph glyph-name="Edieresis" unicode="&#xcb;" horiz-adv-x="541" 
d="M458 659h-326v-291h326v-41h-326v-286h326v-41h-370v700h370v-41z" />
    <glyph glyph-name="Igrave" unicode="&#xcc;" horiz-adv-x="221" 
d="M88 0v700h45v-700h-45z" />
    <glyph glyph-name="Iacute" unicode="&#xcd;" horiz-adv-x="221" 
d="M88 0v700h45v-700h-45z" />
    <glyph glyph-name="Icircumflex" unicode="&#xce;" horiz-adv-x="221" 
d="M88 0v700h45v-700h-45z" />
    <glyph glyph-name="Idieresis" unicode="&#xcf;" horiz-adv-x="221" 
d="M88 0v700h45v-700h-45z" />
    <glyph glyph-name="Eth" unicode="&#xd0;" horiz-adv-x="690" 
d="M88 700h193q84 0 154 -29.5t115 -79t69.5 -112t24.5 -129.5t-24.5 -129.5t-69.5 -112t-115 -79t-154 -29.5h-193v700zM281 659h-149v-618h149q145 0 232 92.5t87 216.5t-87 216.5t-232 92.5z" />
    <glyph glyph-name="Ntilde" unicode="&#xd1;" horiz-adv-x="660" 
d="M138 700l390 -626v626h44v-700h-49l-391 626v-626h-44v700h50z" />
    <glyph glyph-name="Ograve" unicode="&#xd2;" horiz-adv-x="809" 
d="M404 -14q-161 0 -260 108t-99 256t99 256t260 108q108 0 191.5 -52t125.5 -134t42 -178t-42 -178t-125.5 -134t-191.5 -52zM404 27q141 0 227.5 95.5t86.5 227.5t-86.5 227.5t-227.5 95.5t-227 -96t-86 -227t86 -227t227 -96z" />
    <glyph glyph-name="Oacute" unicode="&#xd3;" horiz-adv-x="809" 
d="M404 -14q-161 0 -260 108t-99 256t99 256t260 108q108 0 191.5 -52t125.5 -134t42 -178t-42 -178t-125.5 -134t-191.5 -52zM404 27q141 0 227.5 95.5t86.5 227.5t-86.5 227.5t-227.5 95.5t-227 -96t-86 -227t86 -227t227 -96z" />
    <glyph glyph-name="Ocircumflex" unicode="&#xd4;" horiz-adv-x="809" 
d="M404 -14q-161 0 -260 108t-99 256t99 256t260 108q108 0 191.5 -52t125.5 -134t42 -178t-42 -178t-125.5 -134t-191.5 -52zM404 27q141 0 227.5 95.5t86.5 227.5t-86.5 227.5t-227.5 95.5t-227 -96t-86 -227t86 -227t227 -96z" />
    <glyph glyph-name="Otilde" unicode="&#xd5;" horiz-adv-x="809" 
d="M404 -14q-161 0 -260 108t-99 256t99 256t260 108q108 0 191.5 -52t125.5 -134t42 -178t-42 -178t-125.5 -134t-191.5 -52zM404 27q141 0 227.5 95.5t86.5 227.5t-86.5 227.5t-227.5 95.5t-227 -96t-86 -227t86 -227t227 -96z" />
    <glyph glyph-name="Odieresis" unicode="&#xd6;" horiz-adv-x="809" 
d="M404 -14q-161 0 -260 108t-99 256t99 256t260 108q108 0 191.5 -52t125.5 -134t42 -178t-42 -178t-125.5 -134t-191.5 -52zM404 27q141 0 227.5 95.5t86.5 227.5t-86.5 227.5t-227.5 95.5t-227 -96t-86 -227t86 -227t227 -96z" />
    <glyph glyph-name="Oslash" unicode="&#xd8;" horiz-adv-x="809" 
d="M404 -14q-161 0 -260 108t-99 256t99 256t260 108q108 0 191.5 -52t125.5 -134t42 -178t-42 -178t-125.5 -134t-191.5 -52zM404 27q141 0 227.5 95.5t86.5 227.5t-86.5 227.5t-227.5 95.5t-227 -96t-86 -227t86 -227t227 -96z" />
    <glyph glyph-name="Ugrave" unicode="&#xd9;" horiz-adv-x="606" 
d="M75 212v488h44v-488q0 -77 51 -131t132 -54q83 0 134 54t51 131v488h44v-488q0 -94 -63.5 -160t-165.5 -66q-100 0 -163.5 66t-63.5 160z" />
    <glyph glyph-name="Uacute" unicode="&#xda;" horiz-adv-x="606" 
d="M75 212v488h44v-488q0 -77 51 -131t132 -54q83 0 134 54t51 131v488h44v-488q0 -94 -63.5 -160t-165.5 -66q-100 0 -163.5 66t-63.5 160z" />
    <glyph glyph-name="Ucircumflex" unicode="&#xdb;" horiz-adv-x="606" 
d="M75 212v488h44v-488q0 -77 51 -131t132 -54q83 0 134 54t51 131v488h44v-488q0 -94 -63.5 -160t-165.5 -66q-100 0 -163.5 66t-63.5 160z" />
    <glyph glyph-name="Udieresis" unicode="&#xdc;" horiz-adv-x="606" 
d="M75 212v488h44v-488q0 -77 51 -131t132 -54q83 0 134 54t51 131v488h44v-488q0 -94 -63.5 -160t-165.5 -66q-100 0 -163.5 66t-63.5 160z" />
    <glyph glyph-name="Yacute" unicode="&#xdd;" horiz-adv-x="548" 
d="M545 700l-362 -700h-49l143 275l-270 425h52l241 -380l197 380h48z" />
    <glyph glyph-name="Thorn" unicode="&#xde;" horiz-adv-x="595" 
d="M88 0v700h235q102 0 165 -65.5t63 -160.5q0 -94 -63 -159t-165 -65h-191v-250h-44zM323 291q82 0 133 53.5t51 129.5q0 78 -51 131.5t-133 53.5h-191v-368h191z" />
    <glyph glyph-name="germandbls" unicode="&#xdf;" horiz-adv-x="896" 
d="M240 232q33 -7 47 -10.5t39.5 -12.5t37 -20t21 -30.5t9.5 -44.5q0 -59 -43 -91.5t-121 -32.5q-80 0 -131 38.5t-51 117.5h42q0 -62 39 -90.5t102 -28.5q59 0 90.5 22.5t31.5 62.5q0 22 -10 37.5t-28.5 24.5t-40.5 15t-52 12q-10 2 -16 3q-36 7 -55.5 12.5t-43.5 18
t-34.5 33.5t-10.5 51q0 57 43 89.5t114 32.5q75 0 121.5 -38t46.5 -105h-42q0 51 -34 78.5t-91 27.5q-53 0 -85 -22.5t-32 -63.5q0 -17 7.5 -30t16 -20.5t30.5 -15t35.5 -10.5t47.5 -10zM688 232q33 -7 47 -10.5t39.5 -12.5t37 -20t21 -30.5t9.5 -44.5q0 -59 -43 -91.5
t-121 -32.5q-80 0 -131 38.5t-51 117.5h42q0 -62 39 -90.5t102 -28.5q59 0 90.5 22.5t31.5 62.5q0 22 -10 37.5t-28.5 24.5t-40.5 15t-52 12q-10 2 -16 3q-36 7 -55.5 12.5t-43.5 18t-34.5 33.5t-10.5 51q0 57 43 89.5t114 32.5q75 0 121.5 -38t46.5 -105h-42q0 51 -34 78.5
t-91 27.5q-53 0 -85 -22.5t-32 -63.5q0 -17 7.5 -30t16 -20.5t30.5 -15t35.5 -10.5t47.5 -10z" />
    <glyph glyph-name="agrave" unicode="&#xe0;" 
d="M270 30q83 0 134 54t51 131q0 78 -51 132t-134 54q-81 0 -131.5 -54t-50.5 -132q0 -77 50.5 -131t131.5 -54zM455 431h43v-431h-43v109q-22 -54 -71.5 -86.5t-114.5 -32.5q-99 0 -161.5 66t-62.5 159q0 94 62.5 160t161.5 66q65 0 114.5 -32.5t71.5 -87.5v110z" />
    <glyph glyph-name="aacute" unicode="&#xe1;" 
d="M270 30q83 0 134 54t51 131q0 78 -51 132t-134 54q-81 0 -131.5 -54t-50.5 -132q0 -77 50.5 -131t131.5 -54zM455 431h43v-431h-43v109q-22 -54 -71.5 -86.5t-114.5 -32.5q-99 0 -161.5 66t-62.5 159q0 94 62.5 160t161.5 66q65 0 114.5 -32.5t71.5 -87.5v110z" />
    <glyph glyph-name="acircumflex" unicode="&#xe2;" 
d="M270 30q83 0 134 54t51 131q0 78 -51 132t-134 54q-81 0 -131.5 -54t-50.5 -132q0 -77 50.5 -131t131.5 -54zM455 431h43v-431h-43v109q-22 -54 -71.5 -86.5t-114.5 -32.5q-99 0 -161.5 66t-62.5 159q0 94 62.5 160t161.5 66q65 0 114.5 -32.5t71.5 -87.5v110z" />
    <glyph glyph-name="atilde" unicode="&#xe3;" 
d="M270 30q83 0 134 54t51 131q0 78 -51 132t-134 54q-81 0 -131.5 -54t-50.5 -132q0 -77 50.5 -131t131.5 -54zM455 431h43v-431h-43v109q-22 -54 -71.5 -86.5t-114.5 -32.5q-99 0 -161.5 66t-62.5 159q0 94 62.5 160t161.5 66q65 0 114.5 -32.5t71.5 -87.5v110z" />
    <glyph glyph-name="adieresis" unicode="&#xe4;" 
d="M270 30q83 0 134 54t51 131q0 78 -51 132t-134 54q-81 0 -131.5 -54t-50.5 -132q0 -77 50.5 -131t131.5 -54zM455 431h43v-431h-43v109q-22 -54 -71.5 -86.5t-114.5 -32.5q-99 0 -161.5 66t-62.5 159q0 94 62.5 160t161.5 66q65 0 114.5 -32.5t71.5 -87.5v110z" />
    <glyph glyph-name="aring" unicode="&#xe5;" 
d="M270 30q83 0 134 54t51 131q0 78 -51 132t-134 54q-81 0 -131.5 -54t-50.5 -132q0 -77 50.5 -131t131.5 -54zM455 431h43v-431h-43v109q-22 -54 -71.5 -86.5t-114.5 -32.5q-99 0 -161.5 66t-62.5 159q0 94 62.5 160t161.5 66q65 0 114.5 -32.5t71.5 -87.5v110z" />
    <glyph glyph-name="ae" unicode="&#xe6;" horiz-adv-x="1099" 
d="M270 30q83 0 134 54t51 131q0 78 -51 132t-134 54q-81 0 -131.5 -54t-50.5 -132q0 -77 50.5 -131t131.5 -54zM455 431h43v-431h-43v109q-22 -54 -71.5 -86.5t-114.5 -32.5q-99 0 -161.5 66t-62.5 159q0 94 62.5 160t161.5 66q65 0 114.5 -32.5t71.5 -87.5v110zM1044 211
h-366q1 -78 44.5 -130.5t127.5 -52.5q56 0 94 26.5t52 66.5h44q-13 -56 -64 -93.5t-126 -37.5q-103 0 -158.5 65t-55.5 161q0 99 56 162t155 63q83 0 141 -55.5t58 -137.5q0 -21 -2 -37zM846 406q-73 0 -117.5 -43.5t-49.5 -115.5h325q0 70 -45.5 114.5t-112.5 44.5z" />
    <glyph glyph-name="ccedilla" unicode="&#xe7;" horiz-adv-x="519" 
d="M465 274h-43q-6 55 -44.5 91.5t-113.5 36.5q-80 0 -126 -54.5t-46 -131.5q0 -78 45.5 -132t128.5 -54q135 0 158 118h43q-10 -71 -61.5 -114.5t-141.5 -43.5q-100 0 -157 66.5t-57 159.5t57 159t157 66q95 0 144.5 -48t56.5 -119z" />
    <glyph glyph-name="egrave" unicode="&#xe8;" horiz-adv-x="513" 
d="M458 211h-366q1 -78 44.5 -130.5t127.5 -52.5q56 0 94 26.5t52 66.5h44q-13 -56 -64 -93.5t-126 -37.5q-103 0 -158.5 65t-55.5 161q0 99 56 162t155 63q83 0 141 -55.5t58 -137.5q0 -21 -2 -37zM260 406q-73 0 -117.5 -43.5t-49.5 -115.5h325q0 70 -45.5 114.5
t-112.5 44.5z" />
    <glyph glyph-name="eacute" unicode="&#xe9;" horiz-adv-x="513" 
d="M458 211h-366q1 -78 44.5 -130.5t127.5 -52.5q56 0 94 26.5t52 66.5h44q-13 -56 -64 -93.5t-126 -37.5q-103 0 -158.5 65t-55.5 161q0 99 56 162t155 63q83 0 141 -55.5t58 -137.5q0 -21 -2 -37zM260 406q-73 0 -117.5 -43.5t-49.5 -115.5h325q0 70 -45.5 114.5
t-112.5 44.5z" />
    <glyph glyph-name="ecircumflex" unicode="&#xea;" horiz-adv-x="513" 
d="M458 211h-366q1 -78 44.5 -130.5t127.5 -52.5q56 0 94 26.5t52 66.5h44q-13 -56 -64 -93.5t-126 -37.5q-103 0 -158.5 65t-55.5 161q0 99 56 162t155 63q83 0 141 -55.5t58 -137.5q0 -21 -2 -37zM260 406q-73 0 -117.5 -43.5t-49.5 -115.5h325q0 70 -45.5 114.5
t-112.5 44.5z" />
    <glyph glyph-name="edieresis" unicode="&#xeb;" horiz-adv-x="513" 
d="M458 211h-366q1 -78 44.5 -130.5t127.5 -52.5q56 0 94 26.5t52 66.5h44q-13 -56 -64 -93.5t-126 -37.5q-103 0 -158.5 65t-55.5 161q0 99 56 162t155 63q83 0 141 -55.5t58 -137.5q0 -21 -2 -37zM260 406q-73 0 -117.5 -43.5t-49.5 -115.5h325q0 70 -45.5 114.5
t-112.5 44.5z" />
    <glyph glyph-name="igrave" unicode="&#xec;" horiz-adv-x="218" 
d="M60 606q0 21 14.5 35.5t34.5 14.5q21 0 35.5 -14.5t14.5 -35.5q0 -20 -14.5 -34.5t-35.5 -14.5q-20 0 -34.5 14.5t-14.5 34.5zM88 0v431h42v-431h-42z" />
    <glyph glyph-name="iacute" unicode="&#xed;" horiz-adv-x="218" 
d="M60 606q0 21 14.5 35.5t34.5 14.5q21 0 35.5 -14.5t14.5 -35.5q0 -20 -14.5 -34.5t-35.5 -14.5q-20 0 -34.5 14.5t-14.5 34.5zM88 0v431h42v-431h-42z" />
    <glyph glyph-name="icircumflex" unicode="&#xee;" horiz-adv-x="218" 
d="M60 606q0 21 14.5 35.5t34.5 14.5q21 0 35.5 -14.5t14.5 -35.5q0 -20 -14.5 -34.5t-35.5 -14.5q-20 0 -34.5 14.5t-14.5 34.5zM88 0v431h42v-431h-42z" />
    <glyph glyph-name="idieresis" unicode="&#xef;" horiz-adv-x="218" 
d="M60 606q0 21 14.5 35.5t34.5 14.5q21 0 35.5 -14.5t14.5 -35.5q0 -20 -14.5 -34.5t-35.5 -14.5q-20 0 -34.5 14.5t-14.5 34.5zM88 0v431h42v-431h-42z" />
    <glyph glyph-name="ntilde" unicode="&#xf1;" horiz-adv-x="558" 
d="M88 0v431h42v-112q18 52 64.5 87t111.5 35q86 0 130 -52q43 -47 43 -138v-251h-42v240q0 72 -36 116.5t-106 44.5q-77 0 -121 -56t-44 -126v-219h-42z" />
    <glyph glyph-name="ograve" unicode="&#xf2;" horiz-adv-x="543" 
d="M270 -10q-99 0 -162 66t-63 159q0 94 62.5 160t162.5 66q102 0 165 -66t63 -160t-63.5 -159.5t-164.5 -65.5zM270 30q83 0 134 54t51 131q0 78 -51 132t-134 54q-81 0 -131.5 -54t-50.5 -132q0 -77 50.5 -131t131.5 -54z" />
    <glyph glyph-name="oacute" unicode="&#xf3;" horiz-adv-x="543" 
d="M270 -10q-99 0 -162 66t-63 159q0 94 62.5 160t162.5 66q102 0 165 -66t63 -160t-63.5 -159.5t-164.5 -65.5zM270 30q83 0 134 54t51 131q0 78 -51 132t-134 54q-81 0 -131.5 -54t-50.5 -132q0 -77 50.5 -131t131.5 -54z" />
    <glyph glyph-name="ocircumflex" unicode="&#xf4;" horiz-adv-x="543" 
d="M270 -10q-99 0 -162 66t-63 159q0 94 62.5 160t162.5 66q102 0 165 -66t63 -160t-63.5 -159.5t-164.5 -65.5zM270 30q83 0 134 54t51 131q0 78 -51 132t-134 54q-81 0 -131.5 -54t-50.5 -132q0 -77 50.5 -131t131.5 -54z" />
    <glyph glyph-name="otilde" unicode="&#xf5;" horiz-adv-x="543" 
d="M270 -10q-99 0 -162 66t-63 159q0 94 62.5 160t162.5 66q102 0 165 -66t63 -160t-63.5 -159.5t-164.5 -65.5zM270 30q83 0 134 54t51 131q0 78 -51 132t-134 54q-81 0 -131.5 -54t-50.5 -132q0 -77 50.5 -131t131.5 -54z" />
    <glyph glyph-name="odieresis" unicode="&#xf6;" horiz-adv-x="543" 
d="M270 -10q-99 0 -162 66t-63 159q0 94 62.5 160t162.5 66q102 0 165 -66t63 -160t-63.5 -159.5t-164.5 -65.5zM270 30q83 0 134 54t51 131q0 78 -51 132t-134 54q-81 0 -131.5 -54t-50.5 -132q0 -77 50.5 -131t131.5 -54z" />
    <glyph glyph-name="oslash" unicode="&#xf8;" horiz-adv-x="543" 
d="M270 -10q-99 0 -162 66t-63 159q0 94 62.5 160t162.5 66q102 0 165 -66t63 -160t-63.5 -159.5t-164.5 -65.5zM270 30q83 0 134 54t51 131q0 78 -51 132t-134 54q-81 0 -131.5 -54t-50.5 -132q0 -77 50.5 -131t131.5 -54z" />
    <glyph glyph-name="ugrave" unicode="&#xf9;" horiz-adv-x="556" 
d="M425 431h43v-431h-43v112q-19 -52 -65 -87t-111 -35q-85 0 -129 52q-44 49 -44 138v251h43v-240q0 -73 36 -117.5t106 -44.5q76 0 120 56.5t44 126.5v219z" />
    <glyph glyph-name="uacute" unicode="&#xfa;" horiz-adv-x="556" 
d="M425 431h43v-431h-43v112q-19 -52 -65 -87t-111 -35q-85 0 -129 52q-44 49 -44 138v251h43v-240q0 -73 36 -117.5t106 -44.5q76 0 120 56.5t44 126.5v219z" />
    <glyph glyph-name="ucircumflex" unicode="&#xfb;" horiz-adv-x="556" 
d="M425 431h43v-431h-43v112q-19 -52 -65 -87t-111 -35q-85 0 -129 52q-44 49 -44 138v251h43v-240q0 -73 36 -117.5t106 -44.5q76 0 120 56.5t44 126.5v219z" />
    <glyph glyph-name="udieresis" unicode="&#xfc;" horiz-adv-x="556" 
d="M425 431h43v-431h-43v112q-19 -52 -65 -87t-111 -35q-85 0 -129 52q-44 49 -44 138v251h43v-240q0 -73 36 -117.5t106 -44.5q76 0 120 56.5t44 126.5v219z" />
    <glyph glyph-name="yacute" unicode="&#xfd;" horiz-adv-x="562" 
d="M280 -279q-102 0 -149.5 51.5t-49.5 155.5h42q4 -86 40.5 -127.5t117.5 -41.5q79 0 117 42.5t38 141.5v169q-19 -53 -64 -87.5t-110 -34.5q-88 0 -134 49q-41 44 -41 149v243h42v-233q0 -84 32.5 -126.5t112.5 -42.5q76 0 119 56.5t43 126.5v219h42v-488
q0 -118 -48.5 -170t-149.5 -52z" />
    <glyph glyph-name="thorn" unicode="&#xfe;" 
d="M316 401q-83 0 -134.5 -54t-51.5 -131q0 -78 51.5 -132t134.5 -54q81 0 131.5 54t50.5 132q0 77 -50.5 131t-131.5 54zM130 431v-110q22 54 72 87t115 33q99 0 161 -66t62 -159q0 -94 -62 -160t-161 -66q-65 0 -115 33t-72 87v-379h-42v700h42z" />
    <glyph glyph-name="ydieresis" unicode="&#xff;" horiz-adv-x="562" 
d="M280 -279q-102 0 -149.5 51.5t-49.5 155.5h42q4 -86 40.5 -127.5t117.5 -41.5q79 0 117 42.5t38 141.5v169q-19 -53 -64 -87.5t-110 -34.5q-88 0 -134 49q-41 44 -41 149v243h42v-233q0 -84 32.5 -126.5t112.5 -42.5q76 0 119 56.5t43 126.5v219h42v-488
q0 -118 -48.5 -170t-149.5 -52z" />
    <glyph glyph-name="Amacron" unicode="&#x100;" horiz-adv-x="534" 
d="M416 185l-149 449l-150 -449h299zM525 0h-46l-49 144h-327l-49 -144h-46l241 700h36z" />
    <glyph glyph-name="amacron" unicode="&#x101;" 
d="M270 30q83 0 134 54t51 131q0 78 -51 132t-134 54q-81 0 -131.5 -54t-50.5 -132q0 -77 50.5 -131t131.5 -54zM455 431h43v-431h-43v109q-22 -54 -71.5 -86.5t-114.5 -32.5q-99 0 -161.5 66t-62.5 159q0 94 62.5 160t161.5 66q65 0 114.5 -32.5t71.5 -87.5v110z" />
    <glyph glyph-name="Abreve" unicode="&#x102;" horiz-adv-x="534" 
d="M416 185l-149 449l-150 -449h299zM525 0h-46l-49 144h-327l-49 -144h-46l241 700h36z" />
    <glyph glyph-name="abreve" unicode="&#x103;" 
d="M270 30q83 0 134 54t51 131q0 78 -51 132t-134 54q-81 0 -131.5 -54t-50.5 -132q0 -77 50.5 -131t131.5 -54zM455 431h43v-431h-43v109q-22 -54 -71.5 -86.5t-114.5 -32.5q-99 0 -161.5 66t-62.5 159q0 94 62.5 160t161.5 66q65 0 114.5 -32.5t71.5 -87.5v110z" />
    <glyph glyph-name="Aogonek" unicode="&#x104;" horiz-adv-x="534" 
d="M416 185l-149 449l-150 -449h299zM525 0h-46l-49 144h-327l-49 -144h-46l241 700h36z" />
    <glyph glyph-name="aogonek" unicode="&#x105;" 
d="M270 30q83 0 134 54t51 131q0 78 -51 132t-134 54q-81 0 -131.5 -54t-50.5 -132q0 -77 50.5 -131t131.5 -54zM455 431h43v-431h-43v109q-22 -54 -71.5 -86.5t-114.5 -32.5q-99 0 -161.5 66t-62.5 159q0 94 62.5 160t161.5 66q65 0 114.5 -32.5t71.5 -87.5v110z" />
    <glyph glyph-name="Cacute" unicode="&#x106;" horiz-adv-x="774" 
d="M682 197h49q-32 -93 -118.5 -152t-202.5 -59q-165 0 -265 106t-100 259q0 148 97 255.5t255 107.5q138 0 223.5 -66.5t110.5 -173.5h-46q-24 89 -96.5 144t-187.5 55q-141 0 -226 -95t-85 -227q0 -136 88.5 -230t235.5 -94q93 0 166 47.5t102 122.5z" />
    <glyph glyph-name="cacute" unicode="&#x107;" horiz-adv-x="519" 
d="M465 274h-43q-6 55 -44.5 91.5t-113.5 36.5q-80 0 -126 -54.5t-46 -131.5q0 -78 45.5 -132t128.5 -54q135 0 158 118h43q-10 -71 -61.5 -114.5t-141.5 -43.5q-100 0 -157 66.5t-57 159.5t57 159t157 66q95 0 144.5 -48t56.5 -119z" />
    <glyph glyph-name="Ccircumflex" unicode="&#x108;" horiz-adv-x="774" 
d="M682 197h49q-32 -93 -118.5 -152t-202.5 -59q-165 0 -265 106t-100 259q0 148 97 255.5t255 107.5q138 0 223.5 -66.5t110.5 -173.5h-46q-24 89 -96.5 144t-187.5 55q-141 0 -226 -95t-85 -227q0 -136 88.5 -230t235.5 -94q93 0 166 47.5t102 122.5z" />
    <glyph glyph-name="ccircumflex" unicode="&#x109;" horiz-adv-x="519" 
d="M465 274h-43q-6 55 -44.5 91.5t-113.5 36.5q-80 0 -126 -54.5t-46 -131.5q0 -78 45.5 -132t128.5 -54q135 0 158 118h43q-10 -71 -61.5 -114.5t-141.5 -43.5q-100 0 -157 66.5t-57 159.5t57 159t157 66q95 0 144.5 -48t56.5 -119z" />
    <glyph glyph-name="Cdotaccent" unicode="&#x10a;" horiz-adv-x="774" 
d="M682 197h49q-32 -93 -118.5 -152t-202.5 -59q-165 0 -265 106t-100 259q0 148 97 255.5t255 107.5q138 0 223.5 -66.5t110.5 -173.5h-46q-24 89 -96.5 144t-187.5 55q-141 0 -226 -95t-85 -227q0 -136 88.5 -230t235.5 -94q93 0 166 47.5t102 122.5z" />
    <glyph glyph-name="cdotaccent" unicode="&#x10b;" horiz-adv-x="519" 
d="M465 274h-43q-6 55 -44.5 91.5t-113.5 36.5q-80 0 -126 -54.5t-46 -131.5q0 -78 45.5 -132t128.5 -54q135 0 158 118h43q-10 -71 -61.5 -114.5t-141.5 -43.5q-100 0 -157 66.5t-57 159.5t57 159t157 66q95 0 144.5 -48t56.5 -119z" />
    <glyph glyph-name="Ccaron" unicode="&#x10c;" horiz-adv-x="774" 
d="M682 197h49q-32 -93 -118.5 -152t-202.5 -59q-165 0 -265 106t-100 259q0 148 97 255.5t255 107.5q138 0 223.5 -66.5t110.5 -173.5h-46q-24 89 -96.5 144t-187.5 55q-141 0 -226 -95t-85 -227q0 -136 88.5 -230t235.5 -94q93 0 166 47.5t102 122.5z" />
    <glyph glyph-name="ccaron" unicode="&#x10d;" horiz-adv-x="519" 
d="M465 274h-43q-6 55 -44.5 91.5t-113.5 36.5q-80 0 -126 -54.5t-46 -131.5q0 -78 45.5 -132t128.5 -54q135 0 158 118h43q-10 -71 -61.5 -114.5t-141.5 -43.5q-100 0 -157 66.5t-57 159.5t57 159t157 66q95 0 144.5 -48t56.5 -119z" />
    <glyph glyph-name="Dcaron" unicode="&#x10e;" horiz-adv-x="690" 
d="M88 700h193q84 0 154 -29.5t115 -79t69.5 -112t24.5 -129.5t-24.5 -129.5t-69.5 -112t-115 -79t-154 -29.5h-193v700zM281 659h-149v-618h149q145 0 232 92.5t87 216.5t-87 216.5t-232 92.5z" />
    <glyph glyph-name="dcaron" unicode="&#x10f;" 
d="M270 30q83 0 134 54t51 131q0 78 -51 132t-134 54q-81 0 -131.5 -54t-50.5 -132q0 -77 50.5 -131t131.5 -54zM455 0v109q-22 -54 -71.5 -86.5t-114.5 -32.5q-99 0 -161.5 66t-62.5 159q0 94 62.5 160t161.5 66q65 0 114.5 -32.5t71.5 -87.5v379h43v-700h-43z" />
    <glyph glyph-name="Dcroat" unicode="&#x110;" horiz-adv-x="690" 
d="M88 700h193q84 0 154 -29.5t115 -79t69.5 -112t24.5 -129.5t-24.5 -129.5t-69.5 -112t-115 -79t-154 -29.5h-193v700zM281 659h-149v-618h149q145 0 232 92.5t87 216.5t-87 216.5t-232 92.5z" />
    <glyph glyph-name="dcroat" unicode="&#x111;" 
d="M270 30q83 0 134 54t51 131q0 78 -51 132t-134 54q-81 0 -131.5 -54t-50.5 -132q0 -77 50.5 -131t131.5 -54zM455 0v109q-22 -54 -71.5 -86.5t-114.5 -32.5q-99 0 -161.5 66t-62.5 159q0 94 62.5 160t161.5 66q65 0 114.5 -32.5t71.5 -87.5v379h43v-700h-43z" />
    <glyph glyph-name="Emacron" unicode="&#x112;" horiz-adv-x="541" 
d="M458 659h-326v-291h326v-41h-326v-286h326v-41h-370v700h370v-41z" />
    <glyph glyph-name="emacron" unicode="&#x113;" horiz-adv-x="513" 
d="M458 211h-366q1 -78 44.5 -130.5t127.5 -52.5q56 0 94 26.5t52 66.5h44q-13 -56 -64 -93.5t-126 -37.5q-103 0 -158.5 65t-55.5 161q0 99 56 162t155 63q83 0 141 -55.5t58 -137.5q0 -21 -2 -37zM260 406q-73 0 -117.5 -43.5t-49.5 -115.5h325q0 70 -45.5 114.5
t-112.5 44.5z" />
    <glyph glyph-name="Ebreve" unicode="&#x114;" horiz-adv-x="541" 
d="M458 659h-326v-291h326v-41h-326v-286h326v-41h-370v700h370v-41z" />
    <glyph glyph-name="ebreve" unicode="&#x115;" horiz-adv-x="513" 
d="M458 211h-366q1 -78 44.5 -130.5t127.5 -52.5q56 0 94 26.5t52 66.5h44q-13 -56 -64 -93.5t-126 -37.5q-103 0 -158.5 65t-55.5 161q0 99 56 162t155 63q83 0 141 -55.5t58 -137.5q0 -21 -2 -37zM260 406q-73 0 -117.5 -43.5t-49.5 -115.5h325q0 70 -45.5 114.5
t-112.5 44.5z" />
    <glyph glyph-name="Edotaccent" unicode="&#x116;" horiz-adv-x="541" 
d="M458 659h-326v-291h326v-41h-326v-286h326v-41h-370v700h370v-41z" />
    <glyph glyph-name="edotaccent" unicode="&#x117;" horiz-adv-x="513" 
d="M458 211h-366q1 -78 44.5 -130.5t127.5 -52.5q56 0 94 26.5t52 66.5h44q-13 -56 -64 -93.5t-126 -37.5q-103 0 -158.5 65t-55.5 161q0 99 56 162t155 63q83 0 141 -55.5t58 -137.5q0 -21 -2 -37zM260 406q-73 0 -117.5 -43.5t-49.5 -115.5h325q0 70 -45.5 114.5
t-112.5 44.5z" />
    <glyph glyph-name="Eogonek" unicode="&#x118;" horiz-adv-x="541" 
d="M458 659h-326v-291h326v-41h-326v-286h326v-41h-370v700h370v-41z" />
    <glyph glyph-name="eogonek" unicode="&#x119;" horiz-adv-x="513" 
d="M458 211h-366q1 -78 44.5 -130.5t127.5 -52.5q56 0 94 26.5t52 66.5h44q-13 -56 -64 -93.5t-126 -37.5q-103 0 -158.5 65t-55.5 161q0 99 56 162t155 63q83 0 141 -55.5t58 -137.5q0 -21 -2 -37zM260 406q-73 0 -117.5 -43.5t-49.5 -115.5h325q0 70 -45.5 114.5
t-112.5 44.5z" />
    <glyph glyph-name="Ecaron" unicode="&#x11a;" horiz-adv-x="541" 
d="M458 659h-326v-291h326v-41h-326v-286h326v-41h-370v700h370v-41z" />
    <glyph glyph-name="ecaron" unicode="&#x11b;" horiz-adv-x="513" 
d="M458 211h-366q1 -78 44.5 -130.5t127.5 -52.5q56 0 94 26.5t52 66.5h44q-13 -56 -64 -93.5t-126 -37.5q-103 0 -158.5 65t-55.5 161q0 99 56 162t155 63q83 0 141 -55.5t58 -137.5q0 -21 -2 -37zM260 406q-73 0 -117.5 -43.5t-49.5 -115.5h325q0 70 -45.5 114.5
t-112.5 44.5z" />
    <glyph glyph-name="Gcircumflex" unicode="&#x11c;" horiz-adv-x="831" 
d="M453 269v41h346v-41h-72q-15 -131 -97.5 -207t-227.5 -76q-84 0 -152.5 30t-112.5 81t-68 116t-24 137q0 149 98.5 256.5t258.5 107.5q106 0 184 -51t100 -130h-45q-22 61 -87 100.5t-152 39.5q-141 0 -226.5 -95.5t-85.5 -227.5q0 -134 84.5 -228.5t231.5 -94.5
q123 0 193 65.5t82 176.5h-228z" />
    <glyph glyph-name="gcircumflex" unicode="&#x11d;" horiz-adv-x="585" 
d="M270 401q-81 0 -131.5 -54t-50.5 -131q0 -78 50.5 -132t131.5 -54q83 0 134 54t51 132q0 77 -51 131t-134 54zM498 431v-471q0 -126 -59 -182.5t-171 -56.5q-109 0 -161.5 59t-56.5 151h42q4 -75 46 -122.5t130 -47.5q92 0 139.5 46.5t47.5 152.5v150
q-22 -55 -71.5 -87.5t-114.5 -32.5q-99 0 -161.5 66t-62.5 160q0 93 62.5 159t161.5 66q65 0 114.5 -32.5t71.5 -87.5v110h43z" />
    <glyph glyph-name="Gbreve" unicode="&#x11e;" horiz-adv-x="831" 
d="M453 269v41h346v-41h-72q-15 -131 -97.5 -207t-227.5 -76q-84 0 -152.5 30t-112.5 81t-68 116t-24 137q0 149 98.5 256.5t258.5 107.5q106 0 184 -51t100 -130h-45q-22 61 -87 100.5t-152 39.5q-141 0 -226.5 -95.5t-85.5 -227.5q0 -134 84.5 -228.5t231.5 -94.5
q123 0 193 65.5t82 176.5h-228z" />
    <glyph glyph-name="gbreve" unicode="&#x11f;" horiz-adv-x="585" 
d="M270 401q-81 0 -131.5 -54t-50.5 -131q0 -78 50.5 -132t131.5 -54q83 0 134 54t51 132q0 77 -51 131t-134 54zM498 431v-471q0 -126 -59 -182.5t-171 -56.5q-109 0 -161.5 59t-56.5 151h42q4 -75 46 -122.5t130 -47.5q92 0 139.5 46.5t47.5 152.5v150
q-22 -55 -71.5 -87.5t-114.5 -32.5q-99 0 -161.5 66t-62.5 160q0 93 62.5 159t161.5 66q65 0 114.5 -32.5t71.5 -87.5v110h43z" />
    <glyph glyph-name="Gdotaccent" unicode="&#x120;" horiz-adv-x="831" 
d="M453 269v41h346v-41h-72q-15 -131 -97.5 -207t-227.5 -76q-84 0 -152.5 30t-112.5 81t-68 116t-24 137q0 149 98.5 256.5t258.5 107.5q106 0 184 -51t100 -130h-45q-22 61 -87 100.5t-152 39.5q-141 0 -226.5 -95.5t-85.5 -227.5q0 -134 84.5 -228.5t231.5 -94.5
q123 0 193 65.5t82 176.5h-228z" />
    <glyph glyph-name="gdotaccent" unicode="&#x121;" horiz-adv-x="585" 
d="M270 401q-81 0 -131.5 -54t-50.5 -131q0 -78 50.5 -132t131.5 -54q83 0 134 54t51 132q0 77 -51 131t-134 54zM498 431v-471q0 -126 -59 -182.5t-171 -56.5q-109 0 -161.5 59t-56.5 151h42q4 -75 46 -122.5t130 -47.5q92 0 139.5 46.5t47.5 152.5v150
q-22 -55 -71.5 -87.5t-114.5 -32.5q-99 0 -161.5 66t-62.5 160q0 93 62.5 159t161.5 66q65 0 114.5 -32.5t71.5 -87.5v110h43z" />
    <glyph glyph-name="Gcommaaccent" unicode="&#x122;" horiz-adv-x="831" 
d="M453 269v41h346v-41h-72q-15 -131 -97.5 -207t-227.5 -76q-84 0 -152.5 30t-112.5 81t-68 116t-24 137q0 149 98.5 256.5t258.5 107.5q106 0 184 -51t100 -130h-45q-22 61 -87 100.5t-152 39.5q-141 0 -226.5 -95.5t-85.5 -227.5q0 -134 84.5 -228.5t231.5 -94.5
q123 0 193 65.5t82 176.5h-228z" />
    <glyph glyph-name="gcommaaccent" unicode="&#x123;" horiz-adv-x="585" 
d="M270 401q-81 0 -131.5 -54t-50.5 -131q0 -78 50.5 -132t131.5 -54q83 0 134 54t51 132q0 77 -51 131t-134 54zM498 431v-471q0 -126 -59 -182.5t-171 -56.5q-109 0 -161.5 59t-56.5 151h42q4 -75 46 -122.5t130 -47.5q92 0 139.5 46.5t47.5 152.5v150
q-22 -55 -71.5 -87.5t-114.5 -32.5q-99 0 -161.5 66t-62.5 160q0 93 62.5 159t161.5 66q65 0 114.5 -32.5t71.5 -87.5v110h43z" />
    <glyph glyph-name="Hcircumflex" unicode="&#x124;" horiz-adv-x="661" 
d="M529 0v327h-397v-327h-44v700h44v-332h397v332h44v-700h-44z" />
    <glyph glyph-name="hcircumflex" unicode="&#x125;" horiz-adv-x="558" 
d="M88 0v700h42v-381q18 52 64.5 87t111.5 35q86 0 130 -52q43 -47 43 -138v-251h-42v240q0 72 -36 116.5t-106 44.5q-77 0 -121 -56t-44 -126v-219h-42z" />
    <glyph glyph-name="Hbar" unicode="&#x126;" horiz-adv-x="661" 
d="M529 0v327h-397v-327h-44v700h44v-332h397v332h44v-700h-44z" />
    <glyph glyph-name="hbar" unicode="&#x127;" horiz-adv-x="558" 
d="M88 0v700h42v-381q18 52 64.5 87t111.5 35q86 0 130 -52q43 -47 43 -138v-251h-42v240q0 72 -36 116.5t-106 44.5q-77 0 -121 -56t-44 -126v-219h-42z" />
    <glyph glyph-name="Itilde" unicode="&#x128;" horiz-adv-x="221" 
d="M88 0v700h45v-700h-45z" />
    <glyph glyph-name="itilde" unicode="&#x129;" horiz-adv-x="218" 
d="M60 606q0 21 14.5 35.5t34.5 14.5q21 0 35.5 -14.5t14.5 -35.5q0 -20 -14.5 -34.5t-35.5 -14.5q-20 0 -34.5 14.5t-14.5 34.5zM88 0v431h42v-431h-42z" />
    <glyph glyph-name="Imacron" unicode="&#x12a;" horiz-adv-x="221" 
d="M88 0v700h45v-700h-45z" />
    <glyph glyph-name="imacron" unicode="&#x12b;" horiz-adv-x="218" 
d="M60 606q0 21 14.5 35.5t34.5 14.5q21 0 35.5 -14.5t14.5 -35.5q0 -20 -14.5 -34.5t-35.5 -14.5q-20 0 -34.5 14.5t-14.5 34.5zM88 0v431h42v-431h-42z" />
    <glyph glyph-name="Ibreve" unicode="&#x12c;" horiz-adv-x="221" 
d="M88 0v700h45v-700h-45z" />
    <glyph glyph-name="ibreve" unicode="&#x12d;" horiz-adv-x="218" 
d="M60 606q0 21 14.5 35.5t34.5 14.5q21 0 35.5 -14.5t14.5 -35.5q0 -20 -14.5 -34.5t-35.5 -14.5q-20 0 -34.5 14.5t-14.5 34.5zM88 0v431h42v-431h-42z" />
    <glyph glyph-name="Iogonek" unicode="&#x12e;" horiz-adv-x="221" 
d="M88 0v700h45v-700h-45z" />
    <glyph glyph-name="iogonek" unicode="&#x12f;" horiz-adv-x="218" 
d="M60 606q0 21 14.5 35.5t34.5 14.5q21 0 35.5 -14.5t14.5 -35.5q0 -20 -14.5 -34.5t-35.5 -14.5q-20 0 -34.5 14.5t-14.5 34.5zM88 0v431h42v-431h-42z" />
    <glyph glyph-name="Idotaccent" unicode="&#x130;" horiz-adv-x="221" 
d="M88 0v700h45v-700h-45z" />
    <glyph glyph-name="dotlessi" unicode="&#x131;" horiz-adv-x="218" 
d="M60 606q0 21 14.5 35.5t34.5 14.5q21 0 35.5 -14.5t14.5 -35.5q0 -20 -14.5 -34.5t-35.5 -14.5q-20 0 -34.5 14.5t-14.5 34.5zM88 0v431h42v-431h-42z" />
    <glyph glyph-name="IJ" unicode="&#x132;" horiz-adv-x="756" 
d="M88 0v700h45v-700h-45zM681 700v-489q0 -103 -59.5 -164t-156.5 -61q-96 0 -161 62t-65 163h44q0 -84 52.5 -134t129.5 -50t124.5 49.5t47.5 134.5v489h44z" />
    <glyph glyph-name="ij" unicode="&#x133;" horiz-adv-x="436" 
d="M60 606q0 21 14.5 35.5t34.5 14.5q21 0 35.5 -14.5t14.5 -35.5q0 -20 -14.5 -34.5t-35.5 -14.5q-20 0 -34.5 14.5t-14.5 34.5zM88 0v431h42v-431h-42zM279 606q0 21 14 35.5t35 14.5t35 -14.5t14 -35.5q0 -20 -14 -34.5t-35 -14.5t-35 14.5t-14 34.5zM348 431v-579
q0 -61 -27.5 -94t-72.5 -33q-41 0 -66 12v41q29 -13 57 -13q31 0 49 24.5t18 66.5v575h42z" />
    <glyph glyph-name="Jcircumflex" unicode="&#x134;" horiz-adv-x="535" 
d="M460 700v-489q0 -103 -59.5 -164t-156.5 -61q-96 0 -161 62t-65 163h44q0 -84 52.5 -134t129.5 -50q78 0 125 49.5t47 134.5v489h44z" />
    <glyph glyph-name="jcircumflex" unicode="&#x135;" horiz-adv-x="218" 
d="M61 606q0 21 14 35.5t35 14.5t35 -14.5t14 -35.5q0 -20 -14 -34.5t-35 -14.5t-35 14.5t-14 34.5zM130 431v-579q0 -61 -27.5 -94t-72.5 -33q-41 0 -66 12v41q29 -13 57 -13q31 0 49 24.5t18 66.5v575h42z" />
    <glyph glyph-name="Kcommaaccent" unicode="&#x136;" horiz-adv-x="556" 
d="M492 0l-360 339v-339h-44v700h44v-339l360 339h59l-370 -350l370 -350h-59z" />
    <glyph glyph-name="kcommaaccent" unicode="&#x137;" horiz-adv-x="432" 
d="M416 431l-233 -216l233 -215h-59l-227 208v-208h-42v700h42v-478l227 209h59z" />
    <glyph glyph-name="kgreenlandic" unicode="&#x138;" horiz-adv-x="432" 
d="M416 431l-233 -216l233 -215h-59l-227 208v-208h-42v700h42v-478l227 209h59z" />
    <glyph glyph-name="Lacute" unicode="&#x139;" horiz-adv-x="418" 
d="M132 41h253v-41h-297v700h44v-659z" />
    <glyph glyph-name="lacute" unicode="&#x13a;" horiz-adv-x="218" 
d="M88 0v700h42v-700h-42z" />
    <glyph glyph-name="Lcommaaccent" unicode="&#x13b;" horiz-adv-x="418" 
d="M132 41h253v-41h-297v700h44v-659z" />
    <glyph glyph-name="lcommaaccent" unicode="&#x13c;" horiz-adv-x="218" 
d="M88 0v700h42v-700h-42z" />
    <glyph glyph-name="Lcaron" unicode="&#x13d;" horiz-adv-x="418" 
d="M132 41h253v-41h-297v700h44v-659z" />
    <glyph glyph-name="lcaron" unicode="&#x13e;" horiz-adv-x="218" 
d="M88 0v700h42v-700h-42z" />
    <glyph glyph-name="Ldot" unicode="&#x13f;" horiz-adv-x="418" 
d="M132 41h253v-41h-297v700h44v-659z" />
    <glyph glyph-name="ldot" unicode="&#x140;" horiz-adv-x="218" 
d="M88 0v700h42v-700h-42z" />
    <glyph glyph-name="Lslash" unicode="&#x141;" horiz-adv-x="418" 
d="M132 41h253v-41h-297v700h44v-659z" />
    <glyph glyph-name="lslash" unicode="&#x142;" horiz-adv-x="218" 
d="M88 0v700h42v-700h-42z" />
    <glyph glyph-name="Nacute" unicode="&#x143;" horiz-adv-x="660" 
d="M138 700l390 -626v626h44v-700h-49l-391 626v-626h-44v700h50z" />
    <glyph glyph-name="nacute" unicode="&#x144;" horiz-adv-x="558" 
d="M88 0v431h42v-112q18 52 64.5 87t111.5 35q86 0 130 -52q43 -47 43 -138v-251h-42v240q0 72 -36 116.5t-106 44.5q-77 0 -121 -56t-44 -126v-219h-42z" />
    <glyph glyph-name="Ncommaaccent" unicode="&#x145;" horiz-adv-x="660" 
d="M138 700l390 -626v626h44v-700h-49l-391 626v-626h-44v700h50z" />
    <glyph glyph-name="ncommaaccent" unicode="&#x146;" horiz-adv-x="558" 
d="M88 0v431h42v-112q18 52 64.5 87t111.5 35q86 0 130 -52q43 -47 43 -138v-251h-42v240q0 72 -36 116.5t-106 44.5q-77 0 -121 -56t-44 -126v-219h-42z" />
    <glyph glyph-name="Ncaron" unicode="&#x147;" horiz-adv-x="660" 
d="M138 700l390 -626v626h44v-700h-49l-391 626v-626h-44v700h50z" />
    <glyph glyph-name="ncaron" unicode="&#x148;" horiz-adv-x="558" 
d="M88 0v431h42v-112q18 52 64.5 87t111.5 35q86 0 130 -52q43 -47 43 -138v-251h-42v240q0 72 -36 116.5t-106 44.5q-77 0 -121 -56t-44 -126v-219h-42z" />
    <glyph glyph-name="napostrophe" unicode="&#x149;" horiz-adv-x="558" 
d="M88 0v431h42v-112q18 52 64.5 87t111.5 35q86 0 130 -52q43 -47 43 -138v-251h-42v240q0 72 -36 116.5t-106 44.5q-77 0 -121 -56t-44 -126v-219h-42z" />
    <glyph glyph-name="Eng" unicode="&#x14a;" horiz-adv-x="660" 
d="M138 700l390 -626v626h44v-700h-49l-391 626v-626h-44v700h50z" />
    <glyph glyph-name="eng" unicode="&#x14b;" horiz-adv-x="558" 
d="M88 0v431h42v-112q18 52 64.5 87t111.5 35q86 0 130 -52q43 -47 43 -138v-251h-42v240q0 72 -36 116.5t-106 44.5q-77 0 -121 -56t-44 -126v-219h-42z" />
    <glyph glyph-name="Omacron" unicode="&#x14c;" horiz-adv-x="809" 
d="M404 -14q-161 0 -260 108t-99 256t99 256t260 108q108 0 191.5 -52t125.5 -134t42 -178t-42 -178t-125.5 -134t-191.5 -52zM404 27q141 0 227.5 95.5t86.5 227.5t-86.5 227.5t-227.5 95.5t-227 -96t-86 -227t86 -227t227 -96z" />
    <glyph glyph-name="omacron" unicode="&#x14d;" horiz-adv-x="543" 
d="M270 -10q-99 0 -162 66t-63 159q0 94 62.5 160t162.5 66q102 0 165 -66t63 -160t-63.5 -159.5t-164.5 -65.5zM270 30q83 0 134 54t51 131q0 78 -51 132t-134 54q-81 0 -131.5 -54t-50.5 -132q0 -77 50.5 -131t131.5 -54z" />
    <glyph glyph-name="Obreve" unicode="&#x14e;" horiz-adv-x="809" 
d="M404 -14q-161 0 -260 108t-99 256t99 256t260 108q108 0 191.5 -52t125.5 -134t42 -178t-42 -178t-125.5 -134t-191.5 -52zM404 27q141 0 227.5 95.5t86.5 227.5t-86.5 227.5t-227.5 95.5t-227 -96t-86 -227t86 -227t227 -96z" />
    <glyph glyph-name="obreve" unicode="&#x14f;" horiz-adv-x="543" 
d="M270 -10q-99 0 -162 66t-63 159q0 94 62.5 160t162.5 66q102 0 165 -66t63 -160t-63.5 -159.5t-164.5 -65.5zM270 30q83 0 134 54t51 131q0 78 -51 132t-134 54q-81 0 -131.5 -54t-50.5 -132q0 -77 50.5 -131t131.5 -54z" />
    <glyph glyph-name="Ohungarumlaut" unicode="&#x150;" horiz-adv-x="809" 
d="M404 -14q-161 0 -260 108t-99 256t99 256t260 108q108 0 191.5 -52t125.5 -134t42 -178t-42 -178t-125.5 -134t-191.5 -52zM404 27q141 0 227.5 95.5t86.5 227.5t-86.5 227.5t-227.5 95.5t-227 -96t-86 -227t86 -227t227 -96z" />
    <glyph glyph-name="ohungarumlaut" unicode="&#x151;" horiz-adv-x="543" 
d="M270 -10q-99 0 -162 66t-63 159q0 94 62.5 160t162.5 66q102 0 165 -66t63 -160t-63.5 -159.5t-164.5 -65.5zM270 30q83 0 134 54t51 131q0 78 -51 132t-134 54q-81 0 -131.5 -54t-50.5 -132q0 -77 50.5 -131t131.5 -54z" />
    <glyph glyph-name="OE" unicode="&#x152;" horiz-adv-x="1350" 
d="M404 -14q-161 0 -260 108t-99 256t99 256t260 108q108 0 191.5 -52t125.5 -134t42 -178t-42 -178t-125.5 -134t-191.5 -52zM404 27q141 0 227.5 95.5t86.5 227.5t-86.5 227.5t-227.5 95.5t-227 -96t-86 -227t86 -227t227 -96zM1267 659h-326v-291h326v-41h-326v-286h326
v-41h-370v700h370v-41z" />
    <glyph glyph-name="oe" unicode="&#x153;" horiz-adv-x="1056" 
d="M270 -10q-99 0 -162 66t-63 159q0 94 62.5 160t162.5 66q102 0 165 -66t63 -160t-63.5 -159.5t-164.5 -65.5zM270 30q83 0 134 54t51 131q0 78 -51 132t-134 54q-81 0 -131.5 -54t-50.5 -132q0 -77 50.5 -131t131.5 -54zM1001 211h-366q1 -78 44.5 -130.5t127.5 -52.5
q56 0 94 26.5t52 66.5h44q-13 -56 -64 -93.5t-126 -37.5q-103 0 -158.5 65t-55.5 161q0 99 56 162t155 63q83 0 141 -55.5t58 -137.5q0 -21 -2 -37zM803 406q-73 0 -117.5 -43.5t-49.5 -115.5h325q0 70 -45.5 114.5t-112.5 44.5z" />
    <glyph glyph-name="Racute" unicode="&#x154;" horiz-adv-x="599" 
d="M323 291q82 0 133 53.5t51 129.5q0 78 -51 131.5t-133 53.5h-191v-368h191zM88 0v700h235q102 0 165 -65.5t63 -160.5q0 -79 -46.5 -139.5t-124.5 -78.5l165 -256h-52l-160 250h-201v-250h-44z" />
    <glyph glyph-name="racute" unicode="&#x155;" horiz-adv-x="340" 
d="M338 431v-40q-22 6 -43 6q-80 0 -122.5 -60.5t-42.5 -141.5v-195h-42v431h42v-119q22 62 66.5 94t98.5 32q26 0 43 -7z" />
    <glyph glyph-name="Rcommaaccent" unicode="&#x156;" horiz-adv-x="599" 
d="M323 291q82 0 133 53.5t51 129.5q0 78 -51 131.5t-133 53.5h-191v-368h191zM88 0v700h235q102 0 165 -65.5t63 -160.5q0 -79 -46.5 -139.5t-124.5 -78.5l165 -256h-52l-160 250h-201v-250h-44z" />
    <glyph glyph-name="rcommaaccent" unicode="&#x157;" horiz-adv-x="340" 
d="M338 431v-40q-22 6 -43 6q-80 0 -122.5 -60.5t-42.5 -141.5v-195h-42v431h42v-119q22 62 66.5 94t98.5 32q26 0 43 -7z" />
    <glyph glyph-name="Rcaron" unicode="&#x158;" horiz-adv-x="599" 
d="M323 291q82 0 133 53.5t51 129.5q0 78 -51 131.5t-133 53.5h-191v-368h191zM88 0v700h235q102 0 165 -65.5t63 -160.5q0 -79 -46.5 -139.5t-124.5 -78.5l165 -256h-52l-160 250h-201v-250h-44z" />
    <glyph glyph-name="rcaron" unicode="&#x159;" horiz-adv-x="340" 
d="M338 431v-40q-22 6 -43 6q-80 0 -122.5 -60.5t-42.5 -141.5v-195h-42v431h42v-119q22 62 66.5 94t98.5 32q26 0 43 -7z" />
    <glyph glyph-name="Sacute" unicode="&#x15a;" horiz-adv-x="573" 
d="M49 211h44q0 -82 54.5 -133t148.5 -51q86 0 136 39.5t50 108.5q0 32 -11 57.5t-26 41t-41.5 28t-47 18.5t-52.5 13q-47 12 -70.5 19t-59.5 23.5t-53 35.5t-30.5 51t-13.5 75q0 78 58.5 127.5t161.5 49.5q98 0 155.5 -55t59.5 -151h-44q-2 78 -47 121.5t-123 43.5
q-85 0 -131 -38t-46 -98q0 -33 11 -58t25.5 -40t43 -27.5t48 -18t56.5 -14.5q40 -10 65.5 -18t58 -24t51.5 -35.5t32.5 -51.5t13.5 -72q0 -91 -63 -141.5t-170 -50.5q-110 0 -177 62.5t-67 162.5z" />
    <glyph glyph-name="sacute" unicode="&#x15b;" horiz-adv-x="448" 
d="M240 232q33 -7 47 -10.5t39.5 -12.5t37 -20t21 -30.5t9.5 -44.5q0 -59 -43 -91.5t-121 -32.5q-80 0 -131 38.5t-51 117.5h42q0 -62 39 -90.5t102 -28.5q59 0 90.5 22.5t31.5 62.5q0 22 -10 37.5t-28.5 24.5t-40.5 15t-52 12q-10 2 -16 3q-36 7 -55.5 12.5t-43.5 18
t-34.5 33.5t-10.5 51q0 57 43 89.5t114 32.5q75 0 121.5 -38t46.5 -105h-42q0 51 -34 78.5t-91 27.5q-53 0 -85 -22.5t-32 -63.5q0 -17 7.5 -30t16 -20.5t30.5 -15t35.5 -10.5t47.5 -10z" />
    <glyph glyph-name="Scircumflex" unicode="&#x15c;" horiz-adv-x="573" 
d="M49 211h44q0 -82 54.5 -133t148.5 -51q86 0 136 39.5t50 108.5q0 32 -11 57.5t-26 41t-41.5 28t-47 18.5t-52.5 13q-47 12 -70.5 19t-59.5 23.5t-53 35.5t-30.5 51t-13.5 75q0 78 58.5 127.5t161.5 49.5q98 0 155.5 -55t59.5 -151h-44q-2 78 -47 121.5t-123 43.5
q-85 0 -131 -38t-46 -98q0 -33 11 -58t25.5 -40t43 -27.5t48 -18t56.5 -14.5q40 -10 65.5 -18t58 -24t51.5 -35.5t32.5 -51.5t13.5 -72q0 -91 -63 -141.5t-170 -50.5q-110 0 -177 62.5t-67 162.5z" />
    <glyph glyph-name="scircumflex" unicode="&#x15d;" horiz-adv-x="448" 
d="M240 232q33 -7 47 -10.5t39.5 -12.5t37 -20t21 -30.5t9.5 -44.5q0 -59 -43 -91.5t-121 -32.5q-80 0 -131 38.5t-51 117.5h42q0 -62 39 -90.5t102 -28.5q59 0 90.5 22.5t31.5 62.5q0 22 -10 37.5t-28.5 24.5t-40.5 15t-52 12q-10 2 -16 3q-36 7 -55.5 12.5t-43.5 18
t-34.5 33.5t-10.5 51q0 57 43 89.5t114 32.5q75 0 121.5 -38t46.5 -105h-42q0 51 -34 78.5t-91 27.5q-53 0 -85 -22.5t-32 -63.5q0 -17 7.5 -30t16 -20.5t30.5 -15t35.5 -10.5t47.5 -10z" />
    <glyph glyph-name="Scedilla" unicode="&#x15e;" horiz-adv-x="573" 
d="M49 211h44q0 -82 54.5 -133t148.5 -51q86 0 136 39.5t50 108.5q0 32 -11 57.5t-26 41t-41.5 28t-47 18.5t-52.5 13q-47 12 -70.5 19t-59.5 23.5t-53 35.5t-30.5 51t-13.5 75q0 78 58.5 127.5t161.5 49.5q98 0 155.5 -55t59.5 -151h-44q-2 78 -47 121.5t-123 43.5
q-85 0 -131 -38t-46 -98q0 -33 11 -58t25.5 -40t43 -27.5t48 -18t56.5 -14.5q40 -10 65.5 -18t58 -24t51.5 -35.5t32.5 -51.5t13.5 -72q0 -91 -63 -141.5t-170 -50.5q-110 0 -177 62.5t-67 162.5z" />
    <glyph glyph-name="scedilla" unicode="&#x15f;" horiz-adv-x="448" 
d="M240 232q33 -7 47 -10.5t39.5 -12.5t37 -20t21 -30.5t9.5 -44.5q0 -59 -43 -91.5t-121 -32.5q-80 0 -131 38.5t-51 117.5h42q0 -62 39 -90.5t102 -28.5q59 0 90.5 22.5t31.5 62.5q0 22 -10 37.5t-28.5 24.5t-40.5 15t-52 12q-10 2 -16 3q-36 7 -55.5 12.5t-43.5 18
t-34.5 33.5t-10.5 51q0 57 43 89.5t114 32.5q75 0 121.5 -38t46.5 -105h-42q0 51 -34 78.5t-91 27.5q-53 0 -85 -22.5t-32 -63.5q0 -17 7.5 -30t16 -20.5t30.5 -15t35.5 -10.5t47.5 -10z" />
    <glyph glyph-name="Scaron" unicode="&#x160;" horiz-adv-x="573" 
d="M49 211h44q0 -82 54.5 -133t148.5 -51q86 0 136 39.5t50 108.5q0 32 -11 57.5t-26 41t-41.5 28t-47 18.5t-52.5 13q-47 12 -70.5 19t-59.5 23.5t-53 35.5t-30.5 51t-13.5 75q0 78 58.5 127.5t161.5 49.5q98 0 155.5 -55t59.5 -151h-44q-2 78 -47 121.5t-123 43.5
q-85 0 -131 -38t-46 -98q0 -33 11 -58t25.5 -40t43 -27.5t48 -18t56.5 -14.5q40 -10 65.5 -18t58 -24t51.5 -35.5t32.5 -51.5t13.5 -72q0 -91 -63 -141.5t-170 -50.5q-110 0 -177 62.5t-67 162.5z" />
    <glyph glyph-name="scaron" unicode="&#x161;" horiz-adv-x="448" 
d="M240 232q33 -7 47 -10.5t39.5 -12.5t37 -20t21 -30.5t9.5 -44.5q0 -59 -43 -91.5t-121 -32.5q-80 0 -131 38.5t-51 117.5h42q0 -62 39 -90.5t102 -28.5q59 0 90.5 22.5t31.5 62.5q0 22 -10 37.5t-28.5 24.5t-40.5 15t-52 12q-10 2 -16 3q-36 7 -55.5 12.5t-43.5 18
t-34.5 33.5t-10.5 51q0 57 43 89.5t114 32.5q75 0 121.5 -38t46.5 -105h-42q0 51 -34 78.5t-91 27.5q-53 0 -85 -22.5t-32 -63.5q0 -17 7.5 -30t16 -20.5t30.5 -15t35.5 -10.5t47.5 -10z" />
    <glyph glyph-name="Tcommaaccent" unicode="&#x162;" horiz-adv-x="469" 
d="M212 0v659h-196v41h437v-41h-197v-659h-44z" />
    <glyph glyph-name="tcommaaccent" unicode="&#x163;" horiz-adv-x="317" 
d="M312 39v-39q-34 -6 -72 -6q-27 0 -45.5 4.5t-38.5 19t-30.5 46t-10.5 79.5v250h-95v38h95v176h42v-176h139v-38h-139v-244q0 -70 23.5 -92.5t66.5 -22.5q37 0 65 5z" />
    <glyph glyph-name="Tcaron" unicode="&#x164;" horiz-adv-x="469" 
d="M212 0v659h-196v41h437v-41h-197v-659h-44z" />
    <glyph glyph-name="tcaron" unicode="&#x165;" horiz-adv-x="317" 
d="M312 39v-39q-34 -6 -72 -6q-27 0 -45.5 4.5t-38.5 19t-30.5 46t-10.5 79.5v250h-95v38h95v176h42v-176h139v-38h-139v-244q0 -70 23.5 -92.5t66.5 -22.5q37 0 65 5z" />
    <glyph glyph-name="Tbar" unicode="&#x166;" horiz-adv-x="469" 
d="M212 0v659h-196v41h437v-41h-197v-659h-44z" />
    <glyph glyph-name="tbar" unicode="&#x167;" horiz-adv-x="317" 
d="M312 39v-39q-34 -6 -72 -6q-27 0 -45.5 4.5t-38.5 19t-30.5 46t-10.5 79.5v250h-95v38h95v176h42v-176h139v-38h-139v-244q0 -70 23.5 -92.5t66.5 -22.5q37 0 65 5z" />
    <glyph glyph-name="Utilde" unicode="&#x168;" horiz-adv-x="606" 
d="M75 212v488h44v-488q0 -77 51 -131t132 -54q83 0 134 54t51 131v488h44v-488q0 -94 -63.5 -160t-165.5 -66q-100 0 -163.5 66t-63.5 160z" />
    <glyph glyph-name="utilde" unicode="&#x169;" horiz-adv-x="556" 
d="M425 431h43v-431h-43v112q-19 -52 -65 -87t-111 -35q-85 0 -129 52q-44 49 -44 138v251h43v-240q0 -73 36 -117.5t106 -44.5q76 0 120 56.5t44 126.5v219z" />
    <glyph glyph-name="Umacron" unicode="&#x16a;" horiz-adv-x="606" 
d="M75 212v488h44v-488q0 -77 51 -131t132 -54q83 0 134 54t51 131v488h44v-488q0 -94 -63.5 -160t-165.5 -66q-100 0 -163.5 66t-63.5 160z" />
    <glyph glyph-name="umacron" unicode="&#x16b;" horiz-adv-x="556" 
d="M425 431h43v-431h-43v112q-19 -52 -65 -87t-111 -35q-85 0 -129 52q-44 49 -44 138v251h43v-240q0 -73 36 -117.5t106 -44.5q76 0 120 56.5t44 126.5v219z" />
    <glyph glyph-name="Ubreve" unicode="&#x16c;" horiz-adv-x="606" 
d="M75 212v488h44v-488q0 -77 51 -131t132 -54q83 0 134 54t51 131v488h44v-488q0 -94 -63.5 -160t-165.5 -66q-100 0 -163.5 66t-63.5 160z" />
    <glyph glyph-name="ubreve" unicode="&#x16d;" horiz-adv-x="556" 
d="M425 431h43v-431h-43v112q-19 -52 -65 -87t-111 -35q-85 0 -129 52q-44 49 -44 138v251h43v-240q0 -73 36 -117.5t106 -44.5q76 0 120 56.5t44 126.5v219z" />
    <glyph glyph-name="Uring" unicode="&#x16e;" horiz-adv-x="606" 
d="M75 212v488h44v-488q0 -77 51 -131t132 -54q83 0 134 54t51 131v488h44v-488q0 -94 -63.5 -160t-165.5 -66q-100 0 -163.5 66t-63.5 160z" />
    <glyph glyph-name="uring" unicode="&#x16f;" horiz-adv-x="556" 
d="M425 431h43v-431h-43v112q-19 -52 -65 -87t-111 -35q-85 0 -129 52q-44 49 -44 138v251h43v-240q0 -73 36 -117.5t106 -44.5q76 0 120 56.5t44 126.5v219z" />
    <glyph glyph-name="Uhungarumlaut" unicode="&#x170;" horiz-adv-x="606" 
d="M75 212v488h44v-488q0 -77 51 -131t132 -54q83 0 134 54t51 131v488h44v-488q0 -94 -63.5 -160t-165.5 -66q-100 0 -163.5 66t-63.5 160z" />
    <glyph glyph-name="uhungarumlaut" unicode="&#x171;" horiz-adv-x="556" 
d="M425 431h43v-431h-43v112q-19 -52 -65 -87t-111 -35q-85 0 -129 52q-44 49 -44 138v251h43v-240q0 -73 36 -117.5t106 -44.5q76 0 120 56.5t44 126.5v219z" />
    <glyph glyph-name="Uogonek" unicode="&#x172;" horiz-adv-x="606" 
d="M75 212v488h44v-488q0 -77 51 -131t132 -54q83 0 134 54t51 131v488h44v-488q0 -94 -63.5 -160t-165.5 -66q-100 0 -163.5 66t-63.5 160z" />
    <glyph glyph-name="uogonek" unicode="&#x173;" horiz-adv-x="556" 
d="M425 431h43v-431h-43v112q-19 -52 -65 -87t-111 -35q-85 0 -129 52q-44 49 -44 138v251h43v-240q0 -73 36 -117.5t106 -44.5q76 0 120 56.5t44 126.5v219z" />
    <glyph glyph-name="Wcircumflex" unicode="&#x174;" horiz-adv-x="926" 
d="M649 0l-186 628l-185 -628h-37l-235 700h47l206 -629l186 629h37l186 -629l205 629h47l-235 -700h-36z" />
    <glyph glyph-name="wcircumflex" unicode="&#x175;" horiz-adv-x="695" 
d="M483 0l-136 382l-136 -382h-33l-166 431h45l137 -370l132 370h43l131 -370l137 370h46l-166 -431h-34z" />
    <glyph glyph-name="Ycircumflex" unicode="&#x176;" horiz-adv-x="548" 
d="M545 700l-362 -700h-49l143 275l-270 425h52l241 -380l197 380h48z" />
    <glyph glyph-name="ycircumflex" unicode="&#x177;" horiz-adv-x="562" 
d="M280 -279q-102 0 -149.5 51.5t-49.5 155.5h42q4 -86 40.5 -127.5t117.5 -41.5q79 0 117 42.5t38 141.5v169q-19 -53 -64 -87.5t-110 -34.5q-88 0 -134 49q-41 44 -41 149v243h42v-233q0 -84 32.5 -126.5t112.5 -42.5q76 0 119 56.5t43 126.5v219h42v-488
q0 -118 -48.5 -170t-149.5 -52z" />
    <glyph glyph-name="Ydieresis" unicode="&#x178;" horiz-adv-x="548" 
d="M545 700l-362 -700h-49l143 275l-270 425h52l241 -380l197 380h48z" />
    <glyph glyph-name="Zacute" unicode="&#x179;" horiz-adv-x="540" 
d="M38 659v41h495l-440 -659h455v-41h-531l440 659h-419z" />
    <glyph glyph-name="zacute" unicode="&#x17a;" horiz-adv-x="427" 
d="M41 431h352l-288 -392h291v-39h-368l288 391h-275v40z" />
    <glyph glyph-name="Zdotaccent" unicode="&#x17b;" horiz-adv-x="540" 
d="M38 659v41h495l-440 -659h455v-41h-531l440 659h-419z" />
    <glyph glyph-name="zdotaccent" unicode="&#x17c;" horiz-adv-x="427" 
d="M41 431h352l-288 -392h291v-39h-368l288 391h-275v40z" />
    <glyph glyph-name="Zcaron" unicode="&#x17d;" horiz-adv-x="540" 
d="M38 659v41h495l-440 -659h455v-41h-531l440 659h-419z" />
    <glyph glyph-name="zcaron" unicode="&#x17e;" horiz-adv-x="427" 
d="M41 431h352l-288 -392h291v-39h-368l288 391h-275v40z" />
    <glyph glyph-name="Aringacute" unicode="&#x1fa;" horiz-adv-x="534" 
d="M416 185l-149 449l-150 -449h299zM525 0h-46l-49 144h-327l-49 -144h-46l241 700h36z" />
    <glyph glyph-name="aringacute" unicode="&#x1fb;" 
d="M270 30q83 0 134 54t51 131q0 78 -51 132t-134 54q-81 0 -131.5 -54t-50.5 -132q0 -77 50.5 -131t131.5 -54zM455 431h43v-431h-43v109q-22 -54 -71.5 -86.5t-114.5 -32.5q-99 0 -161.5 66t-62.5 159q0 94 62.5 160t161.5 66q65 0 114.5 -32.5t71.5 -87.5v110z" />
    <glyph glyph-name="AEacute" unicode="&#x1fc;" horiz-adv-x="1075" 
d="M416 185l-149 449l-150 -449h299zM525 0h-46l-49 144h-327l-49 -144h-46l241 700h36zM992 659h-326v-291h326v-41h-326v-286h326v-41h-370v700h370v-41z" />
    <glyph glyph-name="aeacute" unicode="&#x1fd;" horiz-adv-x="1099" 
d="M270 30q83 0 134 54t51 131q0 78 -51 132t-134 54q-81 0 -131.5 -54t-50.5 -132q0 -77 50.5 -131t131.5 -54zM455 431h43v-431h-43v109q-22 -54 -71.5 -86.5t-114.5 -32.5q-99 0 -161.5 66t-62.5 159q0 94 62.5 160t161.5 66q65 0 114.5 -32.5t71.5 -87.5v110zM1044 211
h-366q1 -78 44.5 -130.5t127.5 -52.5q56 0 94 26.5t52 66.5h44q-13 -56 -64 -93.5t-126 -37.5q-103 0 -158.5 65t-55.5 161q0 99 56 162t155 63q83 0 141 -55.5t58 -137.5q0 -21 -2 -37zM846 406q-73 0 -117.5 -43.5t-49.5 -115.5h325q0 70 -45.5 114.5t-112.5 44.5z" />
    <glyph glyph-name="Oslashacute" unicode="&#x1fe;" horiz-adv-x="809" 
d="M404 -14q-161 0 -260 108t-99 256t99 256t260 108q108 0 191.5 -52t125.5 -134t42 -178t-42 -178t-125.5 -134t-191.5 -52zM404 27q141 0 227.5 95.5t86.5 227.5t-86.5 227.5t-227.5 95.5t-227 -96t-86 -227t86 -227t227 -96z" />
    <glyph glyph-name="oslashacute" unicode="&#x1ff;" horiz-adv-x="543" 
d="M270 -10q-99 0 -162 66t-63 159q0 94 62.5 160t162.5 66q102 0 165 -66t63 -160t-63.5 -159.5t-164.5 -65.5zM270 30q83 0 134 54t51 131q0 78 -51 132t-134 54q-81 0 -131.5 -54t-50.5 -132q0 -77 50.5 -131t131.5 -54z" />
    <glyph glyph-name="Scommaaccent" unicode="&#x218;" horiz-adv-x="573" 
d="M49 211h44q0 -82 54.5 -133t148.5 -51q86 0 136 39.5t50 108.5q0 32 -11 57.5t-26 41t-41.5 28t-47 18.5t-52.5 13q-47 12 -70.5 19t-59.5 23.5t-53 35.5t-30.5 51t-13.5 75q0 78 58.5 127.5t161.5 49.5q98 0 155.5 -55t59.5 -151h-44q-2 78 -47 121.5t-123 43.5
q-85 0 -131 -38t-46 -98q0 -33 11 -58t25.5 -40t43 -27.5t48 -18t56.5 -14.5q40 -10 65.5 -18t58 -24t51.5 -35.5t32.5 -51.5t13.5 -72q0 -91 -63 -141.5t-170 -50.5q-110 0 -177 62.5t-67 162.5z" />
    <glyph glyph-name="scommaaccent" unicode="&#x219;" horiz-adv-x="448" 
d="M240 232q33 -7 47 -10.5t39.5 -12.5t37 -20t21 -30.5t9.5 -44.5q0 -59 -43 -91.5t-121 -32.5q-80 0 -131 38.5t-51 117.5h42q0 -62 39 -90.5t102 -28.5q59 0 90.5 22.5t31.5 62.5q0 22 -10 37.5t-28.5 24.5t-40.5 15t-52 12q-10 2 -16 3q-36 7 -55.5 12.5t-43.5 18
t-34.5 33.5t-10.5 51q0 57 43 89.5t114 32.5q75 0 121.5 -38t46.5 -105h-42q0 51 -34 78.5t-91 27.5q-53 0 -85 -22.5t-32 -63.5q0 -17 7.5 -30t16 -20.5t30.5 -15t35.5 -10.5t47.5 -10z" />
    <glyph glyph-name="uni021A" unicode="&#x21a;" horiz-adv-x="469" 
d="M212 0v659h-196v41h437v-41h-197v-659h-44z" />
    <glyph glyph-name="uni021B" unicode="&#x21b;" horiz-adv-x="556" 
d="M425 431h43v-431h-43v112q-19 -52 -65 -87t-111 -35q-85 0 -129 52q-44 49 -44 138v251h43v-240q0 -73 36 -117.5t106 -44.5q76 0 120 56.5t44 126.5v219z" />
    <glyph glyph-name="uni0401" unicode="&#x401;" horiz-adv-x="541" 
d="M458 659h-326v-291h326v-41h-326v-286h326v-41h-370v700h370v-41z" />
    <glyph glyph-name="uni0403" unicode="&#x403;" horiz-adv-x="472" 
d="M88 0v700h370v-41h-326v-659h-44z" />
    <glyph glyph-name="uni0404" unicode="&#x404;" horiz-adv-x="765" 
d="M673 197h48q-30 -93 -114.5 -152t-200.5 -59q-112 0 -195.5 51.5t-124.5 133t-41 180.5q0 96 40 177.5t121.5 133.5t189.5 52q132 0 216 -64.5t109 -167.5h-47q-22 86 -94 138.5t-184 52.5q-136 0 -218 -89t-86 -216h406v-41h-406q6 -127 90.5 -213.5t223.5 -86.5
q96 0 167.5 47t99.5 123z" />
    <glyph glyph-name="uni0405" unicode="&#x405;" horiz-adv-x="573" 
d="M49 211h44q0 -82 54.5 -133t148.5 -51q86 0 136 39.5t50 108.5q0 32 -11 57.5t-26 41t-41.5 28t-47 18.5t-52.5 13q-47 12 -70.5 19t-59.5 23.5t-53 35.5t-30.5 51t-13.5 75q0 78 58.5 127.5t161.5 49.5q98 0 155.5 -55t59.5 -151h-44q-2 78 -47 121.5t-123 43.5
q-85 0 -131 -38t-46 -98q0 -33 11 -58t25.5 -40t43 -27.5t48 -18t56.5 -14.5q40 -10 65.5 -18t58 -24t51.5 -35.5t32.5 -51.5t13.5 -72q0 -91 -63 -141.5t-170 -50.5q-110 0 -177 62.5t-67 162.5z" />
    <glyph glyph-name="uni0406" unicode="&#x406;" horiz-adv-x="221" 
d="M88 0v700h45v-700h-45z" />
    <glyph glyph-name="uni0407" unicode="&#x407;" horiz-adv-x="221" 
d="M88 0v700h45v-700h-45z" />
    <glyph glyph-name="uni0408" unicode="&#x408;" horiz-adv-x="535" 
d="M460 700v-489q0 -103 -59.5 -164t-156.5 -61q-96 0 -161 62t-65 163h44q0 -84 52.5 -134t129.5 -50q78 0 125 49.5t47 134.5v489h44z" />
    <glyph glyph-name="uni0409" unicode="&#x409;" horiz-adv-x="691" 
d="M10 -12v41h29q45 0 66.5 21t21.5 80v570h476v-700h-43v659h-389v-536q0 -74 -33 -104.5t-91 -30.5h-37z" />
    <glyph glyph-name="uni040A" unicode="&#x40a;" horiz-adv-x="661" 
d="M529 0v327h-397v-327h-44v700h44v-332h397v332h44v-700h-44z" />
    <glyph glyph-name="uni040C" unicode="&#x40c;" horiz-adv-x="571" 
d="M132 700v-314h27q43 0 78 17t65 69l77 132q28 48 59 72.5t77 24.5h45v-41h-40q-37 0 -61 -19t-48 -62l-74 -130q-49 -84 -158 -91l371 -358h-59l-359 349v-349h-44v700h44z" />
    <glyph glyph-name="uni040E" unicode="&#x40e;" horiz-adv-x="548" 
d="M545 700l-362 -700h-49l143 275l-270 425h52l241 -380l197 380h48z" />
    <glyph glyph-name="uni040F" unicode="&#x40f;" horiz-adv-x="625" 
d="M334 -110h-41v110h-205v700h44v-659h361v659h44v-700h-203v-110z" />
    <glyph glyph-name="uni0410" unicode="&#x410;" horiz-adv-x="534" 
d="M416 185l-149 449l-150 -449h299zM525 0h-46l-49 144h-327l-49 -144h-46l241 700h36z" />
    <glyph glyph-name="uni0411" unicode="&#x411;" horiz-adv-x="572" 
d="M467 700v-41h-335v-272h206q77 0 129.5 -56t52.5 -138q0 -80 -54 -136.5t-132 -56.5h-246v700h379zM338 346h-206v-305h202q59 0 100.5 44.5t41.5 107.5t-40.5 108t-97.5 45z" />
    <glyph glyph-name="uni0412" unicode="&#x412;" horiz-adv-x="576" 
d="M88 0v700h239q87 0 138 -54t51 -128q0 -61 -36.5 -108.5t-91.5 -57.5q54 -9 93 -56.5t39 -110.5q0 -74 -52.5 -129.5t-140.5 -55.5h-239zM132 372h199q63 0 102 42.5t39 100.5q0 59 -40.5 101.5t-104.5 42.5h-195v-287zM333 331h-201v-290h196q66 0 107 42.5t41 102.5
q0 57 -40.5 101t-102.5 44z" />
    <glyph glyph-name="uni0413" unicode="&#x413;" horiz-adv-x="472" 
d="M88 0v700h370v-41h-326v-659h-44z" />
    <glyph glyph-name="uni0414" unicode="&#x414;" horiz-adv-x="680" 
d="M131 41h394v618h-278v-316q0 -133 -25.5 -206.5t-90.5 -95.5zM52 -110h-41v151h13q102 0 145 78q34 65 34 180v401h367v-659h77v-151h-41v110h-554v-110z" />
    <glyph glyph-name="uni0415" unicode="&#x415;" horiz-adv-x="541" 
d="M458 659h-326v-291h326v-41h-326v-286h326v-41h-370v700h370v-41z" />
    <glyph glyph-name="uni0416" unicode="&#x416;" horiz-adv-x="861" 
d="M409 349l-340 -349h-58l346 351q-55 3 -91 24t-60 70l-60 122q-24 49 -45 71t-56 22h-38v41h41q45 0 75 -27.5t56 -79.5l63 -131q26 -52 57.5 -71t80.5 -19h29v327h43v-327h29q49 0 80.5 19t56.5 71l63 131q27 53 56.5 80t74.5 27h42v-41h-38q-35 0 -56.5 -22t-45.5 -71
l-60 -122q-24 -49 -60 -70t-91 -24l347 -351h-58l-340 349v-349h-43v349z" />
    <glyph glyph-name="uni0417" unicode="&#x417;" horiz-adv-x="548" 
d="M41 195h44q0 -75 51 -121t132 -46q82 0 131 44t49 115q0 70 -47 112t-131 42h-55v41h55q78 0 122.5 40.5t44.5 103.5q0 65 -45.5 105.5t-121.5 40.5q-81 0 -131 -42t-50 -112h-44q0 87 62 141t164 54q94 0 152 -50t58 -134q0 -63 -37 -108.5t-102 -55.5q69 -10 109.5 -59
t40.5 -119q0 -89 -62 -144.5t-162 -55.5q-102 0 -164.5 57t-62.5 151z" />
    <glyph glyph-name="uni0418" unicode="&#x418;" horiz-adv-x="660" 
d="M528 0v590l-396 -546v-44h-44v700h44v-589l396 545v44h44v-700h-44z" />
    <glyph glyph-name="uni0419" unicode="&#x419;" horiz-adv-x="660" 
d="M528 0v590l-396 -546v-44h-44v700h44v-589l396 545v44h44v-700h-44z" />
    <glyph glyph-name="uni041A" unicode="&#x41a;" horiz-adv-x="571" 
d="M132 700v-314h27q43 0 78 17t65 69l77 132q28 48 59 72.5t77 24.5h45v-41h-40q-37 0 -61 -19t-48 -62l-74 -130q-49 -84 -158 -91l371 -358h-59l-359 349v-349h-44v700h44z" />
    <glyph glyph-name="uni041B" unicode="&#x41b;" horiz-adv-x="691" 
d="M10 -12v41h29q45 0 66.5 21t21.5 80v570h476v-700h-43v659h-389v-536q0 -74 -33 -104.5t-91 -30.5h-37z" />
    <glyph glyph-name="uni041C" unicode="&#x41c;" horiz-adv-x="809" 
d="M721 700v-700h-44v598l-254 -598h-38l-253 598v-598h-44v700h43l273 -637l273 637h44z" />
    <glyph glyph-name="uni041D" unicode="&#x41d;" horiz-adv-x="661" 
d="M529 0v327h-397v-327h-44v700h44v-332h397v332h44v-700h-44z" />
    <glyph glyph-name="uni041E" unicode="&#x41e;" horiz-adv-x="809" 
d="M404 -14q-161 0 -260 108t-99 256t99 256t260 108q108 0 191.5 -52t125.5 -134t42 -178t-42 -178t-125.5 -134t-191.5 -52zM404 27q141 0 227.5 95.5t86.5 227.5t-86.5 227.5t-227.5 95.5t-227 -96t-86 -227t86 -227t227 -96z" />
    <glyph glyph-name="uni041F" unicode="&#x41f;" horiz-adv-x="670" 
d="M538 659h-406v-659h-44v700h494v-700h-44v659z" />
    <glyph glyph-name="uni0420" unicode="&#x420;" horiz-adv-x="595" 
d="M88 0v700h235q102 0 165 -65.5t63 -160.5q0 -94 -63 -159t-165 -65h-191v-250h-44zM323 291q82 0 133 53.5t51 129.5q0 78 -51 131.5t-133 53.5h-191v-368h191z" />
    <glyph glyph-name="uni0421" unicode="&#x421;" horiz-adv-x="774" 
d="M682 197h49q-32 -93 -118.5 -152t-202.5 -59q-165 0 -265 106t-100 259q0 148 97 255.5t255 107.5q138 0 223.5 -66.5t110.5 -173.5h-46q-24 89 -96.5 144t-187.5 55q-141 0 -226 -95t-85 -227q0 -136 88.5 -230t235.5 -94q93 0 166 47.5t102 122.5z" />
    <glyph glyph-name="uni0422" unicode="&#x422;" horiz-adv-x="469" 
d="M212 0v659h-196v41h437v-41h-197v-659h-44z" />
    <glyph glyph-name="uni0423" unicode="&#x423;" horiz-adv-x="548" 
d="M545 700l-362 -700h-49l143 275l-270 425h52l241 -380l197 380h48z" />
    <glyph glyph-name="uni0424" unicode="&#x424;" horiz-adv-x="758" 
d="M477 103h-76v-103h-44v103h-76q-107 0 -173 71.5t-66 175.5q0 105 66 176.5t173 71.5h76v102h44v-102h76q106 0 172.5 -71.5t66.5 -176.5q0 -104 -66.5 -175.5t-172.5 -71.5zM477 557h-76v-413h76q87 0 141 59.5t54 146.5q0 88 -54 147.5t-141 59.5zM281 144h76v413h-76
q-87 0 -141 -59.5t-54 -147.5q0 -87 54 -146.5t141 -59.5z" />
    <glyph glyph-name="uni0425" unicode="&#x425;" horiz-adv-x="520" 
d="M260 388l198 312h50l-223 -350l223 -350h-50l-198 311l-198 -311h-50l223 350l-223 350h50z" />
    <glyph glyph-name="uni0426" unicode="&#x426;" horiz-adv-x="651" 
d="M626 -110h-41v110h-497v700h44v-659h361v659h44v-659h89v-151z" />
    <glyph glyph-name="uni0427" unicode="&#x427;" horiz-adv-x="564" 
d="M476 0h-44v246h-154q-231 0 -231 226v228h44v-219q0 -94 46 -144t149 -50h146v413h44v-700z" />
    <glyph glyph-name="uni0428" unicode="&#x428;" horiz-adv-x="918" 
d="M830 0h-742v700h44v-659h305v659h44v-659h305v659h44v-700z" />
    <glyph glyph-name="uni0429" unicode="&#x429;" horiz-adv-x="943" 
d="M919 -110h-44v110h-787v700h44v-659h305v659h44v-659h305v659h44v-659h89v-151z" />
    <glyph glyph-name="uni042A" unicode="&#x42a;" horiz-adv-x="638" 
d="M16 659v41h197v-313h206q77 0 129.5 -56t52.5 -138q0 -80 -54 -136.5t-133 -56.5h-245v659h-153zM419 346h-206v-305h201q60 0 101.5 44.5t41.5 107.5t-40.5 108t-97.5 45z" />
    <glyph glyph-name="uni042B" unicode="&#x42b;" horiz-adv-x="722" 
d="M590 0v700h44v-700h-44zM88 700h44v-313h200q77 0 129.5 -56t52.5 -138q0 -80 -54 -136.5t-133 -56.5h-239v700zM332 346h-200v-305h195q60 0 101.5 44.5t41.5 107.5t-40.5 108t-97.5 45z" />
    <glyph glyph-name="uni042C" unicode="&#x42c;" horiz-adv-x="557" 
d="M88 700h44v-313h206q77 0 129.5 -56t52.5 -138q0 -80 -54 -136.5t-132 -56.5h-246v700zM338 346h-206v-305h202q59 0 100.5 44.5t41.5 107.5t-40.5 108t-97.5 45z" />
    <glyph glyph-name="uni042D" unicode="&#x42d;" horiz-adv-x="767" 
d="M269 327v41h407q-5 128 -87 216.5t-214 88.5q-116 0 -188.5 -54.5t-96.5 -144.5h-46q25 107 109.5 173.5t222.5 66.5q156 0 250.5 -106.5t94.5 -256.5q0 -155 -97 -260t-261 -105q-115 0 -201 59t-118 152h48q30 -75 103.5 -122.5t167.5 -47.5q137 0 221.5 85.5
t91.5 214.5h-407z" />
    <glyph glyph-name="uni042E" unicode="&#x42e;" horiz-adv-x="1092" 
d="M687 -14q-154 0 -251.5 99.5t-106.5 241.5h-197v-327h-44v700h44v-332h197q6 143 104 244.5t254 101.5q108 0 191.5 -52t125.5 -134t42 -178t-42 -178t-125.5 -134t-191.5 -52zM687 27q141 0 227.5 95.5t86.5 227.5t-86.5 227.5t-227.5 95.5t-227 -96t-86 -227t86 -227
t227 -96z" />
    <glyph glyph-name="uni042F" unicode="&#x42f;" horiz-adv-x="599" 
d="M92 474q0 -77 50.5 -130t132.5 -53h192v368h-192q-82 0 -132.5 -53.5t-50.5 -131.5zM511 700v-700h-44v250h-201l-161 -250h-51l165 256q-78 18 -124.5 78.5t-46.5 139.5q0 95 62.5 160.5t164.5 65.5h236z" />
    <glyph glyph-name="uni0430" unicode="&#x430;" 
d="M270 30q83 0 134 54t51 131q0 78 -51 132t-134 54q-81 0 -131.5 -54t-50.5 -132q0 -77 50.5 -131t131.5 -54zM455 431h43v-431h-43v109q-22 -54 -71.5 -86.5t-114.5 -32.5q-99 0 -161.5 66t-62.5 159q0 94 62.5 160t161.5 66q65 0 114.5 -32.5t71.5 -87.5v110z" />
    <glyph glyph-name="uni0431" unicode="&#x431;" horiz-adv-x="566" 
d="M94 280q16 76 72 118.5t133 42.5q100 0 160.5 -65.5t60.5 -160.5q0 -93 -63.5 -159t-163.5 -66q-56 0 -99 19.5t-69 51t-42.5 76t-22.5 88.5t-6 94q0 183 88 282q87 99 243 99h82v-41h-96q-124 0 -197 -79q-91 -104 -80 -300zM291 30q83 0 134.5 54t51.5 131
q0 78 -51.5 132t-134.5 54t-133.5 -52.5t-50.5 -133.5q0 -74 51 -129.5t133 -55.5z" />
    <glyph glyph-name="uni0432" unicode="&#x432;" horiz-adv-x="477" 
d="M88 0v431h202q58 0 91 -32.5t33 -77.5q0 -36 -25.5 -64.5t-65.5 -35.5q40 -2 68 -34.5t28 -73.5q0 -45 -35 -79t-95 -34h-201zM130 238h160q34 0 58 24t24 56q0 33 -24 56t-60 23h-158v-159zM291 203h-161v-169h159q36 0 61.5 24t25.5 57q0 36 -25 62t-60 26z" />
    <glyph glyph-name="uni0433" unicode="&#x433;" horiz-adv-x="351" 
d="M88 431h248v-38h-206v-393h-42v431z" />
    <glyph glyph-name="uni0434" unicode="&#x434;" horiz-adv-x="543" 
d="M117 36h287v358h-202v-157q0 -168 -85 -201zM53 -104h-39v140h28q53 0 86 46.5t33 134.5v214h284v-395h65v-140h-40v104h-417v-104z" />
    <glyph glyph-name="uni0435" unicode="&#x435;" horiz-adv-x="513" 
d="M458 211h-366q1 -78 44.5 -130.5t127.5 -52.5q56 0 94 26.5t52 66.5h43q-13 -55 -63.5 -93t-125.5 -38q-104 0 -159.5 65t-55.5 161q0 99 56.5 162t155.5 63q83 0 141 -55.5t58 -137.5q0 -21 -2 -37zM259 406q-72 0 -117 -43.5t-50 -115.5h326q0 70 -46 114.5t-113 44.5z
" />
    <glyph glyph-name="uni0436" unicode="&#x436;" horiz-adv-x="655" 
d="M307 217l-222 -217h-54l236 222q-47 1 -73 14.5t-43 47.5l-26 56q-28 58 -63 58h-31v37h36q52 0 88 -72l32 -64q17 -33 36 -45.5t57 -12.5h27v190h41v-190h26q39 0 58 12.5t35 45.5l33 64q36 72 88 72h36v-37h-32q-36 0 -62 -58l-27 -56q-16 -34 -42 -47.5t-73 -14.5
l235 -222h-53l-222 217v-217h-41v217z" />
    <glyph glyph-name="uni0437" unicode="&#x437;" horiz-adv-x="402" 
d="M37 116h43q0 -41 31 -65t85 -24q50 0 79.5 23t29.5 63t-28.5 63.5t-79.5 23.5h-40v34h39q48 0 75 24.5t27 62.5t-27.5 61t-73.5 23q-51 0 -79.5 -24t-28.5 -62h-43q0 54 42 88t110 34q63 0 102.5 -32.5t39.5 -83.5q0 -41 -25.5 -70t-68.5 -36q45 -4 73 -33.5t28 -73.5
q0 -55 -43 -88.5t-110 -33.5q-71 0 -114 35t-43 91z" />
    <glyph glyph-name="uni0438" unicode="&#x438;" horiz-adv-x="551" 
d="M420 0v346l-290 -314v-32h-42v431h42v-348l290 316v32h43v-431h-43z" />
    <glyph glyph-name="uni0439" unicode="&#x439;" horiz-adv-x="551" 
d="M420 0v346l-290 -314v-32h-42v431h42v-348l290 316v32h43v-431h-43z" />
    <glyph glyph-name="uni043A" unicode="&#x43a;" horiz-adv-x="464" 
d="M130 431v-198h22q50 0 86 55l55 86q22 32 40 46.5t47 14.5h40v-37h-29q-17 0 -29.5 -6.5t-19.5 -14.5t-19 -26l-49 -75q-20 -32 -42.5 -44.5t-55.5 -13.5l255 -218h-58l-243 210v-210h-42v431h42z" />
    <glyph glyph-name="uni043B" unicode="&#x43b;" horiz-adv-x="542" 
d="M13 -11v39h20q34 0 50.5 15.5t16.5 65.5v322h354v-431h-43v393h-269v-290q0 -65 -27.5 -89.5t-75.5 -24.5h-26z" />
    <glyph glyph-name="uni043C" unicode="&#x43c;" horiz-adv-x="668" 
d="M580 431v-431h-40v394l-191 -394h-29l-192 394v-394h-40v431h65l181 -373l181 373h65z" />
    <glyph glyph-name="uni043D" unicode="&#x43d;" horiz-adv-x="557" 
d="M426 0v196h-296v-196h-42v431h42v-197h296v197h43v-431h-43z" />
    <glyph glyph-name="uni043E" unicode="&#x43e;" horiz-adv-x="543" 
d="M270 -10q-99 0 -162 66t-63 159q0 94 62.5 160t162.5 66q102 0 165 -66t63 -160t-63.5 -159.5t-164.5 -65.5zM270 30q83 0 134 54t51 131q0 78 -51 132t-134 54q-81 0 -131.5 -54t-50.5 -132q0 -77 50.5 -131t131.5 -54z" />
    <glyph glyph-name="uni043F" unicode="&#x43f;" horiz-adv-x="567" 
d="M479 431v-431h-42v393h-307v-393h-42v431h391z" />
    <glyph glyph-name="uni0440" unicode="&#x440;" 
d="M316 401q-83 0 -134.5 -54t-51.5 -131q0 -78 51.5 -132t134.5 -54q81 0 131.5 54t50.5 132q0 77 -50.5 131t-131.5 54zM130 431v-110q22 54 72 87t115 33q99 0 161 -66t62 -159q0 -94 -62 -160t-161 -66q-65 0 -115 33t-72 87v-379h-42v700h42z" />
    <glyph glyph-name="uni0441" unicode="&#x441;" horiz-adv-x="519" 
d="M465 274h-43q-6 55 -44.5 91.5t-113.5 36.5q-80 0 -126 -54.5t-46 -131.5q0 -78 45.5 -132t128.5 -54q135 0 158 118h43q-10 -71 -61.5 -114.5t-141.5 -43.5q-100 0 -157 66.5t-57 159.5t57 159t157 66q95 0 144.5 -48t56.5 -119z" />
    <glyph glyph-name="uni0442" unicode="&#x442;" horiz-adv-x="359" 
d="M17 431h324v-38h-141v-393h-42v393h-141v38z" />
    <glyph glyph-name="uni0443" unicode="&#x443;" horiz-adv-x="562" 
d="M280 -279q-102 0 -149.5 51.5t-49.5 155.5h42q4 -86 40.5 -127.5t117.5 -41.5q79 0 117 42.5t38 141.5v169q-19 -53 -64 -87.5t-110 -34.5q-88 0 -134 49q-41 44 -41 149v243h42v-233q0 -84 32.5 -126.5t112.5 -42.5q76 0 119 56.5t43 126.5v219h42v-488
q0 -118 -48.5 -170t-149.5 -52z" />
    <glyph glyph-name="uni0444" unicode="&#x444;" horiz-adv-x="584" 
d="M273 -269v259q-101 3 -164.5 67t-63.5 158q0 95 63.5 159t164.5 66v260h38v-260q101 -2 164.5 -66.5t63.5 -158.5t-63.5 -158t-164.5 -67v-259h-38zM87 215q0 -80 51 -133.5t135 -54.5v377q-84 -1 -135 -55t-51 -134zM497 215q0 80 -51 134t-135 55v-377q84 1 135 54.5
t51 133.5z" />
    <glyph glyph-name="uni0445" unicode="&#x445;" horiz-adv-x="427" 
d="M238 216l159 -216h-50l-134 183l-133 -183h-50l158 216l-157 215h50l132 -182l133 182h50z" />
    <glyph glyph-name="uni0446" unicode="&#x446;" horiz-adv-x="571" 
d="M541 -97h-42v97h-411v431h42v-393h294v393h43v-393h74v-135z" />
    <glyph glyph-name="uni0447" unicode="&#x447;" horiz-adv-x="450" 
d="M362 0h-42v148h-118q-74 0 -114 39t-40 113v131h43v-130q0 -115 116 -115h113v245h42v-431z" />
    <glyph glyph-name="uni0448" unicode="&#x448;" horiz-adv-x="792" 
d="M418 431v-393h244v393h42v-431h-616v431h42v-393h245v393h43z" />
    <glyph glyph-name="uni0449" unicode="&#x449;" horiz-adv-x="808" 
d="M778 -97h-42v97h-648v431h42v-393h245v393h43v-393h244v393h42v-393h74v-135z" />
    <glyph glyph-name="uni044A" unicode="&#x44a;" horiz-adv-x="462" 
d="M113 0v393h-94v38h134v-173h139q54 0 88.5 -37t34.5 -92q0 -54 -35.5 -91.5t-90.5 -37.5h-176zM287 221h-134v-184h131q38 0 64 27t26 65t-24.5 65t-62.5 27z" />
    <glyph glyph-name="uni044B" unicode="&#x44b;" horiz-adv-x="581" 
d="M88 0v431h41v-173h138q54 0 88.5 -37t34.5 -92q0 -54 -35.5 -91.5t-90.5 -37.5h-176zM451 0v431h42v-431h-42zM262 221h-133v-184h130q39 0 65 27t26 65t-25 65t-63 27z" />
    <glyph glyph-name="uni044C" unicode="&#x44c;" horiz-adv-x="437" 
d="M88 0v431h41v-173h138q54 0 88.5 -37t34.5 -92q0 -54 -35.5 -91.5t-90.5 -37.5h-176zM262 221h-133v-184h130q39 0 65 27t26 65t-25 65t-63 27z" />
    <glyph glyph-name="uni044D" unicode="&#x44d;" horiz-adv-x="521" 
d="M97 274h-43q6 71 57 119t145 48q101 0 158.5 -65.5t57.5 -159.5t-57 -160t-159 -66q-91 0 -143.5 44t-60.5 114h43q10 -53 50 -85.5t112 -32.5q78 0 123 47.5t49 119.5h-211v36h211q-4 72 -49 120.5t-123 48.5q-75 0 -114 -36.5t-46 -91.5z" />
    <glyph glyph-name="uni044E" unicode="&#x44e;" horiz-adv-x="724" 
d="M227 195h-97v-195h-42v431h42v-198h97q6 88 68 148t156 60q102 0 165 -66t63 -160t-63.5 -159.5t-164.5 -65.5q-94 0 -155.5 59t-68.5 146zM451 30q83 0 134 54t51 131q0 78 -51 132t-134 54q-81 0 -131.5 -54t-50.5 -132q0 -77 50.5 -131t131.5 -54z" />
    <glyph glyph-name="uni044F" unicode="&#x44f;" horiz-adv-x="475" 
d="M189 192h156v202h-156q-49 0 -79 -30t-30 -72q0 -41 30 -70.5t79 -29.5zM204 154l-109 -154h-50l114 158q-51 4 -86.5 44.5t-35.5 89.5q0 58 41 98.5t105 40.5h204v-431h-42v154h-141z" />
    <glyph glyph-name="uni0451" unicode="&#x451;" horiz-adv-x="513" 
d="M458 211h-366q1 -78 44.5 -130.5t127.5 -52.5q56 0 94 26.5t52 66.5h43q-13 -55 -63.5 -93t-125.5 -38q-104 0 -159.5 65t-55.5 161q0 99 56.5 162t155.5 63q83 0 141 -55.5t58 -137.5q0 -21 -2 -37zM259 406q-72 0 -117 -43.5t-50 -115.5h326q0 70 -46 114.5t-113 44.5z
" />
    <glyph glyph-name="uni0453" unicode="&#x453;" horiz-adv-x="351" 
d="M88 431h248v-38h-206v-393h-42v431z" />
    <glyph glyph-name="uni0454" unicode="&#x454;" horiz-adv-x="522" 
d="M467 274h-43q-7 55 -46 91.5t-114 36.5q-78 0 -123.5 -48.5t-48.5 -120.5h211v-36h-211q3 -72 48.5 -119.5t123.5 -47.5q72 0 112 32.5t50 85.5h43q-8 -70 -60.5 -114t-143.5 -44q-102 0 -159 66t-57 160t57.5 159.5t158.5 65.5q94 0 145 -48t57 -119z" />
    <glyph glyph-name="uni0455" unicode="&#x455;" horiz-adv-x="448" 
d="M240 232q33 -7 47 -10.5t39.5 -12.5t37 -20t21 -30.5t9.5 -44.5q0 -59 -43 -91.5t-121 -32.5q-80 0 -131 38.5t-51 117.5h42q0 -62 39 -90.5t102 -28.5q59 0 90.5 22.5t31.5 62.5q0 22 -10 37.5t-28.5 24.5t-40.5 15t-52 12q-10 2 -16 3q-36 7 -55.5 12.5t-43.5 18
t-34.5 33.5t-10.5 51q0 57 43 89.5t114 32.5q75 0 121.5 -38t46.5 -105h-42q0 51 -34 78.5t-91 27.5q-53 0 -85 -22.5t-32 -63.5q0 -17 7.5 -30t16 -20.5t30.5 -15t35.5 -10.5t47.5 -10z" />
    <glyph glyph-name="uni0457" unicode="&#x457;" horiz-adv-x="0" 
 />
    <glyph glyph-name="uni0458" unicode="&#x458;" horiz-adv-x="218" 
d="M61 606q0 21 14 35.5t35 14.5t35 -14.5t14 -35.5q0 -20 -14 -34.5t-35 -14.5t-35 14.5t-14 34.5zM130 431v-579q0 -61 -27.5 -94t-72.5 -33q-41 0 -66 12v41q29 -13 57 -13q31 0 49 24.5t18 66.5v575h42z" />
    <glyph glyph-name="uni0459" unicode="&#x459;" horiz-adv-x="542" 
d="M13 -11v39h20q34 0 50.5 15.5t16.5 65.5v322h354v-431h-43v393h-269v-290q0 -65 -27.5 -89.5t-75.5 -24.5h-26z" />
    <glyph glyph-name="uni045A" unicode="&#x45a;" horiz-adv-x="557" 
d="M426 0v196h-296v-196h-42v431h42v-197h296v197h43v-431h-43z" />
    <glyph glyph-name="uni045C" unicode="&#x45c;" horiz-adv-x="464" 
d="M130 431v-198h22q50 0 86 55l55 86q22 32 40 46.5t47 14.5h40v-37h-29q-17 0 -29.5 -6.5t-19.5 -14.5t-19 -26l-49 -75q-20 -32 -42.5 -44.5t-55.5 -13.5l255 -218h-58l-243 210v-210h-42v431h42z" />
    <glyph glyph-name="uni045E" unicode="&#x45e;" horiz-adv-x="562" 
d="M280 -279q-102 0 -149.5 51.5t-49.5 155.5h42q4 -86 40.5 -127.5t117.5 -41.5q79 0 117 42.5t38 141.5v169q-19 -53 -64 -87.5t-110 -34.5q-88 0 -134 49q-41 44 -41 149v243h42v-233q0 -84 32.5 -126.5t112.5 -42.5q76 0 119 56.5t43 126.5v219h42v-488
q0 -118 -48.5 -170t-149.5 -52z" />
    <glyph glyph-name="uni0490" unicode="&#x490;" horiz-adv-x="472" 
d="M88 0v700h370v-41h-326v-659h-44z" />
    <glyph glyph-name="uni0491" unicode="&#x491;" horiz-adv-x="351" 
d="M88 431h248v-38h-206v-393h-42v431z" />
    <glyph glyph-name="Wgrave" unicode="&#x1e80;" horiz-adv-x="926" 
d="M649 0l-186 628l-185 -628h-37l-235 700h47l206 -629l186 629h37l186 -629l205 629h47l-235 -700h-36z" />
    <glyph glyph-name="wgrave" unicode="&#x1e81;" horiz-adv-x="695" 
d="M483 0l-136 382l-136 -382h-33l-166 431h45l137 -370l132 370h43l131 -370l137 370h46l-166 -431h-34z" />
    <glyph glyph-name="Wacute" unicode="&#x1e82;" horiz-adv-x="926" 
d="M649 0l-186 628l-185 -628h-37l-235 700h47l206 -629l186 629h37l186 -629l205 629h47l-235 -700h-36z" />
    <glyph glyph-name="wacute" unicode="&#x1e83;" horiz-adv-x="695" 
d="M483 0l-136 382l-136 -382h-33l-166 431h45l137 -370l132 370h43l131 -370l137 370h46l-166 -431h-34z" />
    <glyph glyph-name="Wdieresis" unicode="&#x1e84;" horiz-adv-x="926" 
d="M649 0l-186 628l-185 -628h-37l-235 700h47l206 -629l186 629h37l186 -629l205 629h47l-235 -700h-36z" />
    <glyph glyph-name="wdieresis" unicode="&#x1e85;" horiz-adv-x="695" 
d="M483 0l-136 382l-136 -382h-33l-166 431h45l137 -370l132 370h43l131 -370l137 370h46l-166 -431h-34z" />
    <glyph glyph-name="Ygrave" unicode="&#x1ef2;" horiz-adv-x="548" 
d="M545 700l-362 -700h-49l143 275l-270 425h52l241 -380l197 380h48z" />
    <glyph glyph-name="ygrave" unicode="&#x1ef3;" horiz-adv-x="562" 
d="M280 -279q-102 0 -149.5 51.5t-49.5 155.5h42q4 -86 40.5 -127.5t117.5 -41.5q79 0 117 42.5t38 141.5v169q-19 -53 -64 -87.5t-110 -34.5q-88 0 -134 49q-41 44 -41 149v243h42v-233q0 -84 32.5 -126.5t112.5 -42.5q76 0 119 56.5t43 126.5v219h42v-488
q0 -118 -48.5 -170t-149.5 -52z" />
    <glyph glyph-name="endash" unicode="&#x2013;" horiz-adv-x="294" 
d="M264 305v-40h-234v40h234z" />
    <glyph glyph-name="emdash" unicode="&#x2014;" horiz-adv-x="294" 
d="M264 305v-40h-234v40h234z" />
    <glyph glyph-name="ff" unicode="&#xfb00;" horiz-adv-x="644" 
d="M316 695v-38q-24 10 -58 10q-39 0 -64 -23t-25 -90v-123h147v-38h-147v-393h-42v393h-103v38h103v120q0 49 11.5 82t32.5 48t40.5 20t43.5 5q32 0 61 -11zM638 695v-38q-24 10 -58 10q-39 0 -64 -23t-25 -90v-123h147v-38h-147v-393h-42v393h-103v38h103v120
q0 49 11.5 82t32.5 48t40.5 20t43.5 5q32 0 61 -11z" />
    <glyph glyph-name="fi" unicode="&#xfb01;" horiz-adv-x="540" 
d="M316 695v-38q-24 10 -58 10q-39 0 -64 -23t-25 -90v-123h147v-38h-147v-393h-42v393h-103v38h103v120q0 49 11.5 82t32.5 48t40.5 20t43.5 5q32 0 61 -11zM382 606q0 21 14.5 35.5t34.5 14.5q21 0 35.5 -14.5t14.5 -35.5q0 -20 -14.5 -34.5t-35.5 -14.5q-20 0 -34.5 14.5
t-14.5 34.5zM410 0v431h42v-431h-42z" />
  </font>
</defs>
</svg>
