<svg xmlns="http://www.w3.org/2000/svg">
<defs>
<font id="GTWalsheimLight" horiz-adv-x="570" >
  <font-face 
    font-family="GTWalsheimLight"
    font-weight="350"
    font-stretch="normal"
    units-per-em="1000"
    panose-1="2 0 5 3 3 0 0 2 0 3"
    ascent="730"
    descent="-270"
    x-height="443"
    cap-height="700"
    bbox="-140 -328 1168 976"
    underline-thickness="50"
    underline-position="-50"
    unicode-range="U+000D-U+FB04"
  />
<missing-glyph horiz-adv-x="800" 
d="M400 717q84 0 151.5 -30.5t114 -81.5t71.5 -117.5t25 -137.5t-25 -137.5t-71.5 -117.5t-114 -81.5t-151.5 -30.5t-151.5 30.5t-114 81.5t-71.5 117.5t-25 137.5t25 137.5t71.5 117.5t114 81.5t151.5 30.5zM400 695q-76 0 -143 -29q-60 -27 -106 -76q-45 -50 -67 -110
q-24 -63 -24 -130q0 -68 24 -129q22 -62 67 -110q46 -50 106 -76q67 -29 143 -29t142 29q60 26 106 76q45 48 67 110q24 61 24 129q0 67 -24 130q-22 60 -67 110q-46 49 -106 76q-66 29 -142 29zM168 228l47 -28t44 -22.5t45.5 -15t51.5 -5.5q21 0 49 1.5t58.5 5t60 11
t52.5 19.5q1 0 3 2q-13 -28 -42 -54t-65 -45q-57 -31 -106 -31t-97.5 37.5t-100.5 124.5zM219 259l179 268l-110 -243h178v-25h-247zM230 169q15 -22 34 -37t38.5 -24t36.5 -12.5t27 -3.5q25 0 52 9t50 20t39 21t20 13l-81 -15.5t-88 -7.5q-13 0 -30.5 1.5t-35.5 6
t-34.5 11.5t-27.5 18zM498 500q0 18 12.5 30.5t29.5 12.5q18 0 30.5 -12.5t12.5 -30.5q0 -17 -12.5 -30t-30.5 -13q-17 0 -29.5 13t-12.5 30zM201 500q0 18 12.5 30.5t29.5 12.5q18 0 30.5 -12.5t12.5 -30.5q0 -17 -12.5 -30t-30.5 -13q-17 0 -29.5 13t-12.5 30zM600 161
q2 5 2 9.5v8.5q-2 9 -4 13q-1 3 -3 5q-1 0 -3 2q-2 0 -4 2l-14 5l-16.5 8t-16.5 11q-10 7 -18 20l-4 11q-1 4 -2 7t-1 7q-2 8 -3 15.5t-1 15.5q1 5 1 10t2 9l15 -5q0 -2 -0.5 -4.5t-0.5 -5.5v-13q1 -7 1.5 -14t2.5 -13q2 -4 2.5 -7t2.5 -5q3 -6 8 -10.5l11 -9.5q6 -4 13 -7
t13 -6l15 -6q3 -1 7 -5q6 -4 7 -9q5 -9 6 -19v-12t-2 -12zM213 331q0 -5 0.5 -10t1.5 -10t1.5 -10t0.5 -10q0 -10 -7 -20q-7 -9 -14 -13q-1 0 -2 -0.5t-2 -0.5q-5 -2 -10.5 -4.5t-10.5 -5.5q-4 -1 -10 -5q-4 -4 -6 -5q-3 -5 -5 -13q-1 -5 -1.5 -9t-0.5 -8h-16q0 5 0.5 10

<glyph glyph-name="IJ" unicode="IJ" horiz-adv-x="772" 
d="M699 216q0 -51 -15.5 -93.5t-44.5 -73t-69.5 -47.5t-91.5 -17q-50 0 -91.5 17t-71.5 47.5t-46.5 73.5t-16.5 94h68q0 -39 12 -70.5t33 -53.5t50 -34t63 -12q70 0 111 45.5t41 123.5v484h69v-484zM83 700h70v-700h-70v700z" />
    <glyph glyph-name="ij" unicode="ij" horiz-adv-x="461" 
d="M83 443h65v-443h-65v443zM56 616q0 26 17 43.5t42 17.5q26 0 43.5 -17.5t17.5 -43.5q0 -25 -17.5 -42t-43.5 -17q-25 0 -42 17t-17 42zM378 -135q0 -34 -7.5 -58.5t-21 -40.5t-31.5 -23.5t-38 -7.5q-47 0 -74 12v57q15 -6 25.5 -8.5t24.5 -2.5q27 0 42 19t15 57v574h65
v-578zM286 616q0 26 17 43.5t42 17.5q26 0 43.5 -17.5t17.5 -43.5q0 -25 -17.5 -42t-43.5 -17q-25 0 -42 17t-17 42z" />
    <glyph glyph-name="uniFB00" unicode="ff" horiz-adv-x="670" 
d="M326 638q-12 5 -24 7t-30 2q-15 0 -30 -2.5t-27 -12.5t-19.5 -30t-7.5 -54v-105h138v-56h-138v-387h-65v387h-101v56h101v99q0 57 14.5 89.5t36 49t46 21t44.5 4.5q22 0 36.5 -3.5t25.5 -8.5v-56zM661 638q-12 5 -24 7t-30 2q-15 0 -30 -2.5t-27 -12.5t-19.5 -30
t-7.5 -54v-105h138v-56h-138v-387h-65v387h-101v56h101v99q0 57 14.5 89.5t36 49t46 21t44.5 4.5q22 0 36.5 -3.5t25.5 -8.5v-56z" />
    <glyph glyph-name="fi" unicode="fi" horiz-adv-x="588" 
d="M326 638q-12 5 -24 7t-30 2q-15 0 -30 -2.5t-27 -12.5t-19.5 -30t-7.5 -54v-105h138v-56h-138v-387h-65v387h-101v56h101v99q0 57 14.5 89.5t36 49t46 21t44.5 4.5q22 0 36.5 -3.5t25.5 -8.5v-56zM429 443h65v-443h-65v443zM404 616q0 25 16.5 41.5t40.5 16.5
q25 0 42 -16.5t17 -41.5q0 -24 -17 -40.5t-42 -16.5q-24 0 -40.5 16.5t-16.5 40.5z" />
    <glyph glyph-name="fl" unicode="fl" horiz-adv-x="566" 
d="M326 638q-12 5 -24 7t-30 2q-15 0 -30 -2.5t-27 -12.5t-19.5 -30t-7.5 -54v-105h138v-56h-138v-387h-65v387h-101v56h101v99q0 57 14.5 89.5t36 49t46 21t44.5 4.5q22 0 36.5 -3.5t25.5 -8.5v-56zM418 700h65v-700h-65v700z" />
    <glyph glyph-name="uniFB03" unicode="ffi" horiz-adv-x="923" 
d="M326 638q-12 5 -24 7t-30 2q-15 0 -30 -2.5t-27 -12.5t-19.5 -30t-7.5 -54v-105h138v-56h-138v-387h-65v387h-101v56h101v99q0 57 14.5 89.5t36 49t46 21t44.5 4.5q22 0 36.5 -3.5t25.5 -8.5v-56zM661 638q-12 5 -24 7t-30 2q-15 0 -30 -2.5t-27 -12.5t-19.5 -30
t-7.5 -54v-105h138v-56h-138v-387h-65v387h-101v56h101v99q0 57 14.5 89.5t36 49t46 21t44.5 4.5q22 0 36.5 -3.5t25.5 -8.5v-56zM764 443h65v-443h-65v443zM737 616q0 26 17 43.5t42 17.5q26 0 43.5 -17.5t17.5 -43.5q0 -25 -17.5 -42t-43.5 -17q-25 0 -42 17t-17 42z" />
    <glyph glyph-name="uniFB04" unicode="ffl" horiz-adv-x="899" 
d="M326 638q-12 5 -24 7t-30 2q-15 0 -30 -2.5t-27 -12.5t-19.5 -30t-7.5 -54v-105h138v-56h-138v-387h-65v387h-101v56h101v99q0 57 14.5 89.5t36 49t46 21t44.5 4.5q22 0 36.5 -3.5t25.5 -8.5v-56zM661 638q-12 5 -24 7t-30 2q-15 0 -30 -2.5t-27 -12.5t-19.5 -30
t-7.5 -54v-105h138v-56h-138v-387h-65v387h-101v56h101v99q0 57 14.5 89.5t36 49t46 21t44.5 4.5q22 0 36.5 -3.5t25.5 -8.5v-56zM753 700h65v-700h-65v700z" />
    <glyph glyph-name=".notdef" horiz-adv-x="800" 
d="M400 717q84 0 151.5 -30.5t114 -81.5t71.5 -117.5t25 -137.5t-25 -137.5t-71.5 -117.5t-114 -81.5t-151.5 -30.5t-151.5 30.5t-114 81.5t-71.5 117.5t-25 137.5t25 137.5t71.5 117.5t114 81.5t151.5 30.5zM400 695q-76 0 -143 -29q-60 -27 -106 -76q-45 -50 -67 -110
q-24 -63 -24 -130q0 -68 24 -129q22 -62 67 -110q46 -50 106 -76q67 -29 143 -29t142 29q60 26 106 76q45 48 67 110q24 61 24 129q0 67 -24 130q-22 60 -67 110q-46 49 -106 76q-66 29 -142 29zM168 228l47 -28t44 -22.5t45.5 -15t51.5 -5.5q21 0 49 1.5t58.5 5t60 11
t52.5 19.5q1 0 3 2q-13 -28 -42 -54t-65 -45q-57 -31 -106 -31t-97.5 37.5t-100.5 124.5zM219 259l179 268l-110 -243h178v-25h-247zM230 169q15 -22 34 -37t38.5 -24t36.5 -12.5t27 -3.5q25 0 52 9t50 20t39 21t20 13l-81 -15.5t-88 -7.5q-13 0 -30.5 1.5t-35.5 6
t-34.5 11.5t-27.5 18zM498 500q0 18 12.5 30.5t29.5 12.5q18 0 30.5 -12.5t12.5 -30.5q0 -17 -12.5 -30t-30.5 -13q-17 0 -29.5 13t-12.5 30zM201 500q0 18 12.5 30.5t29.5 12.5q18 0 30.5 -12.5t12.5 -30.5q0 -17 -12.5 -30t-30.5 -13q-17 0 -29.5 13t-12.5 30zM600 161
q2 5 2 9.5v8.5q-2 9 -4 13q-1 3 -3 5q-1 0 -3 2q-2 0 -4 2l-14 5l-16.5 8t-16.5 11q-10 7 -18 20l-4 11q-1 4 -2 7t-1 7q-2 8 -3 15.5t-1 15.5q1 5 1 10t2 9l15 -5q0 -2 -0.5 -4.5t-0.5 -5.5v-13q1 -7 1.5 -14t2.5 -13q2 -4 2.5 -7t2.5 -5q3 -6 8 -10.5l11 -9.5q6 -4 13 -7
t13 -6l15 -6q3 -1 7 -5q6 -4 7 -9q5 -9 6 -19v-12t-2 -12zM213 331q0 -5 0.5 -10t1.5 -10t1.5 -10t0.5 -10q0 -10 -7 -20q-7 -9 -14 -13q-1 0 -2 -0.5t-2 -0.5q-5 -2 -10.5 -4.5t-10.5 -5.5q-4 -1 -10 -5q-4 -4 -6 -5q-3 -5 -5 -13q-1 -5 -1.5 -9t-0.5 -8h-16q0 5 0.5 10
t1.5 10q2 5 3.5 10t5.5 10q2 2 9 8l11 7q5 3 11.5 5.5t12.5 4.5l1 1q4 1 9 8q4 6 4 10q0 5 -0.5 9t-1.5 9l-3 20z" />
    <glyph glyph-name=".null" horiz-adv-x="0" 
 />
    <glyph glyph-name=".null" horiz-adv-x="0" 
 />
    <glyph glyph-name="nonmarkingreturn" unicode="&#xd;" horiz-adv-x="250" 
 />
    <glyph glyph-name="space" unicode=" " horiz-adv-x="255" 
 />
    <glyph glyph-name="exclam" unicode="!" horiz-adv-x="283" 
d="M106 708h71v-505h-71v505zM80 51q0 26 17.5 44t43.5 18t44.5 -18t18.5 -44t-18.5 -44t-44.5 -18t-43.5 18t-17.5 44z" />
    <glyph glyph-name="quotedbl" unicode="&#x22;" horiz-adv-x="320" 
d="M60 666v51h62v-51l-13 -200h-36zM198 666v51h62v-51l-13 -200h-36z" />
    <glyph glyph-name="numbersign" unicode="#" horiz-adv-x="550" 
d="M336 214h-150l-30 -214h-55l30 214h-102v52h109l23 168h-102v52h110l29 214h55l-29 -214h150l29 214h55l-29 -214h92v-52h-100l-23 -168h93v-52h-100l-30 -214h-55zM193 266h150l23 168h-150z" />
    <glyph glyph-name="dollar" unicode="$" horiz-adv-x="572" 
d="M336 713q88 -8 140 -62.5t54 -145.5h-69q-1 69 -39.5 108.5t-107.5 39.5q-73 0 -113 -33t-40 -87q0 -35 13 -58.5t35 -39t50.5 -25t58.5 -17.5q40 -11 81 -25.5t73 -37t52.5 -57t20.5 -86.5q0 -45 -15 -81t-43 -61.5t-66.5 -40t-84.5 -18.5v-101h-52v101q-48 4 -88 22
t-68.5 48t-44.5 71t-16 90h68q0 -77 48 -123.5t132 -46.5q73 0 117.5 35.5t44.5 97.5q0 37 -14 61t-36 39.5t-50 25t-55 16.5q-46 13 -87.5 27.5t-73 37t-50 57.5t-18.5 89q0 36 13 67t38 55t60 39.5t80 19.5v101h52v-102z" />
    <glyph glyph-name="percent" unicode="%" horiz-adv-x="883" 
d="M816 118q0 -26 -9.5 -48.5t-27.5 -40t-43 -27.5t-55 -10q-31 0 -56 10.5t-42.5 28.5t-27 41.5t-9.5 49.5v144q0 25 9.5 48t27.5 40.5t43 27.5t55 10q31 0 56 -10.5t42.5 -28.5t27 -41.5t9.5 -49.5v-144zM601 122q0 -34 21.5 -58.5t58.5 -24.5t58.5 24.5t21.5 58.5v140
q0 34 -21.5 58.5t-58.5 24.5t-58.5 -24.5t-21.5 -58.5v-140zM66 437v143q0 26 9.5 49t27 40.5t42.5 27.5t55 10q31 0 56 -10.5t43 -28.5t27.5 -41.5t9.5 -50.5v-143q0 -26 -9.5 -49t-27.5 -40t-43 -27t-56 -10t-55.5 10.5t-42 28t-27 41t-9.5 50.5zM281 576q0 34 -21.5 59
t-59.5 25q-36 0 -57.5 -25t-21.5 -59v-139q0 -34 21.5 -59t57.5 -25q38 0 59.5 25t21.5 59v139zM636 752l52 -31l-437 -753l-52 31z" />
    <glyph glyph-name="ampersand" unicode="&#x26;" horiz-adv-x="599" 
d="M351 296h227v-62h-66q0 -54 -16 -99t-45.5 -77.5t-71.5 -50.5t-96 -18q-49 0 -91.5 14.5t-74 41.5t-49.5 65t-18 86q0 64 36.5 106t98.5 61q-58 17 -90 57t-32 103q0 42 16.5 77t45.5 59.5t68.5 38t85.5 13.5q48 0 87.5 -14.5t68 -41t44 -63.5t15.5 -82h-69
q0 62 -37.5 100t-111.5 38q-66 0 -105 -33t-39 -92q0 -56 36 -92.5t113 -36.5h29v-61h-29q-81 0 -122 -40t-41 -103q0 -29 11.5 -54t32.5 -44t51.5 -29.5t69.5 -10.5q40 0 70 13.5t50 38t30 58t10 72.5h-92v62z" />
    <glyph glyph-name="quotesingle" unicode="'" horiz-adv-x="182" 
d="M60 666v51h62v-51l-13 -200h-36z" />
    <glyph glyph-name="parenleft" unicode="(" horiz-adv-x="346" 
d="M331 732q-37 0 -67.5 -13.5t-52 -36.5t-33 -54t-11.5 -66v-570q0 -35 11.5 -65.5t33 -53.5t52 -36.5t67.5 -13.5v-63q-53 0 -95.5 18.5t-73 50.5t-47 74t-16.5 89v570q0 47 16.5 89.5t47 74t73 50t95.5 18.5v-62z" />
    <glyph glyph-name="parenright" unicode=")" horiz-adv-x="346" 
d="M15 794q53 0 96 -18.5t73 -50t46.5 -74t16.5 -89.5v-570q0 -47 -16.5 -89t-46.5 -74t-73 -50.5t-96 -18.5v63q37 0 67.5 13.5t52 36.5t33 53.5t11.5 65.5v570q0 35 -11.5 66t-33 54t-52 36.5t-67.5 13.5v62z" />
    <glyph glyph-name="asterisk" unicode="*" horiz-adv-x="454" 
d="M96 393l106 133l-154 43l14 44l150 -58l-8 162h47l-8 -162l149 58l15 -44l-155 -43l106 -133l-40 -29l-90 141l-92 -141z" />
    <glyph glyph-name="plus" unicode="+" 
d="M252 88v167h-164v59h164v168h65v-168h165v-59h-165v-167h-65z" />
    <glyph glyph-name="comma" unicode="," horiz-adv-x="250" 
d="M55 54q0 26 17.5 43.5t44.5 17.5q36 0 57 -28t21 -71q0 -72 -36 -101.5t-97 -30.5v36q58 0 71 41q6 14 6.5 24t-0.5 18q-4 -4 -11 -6t-14 -2q-26 0 -42.5 17t-16.5 42z" />
    <glyph glyph-name="hyphen" unicode="-" horiz-adv-x="294" 
d="M264 255h-234v59h234v-59z" />
    <glyph glyph-name="period" unicode="." horiz-adv-x="230" 
d="M55 55q0 26 17 43t42 17q26 0 43.5 -17t17.5 -43q0 -25 -17.5 -42.5t-43.5 -17.5q-25 0 -42 17.5t-17 42.5z" />
    <glyph glyph-name="slash" unicode="/" horiz-adv-x="420" 
d="M374 799l60 -26l-364 -845l-60 25z" />
    <glyph glyph-name="zero" unicode="0" horiz-adv-x="578" 
d="M56 480q0 47 16.5 89.5t46.5 74t73 50t96 18.5t96.5 -18.5t74 -50t47 -74t16.5 -89.5v-261q0 -47 -16.5 -89t-47 -73.5t-74 -50t-96.5 -18.5t-96 18.5t-73 50t-46.5 73.5t-16.5 89v261zM453 480q0 35 -11.5 66t-33 54t-52 36.5t-68.5 13.5t-68 -13.5t-51.5 -36.5t-33 -54
t-11.5 -66v-261q0 -35 11.5 -65.5t33 -53.5t51.5 -36.5t68 -13.5t68.5 13.5t52 36.5t33 53.5t11.5 65.5v261z" />
    <glyph glyph-name="one" unicode="1" horiz-adv-x="325" 
d="M32 584q46 0 74.5 6.5t44 20t21 35.5t5.5 54h65v-700h-70v528h-140v56z" />
    <glyph glyph-name="two" unicode="2" horiz-adv-x="526" 
d="M47 0q0 82 13 138t39 94.5t65 64t90 48.5q31 13 60 27.5t51 34t35 46.5t13 65q0 60 -38 95t-106 35q-35 0 -63 -11t-48.5 -31.5t-31.5 -49t-11 -64.5h-68q0 49 17 89.5t46.5 69.5t70 44.5t88.5 15.5t87.5 -13.5t67 -39t42.5 -62.5t15 -83q0 -49 -19 -85t-47.5 -62
t-62 -43.5t-62.5 -29.5q-49 -23 -81 -45t-51 -48t-26.5 -59.5t-7.5 -78.5h360v-62h-437v0z" />
    <glyph glyph-name="three" unicode="3" horiz-adv-x="549" 
d="M101 208q0 -36 12.5 -64.5t34.5 -49t52.5 -31.5t66.5 -11t65.5 10.5t50 29.5t31.5 44.5t11 54.5q0 62 -39.5 102t-118.5 40h-53v61h53q73 0 109 36t36 93q0 59 -39.5 92t-105.5 33q-74 0 -111.5 -38t-37.5 -100h-68q0 45 15.5 82t43.5 63.5t67 41t87 14.5
q47 0 86.5 -13.5t68.5 -38t45.5 -59.5t16.5 -77q0 -62 -32.5 -104t-89.5 -56q62 -15 98.5 -59.5t36.5 -111.5q0 -45 -17 -82.5t-48 -64t-73 -41.5t-91 -15q-48 0 -90.5 15t-73.5 43.5t-49 69t-18 91.5h68z" />
    <glyph glyph-name="four" unicode="4" horiz-adv-x="546" 
d="M336 240h-266v460h68v-398h198v221h68v-221h114v-62h-114v-240h-68v240z" />
    <glyph glyph-name="five" unicode="5" horiz-adv-x="590" 
d="M85 700h400v-62h-337v-273q11 21 29 37t40 26.5t46.5 16t47.5 5.5q54 0 95.5 -18t70 -49t43.5 -73t15 -89t-16.5 -89t-47 -74t-73.5 -50.5t-97 -18.5q-53 0 -95.5 18.5t-73 50.5t-47 74t-16.5 89h69q0 -35 11.5 -65.5t33 -53.5t51.5 -36.5t67 -13.5q38 0 69 13.5
t52.5 36.5t33 53.5t11.5 65.5q0 34 -11.5 65t-33 53.5t-52.5 36t-69 13.5q-51 0 -87.5 -23t-56.5 -68h-72v402z" />
    <glyph glyph-name="six" unicode="6" horiz-adv-x="543" 
d="M269 -11q-53 0 -95.5 18.5t-73 50.5t-47 74t-16.5 89q0 37 10.5 70.5t28.5 62.5l215 346h79l-172 -269q11 11 31 16.5t40 5.5q53 0 96.5 -18.5t74 -50t47 -74t16.5 -89.5t-16.5 -89t-47 -74t-74 -50.5t-96.5 -18.5zM269 52q38 0 68.5 13.5t52.5 36.5t33.5 53.5t11.5 65.5
q0 34 -11.5 65t-33.5 54.5t-52.5 37t-68.5 13.5q-37 0 -67.5 -13.5t-52 -37t-33 -54.5t-11.5 -65q0 -35 11.5 -65.5t33 -53.5t52 -36.5t67.5 -13.5z" />
    <glyph glyph-name="seven" unicode="7" horiz-adv-x="454" 
d="M459 700l-323 -700h-73l298 638h-323v62h421z" />
    <glyph glyph-name="eight" unicode="8" horiz-adv-x="571" 
d="M286 -11q-54 0 -96.5 15.5t-72.5 43t-46 64.5t-16 80q0 29 8 57t24.5 51t40.5 39.5t57 24.5q-60 17 -88 60t-28 96q0 40 15 75t43 61t68 40.5t91 14.5q50 0 90 -15t68 -40.5t43 -60.5t15 -75q0 -53 -28 -96t-88 -60q33 -8 57 -24.5t40.5 -40t24.5 -51t8 -56.5
q0 -42 -16 -79t-46 -64.5t-72.5 -43.5t-95.5 -16zM286 388q70 0 109 37t39 92q0 56 -39.5 93.5t-108.5 37.5t-108.5 -37t-39.5 -94q0 -55 39 -92t109 -37zM286 52q37 0 67 11t51 29.5t32.5 44t11.5 55.5q0 29 -11 54.5t-32 44.5t-51 30t-68 11q-39 0 -69 -11t-51 -29.5
t-32 -44t-11 -55.5t11.5 -55.5t32.5 -44.5t51 -29.5t68 -10.5z" />
    <glyph glyph-name="nine" unicode="9" horiz-adv-x="543" 
d="M274 711q52 0 95 -18.5t73.5 -50.5t47 -74t16.5 -89q0 -37 -10.5 -70.5t-28.5 -62.5l-215 -346h-79l172 269q-10 -11 -28 -16.5t-35 -5.5q-55 0 -100 18t-76.5 49t-48.5 73.5t-17 91.5q0 47 16.5 89t47 74t74 50.5t96.5 18.5zM274 648q-38 0 -68.5 -13.5t-52.5 -36.5
t-33.5 -54t-11.5 -65q0 -35 11.5 -65.5t33.5 -54t52.5 -37t68.5 -13.5q37 0 67.5 13.5t52 37t33 54t11.5 65.5q0 34 -11.5 65t-33 54t-52 36.5t-67.5 13.5z" />
    <glyph glyph-name="colon" unicode=":" horiz-adv-x="230" 
d="M55 394q0 25 17 42.5t42 17.5q26 0 43.5 -17.5t17.5 -42.5q0 -26 -17.5 -43t-43.5 -17q-25 0 -42 17t-17 43zM55 54q0 26 17 43.5t42 17.5q26 0 43.5 -17.5t17.5 -43.5q0 -25 -17.5 -42t-43.5 -17q-25 0 -42 17t-17 42z" />
    <glyph glyph-name="semicolon" unicode=";" horiz-adv-x="235" 
d="M55 54q0 26 17.5 43.5t44.5 17.5q36 0 57 -28t21 -71q0 -72 -36 -101.5t-97 -30.5v36q58 0 71 41q6 14 6.5 24t-0.5 18q-4 -4 -11 -6t-14 -2q-26 0 -42.5 17t-16.5 42zM55 394q0 26 17 43.5t42 17.5q26 0 43.5 -17.5t17.5 -43.5q0 -25 -17.5 -42t-43.5 -17q-25 0 -42 17
t-17 42z" />
    <glyph glyph-name="less" unicode="&#x3c;" 
d="M31 259v49l507 185v-63l-411 -146l411 -147v-63z" />
    <glyph glyph-name="equal" unicode="=" 
d="M83 338v59h404v-59h-404zM83 170v59h404v-59h-404z" />
    <glyph glyph-name="greater" unicode="&#x3e;" 
d="M32 74v63l411 147l-411 146v63l507 -185v-49z" />
    <glyph glyph-name="question" unicode="?" horiz-adv-x="497" 
d="M190 188q0 38 6 66.5t17.5 50t29.5 39t43 33.5q15 9 32.5 21.5t33 29.5t25.5 40.5t10 54.5q0 62 -37.5 94.5t-106.5 32.5q-34 0 -62 -11t-48.5 -31.5t-31.5 -49.5t-11 -65h-68q0 50 16.5 90.5t46 69t70 44t88.5 15.5t87.5 -13t67 -37.5t43 -59.5t15.5 -79
q0 -39 -11.5 -67.5t-29 -49.5t-36.5 -35.5t-34 -24.5q-24 -16 -40.5 -29.5t-27.5 -30.5t-16 -40t-5 -58h-66zM162 51q0 26 17.5 44t43.5 18t44 -18t18 -44t-18 -44t-44 -18t-43.5 18t-17.5 44z" />
    <glyph glyph-name="at" unicode="@" horiz-adv-x="877" 
d="M575 95q-20 -42 -61 -68t-94 -26q-45 0 -82.5 16.5t-64.5 44.5t-41.5 65.5t-14.5 78.5q0 42 14.5 79t41.5 65.5t64.5 45t82.5 16.5q53 0 94 -26t61 -68v85h55v-303q0 -49 19.5 -73t49.5 -24q21 0 38 13t29 42t18 77t6 119q0 74 -23.5 131.5t-68 96.5t-108.5 59.5
t-145 20.5q-71 0 -135.5 -24.5t-114 -70.5t-78.5 -112t-29 -149q0 -67 24 -130.5t71 -112.5t118 -79t166 -30q50 0 111.5 11t122.5 45l22 -45q-67 -38 -134.5 -50.5t-121.5 -12.5q-109 0 -190.5 34.5t-136 91t-81.5 129t-27 149.5q0 94 33.5 170t90.5 128.5t131.5 81
t157.5 28.5q94 0 168.5 -24t126 -70t79 -113t27.5 -153q0 -80 -9.5 -137.5t-28.5 -94.5t-48.5 -54t-69.5 -17q-49 0 -78.5 30.5t-36.5 79.5v34zM422 52q35 0 63 12.5t48 33.5t31 49t11 59t-11 59.5t-31 49.5t-48 33.5t-63 12.5q-33 0 -60.5 -12.5t-47 -33.5t-30.5 -49.5
t-11 -59.5t11 -59t30.5 -49t47 -33.5t60.5 -12.5z" />
    <glyph glyph-name="A" unicode="A" horiz-adv-x="546" 
d="M468 0l-43 125h-304l-43 -125h-72l241 700h52l241 -700h-72zM273 591l-131 -404h262z" />
    <glyph glyph-name="B" unicode="B" horiz-adv-x="583" 
d="M83 700h239q55 0 93 -17t62 -43.5t35 -59.5t11 -65q0 -31 -10 -58.5t-27 -48.5t-40 -35.5t-49 -19.5q23 -3 46.5 -16t42 -34.5t30.5 -50.5t12 -63q0 -32 -11.5 -65.5t-36.5 -61t-64 -45t-94 -17.5h-239v700zM151 321v-259h174q34 0 59.5 11t42 29.5t24.5 41.5t8 47
q0 22 -8 45.5t-24.5 42t-41 30.5t-57.5 12h-177zM325 383q33 0 57.5 11.5t40.5 30t24 41t8 44.5q0 23 -8 46t-24.5 41t-41.5 29.5t-59 11.5h-171v-255h174z" />
    <glyph glyph-name="C" unicode="C" horiz-adv-x="775" 
d="M733 206q-14 -47 -43.5 -87.5t-71.5 -70t-95 -46.5t-114 -17q-86 0 -153.5 29.5t-115 80t-72.5 116.5t-25 140q0 71 24.5 136.5t70 116t111 81t147.5 30.5q74 0 132 -19.5t100 -53t68 -79.5t37 -99h-71q-10 40 -31 74.5t-53.5 60t-76 40t-97.5 14.5q-69 0 -123 -25
t-91.5 -67t-57 -96.5t-19.5 -113.5q0 -62 20.5 -117t59.5 -96.5t95.5 -66t128.5 -24.5q41 0 79.5 12t70 33t55.5 50t36 64h75z" />
    <glyph glyph-name="D" unicode="D" horiz-adv-x="694" 
d="M288 700q87 0 154.5 -30t114 -79t70.5 -112t24 -129t-24 -129t-70.5 -112t-114 -79t-154.5 -30h-205v700h205zM151 638v-576h137q70 0 124.5 24.5t92 65t57 92t19.5 106.5t-19.5 106.5t-57 92t-92 65t-124.5 24.5h-137z" />
    <glyph glyph-name="E" unicode="E" horiz-adv-x="543" 
d="M151 638v-259h314v-62h-314v-255h314v-62h-382v700h382v-62h-314z" />
    <glyph glyph-name="F" unicode="F" horiz-adv-x="538" 
d="M151 638v-277h314v-62h-314v-299h-68v700h382v-62h-314z" />
    <glyph glyph-name="G" unicode="G" horiz-adv-x="833" 
d="M463 324h342v-62h-74q-9 -62 -34 -113t-66 -87.5t-99 -56.5t-131 -20q-86 0 -153 30.5t-112.5 81t-69 116.5t-23.5 137t24.5 137t71 116.5t113 81t149.5 30.5q57 0 106 -15.5t86.5 -42t62.5 -62t34 -76.5h-70q-8 28 -28 52.5t-48.5 42.5t-64.5 28.5t-78 10.5
q-68 0 -121 -25.5t-90.5 -67.5t-57 -96.5t-19.5 -113.5t18.5 -113.5t56 -96.5t92.5 -67.5t129 -25.5q57 0 101 16.5t75.5 45t49.5 68t24 85.5h-196v62z" />
    <glyph glyph-name="H" unicode="H" horiz-adv-x="663" 
d="M511 317h-360v-317h-68v700h68v-321h360v321h69v-700h-69v317z" />
    <glyph glyph-name="I" unicode="I" horiz-adv-x="236" 
d="M83 700h70v-700h-70v700z" />
    <glyph glyph-name="J" unicode="J" horiz-adv-x="536" 
d="M463 216q0 -51 -15.5 -93.5t-44.5 -73t-69.5 -47.5t-91.5 -17q-50 0 -91.5 17t-71.5 47.5t-46.5 73.5t-16.5 94h68q0 -39 12 -70.5t33 -53.5t50 -34t63 -12q70 0 111 45.5t41 123.5v484h69v-484z" />
    <glyph glyph-name="K" unicode="K" horiz-adv-x="574" 
d="M151 328v-328h-68v700h68v-329l326 329h88l-344 -350l344 -350h-88z" />
    <glyph glyph-name="L" unicode="L" horiz-adv-x="422" 
d="M392 62v-62h-309v700h68v-638h241z" />
    <glyph glyph-name="M" unicode="M" horiz-adv-x="810" 
d="M727 0h-68v541l-227 -541h-54l-227 541v-541h-68v700h66l256 -597l256 597h66v-700z" />
    <glyph glyph-name="N" unicode="N" horiz-adv-x="662" 
d="M510 118v582h69v-700h-76l-352 582v-582h-68v700h76z" />
    <glyph glyph-name="O" unicode="O" horiz-adv-x="806" 
d="M403 -15q-84 0 -151 30.5t-113.5 81t-71 116.5t-24.5 137t24.5 137t71 116.5t113.5 81t151 30.5t150.5 -30.5t113 -81t71.5 -116.5t25 -137t-25 -137t-71.5 -116.5t-113 -81t-150.5 -30.5zM403 47q67 0 120.5 25.5t91 67.5t57.5 96.5t20 113.5t-20 113.5t-57.5 96.5
t-91 67.5t-120.5 25.5q-68 0 -121.5 -25.5t-90.5 -67.5t-57 -96.5t-20 -113.5t20 -113.5t57 -96.5t90.5 -67.5t121.5 -25.5z" />
    <glyph glyph-name="P" unicode="P" horiz-adv-x="596" 
d="M83 700h241q53 0 96.5 -18.5t74 -50.5t47 -74t16.5 -89t-16.5 -89t-47 -74t-74 -50.5t-96.5 -18.5h-173v-236h-68v700zM324 298q38 0 68.5 13.5t52 37t33 54t11.5 65.5q0 34 -11.5 65t-33 54.5t-52 37t-68.5 13.5h-173v-340h173z" />
    <glyph glyph-name="Q" unicode="Q" horiz-adv-x="806" 
d="M763 350q0 -68 -21 -128t-59.5 -106.5t-91 -77.5t-115.5 -42l64 -90l-60 -30l-78 109q-84 0 -150.5 30.5t-113 81.5t-71 116.5t-24.5 136.5t24.5 137t71 116.5t113.5 81t151 30.5t150.5 -30.5t113 -81t71.5 -116.5t25 -137zM403 47q67 0 120.5 25.5t91 67.5t57.5 96.5
t20 113.5t-20 113.5t-57.5 96.5t-91 67.5t-120.5 25.5q-68 0 -121.5 -25.5t-90.5 -67.5t-57 -96.5t-20 -113.5t20 -113.5t57 -96.5t90.5 -67.5t121.5 -25.5z" />
    <glyph glyph-name="R" unicode="R" horiz-adv-x="602" 
d="M83 700h241q53 0 96.5 -18.5t74 -50.5t47 -74t16.5 -89q0 -39 -11.5 -74t-32.5 -64.5t-51.5 -51t-68.5 -31.5l157 -247h-79l-149 236h-172v-236h-68v700zM324 298q38 0 68.5 13.5t52 37t33 54t11.5 65.5q0 34 -11.5 65t-33 54.5t-52 37t-68.5 13.5h-173v-340h173z" />
    <glyph glyph-name="S" unicode="S" horiz-adv-x="572" 
d="M115 217q0 -77 48.5 -123.5t131.5 -46.5q73 0 117.5 35.5t44.5 97.5q0 37 -14 61t-36 39.5t-50 25t-55 16.5q-46 13 -87.5 27.5t-73 37t-50 57.5t-18.5 89q0 39 15.5 72.5t44 58t69 38t90.5 13.5q48 0 88 -15t68.5 -42t44.5 -66t17 -87h-68q-2 69 -40.5 108.5
t-107.5 39.5q-72 0 -112 -33t-40 -87q0 -35 13 -58.5t34.5 -39t50 -25t58.5 -17.5q40 -11 81 -25.5t73 -37t52.5 -57t20.5 -86.5q0 -49 -17.5 -86.5t-48.5 -63t-74.5 -39t-94.5 -13.5q-53 0 -97.5 16.5t-77 46.5t-50.5 73t-18 96h68z" />
    <glyph glyph-name="T" unicode="T" horiz-adv-x="474" 
d="M202 638h-188v62h446v-62h-190v-638h-68v638z" />
    <glyph glyph-name="U" unicode="U" horiz-adv-x="618" 
d="M73 700h68v-480q0 -35 12 -66.5t33.5 -55t52.5 -37.5t69 -14q39 0 70 14t53 37.5t34 55t12 66.5v480h68v-480q0 -48 -17 -90.5t-47.5 -74.5t-74.5 -51t-98 -19q-53 0 -96.5 19t-74.5 51t-47.5 74.5t-16.5 90.5v480z" />
    <glyph glyph-name="V" unicode="V" horiz-adv-x="557" 
d="M304 0h-51l-248 700h72l202 -590l201 590h72z" />
    <glyph glyph-name="W" unicode="W" horiz-adv-x="946" 
d="M473 584l-177 -584h-53l-237 700h72l190 -585l178 585h54l177 -585l191 585h72l-237 -700h-53z" />
    <glyph glyph-name="X" unicode="X" horiz-adv-x="534" 
d="M446 700h78l-218 -350l218 -350h-78l-179 290l-179 -290h-77l217 350l-217 350h77l179 -291z" />
    <glyph glyph-name="Y" unicode="Y" 
d="M209 0h-75l141 277l-266 423h79l222 -353l181 353h75z" />
    <glyph glyph-name="Z" unicode="Z" horiz-adv-x="552" 
d="M36 700h509l-414 -638h423v-62h-539l414 638h-393v62z" />
    <glyph glyph-name="bracketleft" unicode="[" horiz-adv-x="316" 
d="M83 -234v1029h192v-60h-127v-910h127v-59h-192z" />
    <glyph glyph-name="backslash" unicode="\" horiz-adv-x="420" 
d="M414 -47l-59 -25l-364 845l59 26z" />
    <glyph glyph-name="bracketright" unicode="]" horiz-adv-x="316" 
d="M41 -234v59h127v910h-127v59h192v-1028h-192z" />
    <glyph glyph-name="asciicircum" unicode="^" horiz-adv-x="628" 
d="M495 323l-182 346l-181 -346h-72l228 427h49l231 -427h-73z" />
    <glyph glyph-name="underscore" unicode="_" horiz-adv-x="560" 
d="M30 -98v48h500v-48h-500z" />
    <glyph glyph-name="grave" unicode="`" horiz-adv-x="419" 
d="M60 676l32 52l249 -137l-32 -52z" />
    <glyph glyph-name="a" unicode="a" horiz-adv-x="592" 
d="M509 443v-443h-65v93q-22 -47 -68 -75.5t-104 -28.5q-51 0 -93.5 18.5t-72.5 50.5t-46.5 74t-16.5 89t16.5 89.5t46.5 74t72.5 50t93.5 18.5q58 0 104 -28t68 -76v94h65zM275 49q39 0 70 14t53 37.5t34 54.5t12 66t-12 66.5t-34 55t-53 37.5t-70 14q-38 0 -69 -14
t-52.5 -37.5t-33.5 -55t-12 -66.5t12 -66t33.5 -54.5t52.5 -37.5t69 -14z" />
    <glyph glyph-name="b" unicode="b" horiz-adv-x="593" 
d="M148 0h-65v700h65v-351q22 48 68 76t104 28q51 0 93.5 -18.5t72.5 -50t46.5 -74t16.5 -89.5t-16.5 -89t-46.5 -74t-72.5 -50.5t-93.5 -18.5q-58 0 -104 28.5t-68 75.5v-93zM317 49q38 0 69 14t52.5 37.5t33.5 54.5t12 66t-12 66.5t-33.5 55t-52.5 37.5t-69 14
q-39 0 -70 -14t-53 -37.5t-34 -55t-12 -66.5t12 -66t34 -54.5t53 -37.5t70 -14z" />
    <glyph glyph-name="c" unicode="c" horiz-adv-x="524" 
d="M409 281q-3 23 -12 44t-25.5 36.5t-42 24.5t-61.5 9q-39 0 -68 -14.5t-48.5 -38.5t-29.5 -55t-10 -65q0 -35 9.5 -66t29.5 -55t49.5 -38t70.5 -14q65 0 97 29t43 74h65q-5 -34 -20.5 -64t-41 -52t-62.5 -34.5t-85 -12.5q-54 0 -95.5 19.5t-69 51.5t-42 74.5t-14.5 87.5
t14.5 87t42 74t69 51.5t95.5 19.5q53 0 91 -15t63 -39.5t37.5 -55.5t15.5 -63h-65z" />
    <glyph glyph-name="d" unicode="d" horiz-adv-x="592" 
d="M444 93q-22 -47 -68 -75.5t-104 -28.5q-51 0 -93.5 18.5t-72.5 50.5t-46.5 74t-16.5 89t16.5 89.5t46.5 74t72.5 50t93.5 18.5q58 0 104 -28t68 -76v351h65v-700h-65v93zM275 49q39 0 70 14t53 37.5t34 54.5t12 66t-12 66.5t-34 55t-53 37.5t-70 14q-38 0 -69 -14
t-52.5 -37.5t-33.5 -55t-12 -66.5t12 -66t33.5 -54.5t52.5 -37.5t69 -14z" />
    <glyph glyph-name="e" unicode="e" horiz-adv-x="519" 
d="M262 402q-66 0 -106.5 -38.5t-43.5 -105.5h293q0 33 -11 59.5t-30.5 45t-45.5 29t-56 10.5zM111 207q1 -32 10 -61.5t28 -51.5t48 -35t70 -13q55 0 87 24t43 57h66q-6 -27 -22 -52t-41 -44t-58.5 -30.5t-74.5 -11.5q-56 0 -97.5 18.5t-69 50.5t-41 74.5t-13.5 89.5
q0 49 14.5 91.5t42.5 73.5t68.5 48.5t92.5 17.5q43 0 80.5 -15t65 -42t43.5 -63t16 -78q0 -9 -0.5 -20.5t-2.5 -27.5h-355z" />
    <glyph glyph-name="f" unicode="f" horiz-adv-x="335" 
d="M326 638q-12 5 -24 7t-30 2q-15 0 -30 -2.5t-27 -12.5t-19.5 -30t-7.5 -54v-105h138v-56h-138v-387h-65v387h-101v56h101v99q0 57 14.5 89.5t36 49t46 21t44.5 4.5q22 0 36.5 -3.5t25.5 -8.5v-56z" />
    <glyph glyph-name="g" unicode="g" horiz-adv-x="590" 
d="M275 394q-38 0 -69 -14t-52.5 -37.5t-33.5 -54.5t-12 -66t12 -66.5t33.5 -55t52.5 -37.5t69 -14q39 0 70 14t53 37.5t34 55t12 66.5t-12 66t-34 54.5t-53 37.5t-70 14zM509 -34q0 -63 -16 -107.5t-47 -72.5t-75 -40.5t-99 -12.5q-58 0 -99.5 17t-68.5 45t-40.5 65
t-15.5 77h66q2 -29 11.5 -55t28.5 -46t48 -32t70 -12q40 0 72 9.5t54 30t34 53.5t12 81v128q-22 -48 -68 -76.5t-104 -28.5q-51 0 -93.5 18.5t-72.5 50.5t-46.5 74.5t-16.5 89.5t16.5 89t46.5 73.5t72.5 50t93.5 18.5q58 0 104 -28t68 -76v94h65v-477z" />
    <glyph glyph-name="h" unicode="h" horiz-adv-x="562" 
d="M83 700h65v-353q19 45 62 75.5t106 30.5q45 0 78.5 -14.5t54.5 -40.5q20 -25 29.5 -58t9.5 -80v-260h-65v241q0 33 -7 61t-23 48.5t-40.5 32.5t-58.5 12q-37 0 -64.5 -14.5t-45.5 -38.5t-27 -54t-9 -61v-227h-65v700z" />
    <glyph glyph-name="i" unicode="i" horiz-adv-x="231" 
d="M83 443h65v-443h-65v443zM56 616q0 26 17 43.5t42 17.5q26 0 43.5 -17.5t17.5 -43.5q0 -25 -17.5 -42t-43.5 -17q-25 0 -42 17t-17 42z" />
    <glyph glyph-name="j" unicode="j" horiz-adv-x="231" 
d="M148 -135q0 -68 -30.5 -99t-72.5 -31q-44 0 -69 12v60q15 -5 25.5 -7t25.5 -2q26 0 41 20t15 56v569h65v-578zM56 616q0 26 17.5 43.5t42.5 17.5t42.5 -17.5t17.5 -43.5q0 -25 -17.5 -42t-42.5 -17t-42.5 17t-17.5 42z" />
    <glyph glyph-name="k" unicode="k" horiz-adv-x="455" 
d="M222 221l219 -221h-85l-208 207v-207h-65v700h65v-465l208 208h85z" />
    <glyph glyph-name="l" unicode="l" horiz-adv-x="231" 
d="M83 700h65v-700h-65v700z" />
    <glyph glyph-name="m" unicode="m" horiz-adv-x="812" 
d="M671 0v261q0 70 -29 102t-76 32q-59 0 -91 -47t-32 -123v-225h-66v249q0 41 -8 69t-22 45t-33 24.5t-42 7.5q-58 0 -91 -47t-33 -123v-225h-65v443h65v-97q6 21 18 40.5t30 34t41 23.5t50 9q62 0 97.5 -28.5t46.5 -81.5q6 22 19.5 42t33 35t43.5 24t53 9
q78 0 117.5 -44.5t39.5 -129.5v-279h-66z" />
    <glyph glyph-name="n" unicode="n" horiz-adv-x="562" 
d="M83 443h65v-96q19 45 62 75.5t106 30.5q45 0 78.5 -14.5t54.5 -40.5q20 -25 29.5 -58t9.5 -80v-260h-65v241q0 33 -7 61t-23 48.5t-40.5 32.5t-58.5 12q-37 0 -64.5 -14.5t-45.5 -38.5t-27 -54t-9 -61v-227h-65v443z" />
    <glyph glyph-name="o" unicode="o" horiz-adv-x="552" 
d="M275 -11q-53 0 -95.5 18.5t-73 50.5t-47 74t-16.5 89t16.5 89.5t47 74t73 50t95.5 18.5t96.5 -18.5t74 -50t47 -74t16.5 -89.5t-16.5 -89t-47 -74t-74 -50.5t-96.5 -18.5zM275 49q39 0 70 14t53 37.5t34 54.5t12 66t-12 66.5t-34 55t-53 37.5t-70 14q-38 0 -69 -14
t-52.5 -37.5t-33.5 -55t-12 -66.5t12 -66t33.5 -54.5t52.5 -37.5t69 -14z" />
    <glyph glyph-name="p" unicode="p" horiz-adv-x="593" 
d="M148 349q22 48 68 76t104 28q51 0 93.5 -18.5t72.5 -50t46.5 -73.5t16.5 -89t-16.5 -89.5t-46.5 -74.5t-72.5 -50.5t-93.5 -18.5q-58 0 -104 28.5t-68 76.5v-351h-65v700h65v-94zM317 394q-39 0 -70 -14t-53 -37.5t-34 -54.5t-12 -66t12 -66.5t34 -55t53 -37.5t70 -14
q38 0 69 14t52.5 37.5t33.5 55t12 66.5t-12 66t-33.5 54.5t-52.5 37.5t-69 14z" />
    <glyph glyph-name="q" unicode="q" horiz-adv-x="593" 
d="M445 443h65v-700h-65v351q-22 -48 -68 -76.5t-104 -28.5q-51 0 -93.5 18.5t-72.5 50.5t-46.5 74.5t-16.5 89.5t16.5 89t46.5 73.5t72.5 50t93.5 18.5q58 0 104 -28t68 -76v94zM276 394q-38 0 -69 -14t-52.5 -37.5t-33.5 -54.5t-12 -66t12 -66.5t33.5 -55t52.5 -37.5
t69 -14q39 0 70 14t53 37.5t34 55t12 66.5t-12 66t-34 54.5t-53 37.5t-70 14z" />
    <glyph glyph-name="r" unicode="r" horiz-adv-x="353" 
d="M348 382q-13 4 -21.5 5t-20.5 1q-41 0 -70.5 -15.5t-49 -41.5t-29 -60.5t-9.5 -73.5v-197h-65v443h65v-104q20 54 63.5 82t94.5 28q12 0 23 -1.5t19 -5.5v-60z" />
    <glyph glyph-name="s" unicode="s" horiz-adv-x="450" 
d="M256 242q27 -7 53 -14.5t46.5 -21t32.5 -34t12 -53.5q0 -64 -46.5 -97t-124.5 -33q-38 0 -71.5 9.5t-58.5 29.5t-40 50t-15 72h64q0 -30 9.5 -50t26 -33t39.5 -18.5t49 -5.5q50 0 78 19t28 56q0 22 -11 35t-30.5 22t-46 16l-58.5 16q-27 7 -51.5 15t-43 21t-29 33
t-10.5 51t12.5 54.5t34.5 39.5t52 24t65 8q36 0 67.5 -10t54.5 -29t36 -46.5t13 -61.5h-64q0 46 -28.5 70t-79.5 24q-44 0 -71.5 -19.5t-27.5 -54.5q0 -20 9 -32.5t26 -21t42 -15z" />
    <glyph glyph-name="t" unicode="t" horiz-adv-x="329" 
d="M319 0q-13 -2 -34 -4t-41 -2q-22 0 -45.5 4t-43.5 19.5t-33 46.5t-13 84v239h-89v56h89v164h66v-164h128v-56h-128v-226q0 -36 6 -57t17 -32t26 -14.5t33 -3.5q14 0 32 1.5t30 3.5v-59z" />
    <glyph glyph-name="u" unicode="u" horiz-adv-x="560" 
d="M477 443v-443h-65v96q-19 -45 -62 -76t-106 -31q-45 0 -78.5 15t-54.5 41q-20 25 -29.5 58t-9.5 80v260h66v-241q0 -33 7 -61t22.5 -48.5t39.5 -32.5t59 -12q37 0 64.5 14.5t45.5 38.5t27 54t9 61v227h65z" />
    <glyph glyph-name="v" unicode="v" horiz-adv-x="470" 
d="M78 443l156 -351l158 351h71l-206 -443h-47l-203 443h71z" />
    <glyph glyph-name="w" unicode="w" horiz-adv-x="715" 
d="M357 370l-131 -370h-47l-171 443h70l124 -344l123 344h65l122 -344l125 344h70l-171 -443h-47z" />
    <glyph glyph-name="x" unicode="x" horiz-adv-x="434" 
d="M411 0h-76l-118 172l-118 -172h-76l156 222l-155 221h76l117 -170l117 170h75l-154 -221z" />
    <glyph glyph-name="y" unicode="y" horiz-adv-x="568" 
d="M281 -267q-201 0 -206 202h66q4 -72 38 -109t103 -37q34 0 60 8t44 27t27.5 49t9.5 75v148q-19 -45 -61 -76t-105 -31q-50 0 -81.5 14t-54.5 40q-21 25 -29.5 58.5t-8.5 86.5v255h66v-236q0 -36 6 -65.5t21 -50t39.5 -32t62.5 -11.5q37 0 64 14.5t45 38.5t27 54t9 61v227
h65v-495q0 -114 -52.5 -164.5t-154.5 -50.5z" />
    <glyph glyph-name="z" unicode="z" horiz-adv-x="431" 
d="M404 443l-265 -384h266v-59h-379l265 384h-255v59h368z" />
    <glyph glyph-name="braceleft" unicode="{" horiz-adv-x="381" 
d="M346 794v-52h-48q-39 0 -62 -27t-23 -69v-268q0 -27 -9 -46.5t-22.5 -32t-29 -20t-28.5 -10.5q13 -3 28.5 -10.5t29 -21t22.5 -34.5t9 -52v-237q0 -42 23 -69t62 -27h48v-52h-62q-24 0 -48.5 8.5t-44 25.5t-32 43.5t-12.5 61.5v239q0 26 -10 44.5t-24 30t-30 17t-28 5.5
v55q12 0 28 5t30 16t24 28t10 41v269q0 35 12.5 61t32 43.5t44 26t48.5 8.5h62z" />
    <glyph glyph-name="bar" unicode="|" horiz-adv-x="231" 
d="M87 -234v1028h58v-1028h-58z" />
    <glyph glyph-name="braceright" unicode="}" horiz-adv-x="381" 
d="M97 794q24 0 48.5 -8.5t44 -26t32 -43.5t12.5 -61v-269q0 -24 10 -41t24 -28t30 -16t28 -5v-55q-12 0 -28 -5.5t-30 -17t-24 -30t-10 -44.5v-239q0 -35 -12.5 -61.5t-32 -43.5t-44 -25.5t-48.5 -8.5h-61v52h47q39 0 62 27t23 69v237q0 31 9 52t22.5 34.5t29 21t28.5 10.5
q-13 3 -28.5 10.5t-29 20t-22.5 32t-9 46.5v268q0 42 -23 69t-62 27h-47v52h61z" />
    <glyph glyph-name="asciitilde" unicode="~" horiz-adv-x="510" 
d="M34 295q23 28 51 39t52 11q27 0 57 -9.5t61 -22.5l58 -24t50 -12q34 0 62 17.5t48 36.5v-60q-23 -26 -52.5 -39.5t-58.5 -13.5q-24 0 -51 10t-61 25q-26 13 -56 23t-60 10q-26 0 -53 -14.5t-47 -37.5v61z" />
    <glyph glyph-name="exclamdown" unicode="&#xa1;" horiz-adv-x="283" 
d="M107 245h71v-503h-71v503zM82 398q0 26 17.5 43.5t42.5 17.5q26 0 43.5 -17.5t17.5 -43.5q0 -25 -17.5 -42.5t-43.5 -17.5q-25 0 -42.5 17.5t-17.5 42.5z" />
    <glyph glyph-name="cent" unicode="&#xa2;" horiz-adv-x="548" 
d="M418 340q-3 23 -12 44t-25.5 36.5t-42 24.5t-61.5 9q-39 0 -68 -14.5t-48.5 -38.5t-29.5 -55t-10 -65q0 -35 9.5 -66t29.5 -55t49.5 -38t70.5 -14q65 0 97 29t43 74h65q-10 -64 -54 -109t-128 -53v-108h-52v109q-48 4 -84.5 25t-61 52.5t-37 71t-12.5 82.5
q0 42 12.5 81.5t37.5 71t61 52.5t84 25v109h52v-109q46 -4 78.5 -20t54.5 -39.5t33 -52.5t14 -59h-65z" />
    <glyph glyph-name="sterling" unicode="&#xa3;" horiz-adv-x="596" 
d="M174 529q-2 -7 -2.5 -20.5t-0.5 -30.5t0.5 -35t0.5 -34h190v-52h-190q0 -9 -0.5 -33l-1 -50.5t-1 -49.5t-1.5 -30q-2 -51 -9.5 -81.5t-22.5 -50.5h350v-62h-428v53q18 22 27.5 52.5t12.5 84.5q1 8 2 31t1.5 50t1.5 51t1 34h-68v52h68v22t-0.5 29t-0.5 27.5v17.5
q0 44 17 81.5t46 65t69 43t87 15.5q49 0 89.5 -16.5t70 -46t45.5 -69.5t16 -87h-69q0 33 -10 61.5t-29.5 50t-48 33.5t-66.5 12q-60 0 -99 -32t-47 -86z" />
    <glyph glyph-name="currency" unicode="&#xa4;" horiz-adv-x="775" 
d="M504 185q-29 -22 -65 -34.5t-80 -12.5q-43 0 -79 12.5t-64 35.5l-71 -70l-42 41l71 71q-23 30 -35 66t-12 76t12 76t35 66l-71 71l42 42l70 -71q29 23 65 35.5t79 12.5q44 0 80 -12.5t65 -34.5l69 69l42 -41l-70 -70q48 -62 48 -143q0 -40 -12.5 -77t-35.5 -66l70 -69
l-42 -42zM359 197q39 0 70 14t53 37.5t34 55t12 66.5t-12 66.5t-34 55t-53 37.5t-70 14q-38 0 -68.5 -14t-52.5 -37.5t-33.5 -55t-11.5 -66.5t11.5 -66.5t33.5 -55t52.5 -37.5t68.5 -14z" />
    <glyph glyph-name="yen" unicode="&#xa5;" horiz-adv-x="605" 
d="M65 700l239 -359l235 359h79l-272 -415h161v-50h-172v-92h172v-52h-172v-91h-62v91h-170v52h170v92h-170v50h159l-276 415h79z" />
    <glyph glyph-name="brokenbar" unicode="&#xa6;" horiz-adv-x="231" 
d="M87 322v472h58v-472h-58zM145 237v-471h-58v471h58z" />
    <glyph glyph-name="section" unicode="&#xa7;" horiz-adv-x="579" 
d="M271 97q-50 14 -91 29t-70 35.5t-44.5 48.5t-15.5 68q0 53 31 92t83 50q-36 23 -57.5 58t-21.5 84q0 41 17 73.5t47 55t70.5 34.5t87.5 12q48 0 88.5 -15t69.5 -42t45.5 -64t16.5 -81h-69q0 31 -11 57t-30.5 45.5t-47.5 30.5t-62 11q-66 0 -109.5 -29t-43.5 -88
q0 -32 14 -54t36.5 -37t51.5 -24.5t58 -17.5q50 -14 91 -29t70 -35.5t45 -49t16 -68.5q0 -26 -9.5 -50t-24.5 -43t-35 -32t-41 -17q87 -47 87 -142q0 -43 -17 -75t-46.5 -53.5t-70.5 -32.5t-89 -11q-51 0 -94.5 16t-74.5 44t-48.5 66.5t-17.5 84.5h69q0 -33 12 -61t33.5 -48
t52 -31.5t68.5 -11.5q69 0 111.5 25.5t42.5 87.5q0 28 -11.5 48.5t-33 36t-54 27t-74.5 22.5zM467 241q0 23 -7 39t-21 27.5t-35 20.5t-50 19q-5 3 -21 8.5t-35.5 11.5l-38 11.5l-28.5 8.5q-27 -1 -47.5 -10t-35 -23.5t-21.5 -33t-7 -36.5q0 -42 25 -65t86 -42q6 -3 25 -9
l40 -12.5l40 -12l26 -7.5q21 1 40 10t33.5 23.5t23 33t8.5 38.5z" />
    <glyph glyph-name="dieresis" unicode="&#xa8;" horiz-adv-x="518" 
d="M312 649q0 24 16.5 41t41.5 17q24 0 41 -17t17 -41t-17 -41t-41 -17q-25 0 -41.5 17t-16.5 41zM82 649q0 24 16.5 41t41.5 17q24 0 41 -17t17 -41t-17 -41t-41 -17q-25 0 -41.5 17t-16.5 41z" />
    <glyph glyph-name="copyright" unicode="&#xa9;" horiz-adv-x="807" 
d="M403 -17q-84 0 -150.5 30.5t-113 81.5t-71 117.5t-24.5 137.5t24.5 137.5t71 117.5t113 81.5t150.5 30.5t150.5 -30.5t113 -81.5t71.5 -117.5t25 -137.5t-25 -137.5t-71.5 -117.5t-113 -81.5t-150.5 -30.5zM595 266q-8 -27 -25 -50t-41 -40.5t-54.5 -27t-65.5 -9.5
q-50 0 -89.5 17t-66.5 46t-41.5 67.5t-14.5 81.5q0 41 14 79t40.5 67t64 46.5t85.5 17.5q43 0 76.5 -11t57.5 -30.5t39 -46t21 -57.5h-47q-12 44 -48.5 73.5t-98.5 29.5q-37 0 -66 -14t-49.5 -37.5t-31 -53.5t-10.5 -63q0 -34 11 -64.5t32.5 -54t52 -37t69.5 -13.5
q49 0 85 23.5t52 60.5h49zM403 28q71 0 127.5 27t96 71.5t60.5 102.5t21 121t-21 121t-60.5 102.5t-96 71.5t-127.5 27t-127.5 -27t-95.5 -71.5t-60 -102.5t-21 -121t21 -121t60 -102.5t95.5 -71.5t127.5 -27z" />
    <glyph glyph-name="ordfeminine" unicode="&#xaa;" horiz-adv-x="592" 
d="M509 443v-443h-65v93q-22 -47 -68 -75.5t-104 -28.5q-51 0 -93.5 18.5t-72.5 50.5t-46.5 74t-16.5 89t16.5 89.5t46.5 74t72.5 50t93.5 18.5q58 0 104 -28t68 -76v94h65zM275 49q39 0 70 14t53 37.5t34 54.5t12 66t-12 66.5t-34 55t-53 37.5t-70 14q-38 0 -69 -14
t-52.5 -37.5t-33.5 -55t-12 -66.5t12 -66t33.5 -54.5t52.5 -37.5t69 -14z" />
    <glyph glyph-name="guillemotleft" unicode="&#xab;" horiz-adv-x="472" 
d="M432 100l-196 170v42l196 170v-67l-142 -124l142 -124v-67zM236 100l-196 170v42l196 170v-67l-142 -124l142 -124v-67z" />
    <glyph glyph-name="logicalnot" unicode="&#xac;" 
d="M422 296h-339v58h404v-204h-65v146z" />
    <glyph glyph-name="uni00AD" unicode="&#xad;" horiz-adv-x="294" 
d="M264 275h-234v20h234v-20z" />
    <glyph glyph-name="registered" unicode="&#xae;" horiz-adv-x="812" 
d="M406 -17q-84 0 -151.5 30.5t-114 81.5t-71.5 117.5t-25 137.5t25 137.5t71.5 117.5t114 81.5t151.5 30.5t151.5 -30.5t114 -81.5t71.5 -117.5t25 -137.5t-25 -137.5t-71.5 -117.5t-114 -81.5t-151.5 -30.5zM406 28q72 0 128.5 27t96.5 71.5t61 102.5t21 121t-21 121
t-61 102.5t-96.5 71.5t-128.5 27t-128.5 -27t-96.5 -71.5t-61 -102.5t-21 -121t21 -121t61 -102.5t96.5 -71.5t128.5 -27zM281 159v407h151q30 0 55 -11t42.5 -29.5t27 -43.5t9.5 -52q0 -45 -25 -80t-69 -47l91 -144h-55l-88 138h-90v-138h-49zM427 341q41 0 64.5 26
t23.5 63q0 38 -23.5 65t-64.5 27h-97v-181h97z" />
    <glyph glyph-name="macron" unicode="&#xaf;" horiz-adv-x="529" 
d="M444 723h-358v59h358v-59z" />
    <glyph glyph-name="degree" unicode="&#xb0;" horiz-adv-x="331" 
d="M308 574q0 -30 -11 -56t-30.5 -45.5t-45.5 -30.5t-56 -11t-56 11t-45.5 30.5t-30.5 45.5t-11 56t11 56t30.5 45.5t45.5 30.5t56 11t56 -11t45.5 -30.5t30.5 -45.5t11 -56zM259 574q0 19 -7 36.5t-20 30.5t-30 20.5t-37 7.5t-37 -7.5t-29.5 -20.5t-20 -30.5t-7.5 -36.5
q0 -20 7.5 -37.5t20 -30t29.5 -20t37 -7.5q40 0 67 27.5t27 67.5z" />
    <glyph glyph-name="plusminus" unicode="&#xb1;" 
d="M252 221v167h-164v59h164v169h65v-169h165v-59h-165v-167h-65zM88 48v58h394v-58h-394z" />
    <glyph glyph-name="twosuperior" unicode="&#xb2;" horiz-adv-x="363" 
d="M55 315q0 46 7 77.5t21.5 53t35.5 36t48 26.5q18 8 34 16.5t28 19t18.5 24t6.5 32.5q0 29 -18.5 46t-50.5 17q-34 0 -54 -20.5t-20 -57.5h-55q0 53 34.5 87.5t94.5 34.5q54 0 89 -28.5t35 -82.5q0 -26 -10 -45.5t-25 -33.5t-33 -24.5t-35 -18.5q-50 -23 -69 -46.5
t-19 -66.5h192v-46h-255v0z" />
    <glyph glyph-name="threesuperior" unicode="&#xb3;" horiz-adv-x="373" 
d="M103 432q0 -36 22 -57t58 -21t56 20t20 49q0 31 -19.5 50.5t-57.5 19.5h-33v44h33q36 0 53.5 17.5t17.5 46.5t-18.5 45.5t-50.5 16.5q-37 0 -54.5 -19t-17.5 -51h-55q0 48 31 81t94 33q54 0 90 -27.5t36 -77.5q0 -34 -18.5 -57t-47.5 -30q32 -8 52 -33t20 -62
q0 -52 -37.5 -82t-92.5 -30q-63 0 -99.5 34.5t-36.5 89.5h55z" />
    <glyph glyph-name="acute" unicode="&#xb4;" horiz-adv-x="419" 
d="M73 539l-32 52l249 137l32 -52z" />
    <glyph glyph-name="uni00B5" unicode="&#xb5;" 
d="M82 443h66v-241q0 -33 7 -61t22.5 -48.5t39.5 -32.5t59 -12q37 0 64.5 14.5t45.5 38.5t27 54t9 61v227h65v-443h-65v96q-19 -45 -62 -76t-106 -31q-70 0 -106 47v-293h-66v700z" />
    <glyph glyph-name="paragraph" unicode="&#xb6;" horiz-adv-x="639" 
d="M231 329q-46 0 -85.5 11.5t-68.5 35t-45.5 59.5t-16.5 85q0 44 12.5 75.5t33 53.5t46.5 35.5t53.5 20.5t54.5 9.5t49 2.5h306v-56h-53v-809h-62v808h-162v-808h-62v477z" />
    <glyph glyph-name="periodcentered" unicode="&#xb7;" horiz-adv-x="230" 
d="M55 312q0 26 17 43t42 17q26 0 43.5 -17t17.5 -43q0 -25 -17.5 -42t-43.5 -17q-25 0 -42 17t-17 42z" />
    <glyph glyph-name="cedilla" unicode="&#xb8;" horiz-adv-x="404" 
d="M127 0h45v-77q8 13 21.5 19.5t28.5 6.5q35 0 60.5 -24t25.5 -64q0 -18 -6.5 -35t-18.5 -30.5t-30.5 -21.5t-42.5 -8q-13 0 -28.5 4.5t-29.5 15t-24.5 27.5t-12.5 42h42q2 -22 16 -36.5t37 -14.5q26 0 40.5 16.5t14.5 40.5q0 23 -15 38t-39 15q-13 0 -25 -5.5t-22 -26.5
h-37v118z" />
    <glyph glyph-name="onesuperior" unicode="&#xb9;" horiz-adv-x="253" 
d="M47 634q26 0 42.5 4t25.5 12t12.5 20.5t3.5 29.5h50v-385h-56v279h-78v40z" />
    <glyph glyph-name="ordmasculine" unicode="&#xba;" horiz-adv-x="552" 
d="M275 -11q-53 0 -95.5 18.5t-73 50.5t-47 74t-16.5 89t16.5 89.5t47 74t73 50t95.5 18.5t96.5 -18.5t74 -50t47 -74t16.5 -89.5t-16.5 -89t-47 -74t-74 -50.5t-96.5 -18.5zM275 49q39 0 70 14t53 37.5t34 54.5t12 66t-12 66.5t-34 55t-53 37.5t-70 14q-38 0 -69 -14
t-52.5 -37.5t-33.5 -55t-12 -66.5t12 -66t33.5 -54.5t52.5 -37.5t69 -14z" />
    <glyph glyph-name="guillemotright" unicode="&#xbb;" horiz-adv-x="472" 
d="M40 167l142 124l-142 124v67l196 -170v-42l-196 -170v67zM236 167l142 124l-142 124v67l196 -170v-42l-196 -170v67z" />
    <glyph glyph-name="onequarter" unicode="&#xbc;" horiz-adv-x="883" 
d="M61 634q26 0 42.5 4t25.5 12t12.5 20.5t3.5 29.5h49v-385h-56v279h-77v40zM696 124h-152v261h55v-213h97v116h55v-116h58v-48h-58v-124h-55v124zM560 764l53 -29l-401 -798l-53 29z" />
    <glyph glyph-name="onehalf" unicode="&#xbd;" horiz-adv-x="883" 
d="M61 634q26 0 42.5 4t25.5 12t12.5 20.5t3.5 29.5h49v-385h-56v279h-77v40zM543 0q0 46 7 77.5t21 53t35 36t48 26.5q18 8 34 16.5t28 19t19 24t7 32.5q0 29 -18.5 46t-51.5 17t-53.5 -20.5t-20.5 -57.5h-55q0 53 34.5 87.5t94.5 34.5q54 0 89 -28.5t35 -82.5
q0 -26 -9.5 -45.5t-24.5 -33.5t-33.5 -24.5t-35.5 -18.5q-50 -23 -69 -46.5t-19 -66.5h192v-46h-254zM560 764l53 -29l-401 -798l-53 29z" />
    <glyph glyph-name="threequarters" unicode="&#xbe;" horiz-adv-x="883" 
d="M103 432q0 -36 22 -57t58 -21q35 0 55.5 20t20.5 49q0 31 -19.5 50.5t-58.5 19.5h-32v44h32q37 0 54.5 17.5t17.5 46.5t-19 45.5t-51 16.5q-37 0 -54.5 -19t-17.5 -51h-55q0 48 31.5 81t94.5 33q53 0 89 -27.5t36 -77.5q0 -34 -18 -57t-48 -30q32 -8 52.5 -33t20.5 -62
q0 -26 -10 -46.5t-28 -35t-42 -22.5t-51 -8q-63 0 -99.5 34.5t-36.5 89.5h56zM696 124h-152v261h55v-213h97v116h55v-116h58v-48h-58v-124h-55v124zM577 764l53 -29l-401 -798l-53 29z" />
    <glyph glyph-name="questiondown" unicode="&#xbf;" horiz-adv-x="497" 
d="M307 255q0 -38 -6 -66.5t-18 -50t-30 -38.5t-43 -33l-32.5 -22.5t-32.5 -29.5t-25.5 -40.5t-10.5 -54.5q0 -62 38 -94.5t107 -32.5q34 0 62 11t48 31.5t31 49.5t11 65h69q0 -50 -16.5 -90t-46 -69t-70 -44.5t-88.5 -15.5t-87.5 13t-67.5 38t-43 59.5t-15 78.5
q0 39 11.5 67.5t29 49.5t36.5 35.5t34 24.5q24 16 40.5 29.5t27.5 30.5t16 40t5 58h66zM335 392q0 -26 -17.5 -44t-43.5 -18t-44.5 18t-18.5 44t18.5 44t44.5 18t43.5 -18t17.5 -44z" />
    <glyph glyph-name="Agrave" unicode="&#xc0;" horiz-adv-x="546" 
d="M540 0h-72l-43 125h-304l-43 -125h-72l241 700h52zM142 187h262l-131 404zM145 886l31 53l249 -137l-31 -53z" />
    <glyph glyph-name="Aacute" unicode="&#xc1;" horiz-adv-x="546" 
d="M540 0h-72l-43 125h-304l-43 -125h-72l241 700h52zM142 187h262l-131 404zM165 739l-31 52l249 137l31 -52z" />
    <glyph glyph-name="Acircumflex" unicode="&#xc2;" horiz-adv-x="546" 
d="M540 0h-72l-43 125h-304l-43 -125h-72l241 700h52zM142 187h262l-131 404zM273 943l175 -151l-38 -43l-137 121l-136 -121l-39 43z" />
    <glyph glyph-name="Atilde" unicode="&#xc3;" horiz-adv-x="546" 
d="M540 0h-72l-43 125h-304l-43 -125h-72l241 700h52zM142 187h262l-131 404zM345 845q23 0 40 15.5t27 37.5l49 -24q-20 -42 -51.5 -61.5t-63.5 -19.5q-25 0 -44 8.5t-34.5 18l-30 18t-30.5 8.5q-23 0 -39.5 -15t-26.5 -38l-48 29q21 40 51.5 58t62.5 18q25 0 43.5 -8.5
t34 -18l29.5 -18t31 -8.5z" />
    <glyph glyph-name="Adieresis" unicode="&#xc4;" horiz-adv-x="546" 
d="M540 0h-72l-43 125h-304l-43 -125h-72l241 700h52zM142 187h262l-131 404zM329 831q0 26 17 43.5t42 17.5q26 0 43.5 -17.5t17.5 -43.5q0 -25 -17.5 -42t-43.5 -17q-25 0 -42 17t-17 42zM99 831q0 26 17 43.5t42 17.5q26 0 43.5 -17.5t17.5 -43.5q0 -25 -17.5 -42
t-43.5 -17q-25 0 -42 17t-17 42z" />
    <glyph glyph-name="Aring" unicode="&#xc5;" horiz-adv-x="546" 
d="M540 0h-72l-43 125h-304l-43 -125h-72l241 700h52zM142 187h262l-131 404zM274 976q25 0 47.5 -10t39.5 -26.5t26.5 -39t9.5 -47.5t-9.5 -47.5t-26.5 -39t-39.5 -26.5t-47.5 -10q-26 0 -48 10t-39 26.5t-26.5 39t-9.5 47.5t9.5 47.5t26.5 39.5t39 26.5t48 9.5zM274 932
q-33 0 -55.5 -23.5t-22.5 -55.5t22.5 -55t55.5 -23q32 0 55 23.5t23 55.5q0 16 -6 30t-16.5 24.5t-25 17t-30.5 6.5z" />
    <glyph glyph-name="AE" unicode="&#xc6;" horiz-adv-x="847" 
d="M453 638v-259h314v-62h-314v-255h314v-62h-382v125h-246l-62 -125h-75l350 700h415v-62h-314zM385 188v436l-216 -436h216z" />
    <glyph glyph-name="Ccedilla" unicode="&#xc7;" horiz-adv-x="775" 
d="M662 464q-10 40 -31 74.5t-53.5 60t-76 40t-97.5 14.5q-69 0 -123 -25t-91.5 -67t-57 -96.5t-19.5 -113.5q0 -62 20.5 -117t59.5 -96.5t95.5 -66t128.5 -24.5q41 0 79.5 12t70 33t55.5 50t36 64h75q-14 -46 -42.5 -86t-69.5 -69.5t-92 -47t-110 -18.5q-5 0 -8.5 0.5
t-7.5 0.5v-58q16 23 54 23q34 0 57 -22.5t23 -59.5q0 -34 -24.5 -61t-72.5 -27q-12 0 -26.5 4t-28.5 13t-24.5 23.5t-13.5 36.5h43q4 -17 17 -28t33 -11q25 0 39.5 14.5t14.5 35.5t-13.5 35.5t-36.5 14.5q-14 0 -27 -6t-22 -23h-37v98q-74 9 -132.5 41t-99 81t-62 111
t-21.5 130q0 71 24.5 136.5t70 116t111 81t147.5 30.5q74 0 132 -19.5t100 -53t68 -79.5t37 -99h-71z" />
    <glyph glyph-name="Egrave" unicode="&#xc8;" horiz-adv-x="543" 
d="M151 638v-259h314v-62h-314v-255h314v-62h-382v700h382v-62h-314zM146 877l32 52l249 -137l-32 -52z" />
    <glyph glyph-name="Eacute" unicode="&#xc9;" horiz-adv-x="543" 
d="M151 638v-259h314v-62h-314v-255h314v-62h-382v700h382v-62h-314zM173 749l-32 53l249 137l32 -53z" />
    <glyph glyph-name="Ecircumflex" unicode="&#xca;" horiz-adv-x="543" 
d="M151 638v-259h314v-62h-314v-255h314v-62h-382v700h382v-62h-314zM279 943l176 -151l-38 -43l-137 121l-137 -121l-39 43z" />
    <glyph glyph-name="Edieresis" unicode="&#xcb;" horiz-adv-x="543" 
d="M151 638v-259h314v-62h-314v-255h314v-62h-382v700h382v-62h-314zM336 831q0 26 17 43.5t42 17.5q26 0 43.5 -17.5t17.5 -43.5q0 -25 -17.5 -42t-43.5 -17q-25 0 -42 17t-17 42zM106 831q0 26 17 43.5t42 17.5q26 0 43.5 -17.5t17.5 -43.5q0 -25 -17.5 -42t-43.5 -17
q-25 0 -42 17t-17 42z" />
    <glyph glyph-name="Igrave" unicode="&#xcc;" horiz-adv-x="236" 
d="M83 700h70v-700h-70v700zM-22 876l31 52l249 -137l-31 -52z" />
    <glyph glyph-name="Iacute" unicode="&#xcd;" horiz-adv-x="236" 
d="M83 700h70v-700h-70v700zM9 740l-31 52l249 137l31 -52z" />
    <glyph glyph-name="Icircumflex" unicode="&#xce;" horiz-adv-x="236" 
d="M83 700h70v-700h-70v700zM118 943l175 -151l-38 -43l-137 121l-136 -121l-39 43z" />
    <glyph glyph-name="Idieresis" unicode="&#xcf;" horiz-adv-x="236" 
d="M83 700h70v-700h-70v700zM175 831q0 26 17.5 43.5t42.5 17.5t42.5 -17.5t17.5 -43.5q0 -25 -17.5 -42t-42.5 -17t-42.5 17t-17.5 42zM-55 831q0 26 17.5 43.5t42.5 17.5t42.5 -17.5t17.5 -43.5q0 -25 -17.5 -42t-42.5 -17t-42.5 17t-17.5 42z" />
    <glyph glyph-name="Eth" unicode="&#xd0;" horiz-adv-x="694" 
d="M288 700q86 0 153.5 -30t114 -79t71 -112t24.5 -129t-24.5 -129t-71 -112t-114 -79t-153.5 -30h-205v325h-112v51h112v324h205zM268 325h-117v-263h137q70 0 124.5 24.5t92 65t57 92t19.5 106.5t-19.5 106.5t-57 92t-92 65t-124.5 24.5h-137v-262h117v-51z" />
    <glyph glyph-name="Ntilde" unicode="&#xd1;" horiz-adv-x="662" 
d="M510 118v582h69v-700h-76l-352 582v-582h-68v700h76zM398 845q24 0 41 15.5t27 37.5l49 -24q-20 -42 -52 -61.5t-64 -19.5q-25 0 -43.5 8.5t-34 18l-30 18t-30.5 8.5q-24 0 -40 -15t-26 -38l-48 29q20 40 51 58t63 18q25 0 43.5 -8.5t34 -18l29.5 -18t30 -8.5z" />
    <glyph glyph-name="Ograve" unicode="&#xd2;" horiz-adv-x="806" 
d="M403 -15q-84 0 -151 30.5t-113.5 81t-71 116.5t-24.5 137t24.5 137t71 116.5t113.5 81t151 30.5t150.5 -30.5t113 -81t71.5 -116.5t25 -137t-25 -137t-71.5 -116.5t-113 -81t-150.5 -30.5zM403 47q67 0 120.5 25.5t91 67.5t57.5 96.5t20 113.5t-20 113.5t-57.5 96.5
t-91 67.5t-120.5 25.5q-68 0 -121.5 -25.5t-90.5 -67.5t-57 -96.5t-20 -113.5t20 -113.5t57 -96.5t90.5 -67.5t121.5 -25.5zM253 886l31 53l249 -137l-31 -53z" />
    <glyph glyph-name="Oacute" unicode="&#xd3;" horiz-adv-x="806" 
d="M403 -15q-84 0 -151 30.5t-113.5 81t-71 116.5t-24.5 137t24.5 137t71 116.5t113.5 81t151 30.5t150.5 -30.5t113 -81t71.5 -116.5t25 -137t-25 -137t-71.5 -116.5t-113 -81t-150.5 -30.5zM403 47q67 0 120.5 25.5t91 67.5t57.5 96.5t20 113.5t-20 113.5t-57.5 96.5
t-91 67.5t-120.5 25.5q-68 0 -121.5 -25.5t-90.5 -67.5t-57 -96.5t-20 -113.5t20 -113.5t57 -96.5t90.5 -67.5t121.5 -25.5zM301 749l-31 53l249 137l31 -53z" />
    <glyph glyph-name="Ocircumflex" unicode="&#xd4;" horiz-adv-x="806" 
d="M403 -15q-84 0 -151 30.5t-113.5 81t-71 116.5t-24.5 137t24.5 137t71 116.5t113.5 81t151 30.5t150.5 -30.5t113 -81t71.5 -116.5t25 -137t-25 -137t-71.5 -116.5t-113 -81t-150.5 -30.5zM403 47q67 0 120.5 25.5t91 67.5t57.5 96.5t20 113.5t-20 113.5t-57.5 96.5
t-91 67.5t-120.5 25.5q-68 0 -121.5 -25.5t-90.5 -67.5t-57 -96.5t-20 -113.5t20 -113.5t57 -96.5t90.5 -67.5t121.5 -25.5zM403 943l176 -151l-38 -43l-138 121l-136 -121l-39 43z" />
    <glyph glyph-name="Otilde" unicode="&#xd5;" horiz-adv-x="806" 
d="M403 -15q-84 0 -151 30.5t-113.5 81t-71 116.5t-24.5 137t24.5 137t71 116.5t113.5 81t151 30.5t150.5 -30.5t113 -81t71.5 -116.5t25 -137t-25 -137t-71.5 -116.5t-113 -81t-150.5 -30.5zM403 47q67 0 120.5 25.5t91 67.5t57.5 96.5t20 113.5t-20 113.5t-57.5 96.5
t-91 67.5t-120.5 25.5q-68 0 -121.5 -25.5t-90.5 -67.5t-57 -96.5t-20 -113.5t20 -113.5t57 -96.5t90.5 -67.5t121.5 -25.5zM474 845q23 0 40.5 15.5t26.5 37.5l50 -24q-20 -42 -52 -61.5t-64 -19.5q-25 0 -44 8.5t-34.5 18l-29.5 18t-30 8.5q-24 0 -40.5 -15t-26.5 -38
l-47 29q20 40 50.5 58t63.5 18q25 0 43.5 -8.5t34 -18l29.5 -18t30 -8.5z" />
    <glyph glyph-name="Odieresis" unicode="&#xd6;" horiz-adv-x="806" 
d="M403 -15q-84 0 -151 30.5t-113.5 81t-71 116.5t-24.5 137t24.5 137t71 116.5t113.5 81t151 30.5t150.5 -30.5t113 -81t71.5 -116.5t25 -137t-25 -137t-71.5 -116.5t-113 -81t-150.5 -30.5zM114 350q0 -59 20 -113.5t57 -96.5t90.5 -67.5t121.5 -25.5q67 0 120.5 25.5
t91 67.5t57.5 96.5t20 113.5t-20 113.5t-57.5 96.5t-91 67.5t-120.5 25.5q-68 0 -121.5 -25.5t-90.5 -67.5t-57 -96.5t-20 -113.5zM287 772q-25 0 -42 17t-17 42q0 26 17 43.5t42 17.5q26 0 43.5 -17.5t17.5 -43.5q0 -25 -17.5 -42t-43.5 -17zM458 831q0 26 17 43.5t42 17.5
q26 0 43.5 -17.5t17.5 -43.5q0 -25 -17.5 -42t-43.5 -17q-25 0 -42 17t-17 42z" />
    <glyph glyph-name="multiply" unicode="&#xd7;" 
d="M404 451l46 -46l-122 -122l120 -120l-42 -42l-119 120l-122 -122l-46 46l121 122l-119 120l42 42l119 -120z" />
    <glyph glyph-name="Oslash" unicode="&#xd8;" horiz-adv-x="806" 
d="M403 -15q-69 0 -126 21l-35 -81l-48 20l35 82q-45 24 -79.5 58.5t-58 76.5t-36 90t-12.5 98q0 71 24.5 137t71 116.5t113.5 81t151 30.5q60 0 113 -17l33 75l47 -21l-31 -74q47 -23 84 -57.5t62.5 -77.5t38.5 -92.5t13 -100.5q0 -71 -25 -137t-71.5 -116.5t-113 -81
t-150.5 -30.5zM403 47q67 0 120.5 25.5t91 67.5t57.5 96.5t20 113.5q0 42 -10.5 81.5t-30 75t-48.5 64t-65 47.5l-236 -553q45 -18 101 -18zM114 350q0 -81 37 -151t104 -111l236 551q-40 14 -88 14q-68 0 -121.5 -25.5t-90.5 -67.5t-57 -96.5t-20 -113.5z" />
    <glyph glyph-name="Ugrave" unicode="&#xd9;" horiz-adv-x="618" 
d="M73 700h68v-480q0 -35 12 -66.5t33.5 -55t52.5 -37.5t69 -14q39 0 70 14t53 37.5t34 55t12 66.5v480h68v-480q0 -48 -17 -90.5t-47.5 -74.5t-74.5 -51t-98 -19q-53 0 -96.5 19t-74.5 51t-47.5 74.5t-16.5 90.5v480zM176 886l31 53l249 -137l-31 -53z" />
    <glyph glyph-name="Uacute" unicode="&#xda;" horiz-adv-x="618" 
d="M73 700h68v-480q0 -35 12 -66.5t33.5 -55t52.5 -37.5t69 -14q39 0 70 14t53 37.5t34 55t12 66.5v480h68v-480q0 -48 -17 -90.5t-47.5 -74.5t-74.5 -51t-98 -19q-53 0 -96.5 19t-74.5 51t-47.5 74.5t-16.5 90.5v480zM188 749l-32 53l249 137l32 -53z" />
    <glyph glyph-name="Ucircumflex" unicode="&#xdb;" horiz-adv-x="618" 
d="M73 700h68v-480q0 -35 12 -66.5t33.5 -55t52.5 -37.5t69 -14q39 0 70 14t53 37.5t34 55t12 66.5v480h68v-480q0 -48 -17 -90.5t-47.5 -74.5t-74.5 -51t-98 -19q-53 0 -96.5 19t-74.5 51t-47.5 74.5t-16.5 90.5v480zM308 943l175 -150l-38 -44l-137 122l-136 -121l-39 43z
" />
    <glyph glyph-name="Udieresis" unicode="&#xdc;" horiz-adv-x="618" 
d="M73 700h68v-480q0 -35 12 -66.5t33.5 -55t52.5 -37.5t69 -14q39 0 70 14t53 37.5t34 55t12 66.5v480h68v-480q0 -48 -17 -90.5t-47.5 -74.5t-74.5 -51t-98 -19q-53 0 -96.5 19t-74.5 51t-47.5 74.5t-16.5 90.5v480zM363 831q0 26 17 43.5t43 17.5q25 0 42.5 -17.5
t17.5 -43.5q0 -25 -17.5 -42t-42.5 -17q-26 0 -43 17t-17 42zM133 831q0 26 17.5 43.5t42.5 17.5t42.5 -17.5t17.5 -43.5q0 -25 -17.5 -42t-42.5 -17t-42.5 17t-17.5 42z" />
    <glyph glyph-name="Yacute" unicode="&#xdd;" 
d="M209 0h-75l141 277l-266 423h79l222 -353l181 353h75zM210 753l-32 52l249 137l32 -52z" />
    <glyph glyph-name="Thorn" unicode="&#xde;" horiz-adv-x="499" 
d="M83 700h62v-133h94q54 0 96.5 -18.5t72 -49t45 -71t15.5 -83.5t-15.5 -83t-45 -70.5t-72 -49t-96.5 -18.5h-94v-124h-62v700zM145 510v-330h94q39 0 70 13.5t52 36.5t32.5 52.5t11.5 62.5t-11.5 62.5t-32.5 52.5t-52 36.5t-70 13.5h-94z" />
    <glyph glyph-name="germandbls" unicode="&#xdf;" horiz-adv-x="558" 
d="M201 59q20 -6 42 -9t41 -3q34 0 63 9.5t51 28t34.5 45t12.5 61.5q0 26 -10.5 51.5t-31 46t-51 33t-69.5 12.5h-48v59h46q36 0 63.5 10.5t46 28.5t28 42t9.5 51q0 58 -40 93t-106 35q-67 0 -105.5 -39t-38.5 -102v-512h-65v512q0 45 15 81.5t42 63t65.5 41t86.5 14.5
q46 0 84.5 -13.5t66.5 -38t44 -59t16 -76.5q0 -63 -34 -105.5t-95 -56.5q32 -7 59 -23t46.5 -38.5t30 -50.5t10.5 -60q0 -50 -18 -87.5t-49 -63.5t-72 -39t-87 -13q-25 0 -46.5 3.5t-36.5 8.5v59z" />
    <glyph glyph-name="agrave" unicode="&#xe0;" horiz-adv-x="592" 
d="M509 443v-443h-65v93q-22 -47 -68 -75.5t-104 -28.5q-51 0 -93.5 18.5t-72.5 50.5t-46.5 74t-16.5 89t16.5 89.5t46.5 74t72.5 50t93.5 18.5q58 0 104 -28t68 -76v94h65zM275 49q39 0 70 14t53 37.5t34 54.5t12 66t-12 66.5t-34 55t-53 37.5t-70 14q-38 0 -69 -14
t-52.5 -37.5t-33.5 -55t-12 -66.5t12 -66t33.5 -54.5t52.5 -37.5t69 -14zM134 647l31 52l249 -137l-31 -52z" />
    <glyph glyph-name="aacute" unicode="&#xe1;" horiz-adv-x="592" 
d="M509 443v-443h-65v93q-22 -47 -68 -75.5t-104 -28.5q-51 0 -93.5 18.5t-72.5 50.5t-46.5 74t-16.5 89t16.5 89.5t46.5 74t72.5 50t93.5 18.5q58 0 104 -28t68 -76v94h65zM275 49q39 0 70 14t53 37.5t34 54.5t12 66t-12 66.5t-34 55t-53 37.5t-70 14q-38 0 -69 -14
t-52.5 -37.5t-33.5 -55t-12 -66.5t12 -66t33.5 -54.5t52.5 -37.5t69 -14zM168 510l-31 52l249 137l31 -52z" />
    <glyph glyph-name="acircumflex" unicode="&#xe2;" horiz-adv-x="592" 
d="M509 443v-443h-65v93q-22 -47 -68 -75.5t-104 -28.5q-51 0 -93.5 18.5t-72.5 50.5t-46.5 74t-16.5 89t16.5 89.5t46.5 74t72.5 50t93.5 18.5q58 0 104 -28t68 -76v94h65zM275 49q39 0 70 14t53 37.5t34 54.5t12 66t-12 66.5t-34 55t-53 37.5t-70 14q-38 0 -69 -14
t-52.5 -37.5t-33.5 -55t-12 -66.5t12 -66t33.5 -54.5t52.5 -37.5t69 -14zM281 728l175 -150l-38 -44l-137 122l-136 -121l-39 43z" />
    <glyph glyph-name="atilde" unicode="&#xe3;" horiz-adv-x="592" 
d="M509 443v-443h-65v93q-22 -47 -68 -75.5t-104 -28.5q-51 0 -93.5 18.5t-72.5 50.5t-46.5 74t-16.5 89t16.5 89.5t46.5 74t72.5 50t93.5 18.5q58 0 104 -28t68 -76v94h65zM275 49q39 0 70 14t53 37.5t34 54.5t12 66t-12 66.5t-34 55t-53 37.5t-70 14q-38 0 -69 -14
t-52.5 -37.5t-33.5 -55t-12 -66.5t12 -66t33.5 -54.5t52.5 -37.5t69 -14zM361 622q23 0 40 16t27 38l49 -24q-20 -43 -51.5 -62.5t-63.5 -19.5q-25 0 -44 8.5t-34.5 18.5l-30 18.5t-30.5 8.5q-23 0 -39.5 -15.5t-26.5 -38.5l-48 29q21 40 51.5 58.5t62.5 18.5
q25 0 43.5 -8.5t34 -18.5l29.5 -18.5t31 -8.5z" />
    <glyph glyph-name="adieresis" unicode="&#xe4;" horiz-adv-x="592" 
d="M444 0v93q-22 -47 -68 -75.5t-104 -28.5q-51 0 -93.5 18.5t-72.5 50.5t-46.5 74t-16.5 89t16.5 89.5t46.5 74t72.5 50t93.5 18.5q58 0 104 -28t68 -76v94h65v-443h-65zM275 49q39 0 70 14t53 37.5t34 54.5t12 66t-12 66.5t-34 55t-53 37.5t-70 14q-38 0 -69 -14
t-52.5 -37.5t-33.5 -55t-12 -66.5t12 -66t33.5 -54.5t52.5 -37.5t69 -14zM389 546q-26 0 -43 17t-17 42q0 26 17 43.5t43 17.5q25 0 42.5 -17.5t17.5 -43.5q0 -25 -17.5 -42t-42.5 -17zM99 605q0 26 17 43.5t43 17.5q25 0 42.5 -17.5t17.5 -43.5q0 -25 -17.5 -42t-42.5 -17
q-26 0 -43 17t-17 42z" />
    <glyph glyph-name="aring" unicode="&#xe5;" horiz-adv-x="592" 
d="M509 443v-443h-65v93q-22 -47 -68 -75.5t-104 -28.5q-51 0 -93.5 18.5t-72.5 50.5t-46.5 74t-16.5 89t16.5 89.5t46.5 74t72.5 50t93.5 18.5q58 0 104 -28t68 -76v94h65zM275 49q39 0 70 14t53 37.5t34 54.5t12 66t-12 66.5t-34 55t-53 37.5t-70 14q-38 0 -69 -14
t-52.5 -37.5t-33.5 -55t-12 -66.5t12 -66t33.5 -54.5t52.5 -37.5t69 -14zM276 751q26 0 49 -10t40 -27.5t27 -40.5t10 -48q0 -26 -10 -48.5t-27 -40t-40 -27.5t-49 -10t-48.5 10t-39.5 27.5t-27 40t-10 48.5t10 49t27 40t39.5 27t48.5 10zM276 708q-35 0 -58.5 -24
t-23.5 -59q0 -34 24 -58t58 -24q35 0 58.5 24t23.5 59q0 34 -23.5 58t-58.5 24z" />
    <glyph glyph-name="ae" unicode="&#xe6;" horiz-adv-x="916" 
d="M509 443v-61q23 32 61.5 51.5t90.5 19.5q43 0 80.5 -15t65 -42t43.5 -63t16 -78q0 -9 -0.5 -20.5t-2.5 -27.5h-353q0 -34 9.5 -63.5t28.5 -51t48 -34t68 -12.5q56 0 87 24t43 57h67q-6 -27 -22.5 -52t-41.5 -44t-58.5 -30.5t-74.5 -11.5q-54 0 -93 21t-62 53v-63h-65v93
q-22 -47 -68 -75.5t-104 -28.5q-51 0 -93.5 18.5t-72.5 50.5t-46.5 74t-16.5 89t16.5 89.5t46.5 74t72.5 50t93.5 18.5q58 0 104 -28t68 -76v94h65zM660 397q-65 0 -105.5 -37.5t-43.5 -101.5h291q0 31 -11 57t-30 44t-45 28t-56 10zM275 49q39 0 70 14t53 37.5t34 54.5
t12 66q0 36 -12 67.5t-34 55t-53.5 37t-69.5 13.5t-69 -14t-52.5 -37.5t-33.5 -55t-12 -66.5t12 -66t33.5 -54.5t52.5 -37.5t69 -14z" />
    <glyph glyph-name="ccedilla" unicode="&#xe7;" horiz-adv-x="524" 
d="M219 -6q-42 8 -74.5 29.5t-54.5 52.5t-33 68.5t-11 77.5q0 45 14.5 87t42 74t69 51.5t95.5 19.5q53 0 91 -15t63 -39.5t37.5 -55.5t15.5 -63h-65q-3 23 -12 44t-25.5 36.5t-42 24.5t-61.5 9q-39 0 -68 -14.5t-48.5 -38.5t-29.5 -55t-10 -65q0 -35 9.5 -66t29.5 -55
t49.5 -38t70.5 -14q65 0 97 29t43 74h65q-5 -33 -19.5 -62t-39 -51t-59.5 -35t-81 -14h-13v-62q16 23 54 23q34 0 57 -22.5t23 -59.5q0 -34 -24.5 -61t-71.5 -27q-12 0 -27 4t-28.5 13t-24.5 23.5t-14 36.5h43q4 -17 17 -28t34 -11q24 0 38.5 14.5t14.5 35.5t-13.5 35.5
t-36.5 14.5q-14 0 -27 -6t-22 -23h-37v104z" />
    <glyph glyph-name="egrave" unicode="&#xe8;" horiz-adv-x="519" 
d="M111 207q1 -32 10 -61.5t28 -51.5t48 -35t70 -13q55 0 87 24t43 57h66q-6 -27 -22 -52t-41 -44t-58.5 -30.5t-74.5 -11.5q-56 0 -97.5 18.5t-69 50.5t-41 74.5t-13.5 89.5q0 49 14.5 91.5t42.5 73.5t68.5 48.5t92.5 17.5q43 0 80.5 -15t65 -42t43.5 -63t16 -78
q0 -9 -0.5 -20.5t-2.5 -27.5h-355zM263 402q-66 0 -107 -38.5t-44 -105.5h293q0 33 -11 59.5t-30 45t-45 29t-56 10.5zM135 647l31 52l249 -137l-31 -52z" />
    <glyph glyph-name="eacute" unicode="&#xe9;" horiz-adv-x="519" 
d="M111 207q1 -32 10 -61.5t28 -51.5t48 -35t70 -13q55 0 87 24t43 57h66q-6 -27 -22 -52t-41 -44t-58.5 -30.5t-74.5 -11.5q-56 0 -97.5 18.5t-69 50.5t-41 74.5t-13.5 89.5q0 49 14.5 91.5t42.5 73.5t68.5 48.5t92.5 17.5q43 0 80.5 -15t65 -42t43.5 -63t16 -78
q0 -9 -0.5 -20.5t-2.5 -27.5h-355zM263 402q-66 0 -107 -38.5t-44 -105.5h293q0 33 -11 59.5t-30 45t-45 29t-56 10.5zM144 510l-31 52l249 137l31 -52z" />
    <glyph glyph-name="ecircumflex" unicode="&#xea;" horiz-adv-x="519" 
d="M111 207q1 -32 10 -61.5t28 -51.5t48 -35t70 -13q55 0 87 24t43 57h66q-6 -27 -22 -52t-41 -44t-58.5 -30.5t-74.5 -11.5q-56 0 -97.5 18.5t-69 50.5t-41 74.5t-13.5 89.5q0 49 14.5 91.5t42.5 73.5t68.5 48.5t92.5 17.5q43 0 80.5 -15t65 -42t43.5 -63t16 -78
q0 -9 -0.5 -20.5t-2.5 -27.5h-355zM263 402q-66 0 -107 -38.5t-44 -105.5h293q0 33 -11 59.5t-30 45t-45 29t-56 10.5zM263 728l175 -150l-38 -44l-137 122l-136 -121l-39 43z" />
    <glyph glyph-name="edieresis" unicode="&#xeb;" horiz-adv-x="519" 
d="M111 207q1 -32 10 -61.5t28 -51.5t48 -35t70 -13q55 0 87 24t43 57h66q-6 -27 -22 -52t-41 -44t-58.5 -30.5t-74.5 -11.5q-56 0 -97.5 18.5t-69 50.5t-41 74.5t-13.5 89.5q0 49 14.5 91.5t42.5 73.5t68.5 48.5t92.5 17.5q43 0 80.5 -15t65 -42t43.5 -63t16 -78
q0 -9 -0.5 -20.5t-2.5 -27.5h-355zM263 402q-66 0 -107 -38.5t-44 -105.5h293q0 33 -11 59.5t-30 45t-45 29t-56 10.5zM318 605q0 25 17 42.5t42 17.5q26 0 43 -17.5t17 -42.5q0 -26 -17 -43t-43 -17q-25 0 -42 17t-17 43zM88 605q0 25 17 42.5t42 17.5q26 0 43 -17.5
t17 -42.5q0 -26 -17 -43t-43 -17q-25 0 -42 17t-17 43z" />
    <glyph glyph-name="igrave" unicode="&#xec;" horiz-adv-x="231" 
d="M83 443h65v-443h-65v443zM-24 657l31 52l249 -137l-31 -52z" />
    <glyph glyph-name="iacute" unicode="&#xed;" horiz-adv-x="231" 
d="M83 443h65v-443h-65v443zM7 520l-31 52l249 137l31 -52z" />
    <glyph glyph-name="icircumflex" unicode="&#xee;" horiz-adv-x="231" 
d="M83 443h65v-443h-65v443zM115 728l176 -150l-38 -44l-137 122l-136 -121l-39 43z" />
    <glyph glyph-name="idieresis" unicode="&#xef;" horiz-adv-x="231" 
d="M83 443h65v-443h-65v443zM166 605q0 26 17 43.5t43 17.5q25 0 42.5 -17.5t17.5 -43.5q0 -25 -17.5 -42t-42.5 -17q-26 0 -43 17t-17 42zM-43 605q0 26 17 43.5t42 17.5q26 0 43 -17.5t17 -43.5q0 -25 -17 -42t-43 -17q-25 0 -42 17t-17 42z" />
    <glyph glyph-name="eth" unicode="&#xf0;" horiz-adv-x="563" 
d="M282 -11q-53 0 -96 18.5t-73.5 50.5t-47 74t-16.5 89t16.5 89.5t47 74t73.5 50t96 18.5q18 0 38 -5.5t30 -16.5l-69 112l-122 -67l-23 42l118 64l-72 118h78l52 -85l86 47l23 -41l-83 -47l126 -201q23 -38 37 -72.5t14 -79.5q0 -47 -16.5 -89t-47 -74t-73.5 -50.5
t-96 -18.5zM282 49q38 0 69 14t53 37.5t34 54.5t12 66t-12 66.5t-34 55t-53 37.5t-69 14t-69 -14t-53 -37.5t-34 -55t-12 -66.5t12 -66t34 -54.5t53 -37.5t69 -14z" />
    <glyph glyph-name="ntilde" unicode="&#xf1;" horiz-adv-x="562" 
d="M83 443h65v-96q19 45 62 75.5t106 30.5q45 0 78.5 -14.5t54.5 -40.5q20 -25 29.5 -58t9.5 -80v-260h-65v241q0 33 -7 61t-23 48.5t-40.5 32.5t-58.5 12q-37 0 -64.5 -14.5t-45.5 -38.5t-27 -54t-9 -61v-227h-65v443zM355 622q23 0 40 16t27 38l49 -24
q-20 -43 -51.5 -62.5t-63.5 -19.5q-25 0 -44 8.5t-34.5 18.5l-30 18.5t-30.5 8.5q-23 0 -39.5 -15.5t-26.5 -38.5l-48 29q21 40 51.5 58.5t62.5 18.5q25 0 43.5 -8.5t34 -18.5l29.5 -18.5t31 -8.5z" />
    <glyph glyph-name="ograve" unicode="&#xf2;" horiz-adv-x="552" 
d="M275 -11q-53 0 -95.5 18.5t-73 50.5t-47 74t-16.5 89t16.5 89.5t47 74t73 50t95.5 18.5t96.5 -18.5t74 -50t47 -74t16.5 -89.5t-16.5 -89t-47 -74t-74 -50.5t-96.5 -18.5zM275 49q39 0 70 14t53 37.5t34 54.5t12 66t-12 66.5t-34 55t-53 37.5t-70 14q-38 0 -69 -14
t-52.5 -37.5t-33.5 -55t-12 -66.5t12 -66t33.5 -54.5t52.5 -37.5t69 -14zM141 647l31 52l249 -137l-31 -52z" />
    <glyph glyph-name="oacute" unicode="&#xf3;" horiz-adv-x="552" 
d="M275 -11q-53 0 -95.5 18.5t-73 50.5t-47 74t-16.5 89t16.5 89.5t47 74t73 50t95.5 18.5t96.5 -18.5t74 -50t47 -74t16.5 -89.5t-16.5 -89t-47 -74t-74 -50.5t-96.5 -18.5zM275 49q39 0 70 14t53 37.5t34 54.5t12 66t-12 66.5t-34 55t-53 37.5t-70 14q-38 0 -69 -14
t-52.5 -37.5t-33.5 -55t-12 -66.5t12 -66t33.5 -54.5t52.5 -37.5t69 -14zM152 510l-31 52l249 137l31 -52z" />
    <glyph glyph-name="ocircumflex" unicode="&#xf4;" horiz-adv-x="552" 
d="M275 -11q-53 0 -95.5 18.5t-73 50.5t-47 74t-16.5 89t16.5 89.5t47 74t73 50t95.5 18.5t96.5 -18.5t74 -50t47 -74t16.5 -89.5t-16.5 -89t-47 -74t-74 -50.5t-96.5 -18.5zM275 49q39 0 70 14t53 37.5t34 54.5t12 66t-12 66.5t-34 55t-53 37.5t-70 14q-38 0 -69 -14
t-52.5 -37.5t-33.5 -55t-12 -66.5t12 -66t33.5 -54.5t52.5 -37.5t69 -14zM275 729l175 -151l-38 -43l-137 121l-136 -121l-39 43z" />
    <glyph glyph-name="otilde" unicode="&#xf5;" horiz-adv-x="552" 
d="M275 -11q-53 0 -95.5 18.5t-73 50.5t-47 74t-16.5 89t16.5 89.5t47 74t73 50t95.5 18.5t96.5 -18.5t74 -50t47 -74t16.5 -89.5t-16.5 -89t-47 -74t-74 -50.5t-96.5 -18.5zM275 49q39 0 70 14t53 37.5t34 54.5t12 66t-12 66.5t-34 55t-53 37.5t-70 14q-38 0 -69 -14
t-52.5 -37.5t-33.5 -55t-12 -66.5t12 -66t33.5 -54.5t52.5 -37.5t69 -14zM343 622q23 0 40 16t27 38l49 -24q-20 -43 -51.5 -62.5t-63.5 -19.5q-25 0 -44 8.5t-34.5 18.5l-30 18.5t-30.5 8.5q-23 0 -39.5 -15.5t-26.5 -38.5l-48 29q21 40 51.5 58.5t62.5 18.5
q25 0 43.5 -8.5t34 -18.5l29.5 -18.5t31 -8.5z" />
    <glyph glyph-name="odieresis" unicode="&#xf6;" horiz-adv-x="552" 
d="M160 546q-25 0 -42 17t-17 42q0 26 17 43.5t42 17.5q26 0 43.5 -17.5t17.5 -43.5q0 -25 -17.5 -42t-43.5 -17zM331 605q0 26 17 43.5t42 17.5q26 0 43 -17.5t17 -43.5q0 -25 -17 -42t-43 -17q-25 0 -42 17t-17 42zM275 -11q-53 0 -95.5 18.5t-73 50.5t-47 74t-16.5 89
t16.5 89.5t47 74t73 50t95.5 18.5t96.5 -18.5t74 -50t47 -74t16.5 -89.5t-16.5 -89t-47 -74t-74 -50.5t-96.5 -18.5zM275 49q39 0 70 14t53 37.5t34 54.5t12 66t-12 66.5t-34 55t-53 37.5t-70 14q-38 0 -69 -14t-52.5 -37.5t-33.5 -55t-12 -66.5t12 -66t33.5 -54.5
t52.5 -37.5t69 -14z" />
    <glyph glyph-name="divide" unicode="&#xf7;" 
d="M83 205v59h404v-59h-404zM226 382q0 26 17 43.5t42 17.5q26 0 43 -17.5t17 -43.5q0 -25 -17 -42t-43 -17q-25 0 -42 17t-17 42zM226 95q0 9 4.5 19.5t12.5 19.5t19 15t23 6q13 0 24 -6t19 -15t12.5 -19.5t4.5 -19.5q0 -26 -17 -43t-43 -17q-25 0 -42 17t-17 43z" />
    <glyph glyph-name="oslash" unicode="&#xf8;" horiz-adv-x="552" 
d="M381 429q60 -28 94 -84t34 -124q0 -47 -16.5 -89t-47 -74t-74 -50.5t-96.5 -18.5q-41 0 -78 13l-30 -70l-43 18l30 71q-53 30 -82 83.5t-29 116.5q0 47 16.5 89.5t47 74t73 50t95.5 18.5q32 0 64 -8l27 64l43 -17zM275 49q39 0 70 14t53 37.5t34 54.5t12 66q0 49 -23 89
t-64 62l-136 -315q12 -5 25.5 -6.5t28.5 -1.5zM108 221q0 -45 18.5 -82.5t53.5 -60.5l134 311q-10 2 -19 3.5t-20 1.5q-38 0 -69 -14t-52.5 -37.5t-33.5 -55t-12 -66.5z" />
    <glyph glyph-name="ugrave" unicode="&#xf9;" horiz-adv-x="560" 
d="M477 0h-65v96q-19 -45 -62 -76t-106 -31q-45 0 -78.5 15t-54.5 41q-20 25 -29.5 58t-9.5 80v260h66v-241q0 -33 7 -61t22.5 -48.5t39.5 -32.5t59 -12q37 0 64.5 14.5t45.5 38.5t27 54t9 61v227h65v-443zM142 647l31 52l249 -137l-31 -52z" />
    <glyph glyph-name="uacute" unicode="&#xfa;" horiz-adv-x="560" 
d="M477 0h-65v96q-19 -45 -62 -76t-106 -31q-45 0 -78.5 15t-54.5 41q-20 25 -29.5 58t-9.5 80v260h66v-241q0 -33 7 -61t22.5 -48.5t39.5 -32.5t59 -12q37 0 64.5 14.5t45.5 38.5t27 54t9 61v227h65v-443zM170 510l-31 52l249 137l31 -52z" />
    <glyph glyph-name="ucircumflex" unicode="&#xfb;" horiz-adv-x="561" 
d="M477 0h-65v96q-19 -45 -62 -76t-106 -31q-45 0 -78.5 15t-54.5 41q-20 25 -29.5 58t-9.5 80v260h66v-241q0 -33 7 -61t22.5 -48.5t39.5 -32.5t59 -12q37 0 64.5 14.5t45.5 38.5t27 54t9 61v227h65v-443zM283 728l175 -150l-38 -44l-137 122l-136 -121l-39 43z" />
    <glyph glyph-name="udieresis" unicode="&#xfc;" horiz-adv-x="560" 
d="M477 0h-65v96q-19 -45 -62 -76t-106 -31q-45 0 -78.5 15t-54.5 41q-20 25 -29.5 58t-9.5 80v260h66v-241q0 -33 7 -61t22.5 -48.5t39.5 -32.5t59 -12q37 0 64.5 14.5t45.5 38.5t27 54t9 61v227h65v-443zM331 605q0 26 17 43.5t42 17.5q26 0 43 -17.5t17 -43.5
q0 -25 -17 -42t-43 -17q-25 0 -42 17t-17 42zM101 605q0 26 17 43.5t42 17.5q26 0 43 -17.5t17 -43.5q0 -25 -17 -42t-43 -17q-25 0 -42 17t-17 42z" />
    <glyph glyph-name="yacute" unicode="&#xfd;" horiz-adv-x="568" 
d="M281 -267q-201 0 -206 202h66q4 -72 38 -109t103 -37q34 0 60 8t44 27t27.5 49t9.5 75v148q-19 -45 -61 -76t-105 -31q-50 0 -81.5 14t-54.5 40q-21 25 -29.5 58.5t-8.5 86.5v255h66v-236q0 -36 6 -65.5t21 -50t39.5 -32t62.5 -11.5q37 0 64 14.5t45 38.5t27 54t9 61v227
h65v-495q0 -114 -52.5 -164.5t-154.5 -50.5zM180 510l-32 52l249 137l32 -52z" />
    <glyph glyph-name="thorn" unicode="&#xfe;" horiz-adv-x="590" 
d="M83 -257v957h65v-351q22 48 68 76t104 28q51 0 93.5 -18.5t72.5 -50t46.5 -74t16.5 -89.5t-16.5 -89t-46.5 -74t-72.5 -50.5t-93.5 -18.5q-58 0 -104 28.5t-68 75.5v-350h-65zM317 49q38 0 69 14t52.5 37.5t33.5 54.5t12 66t-12 66.5t-33.5 55t-52.5 37.5t-69 14
q-39 0 -70 -14t-53 -37.5t-34 -55t-12 -66.5t12 -66t34 -54.5t53 -37.5t70 -14z" />
    <glyph glyph-name="ydieresis" unicode="&#xff;" horiz-adv-x="568" 
d="M281 -267q-201 0 -206 202h66q4 -72 38 -109t103 -37q34 0 60 8t44 27t27.5 49t9.5 75v148q-19 -45 -61 -76t-105 -31q-50 0 -81.5 14t-54.5 40q-21 25 -29.5 58.5t-8.5 86.5v255h66v-236q0 -36 6 -65.5t21 -50t39.5 -32t62.5 -11.5q37 0 64 14.5t45 38.5t27 54t9 61v227
h65v-495q0 -114 -52.5 -164.5t-154.5 -50.5zM350 605q0 24 16.5 41t40.5 17q25 0 41.5 -17t16.5 -41q0 -25 -16.5 -41.5t-41.5 -16.5q-24 0 -40.5 16.5t-16.5 41.5zM120 605q0 24 16.5 41t40.5 17q25 0 41.5 -17t16.5 -41q0 -25 -16.5 -41.5t-41.5 -16.5q-24 0 -40.5 16.5
t-16.5 41.5z" />
    <glyph glyph-name="Amacron" unicode="&#x100;" horiz-adv-x="546" 
d="M540 0h-72l-43 125h-304l-43 -125h-72l241 700h52zM142 187h262l-131 404zM452 800h-358v59h358v-59z" />
    <glyph glyph-name="amacron" unicode="&#x101;" horiz-adv-x="592" 
d="M509 443v-443h-65v93q-22 -47 -68 -75.5t-104 -28.5q-51 0 -93.5 18.5t-72.5 50.5t-46.5 74t-16.5 89t16.5 89.5t46.5 74t72.5 50t93.5 18.5q58 0 104 -28t68 -76v94h65zM275 49q39 0 70 14t53 37.5t34 54.5t12 66t-12 66.5t-34 55t-53 37.5t-70 14q-38 0 -69 -14
t-52.5 -37.5t-33.5 -55t-12 -66.5t12 -66t33.5 -54.5t52.5 -37.5t69 -14zM450 576h-358v59h358v-59z" />
    <glyph glyph-name="Abreve" unicode="&#x102;" horiz-adv-x="546" 
d="M540 0h-72l-43 125h-304l-43 -125h-72l241 700h52zM142 187h262l-131 404zM274 824q48 0 81.5 24.5t44.5 69.5h62q-6 -33 -22.5 -59.5t-41.5 -46t-56.5 -30t-67.5 -10.5t-68 10.5t-57 30t-41 46t-22 59.5h62q11 -45 44 -69.5t82 -24.5z" />
    <glyph glyph-name="abreve" unicode="&#x103;" horiz-adv-x="592" 
d="M509 443v-443h-65v93q-22 -47 -68 -75.5t-104 -28.5q-51 0 -93.5 18.5t-72.5 50.5t-46.5 74t-16.5 89t16.5 89.5t46.5 74t72.5 50t93.5 18.5q58 0 104 -28t68 -76v94h65zM275 49q39 0 70 14t53 37.5t34 54.5t12 66t-12 66.5t-34 55t-53 37.5t-70 14q-38 0 -69 -14
t-52.5 -37.5t-33.5 -55t-12 -66.5t12 -66t33.5 -54.5t52.5 -37.5t69 -14zM274 606q47 0 79 24.5t43 69.5h61q-6 -33 -22 -59.5t-40 -46t-55 -30t-66 -10.5t-66 10.5t-55 30t-40 46t-22 59.5h62q11 -45 42.5 -69.5t78.5 -24.5z" />
    <glyph glyph-name="Aogonek" unicode="&#x104;" horiz-adv-x="546" 
d="M142 187h262l-131 404zM559 -199q-14 -5 -35 -9t-46 -4q-54 0 -82 27.5t-28 69.5q0 33 26 61.5t74 53.5l-43 125h-304l-43 -125h-72l241 700h52l241 -700h-23q-38 -18 -62 -41.5t-24 -55.5q0 -27 17 -45.5t48 -18.5q16 0 33 3.5t31 8.5z" />
    <glyph glyph-name="aogonek" unicode="&#x105;" horiz-adv-x="592" 
d="M509 0h-14q-40 -19 -65.5 -44t-25.5 -58q0 -25 16.5 -42t46.5 -17q16 0 33 3.5t31 8.5l-1 -50q-15 -5 -36 -9t-45 -4q-56 0 -84.5 27.5t-28.5 69.5q0 34 27 62t81 56v90q-22 -47 -68 -75.5t-104 -28.5q-51 0 -93.5 18.5t-72.5 50.5t-46.5 74t-16.5 89t16.5 89.5t46.5 74
t72.5 50t93.5 18.5q58 0 104 -28t68 -76v94h65v-443zM275 49q39 0 70 14t53 37.5t34 54.5t12 66t-12 66.5t-34 55t-53 37.5t-70 14q-38 0 -69 -14t-52.5 -37.5t-33.5 -55t-12 -66.5t12 -66t33.5 -54.5t52.5 -37.5t69 -14z" />
    <glyph glyph-name="Cacute" unicode="&#x106;" horiz-adv-x="775" 
d="M733 206q-14 -47 -43.5 -87.5t-71.5 -70t-95 -46.5t-114 -17q-86 0 -153.5 29.5t-115 80t-72.5 116.5t-25 140q0 71 24.5 136.5t70 116t111 81t147.5 30.5q74 0 132 -19.5t100 -53t68 -79.5t37 -99h-71q-10 40 -31 74.5t-53.5 60t-76 40t-97.5 14.5q-69 0 -123 -25
t-91.5 -67t-57 -96.5t-19.5 -113.5q0 -62 20.5 -117t59.5 -96.5t95.5 -66t128.5 -24.5q41 0 79.5 12t70 33t55.5 50t36 64h75zM288 749l-31 53l249 137l31 -53z" />
    <glyph glyph-name="cacute" unicode="&#x107;" horiz-adv-x="524" 
d="M409 281q-3 23 -12 44t-25.5 36.5t-42 24.5t-61.5 9q-39 0 -68 -14.5t-48.5 -38.5t-29.5 -55t-10 -65q0 -35 9.5 -66t29.5 -55t49.5 -38t70.5 -14q65 0 97 29t43 74h65q-5 -34 -20.5 -64t-41 -52t-62.5 -34.5t-85 -12.5q-54 0 -95.5 19.5t-69 51.5t-42 74.5t-14.5 87.5
t14.5 87t42 74t69 51.5t95.5 19.5q53 0 91 -15t63 -39.5t37.5 -55.5t15.5 -63h-65zM158 510l-32 52l249 137l32 -52z" />
    <glyph glyph-name="Ccircumflex" unicode="&#x108;" horiz-adv-x="775" 
d="M733 206q-14 -47 -43.5 -87.5t-71.5 -70t-95 -46.5t-114 -17q-86 0 -153.5 29.5t-115 80t-72.5 116.5t-25 140q0 71 24.5 136.5t70 116t111 81t147.5 30.5q74 0 132 -19.5t100 -53t68 -79.5t37 -99h-71q-10 40 -31 74.5t-53.5 60t-76 40t-97.5 14.5q-69 0 -123 -25
t-91.5 -67t-57 -96.5t-19.5 -113.5q0 -62 20.5 -117t59.5 -96.5t95.5 -66t128.5 -24.5q41 0 79.5 12t70 33t55.5 50t36 64h75zM397 943l176 -151l-38 -43l-138 121l-136 -121l-39 43z" />
    <glyph glyph-name="ccircumflex" unicode="&#x109;" horiz-adv-x="524" 
d="M409 281q-3 23 -12 44t-25.5 36.5t-42 24.5t-61.5 9q-39 0 -68 -14.5t-48.5 -38.5t-29.5 -55t-10 -65q0 -35 9.5 -66t29.5 -55t49.5 -38t70.5 -14q65 0 97 29t43 74h65q-5 -34 -20.5 -64t-41 -52t-62.5 -34.5t-85 -12.5q-54 0 -95.5 19.5t-69 51.5t-42 74.5t-14.5 87.5
t14.5 87t42 74t69 51.5t95.5 19.5q53 0 91 -15t63 -39.5t37.5 -55.5t15.5 -63h-65zM270 728l176 -150l-38 -44l-137 122l-137 -121l-38 43z" />
    <glyph glyph-name="Cdotaccent" unicode="&#x10a;" horiz-adv-x="775" 
d="M733 206q-14 -47 -43.5 -87.5t-71.5 -70t-95 -46.5t-114 -17q-86 0 -153.5 29.5t-115 80t-72.5 116.5t-25 140q0 71 24.5 136.5t70 116t111 81t147.5 30.5q74 0 132 -19.5t100 -53t68 -79.5t37 -99h-71q-10 40 -31 74.5t-53.5 60t-76 40t-97.5 14.5q-69 0 -123 -25
t-91.5 -67t-57 -96.5t-19.5 -113.5q0 -62 20.5 -117t59.5 -96.5t95.5 -66t128.5 -24.5q41 0 79.5 12t70 33t55.5 50t36 64h75zM337 836q0 26 17 43t42 17q26 0 43 -17t17 -43q0 -25 -17 -42t-43 -17q-25 0 -42 17t-17 42z" />
    <glyph glyph-name="cdotaccent" unicode="&#x10b;" horiz-adv-x="524" 
d="M409 281q-3 23 -12 44t-25.5 36.5t-42 24.5t-61.5 9q-39 0 -68 -14.5t-48.5 -38.5t-29.5 -55t-10 -65q0 -35 9.5 -66t29.5 -55t49.5 -38t70.5 -14q65 0 97 29t43 74h65q-5 -34 -20.5 -64t-41 -52t-62.5 -34.5t-85 -12.5q-54 0 -95.5 19.5t-69 51.5t-42 74.5t-14.5 87.5
t14.5 87t42 74t69 51.5t95.5 19.5q53 0 91 -15t63 -39.5t37.5 -55.5t15.5 -63h-65zM209 605q0 25 17 42.5t42 17.5q26 0 43 -17.5t17 -42.5q0 -26 -17 -43t-43 -17q-25 0 -42 17t-17 43z" />
    <glyph glyph-name="Ccaron" unicode="&#x10c;" horiz-adv-x="775" 
d="M733 206q-14 -47 -43.5 -87.5t-71.5 -70t-95 -46.5t-114 -17q-86 0 -153.5 29.5t-115 80t-72.5 116.5t-25 140q0 71 24.5 136.5t70 116t111 81t147.5 30.5q74 0 132 -19.5t100 -53t68 -79.5t37 -99h-71q-10 40 -31 74.5t-53.5 60t-76 40t-97.5 14.5q-69 0 -123 -25
t-91.5 -67t-57 -96.5t-19.5 -113.5q0 -62 20.5 -117t59.5 -96.5t95.5 -66t128.5 -24.5q41 0 79.5 12t70 33t55.5 50t36 64h75zM222 900l39 42l131 -119l132 120l39 -43l-172 -151z" />
    <glyph glyph-name="ccaron" unicode="&#x10d;" horiz-adv-x="524" 
d="M409 281q-3 23 -12 44t-25.5 36.5t-42 24.5t-61.5 9q-39 0 -68 -14.5t-48.5 -38.5t-29.5 -55t-10 -65q0 -35 9.5 -66t29.5 -55t49.5 -38t70.5 -14q65 0 97 29t43 74h65q-5 -34 -20.5 -64t-41 -52t-62.5 -34.5t-85 -12.5q-54 0 -95.5 19.5t-69 51.5t-42 74.5t-14.5 87.5
t14.5 87t42 74t69 51.5t95.5 19.5q53 0 91 -15t63 -39.5t37.5 -55.5t15.5 -63h-65zM98 683l39 42l131 -119l132 120l39 -43l-171 -151z" />
    <glyph glyph-name="Dcaron" unicode="&#x10e;" horiz-adv-x="694" 
d="M288 700q87 0 154.5 -30t114 -79t70.5 -112t24 -129t-24 -129t-70.5 -112t-114 -79t-154.5 -30h-205v700h205zM151 638v-576h137q70 0 124.5 24.5t92 65t57 92t19.5 106.5t-19.5 106.5t-57 92t-92 65t-124.5 24.5h-137zM164 900l39 42l131 -119l132 120l39 -43l-172 -151
z" />
    <glyph glyph-name="dcaron" unicode="&#x10f;" horiz-adv-x="694" 
d="M275 49q39 0 70 14t53 37.5t34 54.5t12 66t-12 66.5t-34 55t-53 37.5t-70 14q-38 0 -69 -14t-52.5 -37.5t-33.5 -55t-12 -66.5t12 -66t33.5 -54.5t52.5 -37.5t69 -14zM444 700h65v-700h-65v93q-22 -47 -68 -75.5t-104 -28.5q-51 0 -93.5 18.5t-72.5 50.5t-46.5 74
t-16.5 89t16.5 89.5t46.5 74t72.5 50t93.5 18.5q58 0 104 -28t68 -76v351zM558 661q0 24 17 41.5t44 17.5q35 0 55 -27.5t20 -69.5q0 -70 -34.5 -98.5t-94.5 -29.5v35q58 0 69 41q6 14 6.5 24t-0.5 17q-4 -4 -11 -6t-13 -2q-26 0 -42 16.5t-16 40.5z" />
    <glyph glyph-name="Dcroat" unicode="&#x110;" horiz-adv-x="694" 
d="M288 700q87 0 154.5 -30t114 -79t70.5 -112t24 -129t-24 -129t-70.5 -112t-114 -79t-154.5 -30h-205v323h-144v59h144v318h205zM297 323h-146v-261h137q70 0 124.5 24.5t92 65t57 92t19.5 106.5t-19.5 106.5t-57 92t-92 65t-124.5 24.5h-137v-256h146v-59z" />
    <glyph glyph-name="dcroat" unicode="&#x111;" horiz-adv-x="592" 
d="M571 542h-62v-542h-65v93q-22 -47 -68 -75.5t-104 -28.5q-51 0 -93.5 18.5t-72.5 50.5t-46.5 74t-16.5 89t16.5 89.5t46.5 74t72.5 50t93.5 18.5q58 0 104 -28t68 -76v193h-119v46h119v112h65v-112h62v-46zM275 49q39 0 70 14t53 37.5t34 54.5t12 66t-12 66.5t-34 55
t-53 37.5t-70 14q-38 0 -69 -14t-52.5 -37.5t-33.5 -55t-12 -66.5t12 -66t33.5 -54.5t52.5 -37.5t69 -14z" />
    <glyph glyph-name="Emacron" unicode="&#x112;" horiz-adv-x="543" 
d="M151 638v-259h314v-62h-314v-255h314v-62h-382v700h382v-62h-314zM451 800h-358v59h358v-59z" />
    <glyph glyph-name="emacron" unicode="&#x113;" horiz-adv-x="519" 
d="M111 207q1 -32 10 -61.5t28 -51.5t48 -35t70 -13q55 0 87 24t43 57h66q-6 -27 -22 -52t-41 -44t-58.5 -30.5t-74.5 -11.5q-56 0 -97.5 18.5t-69 50.5t-41 74.5t-13.5 89.5q0 49 14.5 91.5t42.5 73.5t68.5 48.5t92.5 17.5q43 0 80.5 -15t65 -42t43.5 -63t16 -78
q0 -9 -0.5 -20.5t-2.5 -27.5h-355zM263 402q-66 0 -107 -38.5t-44 -105.5h293q0 33 -11 59.5t-30 45t-45 29t-56 10.5zM444 576h-358v59h358v-59z" />
    <glyph glyph-name="Ebreve" unicode="&#x114;" horiz-adv-x="543" 
d="M151 638v-259h314v-62h-314v-255h314v-62h-382v700h382v-62h-314zM275 824q48 0 81.5 24.5t44.5 69.5h62q-6 -33 -22.5 -59.5t-41.5 -46t-56.5 -30t-67.5 -10.5t-68 10.5t-57 30t-41.5 46t-22.5 59.5h63q11 -45 44 -69.5t82 -24.5z" />
    <glyph glyph-name="ebreve" unicode="&#x115;" horiz-adv-x="519" 
d="M111 207q1 -32 10 -61.5t28 -51.5t48 -35t70 -13q55 0 87 24t43 57h66q-6 -27 -22 -52t-41 -44t-58.5 -30.5t-74.5 -11.5q-56 0 -97.5 18.5t-69 50.5t-41 74.5t-13.5 89.5q0 49 14.5 91.5t42.5 73.5t68.5 48.5t92.5 17.5q43 0 80.5 -15t65 -42t43.5 -63t16 -78
q0 -9 -0.5 -20.5t-2.5 -27.5h-355zM263 402q-66 0 -107 -38.5t-44 -105.5h293q0 33 -11 59.5t-30 45t-45 29t-56 10.5zM264 606q47 0 79 24.5t43 69.5h61q-6 -33 -22 -59.5t-40 -46t-55 -30t-66 -10.5t-66 10.5t-55 30t-40 46t-22 59.5h61q11 -45 43 -69.5t79 -24.5z" />
    <glyph glyph-name="Edotaccent" unicode="&#x116;" horiz-adv-x="543" 
d="M151 638v-259h314v-62h-314v-255h314v-62h-382v700h382v-62h-314zM211 836q0 26 17 43.5t43 17.5q25 0 42.5 -17.5t17.5 -43.5q0 -25 -17.5 -42t-42.5 -17q-26 0 -43 17t-17 42z" />
    <glyph glyph-name="edotaccent" unicode="&#x117;" horiz-adv-x="519" 
d="M111 207q1 -32 10 -61.5t28 -51.5t48 -35t70 -13q55 0 87 24t43 57h66q-6 -27 -22 -52t-41 -44t-58.5 -30.5t-74.5 -11.5q-56 0 -97.5 18.5t-69 50.5t-41 74.5t-13.5 89.5q0 49 14.5 91.5t42.5 73.5t68.5 48.5t92.5 17.5q43 0 80.5 -15t65 -42t43.5 -63t16 -78
q0 -9 -0.5 -20.5t-2.5 -27.5h-355zM263 402q-66 0 -107 -38.5t-44 -105.5h293q0 33 -11 59.5t-30 45t-45 29t-56 10.5zM202 604q0 26 17 43.5t43 17.5q25 0 42.5 -17.5t17.5 -43.5q0 -25 -17.5 -42t-42.5 -17q-26 0 -43 17t-17 42z" />
    <glyph glyph-name="Eogonek" unicode="&#x118;" horiz-adv-x="543" 
d="M83 0v700h382v-62h-314v-259h314v-62h-314v-255h314v-62h-79q-28 -20 -46 -44t-18 -52q0 -26 17.5 -45.5t52.5 -19.5q18 0 37.5 4t33.5 10l-1 -50q-16 -5 -39 -10t-49 -5q-57 0 -86 28.5t-29 68.5q0 32 19.5 59t60.5 56h-256z" />
    <glyph glyph-name="eogonek" unicode="&#x119;" horiz-adv-x="519" 
d="M377 -197q-16 -5 -39 -10t-49 -5q-57 0 -86 28.5t-29 68.5q0 30 16.5 55.5t51.5 51.5q-50 4 -86.5 24.5t-61 52t-36.5 71t-12 82.5q0 49 14.5 91.5t42.5 73.5t68.5 48.5t92.5 17.5q43 0 80.5 -15t65 -42t43.5 -63t16 -78q0 -9 -0.5 -20.5t-2.5 -27.5h-353q0 -32 9 -61.5
t28 -51.5t48 -35t69 -13q55 0 86.5 24t43.5 57h66q-6 -26 -20.5 -49t-36.5 -42t-52 -31t-66 -15q-23 -18 -37 -40t-14 -46q0 -26 17.5 -45.5t52.5 -19.5q18 0 37.5 4t33.5 10zM263 402q-66 0 -107 -38.5t-44 -105.5h293q0 33 -11 59.5t-30 45t-45 29t-56 10.5z" />
    <glyph glyph-name="Ecaron" unicode="&#x11a;" horiz-adv-x="543" 
d="M151 638v-259h314v-62h-314v-255h314v-62h-382v700h382v-62h-314zM100 900l39 42l131 -119l132 120l39 -43l-171 -151z" />
    <glyph glyph-name="ecaron" unicode="&#x11b;" horiz-adv-x="519" 
d="M111 207q1 -32 10 -61.5t28 -51.5t48 -35t70 -13q55 0 87 24t43 57h66q-6 -27 -22 -52t-41 -44t-58.5 -30.5t-74.5 -11.5q-56 0 -97.5 18.5t-69 50.5t-41 74.5t-13.5 89.5q0 49 14.5 91.5t42.5 73.5t68.5 48.5t92.5 17.5q43 0 80.5 -15t65 -42t43.5 -63t16 -78
q0 -9 -0.5 -20.5t-2.5 -27.5h-355zM263 402q-66 0 -107 -38.5t-44 -105.5h293q0 33 -11 59.5t-30 45t-45 29t-56 10.5zM92 683l39 42l131 -119l132 120l38 -43l-171 -151z" />
    <glyph glyph-name="Gcircumflex" unicode="&#x11c;" horiz-adv-x="833" 
d="M463 324h342v-62h-74q-9 -62 -34 -113t-66 -87.5t-99 -56.5t-131 -20q-86 0 -153 30.5t-112.5 81t-69 116.5t-23.5 137t24.5 137t71 116.5t113 81t149.5 30.5q57 0 106 -15.5t86.5 -42t62.5 -62t34 -76.5h-70q-8 28 -28 52.5t-48.5 42.5t-64.5 28.5t-78 10.5
q-68 0 -121 -25.5t-90.5 -67.5t-57 -96.5t-19.5 -113.5t18.5 -113.5t56 -96.5t92.5 -67.5t129 -25.5q57 0 101 16.5t75.5 45t49.5 68t24 85.5h-196v62zM401 943l176 -151l-38 -43l-137 121l-136 -121l-39 43z" />
    <glyph glyph-name="gcircumflex" unicode="&#x11d;" horiz-adv-x="590" 
d="M275 394q-38 0 -69 -14t-52.5 -37.5t-33.5 -54.5t-12 -66t12 -66.5t33.5 -55t52.5 -37.5t69 -14q39 0 70 14t53 37.5t34 55t12 66.5t-12 66t-34 54.5t-53 37.5t-70 14zM509 -34q0 -63 -16 -107.5t-47 -72.5t-75 -40.5t-99 -12.5q-58 0 -99.5 17t-68.5 45t-40.5 65
t-15.5 77h66q2 -29 11.5 -55t28.5 -46t48 -32t70 -12q40 0 72 9.5t54 30t34 53.5t12 81v128q-22 -48 -68 -76.5t-104 -28.5q-51 0 -93.5 18.5t-72.5 50.5t-46.5 74.5t-16.5 89.5t16.5 89t46.5 73.5t72.5 50t93.5 18.5q58 0 104 -28t68 -76v94h65v-477zM272 728l175 -150
l-38 -44l-137 122l-136 -121l-39 43z" />
    <glyph glyph-name="Gbreve" unicode="&#x11e;" horiz-adv-x="833" 
d="M463 324h342v-62h-74q-9 -62 -34 -113t-66 -87.5t-99 -56.5t-131 -20q-86 0 -153 30.5t-112.5 81t-69 116.5t-23.5 137t24.5 137t71 116.5t113 81t149.5 30.5q57 0 106 -15.5t86.5 -42t62.5 -62t34 -76.5h-70q-8 28 -28 52.5t-48.5 42.5t-64.5 28.5t-78 10.5
q-68 0 -121 -25.5t-90.5 -67.5t-57 -96.5t-19.5 -113.5t18.5 -113.5t56 -96.5t92.5 -67.5t129 -25.5q57 0 101 16.5t75.5 45t49.5 68t24 85.5h-196v62zM395 824q48 0 81.5 24.5t44.5 69.5h62q-6 -33 -22.5 -59.5t-41.5 -46t-56.5 -30t-67.5 -10.5t-68 10.5t-57 30t-41 46
t-22 59.5h62q11 -45 44.5 -69.5t81.5 -24.5z" />
    <glyph glyph-name="gbreve" unicode="&#x11f;" horiz-adv-x="590" 
d="M275 394q-38 0 -69 -14t-52.5 -37.5t-33.5 -54.5t-12 -66t12 -66.5t33.5 -55t52.5 -37.5t69 -14q39 0 70 14t53 37.5t34 55t12 66.5t-12 66t-34 54.5t-53 37.5t-70 14zM509 -34q0 -63 -16 -107.5t-47 -72.5t-75 -40.5t-99 -12.5q-58 0 -99.5 17t-68.5 45t-40.5 65
t-15.5 77h66q2 -29 11.5 -55t28.5 -46t48 -32t70 -12q40 0 72 9.5t54 30t34 53.5t12 81v128q-22 -48 -68 -76.5t-104 -28.5q-51 0 -93.5 18.5t-72.5 50.5t-46.5 74.5t-16.5 89.5t16.5 89t46.5 73.5t72.5 50t93.5 18.5q58 0 104 -28t68 -76v94h65v-477zM277 606q46 0 78 24.5
t43 69.5h62q-6 -33 -22 -59.5t-40.5 -46t-55.5 -30t-65 -10.5q-35 0 -66 10.5t-55.5 30t-40.5 46t-22 59.5h62q11 -45 43 -69.5t79 -24.5z" />
    <glyph glyph-name="Gdotaccent" unicode="&#x120;" horiz-adv-x="833" 
d="M463 324h342v-62h-74q-9 -62 -34 -113t-66 -87.5t-99 -56.5t-131 -20q-86 0 -153 30.5t-112.5 81t-69 116.5t-23.5 137t24.5 137t71 116.5t113 81t149.5 30.5q57 0 106 -15.5t86.5 -42t62.5 -62t34 -76.5h-70q-8 28 -28 52.5t-48.5 42.5t-64.5 28.5t-78 10.5
q-68 0 -121 -25.5t-90.5 -67.5t-57 -96.5t-19.5 -113.5t18.5 -113.5t56 -96.5t92.5 -67.5t129 -25.5q57 0 101 16.5t75.5 45t49.5 68t24 85.5h-196v62zM341 836q0 26 17 43.5t42 17.5q26 0 43.5 -17.5t17.5 -43.5q0 -25 -17.5 -42t-43.5 -17q-25 0 -42 17t-17 42z" />
    <glyph glyph-name="gdotaccent" unicode="&#x121;" horiz-adv-x="590" 
d="M275 394q-38 0 -69 -14t-52.5 -37.5t-33.5 -54.5t-12 -66t12 -66.5t33.5 -55t52.5 -37.5t69 -14q39 0 70 14t53 37.5t34 55t12 66.5t-12 66t-34 54.5t-53 37.5t-70 14zM509 -34q0 -63 -16 -107.5t-47 -72.5t-75 -40.5t-99 -12.5q-58 0 -99.5 17t-68.5 45t-40.5 65
t-15.5 77h66q2 -29 11.5 -55t28.5 -46t48 -32t70 -12q40 0 72 9.5t54 30t34 53.5t12 81v128q-22 -48 -68 -76.5t-104 -28.5q-51 0 -93.5 18.5t-72.5 50.5t-46.5 74.5t-16.5 89.5t16.5 89t46.5 73.5t72.5 50t93.5 18.5q58 0 104 -28t68 -76v94h65v-477zM208 604q0 26 17 43.5
t43 17.5q25 0 42.5 -17.5t17.5 -43.5q0 -25 -17.5 -42t-42.5 -17q-26 0 -43 17t-17 42z" />
    <glyph glyph-name="Gcommaaccent" unicode="&#x122;" horiz-adv-x="833" 
d="M463 324h342v-62h-74q-9 -62 -34 -113t-66 -87.5t-99 -56.5t-131 -20q-86 0 -153 30.5t-112.5 81t-69 116.5t-23.5 137t24.5 137t71 116.5t113 81t149.5 30.5q57 0 106 -15.5t86.5 -42t62.5 -62t34 -76.5h-70q-8 28 -28 52.5t-48.5 42.5t-64.5 28.5t-78 10.5
q-68 0 -121 -25.5t-90.5 -67.5t-57 -96.5t-19.5 -113.5t18.5 -113.5t56 -96.5t92.5 -67.5t129 -25.5q57 0 101 16.5t75.5 45t49.5 68t24 85.5h-196v62zM351 -77q0 20 14 34t36 14q29 0 45.5 -22.5t16.5 -56.5q0 -58 -29 -81.5t-77 -24.5v31q46 0 57 31q5 11 4.5 20t-0.5 14
q-7 -7 -20 -7q-21 0 -34 14t-13 34z" />
    <glyph glyph-name="gcommaaccent" unicode="&#x123;" horiz-adv-x="590" 
d="M509 -34q0 -63 -16 -107.5t-47 -72.5t-75 -40.5t-99 -12.5q-58 0 -99.5 17t-68.5 45t-40.5 65t-15.5 77h66q2 -29 11.5 -55t28.5 -46t48 -32t70 -12q40 0 72 9.5t54 30t34 53.5t12 81v128q-22 -48 -68 -76.5t-104 -28.5q-51 0 -93.5 18.5t-72.5 50.5t-46.5 74.5
t-16.5 89.5t16.5 89t46.5 73.5t72.5 50t93.5 18.5q58 0 104 -28t68 -76v94h65v-477zM275 49q39 0 70 14t53 37.5t34 55t12 66.5t-12 66t-34 54.5t-53 37.5t-70 14q-38 0 -69 -14t-52.5 -37.5t-33.5 -54.5t-12 -66t12 -66.5t33.5 -55t52.5 -37.5t69 -14zM337 582
q0 -24 -16.5 -41.5t-44.5 -17.5q-35 0 -55 27.5t-20 69.5q0 70 34.5 98.5t94.5 29.5v-35q-58 0 -69 -41q-5 -14 -6 -24t0 -17q4 4 11 6t13 2q26 0 42 -16.5t16 -40.5z" />
    <glyph glyph-name="Hcircumflex" unicode="&#x124;" horiz-adv-x="663" 
d="M511 317h-360v-317h-68v700h68v-321h360v321h69v-700h-69v317zM331 943l176 -151l-38 -43l-137 121l-137 -121l-39 43z" />
    <glyph glyph-name="hcircumflex" unicode="&#x125;" horiz-adv-x="562" 
d="M83 700h65v-353q19 45 62 75.5t106 30.5q45 0 78.5 -14.5t54.5 -40.5q20 -25 29.5 -58t9.5 -80v-260h-65v241q0 33 -7 61t-23 48.5t-40.5 32.5t-58.5 12q-37 0 -64.5 -14.5t-45.5 -38.5t-27 -54t-9 -61v-227h-65v700zM291 943l175 -151l-37 -43l-138 121l-136 -121
l-39 43z" />
    <glyph glyph-name="Hbar" unicode="&#x126;" horiz-adv-x="663" 
d="M511 506h-360v-127h360v127zM151 700v-143h360v143h69v-700h-69v317h-360v-317h-68v700h68z" />
    <glyph glyph-name="hbar" unicode="&#x127;" horiz-adv-x="562" 
d="M340 542h-192v-195q19 45 62 75.5t106 30.5q45 0 78.5 -14.5t54.5 -40.5q20 -25 29.5 -58t9.5 -80v-260h-65v241q0 33 -7 61t-23 48.5t-40.5 32.5t-58.5 12q-37 0 -64.5 -14.5t-45.5 -38.5t-27 -54t-9 -61v-227h-65v542h-83v46h83v112h65v-112h192v-46z" />
    <glyph glyph-name="Itilde" unicode="&#x128;" horiz-adv-x="236" 
d="M83 700h70v-700h-70v700zM185 845q23 0 40 15.5t27 37.5l49 -24q-20 -42 -51.5 -61.5t-63.5 -19.5q-25 0 -44 8.5t-34.5 18l-30 18t-30.5 8.5q-23 0 -39.5 -15t-26.5 -38l-48 29q21 40 51.5 58t62.5 18q25 0 43.5 -8.5t34 -18l29.5 -18t31 -8.5z" />
    <glyph glyph-name="itilde" unicode="&#x129;" horiz-adv-x="231" 
d="M83 443h65v-443h-65v443zM189 622q23 0 40 16t27 38l49 -24q-20 -43 -51.5 -62.5t-63.5 -19.5q-25 0 -44 8.5t-34.5 18.5l-30 18.5t-30.5 8.5q-23 0 -39.5 -15.5t-26.5 -38.5l-48 29q21 40 51.5 58.5t62.5 18.5q25 0 43.5 -8.5t34 -18.5l29.5 -18.5t31 -8.5z" />
    <glyph glyph-name="Imacron" unicode="&#x12a;" horiz-adv-x="236" 
d="M83 700h70v-700h-70v700zM297 800h-358v59h358v-59z" />
    <glyph glyph-name="imacron" unicode="&#x12b;" horiz-adv-x="231" 
d="M83 443h65v-443h-65v443zM290 575h-358v59h358v-59z" />
    <glyph glyph-name="Ibreve" unicode="&#x12c;" horiz-adv-x="236" 
d="M83 700h70v-700h-70v700zM119 824q48 0 81.5 24.5t44.5 69.5h62q-6 -33 -22.5 -59.5t-41.5 -46t-56.5 -30t-67.5 -10.5t-68 10.5t-57 30t-41 46t-22 59.5h62q11 -45 44 -69.5t82 -24.5z" />
    <glyph glyph-name="ibreve" unicode="&#x12d;" horiz-adv-x="231" 
d="M83 443h65v-443h-65v443zM116 606q47 0 78.5 24.5t42.5 69.5h62q-6 -33 -22 -59.5t-40.5 -46t-55.5 -30t-65 -10.5q-35 0 -66 10.5t-55.5 30t-40.5 46t-22 59.5h62q11 -45 43 -69.5t79 -24.5z" />
    <glyph glyph-name="Iogonek" unicode="&#x12e;" horiz-adv-x="236" 
d="M153 0h-12q-28 -20 -46 -44t-18 -52q0 -26 17.5 -45.5t52.5 -19.5q18 0 37.5 4t33.5 10l-1 -50q-16 -5 -39 -10t-49 -5q-57 0 -86 28.5t-29 68.5q0 32 19.5 59t60.5 56h-11v700h70v-700z" />
    <glyph glyph-name="iogonek" unicode="&#x12f;" horiz-adv-x="231" 
d="M214 -197q-16 -5 -39.5 -10t-49.5 -5q-57 0 -86 28.5t-29 68.5q0 32 19.5 59t60.5 56h-7v443h65v-443h-10q-29 -20 -47 -44t-18 -52q0 -27 18 -46t52 -19q18 0 37.5 4t34.5 10zM56 616q0 26 17 43.5t42 17.5q26 0 43.5 -17.5t17.5 -43.5q0 -25 -17.5 -42t-43.5 -17
q-25 0 -42 17t-17 42z" />
    <glyph glyph-name="Idotaccent" unicode="&#x130;" horiz-adv-x="236" 
d="M83 700h70v-700h-70v700zM58 836q0 26 17 43.5t42 17.5q26 0 43.5 -17.5t17.5 -43.5q0 -25 -17.5 -42t-43.5 -17q-25 0 -42 17t-17 42z" />
    <glyph glyph-name="dotlessi" unicode="&#x131;" horiz-adv-x="222" 
d="M79 443h65v-443h-65v443z" />
    <glyph glyph-name="Jcircumflex" unicode="&#x134;" horiz-adv-x="536" 
d="M463 216q0 -51 -15.5 -93.5t-44.5 -73t-69.5 -47.5t-91.5 -17q-50 0 -91.5 17t-71.5 47.5t-46.5 73.5t-16.5 94h68q0 -39 12 -70.5t33 -53.5t50 -34t63 -12q70 0 111 45.5t41 123.5v484h69v-484zM429 943l175 -151l-38 -43l-137 121l-136 -121l-39 43z" />
    <glyph glyph-name="jcircumflex" unicode="&#x135;" horiz-adv-x="231" 
d="M148 -135q0 -34 -7.5 -58.5t-21 -40.5t-31.5 -23.5t-38 -7.5q-47 0 -74 12v57q15 -6 25.5 -8.5t25.5 -2.5q26 0 41 19t15 57v574h65v-578zM117 728l176 -150l-38 -44l-137 122l-136 -121l-39 43z" />
    <glyph glyph-name="Kcommaaccent" unicode="&#x136;" horiz-adv-x="574" 
d="M477 0l-326 328v-328h-68v700h68v-329l326 329h88l-344 -350l344 -350h-88zM244 -66q0 20 14 34t36 14q28 0 45 -22.5t17 -56.5q0 -58 -29 -81.5t-78 -24.5v31q48 0 57 31q5 11 6 19.5t-1 14.5q-7 -7 -20 -7q-21 0 -34 14t-13 34z" />
    <glyph glyph-name="kcommaaccent" unicode="&#x137;" horiz-adv-x="455" 
d="M441 443l-219 -222l219 -221h-85l-208 207v-207h-65v700h65v-465l208 208h85zM182 -66q0 20 14 34t36 14q28 0 45 -22.5t17 -56.5q0 -58 -29 -81.5t-78 -24.5v31q48 0 57 31q5 11 6 19.5t-1 14.5q-7 -7 -20 -7q-21 0 -34 14t-13 34z" />
    <glyph glyph-name="kgreenlandic" unicode="&#x138;" horiz-adv-x="455" 
d="M222 221l219 -221h-85l-208 207v-207h-65v443h65v-208l208 208h85z" />
    <glyph glyph-name="Lacute" unicode="&#x139;" horiz-adv-x="422" 
d="M392 62v-62h-309v700h68v-638h241zM61 749l-32 53l249 137l32 -53z" />
    <glyph glyph-name="lacute" unicode="&#x13a;" horiz-adv-x="231" 
d="M83 700h65v-700h-65v700zM7 751l-31 52l249 137l31 -52z" />
    <glyph glyph-name="Lcommaaccent" unicode="&#x13b;" horiz-adv-x="422" 
d="M83 700h68v-638h241v-62h-309v700zM177 -67q0 20 14 34.5t36 14.5q28 0 45 -22.5t17 -57.5q0 -57 -29 -81t-78 -24v31q48 0 57 30q5 12 6 20t-1 14q-3 -3 -9 -4.5t-11 -1.5q-21 0 -34 13.5t-13 33.5z" />
    <glyph glyph-name="lcommaaccent" unicode="&#x13c;" horiz-adv-x="231" 
d="M83 700h65v-700h-65v700zM63 -66q0 20 14 34t36 14q29 0 45.5 -22.5t16.5 -56.5q0 -58 -28.5 -81.5t-77.5 -24.5v31q46 0 57 31q5 11 5.5 19.5t-0.5 14.5q-9 -7 -20 -7q-21 0 -34.5 14t-13.5 34z" />
    <glyph glyph-name="Lcaron" unicode="&#x13d;" horiz-adv-x="422" 
d="M392 62v-62h-309v700h68v-638h241zM276 662q0 25 17 42t44 17q35 0 55 -27t20 -69q0 -71 -35 -99.5t-94 -28.5v34q29 0 46.5 11t22.5 31q6 14 6.5 23.5t-0.5 17.5q-8 -8 -24 -8q-26 0 -42 16t-16 40z" />
    <glyph glyph-name="lcaron" unicode="&#x13e;" horiz-adv-x="333" 
d="M83 700h65v-700h-65v700zM197 662q0 25 17 42t44 17q35 0 55 -27t20 -69q0 -71 -35 -99.5t-94 -28.5v34q29 0 46.5 11t22.5 31q6 14 6.5 23.5t-0.5 17.5q-8 -8 -24 -8q-26 0 -42 16t-16 40z" />
    <glyph glyph-name="Ldot" unicode="&#x13f;" horiz-adv-x="422" 
d="M392 62v-62h-309v700h68v-638h241zM255 386q0 26 17 43.5t43 17.5q25 0 42.5 -17.5t17.5 -43.5q0 -25 -17.5 -42t-42.5 -17q-26 0 -43 17t-17 42z" />
    <glyph glyph-name="ldot" unicode="&#x140;" horiz-adv-x="321" 
d="M83 700h65v-700h-65v700zM219 330q0 26 17 43.5t43 17.5q25 0 42.5 -17.5t17.5 -43.5q0 -25 -17.5 -42t-42.5 -17q-26 0 -43 17t-17 42z" />
    <glyph glyph-name="Lslash" unicode="&#x141;" horiz-adv-x="422" 
d="M392 62v-62h-309v283l-55 -27v57l55 27v360h68v-331l161 78v-57l-161 -78v-250h241z" />
    <glyph glyph-name="lslash" unicode="&#x142;" horiz-adv-x="231" 
d="M83 311l-86 -47v53l86 47v336h70v-299l91 50v-55l-91 -49v-347h-70v311z" />
    <glyph glyph-name="Nacute" unicode="&#x143;" horiz-adv-x="662" 
d="M510 118v582h69v-700h-76l-352 582v-582h-68v700h76zM227 749l-32 53l249 137l32 -53z" />
    <glyph glyph-name="nacute" unicode="&#x144;" horiz-adv-x="562" 
d="M83 443h65v-96q19 45 62 75.5t106 30.5q45 0 78.5 -14.5t54.5 -40.5q20 -25 29.5 -58t9.5 -80v-260h-65v241q0 33 -7 61t-23 48.5t-40.5 32.5t-58.5 12q-37 0 -64.5 -14.5t-45.5 -38.5t-27 -54t-9 -61v-227h-65v443zM183 510l-32 52l249 137l32 -52z" />
    <glyph glyph-name="Ncommaaccent" unicode="&#x145;" horiz-adv-x="662" 
d="M503 0l-352 582v-582h-68v700h76l351 -582v582h69v-700h-76zM284 -67q0 20 14 34.5t36 14.5q28 0 45 -22.5t17 -57.5q0 -57 -29 -81t-77 -24v31q46 0 57 30q5 12 5.5 20t-1.5 14q-3 -3 -9 -4.5t-11 -1.5q-21 0 -34 13.5t-13 33.5z" />
    <glyph glyph-name="ncommaaccent" unicode="&#x146;" horiz-adv-x="562" 
d="M83 0v443h65v-96q19 45 62 75.5t106 30.5q45 0 78.5 -14.5t54.5 -40.5q20 -25 29.5 -58t9.5 -80v-260h-65v241q0 33 -7 61t-23 48.5t-40.5 32.5t-58.5 12q-37 0 -64.5 -14.5t-45.5 -38.5t-27 -54t-9 -61v-227h-65zM242 -66q0 20 14 34t36 14q29 0 45.5 -22.5t16.5 -56.5
q0 -58 -28.5 -81.5t-77.5 -24.5v31q46 0 57 31q5 11 5.5 19.5t-0.5 14.5q-9 -7 -20 -7q-22 0 -35 14t-13 34z" />
    <glyph glyph-name="Ncaron" unicode="&#x147;" horiz-adv-x="662" 
d="M510 118v582h69v-700h-76l-352 582v-582h-68v700h76zM167 900l39 42l131 -119l132 120l39 -43l-172 -151z" />
    <glyph glyph-name="ncaron" unicode="&#x148;" horiz-adv-x="562" 
d="M83 0v443h65v-96q19 45 62 75.5t106 30.5q45 0 78.5 -14.5t54.5 -40.5q20 -25 29.5 -58t9.5 -80v-260h-65v241q0 33 -7 61t-23 48.5t-40.5 32.5t-58.5 12q-37 0 -64.5 -14.5t-45.5 -38.5t-27 -54t-9 -61v-227h-65zM128 683l39 42l131 -119l132 120l38 -43l-171 -151z" />
    <glyph glyph-name="napostrophe" unicode="&#x149;" horiz-adv-x="562" 
d="M83 0v443h65v-96q19 45 62 75.5t106 30.5q45 0 78.5 -14.5t54.5 -40.5q20 -25 29.5 -58t9.5 -80v-260h-65v241q0 33 -7 61t-23 48.5t-40.5 32.5t-58.5 12q-37 0 -64.5 -14.5t-45.5 -38.5t-27 -54t-9 -61v-227h-65zM-27 674q0 20 14 34t36 14q28 0 45 -22.5t17 -56.5
q0 -58 -29 -81.5t-77 -23.5v30q46 0 57 31q5 12 5.5 20t-1.5 14q-3 -3 -9 -4.5t-11 -1.5q-21 0 -34 13.5t-13 33.5z" />
    <glyph glyph-name="Eng" unicode="&#x14a;" horiz-adv-x="662" 
d="M510 122v578h69v-734q0 -51 -15.5 -94t-44 -73.5t-69.5 -47.5t-91 -17q-57 0 -102.5 23.5t-75.5 63.5l44 44q25 -32 58 -50t76 -18q69 0 110 45t41 124v33l-359 583v-582h-68v700h70z" />
    <glyph glyph-name="eng" unicode="&#x14b;" horiz-adv-x="562" 
d="M151 -150q25 -27 54.5 -42t68.5 -15q68 0 108.5 44t40.5 120v284q0 33 -7 61t-23 48.5t-40.5 32.5t-58.5 12q-37 0 -64.5 -14.5t-45.5 -38.5t-27 -54t-9 -61v-227h-65v443h65v-96q19 45 62 75.5t106 30.5q45 0 78.5 -14.5t54.5 -40.5q20 -25 29.5 -58t9.5 -80v-303
q0 -50 -15 -91t-43 -70.5t-67.5 -46t-88.5 -16.5q-52 0 -94 20t-72 55z" />
    <glyph glyph-name="Omacron" unicode="&#x14c;" horiz-adv-x="806" 
d="M403 -15q-84 0 -151 30.5t-113.5 81t-71 116.5t-24.5 137t24.5 137t71 116.5t113.5 81t151 30.5t150.5 -30.5t113 -81t71.5 -116.5t25 -137t-25 -137t-71.5 -116.5t-113 -81t-150.5 -30.5zM403 47q67 0 120.5 25.5t91 67.5t57.5 96.5t20 113.5t-20 113.5t-57.5 96.5
t-91 67.5t-120.5 25.5q-68 0 -121.5 -25.5t-90.5 -67.5t-57 -96.5t-20 -113.5t20 -113.5t57 -96.5t90.5 -67.5t121.5 -25.5zM582 800h-358v59h358v-59z" />
    <glyph glyph-name="omacron" unicode="&#x14d;" horiz-adv-x="552" 
d="M275 -11q-53 0 -95.5 18.5t-73 50.5t-47 74t-16.5 89t16.5 89.5t47 74t73 50t95.5 18.5t96.5 -18.5t74 -50t47 -74t16.5 -89.5t-16.5 -89t-47 -74t-74 -50.5t-96.5 -18.5zM275 49q39 0 70 14t53 37.5t34 54.5t12 66t-12 66.5t-34 55t-53 37.5t-70 14q-38 0 -69 -14
t-52.5 -37.5t-33.5 -55t-12 -66.5t12 -66t33.5 -54.5t52.5 -37.5t69 -14zM455 575h-358v59h358v-59z" />
    <glyph glyph-name="Obreve" unicode="&#x14e;" horiz-adv-x="806" 
d="M403 -15q-84 0 -151 30.5t-113.5 81t-71 116.5t-24.5 137t24.5 137t71 116.5t113.5 81t151 30.5t150.5 -30.5t113 -81t71.5 -116.5t25 -137t-25 -137t-71.5 -116.5t-113 -81t-150.5 -30.5zM403 47q67 0 120.5 25.5t91 67.5t57.5 96.5t20 113.5t-20 113.5t-57.5 96.5
t-91 67.5t-120.5 25.5q-68 0 -121.5 -25.5t-90.5 -67.5t-57 -96.5t-20 -113.5t20 -113.5t57 -96.5t90.5 -67.5t121.5 -25.5zM403 824q48 0 81.5 24.5t44.5 69.5h62q-6 -33 -22.5 -59.5t-41.5 -46t-56.5 -30t-67.5 -10.5t-68 10.5t-57 30t-41 46t-22 59.5h62
q11 -45 44.5 -69.5t81.5 -24.5z" />
    <glyph glyph-name="obreve" unicode="&#x14f;" horiz-adv-x="552" 
d="M275 -11q-53 0 -95.5 18.5t-73 50.5t-47 74t-16.5 89t16.5 89.5t47 74t73 50t95.5 18.5t96.5 -18.5t74 -50t47 -74t16.5 -89.5t-16.5 -89t-47 -74t-74 -50.5t-96.5 -18.5zM275 49q39 0 70 14t53 37.5t34 54.5t12 66t-12 66.5t-34 55t-53 37.5t-70 14q-38 0 -69 -14
t-52.5 -37.5t-33.5 -55t-12 -66.5t12 -66t33.5 -54.5t52.5 -37.5t69 -14zM275 606q46 0 78 24.5t43 69.5h62q-6 -33 -22 -59.5t-40.5 -46t-55.5 -30t-65 -10.5q-35 0 -66 10.5t-55.5 30t-40.5 46t-22 59.5h62q11 -45 43 -69.5t79 -24.5z" />
    <glyph glyph-name="Ohungarumlaut" unicode="&#x150;" horiz-adv-x="806" 
d="M403 -15q-84 0 -151 30.5t-113.5 81t-71 116.5t-24.5 137t24.5 137t71 116.5t113.5 81t151 30.5t150.5 -30.5t113 -81t71.5 -116.5t25 -137t-25 -137t-71.5 -116.5t-113 -81t-150.5 -30.5zM403 47q67 0 120.5 25.5t91 67.5t57.5 96.5t20 113.5t-20 113.5t-57.5 96.5
t-91 67.5t-120.5 25.5q-68 0 -121.5 -25.5t-90.5 -67.5t-57 -96.5t-20 -113.5t20 -113.5t57 -96.5t90.5 -67.5t121.5 -25.5zM568 949l58 -29l-148 -156l-35 19zM373 949l58 -29l-148 -156l-35 19z" />
    <glyph glyph-name="ohungarumlaut" unicode="&#x151;" horiz-adv-x="552" 
d="M275 -11q-53 0 -95.5 18.5t-73 50.5t-47 74t-16.5 89t16.5 89.5t47 74t73 50t95.5 18.5t96.5 -18.5t74 -50t47 -74t16.5 -89.5t-16.5 -89t-47 -74t-74 -50.5t-96.5 -18.5zM275 49q39 0 70 14t53 37.5t34 54.5t12 66t-12 66.5t-34 55t-53 37.5t-70 14q-38 0 -69 -14
t-52.5 -37.5t-33.5 -55t-12 -66.5t12 -66t33.5 -54.5t52.5 -37.5t69 -14zM249 707l58 -28l-147 -156l-36 18zM355 522l-36 19l125 166l58 -28z" />
    <glyph glyph-name="OE" unicode="&#x152;" horiz-adv-x="1152" 
d="M760 638v-259h314v-62h-314v-255h314v-62h-382v148q-20 -36 -48 -66t-65 -51.5t-81 -34t-95 -12.5q-84 0 -151 30.5t-113.5 81t-71 116.5t-24.5 137t24.5 137t71 116.5t113.5 81t151 30.5q51 0 95 -12.5t81 -34t65 -51.5t48 -66v150h382v-62h-314zM403 46
q67 0 120.5 25.5t91 67.5t57.5 96.5t20 113.5t-20 113.5t-57.5 96.5t-91 67.5t-120.5 25.5q-68 0 -121.5 -25.5t-90.5 -67.5t-57 -96.5t-20 -113.5t20 -113.5t57 -96.5t90.5 -67.5t121.5 -25.5z" />
    <glyph glyph-name="oe" unicode="&#x153;" horiz-adv-x="916" 
d="M510 207q0 -34 9.5 -63.5t28.5 -51t48 -34t68 -12.5q56 0 87 24t43 57h67q-6 -27 -22.5 -52t-41.5 -44t-58.5 -30.5t-74.5 -11.5q-72 0 -119.5 32.5t-70.5 82.5q-26 -51 -77.5 -83t-121.5 -32q-53 0 -95.5 18.5t-73 50.5t-47 74t-16.5 89t16.5 89.5t47 74t73 50
t95.5 18.5q69 0 120 -31.5t78 -82.5q23 52 71 83t117 31q43 0 80.5 -15t65 -42t43.5 -63t16 -78q0 -9 -0.5 -20.5t-2.5 -27.5h-353zM660 397q-65 0 -105.5 -37.5t-43.5 -101.5h291q0 31 -11 57t-30 44t-45 28t-56 10zM275 49q38 0 69.5 13.5t53.5 37t34 54.5t12 67t-12 67.5
t-34 55t-53.5 37t-69.5 13.5t-69 -14t-52.5 -37.5t-33.5 -55t-12 -66.5t12 -66t33.5 -54.5t52.5 -37.5t69 -14z" />
    <glyph glyph-name="Racute" unicode="&#x154;" horiz-adv-x="602" 
d="M83 700h241q53 0 96.5 -18.5t74 -50.5t47 -74t16.5 -89q0 -39 -11.5 -74t-32.5 -64.5t-51.5 -51t-68.5 -31.5l157 -247h-79l-149 236h-172v-236h-68v700zM324 298q38 0 68.5 13.5t52 37t33 54t11.5 65.5q0 34 -11.5 65t-33 54.5t-52 37t-68.5 13.5h-173v-340h173z
M192 749l-31 53l249 137l31 -53z" />
    <glyph glyph-name="racute" unicode="&#x155;" horiz-adv-x="353" 
d="M348 382q-13 4 -21.5 5t-20.5 1q-41 0 -70.5 -15.5t-49 -41.5t-29 -60.5t-9.5 -73.5v-197h-65v443h65v-104q20 54 63.5 82t94.5 28q12 0 23 -1.5t19 -5.5v-60zM85 520l-32 52l249 137l32 -52z" />
    <glyph glyph-name="Rcommaaccent" unicode="&#x156;" horiz-adv-x="602" 
d="M83 700h241q53 0 96.5 -18.5t74 -50.5t47 -74t16.5 -89q0 -39 -11.5 -74t-32.5 -64.5t-51.5 -51t-68.5 -31.5l157 -247h-79l-149 236h-172v-236h-68v700zM151 638v-340h173q38 0 68.5 13.5t52 37t33 54t11.5 65.5q0 34 -11.5 65t-33 54.5t-52 37t-68.5 13.5h-173z
M249 -67q0 20 14 34.5t36 14.5q29 0 45.5 -22.5t16.5 -57.5q0 -57 -28.5 -81t-77.5 -24v31q33 0 49 13.5t17 35.5q0 8 -1.5 11t-2.5 4q-8 -6 -20 -6q-22 0 -35 13.5t-13 33.5z" />
    <glyph glyph-name="rcommaaccent" unicode="&#x157;" horiz-adv-x="353" 
d="M348 382q-13 4 -21.5 5t-20.5 1q-41 0 -70.5 -15.5t-49 -41.5t-29 -60.5t-9.5 -73.5v-197h-65v443h65v-104q20 54 63.5 82t94.5 28q12 0 23 -1.5t19 -5.5v-60zM63 -66q0 20 14 34t36 14q29 0 45.5 -22.5t16.5 -56.5q0 -58 -28.5 -81.5t-77.5 -24.5v31q46 0 57 31
q5 11 5.5 19.5t-0.5 14.5q-9 -7 -20 -7q-21 0 -34.5 14t-13.5 34z" />
    <glyph glyph-name="Rcaron" unicode="&#x158;" horiz-adv-x="602" 
d="M83 700h241q53 0 96.5 -18.5t74 -50.5t47 -74t16.5 -89q0 -39 -11.5 -74t-32.5 -64.5t-51.5 -51t-68.5 -31.5l157 -247h-79l-149 236h-172v-236h-68v700zM324 298q38 0 68.5 13.5t52 37t33 54t11.5 65.5q0 34 -11.5 65t-33 54.5t-52 37t-68.5 13.5h-173v-340h173z
M120 900l39 42l130 -119l133 120l38 -43l-171 -151z" />
    <glyph glyph-name="rcaron" unicode="&#x159;" horiz-adv-x="353" 
d="M348 382q-13 4 -21.5 5t-20.5 1q-41 0 -70.5 -15.5t-49 -41.5t-29 -60.5t-9.5 -73.5v-197h-65v443h65v-104q20 54 63.5 82t94.5 28q12 0 23 -1.5t19 -5.5v-60zM31 683l39 42l130 -119l132 120l39 -43l-171 -151z" />
    <glyph glyph-name="Sacute" unicode="&#x15a;" horiz-adv-x="572" 
d="M115 217q0 -77 48.5 -123.5t131.5 -46.5q73 0 117.5 35.5t44.5 97.5q0 37 -14 61t-36 39.5t-50 25t-55 16.5q-46 13 -87.5 27.5t-73 37t-50 57.5t-18.5 89q0 39 15.5 72.5t44 58t69 38t90.5 13.5q48 0 88 -15t68.5 -42t44.5 -66t17 -87h-68q-2 69 -40.5 108.5
t-107.5 39.5q-72 0 -112 -33t-40 -87q0 -35 13 -58.5t34.5 -39t50 -25t58.5 -17.5q40 -11 81 -25.5t73 -37t52.5 -57t20.5 -86.5q0 -49 -17.5 -86.5t-48.5 -63t-74.5 -39t-94.5 -13.5q-53 0 -97.5 16.5t-77 46.5t-50.5 73t-18 96h68zM182 749l-31 53l249 137l31 -53z" />
    <glyph glyph-name="sacute" unicode="&#x15b;" horiz-adv-x="450" 
d="M256 242q27 -7 53 -14.5t46.5 -21t32.5 -34t12 -53.5q0 -64 -46.5 -97t-124.5 -33q-38 0 -71.5 9.5t-58.5 29.5t-40 50t-15 72h64q0 -30 9.5 -50t26 -33t39.5 -18.5t49 -5.5q50 0 78 19t28 56q0 22 -11 35t-30.5 22t-46 16l-58.5 16q-27 7 -51.5 15t-43 21t-29 33
t-10.5 51t12.5 54.5t34.5 39.5t52 24t65 8q36 0 67.5 -10t54.5 -29t36 -46.5t13 -61.5h-64q0 46 -28.5 70t-79.5 24q-44 0 -71.5 -19.5t-27.5 -54.5q0 -20 9 -32.5t26 -21t42 -15zM115 510l-31 52l249 137l31 -52z" />
    <glyph glyph-name="Scircumflex" unicode="&#x15c;" horiz-adv-x="572" 
d="M115 217q0 -77 48.5 -123.5t131.5 -46.5q73 0 117.5 35.5t44.5 97.5q0 37 -14 61t-36 39.5t-50 25t-55 16.5q-46 13 -87.5 27.5t-73 37t-50 57.5t-18.5 89q0 39 15.5 72.5t44 58t69 38t90.5 13.5q48 0 88 -15t68.5 -42t44.5 -66t17 -87h-68q-2 69 -40.5 108.5
t-107.5 39.5q-72 0 -112 -33t-40 -87q0 -35 13 -58.5t34.5 -39t50 -25t58.5 -17.5q40 -11 81 -25.5t73 -37t52.5 -57t20.5 -86.5q0 -49 -17.5 -86.5t-48.5 -63t-74.5 -39t-94.5 -13.5q-53 0 -97.5 16.5t-77 46.5t-50.5 73t-18 96h68zM292 943l176 -151l-38 -43l-137 121
l-136 -121l-39 43z" />
    <glyph glyph-name="scircumflex" unicode="&#x15d;" horiz-adv-x="450" 
d="M256 242q27 -7 53 -14.5t46.5 -21t32.5 -34t12 -53.5q0 -64 -46.5 -97t-124.5 -33q-38 0 -71.5 9.5t-58.5 29.5t-40 50t-15 72h64q0 -30 9.5 -50t26 -33t39.5 -18.5t49 -5.5q50 0 78 19t28 56q0 22 -11 35t-30.5 22t-46 16l-58.5 16q-27 7 -51.5 15t-43 21t-29 33
t-10.5 51t12.5 54.5t34.5 39.5t52 24t65 8q36 0 67.5 -10t54.5 -29t36 -46.5t13 -61.5h-64q0 46 -28.5 70t-79.5 24q-44 0 -71.5 -19.5t-27.5 -54.5q0 -20 9 -32.5t26 -21t42 -15zM224 728l175 -150l-38 -44l-137 122l-136 -121l-39 43z" />
    <glyph glyph-name="Scedilla" unicode="&#x15e;" horiz-adv-x="572" 
d="M257 -14q-47 5 -85.5 23.5t-66 48.5t-43 70t-15.5 89h68q0 -77 48.5 -123.5t131.5 -46.5q73 0 117.5 35.5t44.5 97.5q0 39 -14.5 63.5t-37.5 40t-51.5 24l-57.5 16.5q-44 13 -84.5 27t-71.5 37t-49 57.5t-18 87.5q0 39 15.5 72.5t44 58t69 38t90.5 13.5q48 0 88 -15
t68.5 -42t44.5 -66t17 -87h-68q-2 69 -40.5 108.5t-107.5 39.5q-72 0 -112 -33t-40 -87q0 -35 13.5 -58.5t35.5 -39t50 -25t57 -17.5q40 -12 81 -26t73 -36.5t52.5 -57t20.5 -86.5q0 -48 -16.5 -84t-45.5 -61.5t-70 -39t-90 -16.5v-63q8 13 21.5 19.5t28.5 6.5q35 0 60 -24
t25 -64q0 -18 -6.5 -35t-18.5 -30.5t-30 -21.5t-42 -8q-13 0 -29 4.5t-30 15t-24.5 27.5t-12.5 42h43q2 -22 16 -36.5t37 -14.5q26 0 40.5 16.5t14.5 40.5q0 23 -15 38t-40 15q-12 0 -24 -5.5t-22 -26.5h-38v104z" />
    <glyph glyph-name="scedilla" unicode="&#x15f;" horiz-adv-x="450" 
d="M195 -8q-32 4 -59.5 15.5t-48 31t-32 47t-11.5 64.5h64q0 -30 9.5 -50t26 -33t39.5 -18.5t49 -5.5q50 0 78 19t28 56q0 22 -11 35.5t-30.5 22.5t-47 16t-59.5 16q-27 6 -51 14t-42 21t-28.5 33t-10.5 51t12.5 54.5t34.5 39.5t52 24t65 8q36 0 67.5 -10t54.5 -29t36 -46.5
t13 -61.5h-64q0 46 -28.5 70t-79.5 24q-44 0 -71.5 -19.5t-27.5 -54.5q0 -20 10.5 -32.5t29 -21t44 -15t55.5 -15.5q26 -7 51 -15t44.5 -21.5t31.5 -34t12 -52.5q0 -61 -42.5 -93.5t-117.5 -35.5v-67q8 13 22 19.5t28 6.5q35 0 60.5 -24t25.5 -64q0 -18 -6.5 -35
t-18.5 -30.5t-30.5 -21.5t-42.5 -8q-13 0 -28.5 4.5t-29.5 15t-24.5 27.5t-12.5 42h42q2 -22 16 -36.5t37 -14.5q26 0 41 16.5t15 40.5q0 23 -15 38t-40 15q-13 0 -25 -5.5t-22 -26.5h-37v110z" />
    <glyph glyph-name="Scaron" unicode="&#x160;" horiz-adv-x="572" 
d="M115 217q0 -77 48.5 -123.5t131.5 -46.5q73 0 117.5 35.5t44.5 97.5q0 37 -14 61t-36 39.5t-50 25t-55 16.5q-46 13 -87.5 27.5t-73 37t-50 57.5t-18.5 89q0 39 15.5 72.5t44.5 58t70 38t91 13.5q48 0 87.5 -15t68 -42t44 -66t16.5 -87h-68q-2 69 -40.5 108.5
t-107.5 39.5q-72 0 -112 -33t-40 -87q0 -35 13 -58.5t34.5 -39t50 -25t58.5 -17.5q40 -11 81 -25.5t73 -37t52.5 -57t20.5 -86.5q0 -49 -17.5 -86.5t-48.5 -63t-74.5 -39t-94.5 -13.5q-53 0 -97.5 16.5t-77 46.5t-50.5 73t-18 96h68zM125 905l39 43l131 -120l132 120l39 -43
l-172 -150z" />
    <glyph glyph-name="scaron" unicode="&#x161;" horiz-adv-x="450" 
d="M256 242q27 -7 53 -14.5t46.5 -21t32.5 -34t12 -53.5q0 -64 -46.5 -97t-124.5 -33q-38 0 -71.5 9.5t-58.5 29.5t-40 50t-15 72h64q0 -30 9.5 -50t26 -33t39.5 -18.5t49 -5.5q50 0 78 19t28 56q0 22 -11 35t-30.5 22t-46 16l-58.5 16q-27 7 -51.5 15t-43 21t-29 33
t-10.5 51t12.5 54.5t34.5 39.5t52 24t65 8q36 0 67.5 -10t54.5 -29t36 -46.5t13 -61.5h-64q0 46 -28.5 70t-79.5 24q-44 0 -71.5 -19.5t-27.5 -54.5q0 -20 9 -32.5t26 -21t42 -15zM55 679l39 43l131 -120l132 120l38 -43l-171 -150z" />
    <glyph glyph-name="Tcommaaccent" unicode="&#x162;" horiz-adv-x="474" 
d="M202 638h-188v62h446v-62h-190v-638h-68v638zM187 -67q0 20 13.5 34.5t36.5 14.5q28 0 45 -22.5t17 -57.5q0 -57 -29 -81t-78 -24v31q33 0 49 13.5t18 35.5q0 8 -1.5 11t-3.5 4q-3 -3 -9 -4.5t-11 -1.5q-21 0 -34 13.5t-13 33.5z" />
    <glyph glyph-name="tcommaaccent" unicode="&#x163;" horiz-adv-x="329" 
d="M20 443h89v164h66v-164h128v-56h-128v-226q0 -36 6 -57t17 -32t26 -14.5t33 -3.5q14 0 32 1.5t30 3.5v-59q-13 -2 -34 -4t-41 -2q-22 0 -45.5 4t-43.5 19.5t-33 46.5t-13 84v239h-89v56zM144 -66q0 20 14 34t36 14q29 0 45.5 -22.5t16.5 -56.5q0 -58 -28.5 -81.5
t-77.5 -24.5v31q46 0 57 31q5 11 5.5 19.5t-0.5 14.5q-9 -7 -20 -7q-21 0 -34.5 14t-13.5 34z" />
    <glyph glyph-name="Tcaron" unicode="&#x164;" horiz-adv-x="474" 
d="M202 638h-188v62h446v-62h-190v-638h-68v638zM67 900l39 42l131 -119l132 120l38 -43l-171 -151z" />
    <glyph glyph-name="tcaron" unicode="&#x165;" horiz-adv-x="437" 
d="M20 443h89v164h66v-164h128v-56h-128v-226q0 -36 6 -57t17 -32t26 -14.5t33 -3.5q14 0 32 1.5t30 3.5v-59q-13 -2 -34 -4t-41 -2q-22 0 -45.5 4t-43.5 19.5t-33 46.5t-13 84v239h-89v56zM259 651q0 24 17 41.5t44 17.5q35 0 55 -27.5t20 -69.5q0 -70 -34.5 -98.5
t-94.5 -29.5v35q58 0 69 41q6 14 7 23.5t-1 17.5q-8 -8 -24 -8q-26 0 -42 16.5t-16 40.5z" />
    <glyph glyph-name="Tbar" unicode="&#x166;" horiz-adv-x="474" 
d="M418 441h-148v-441h-68v441h-142v52h142v145h-188v62h446v-62h-190v-145h148v-52z" />
    <glyph glyph-name="tbar" unicode="&#x167;" horiz-adv-x="329" 
d="M319 0q-13 -2 -34 -4t-41 -2q-22 0 -45.5 4t-43.5 19.5t-33 46.5t-13 84v73h-89v46h89v120h-89v56h89v164h66v-164h128v-56h-128v-120h113v-46h-113v-60q0 -36 6 -57t17 -32t26 -14.5t33 -3.5q14 0 32 1.5t30 3.5v-59z" />
    <glyph glyph-name="Utilde" unicode="&#x168;" horiz-adv-x="618" 
d="M73 700h68v-480q0 -35 12 -66.5t33.5 -55t52.5 -37.5t69 -14q39 0 70 14t53 37.5t34 55t12 66.5v480h68v-480q0 -48 -17 -90.5t-47.5 -74.5t-74.5 -51t-98 -19q-53 0 -96.5 19t-74.5 51t-47.5 74.5t-16.5 90.5v480zM378 845q24 0 41 15.5t26 37.5l50 -24
q-20 -42 -52 -61.5t-64 -19.5q-25 0 -43.5 8.5t-34 18l-30 18t-30.5 8.5q-24 0 -40.5 -15t-26.5 -38l-47 29q20 40 51 58t63 18q25 0 43.5 -8.5t34 -18l29.5 -18t30 -8.5z" />
    <glyph glyph-name="utilde" unicode="&#x169;" horiz-adv-x="560" 
d="M477 0h-65v96q-19 -45 -62 -76t-106 -31q-45 0 -78.5 15t-54.5 41q-20 25 -29.5 58t-9.5 80v260h66v-241q0 -33 7 -61t22.5 -48.5t39.5 -32.5t59 -12q37 0 64.5 14.5t45.5 38.5t27 54t9 61v227h65v-443zM345 622q23 0 40 16t27 38l49 -24q-20 -43 -51.5 -62.5
t-63.5 -19.5q-25 0 -44 8.5t-34.5 18.5l-30 18.5t-30.5 8.5q-23 0 -39.5 -15.5t-26.5 -38.5l-48 29q20 40 51 58.5t63 18.5q25 0 43.5 -8.5t34 -18.5l29.5 -18.5t31 -8.5z" />
    <glyph glyph-name="Umacron" unicode="&#x16a;" horiz-adv-x="618" 
d="M73 700h68v-480q0 -35 12 -66.5t33.5 -55t52.5 -37.5t69 -14q39 0 70 14t53 37.5t34 55t12 66.5v480h68v-480q0 -48 -17 -90.5t-47.5 -74.5t-74.5 -51t-98 -19q-53 0 -96.5 19t-74.5 51t-47.5 74.5t-16.5 90.5v480zM488 800h-358v59h358v-59z" />
    <glyph glyph-name="umacron" unicode="&#x16b;" horiz-adv-x="560" 
d="M477 0h-65v96q-19 -45 -62 -76t-106 -31q-45 0 -78.5 15t-54.5 41q-20 25 -29.5 58t-9.5 80v260h66v-241q0 -33 7 -61t22.5 -48.5t39.5 -32.5t59 -12q37 0 64.5 14.5t45.5 38.5t27 54t9 61v227h65v-443zM459 575h-358v59h358v-59z" />
    <glyph glyph-name="Ubreve" unicode="&#x16c;" horiz-adv-x="618" 
d="M73 700h68v-480q0 -35 12 -66.5t33.5 -55t52.5 -37.5t69 -14q39 0 70 14t53 37.5t34 55t12 66.5v480h68v-480q0 -48 -17 -90.5t-47.5 -74.5t-74.5 -51t-98 -19q-53 0 -96.5 19t-74.5 51t-47.5 74.5t-16.5 90.5v480zM305 824q48 0 81.5 24.5t44.5 69.5h62
q-6 -33 -22.5 -59.5t-41.5 -46t-56.5 -30t-67.5 -10.5t-68 10.5t-57 30t-41 46t-22 59.5h62q11 -45 44 -69.5t82 -24.5z" />
    <glyph glyph-name="ubreve" unicode="&#x16d;" horiz-adv-x="560" 
d="M477 0h-65v96q-19 -45 -62 -76t-106 -31q-45 0 -78.5 15t-54.5 41q-20 25 -29.5 58t-9.5 80v260h66v-241q0 -33 7 -61t22.5 -48.5t39.5 -32.5t59 -12q37 0 64.5 14.5t45.5 38.5t27 54t9 61v227h65v-443zM276 606q47 0 79 24.5t43 69.5h61q-6 -33 -22 -59.5t-40 -46
t-55 -30t-66 -10.5t-66 10.5t-55 30t-40 46t-22 59.5h62q10 -45 42 -69.5t79 -24.5z" />
    <glyph glyph-name="Uring" unicode="&#x16e;" horiz-adv-x="618" 
d="M73 700h68v-480q0 -35 12 -66.5t33.5 -55t52.5 -37.5t69 -14q39 0 70 14t53 37.5t34 55t12 66.5v480h68v-480q0 -48 -17 -90.5t-47.5 -74.5t-74.5 -51t-98 -19q-53 0 -96.5 19t-74.5 51t-47.5 74.5t-16.5 90.5v480zM309 976q25 0 47.5 -10t39.5 -26.5t26.5 -39t9.5 -47.5
t-9.5 -47.5t-26.5 -39t-39.5 -26.5t-47.5 -10q-26 0 -48 10t-39 26.5t-26.5 39t-9.5 47.5t9.5 47.5t26.5 39.5t39 26.5t48 9.5zM309 932q-33 0 -55.5 -23.5t-22.5 -55.5t22.5 -55t55.5 -23q32 0 55 23.5t23 55.5q0 16 -6 30t-16.5 24.5t-25 17t-30.5 6.5z" />
    <glyph glyph-name="uring" unicode="&#x16f;" horiz-adv-x="560" 
d="M477 0h-65v96q-19 -45 -62 -76t-106 -31q-45 0 -78.5 15t-54.5 41q-20 25 -29.5 58t-9.5 80v260h66v-241q0 -33 7 -61t22.5 -48.5t39.5 -32.5t59 -12q37 0 64.5 14.5t45.5 38.5t27 54t9 61v227h65v-443zM276 751q26 0 49 -10t40 -27.5t27 -40.5t10 -48q0 -26 -10 -48.5
t-27 -40t-40 -27.5t-49 -10t-48.5 10t-39.5 27.5t-27 40t-10 48.5t10 49t27 40t39.5 27t48.5 10zM276 708q-35 0 -58.5 -24t-23.5 -59q0 -34 24 -58t58 -24q35 0 58.5 24t23.5 59q0 34 -23.5 58t-58.5 24z" />
    <glyph glyph-name="Uhungarumlaut" unicode="&#x170;" horiz-adv-x="618" 
d="M73 700h68v-480q0 -35 12 -66.5t33.5 -55t52.5 -37.5t69 -14q39 0 70 14t53 37.5t34 55t12 66.5v480h68v-480q0 -48 -17 -90.5t-47.5 -74.5t-74.5 -51t-98 -19q-53 0 -96.5 19t-74.5 51t-47.5 74.5t-16.5 90.5v480zM476 949l58 -29l-148 -156l-35 19zM281 949l58 -29
l-148 -156l-35 19z" />
    <glyph glyph-name="uhungarumlaut" unicode="&#x171;" horiz-adv-x="560" 
d="M477 443v-443h-65v96q-19 -45 -62 -76t-106 -31q-45 0 -78.5 15t-54.5 41q-20 25 -29.5 58t-9.5 80v260h66v-241q0 -33 7 -61t22.5 -48.5t39.5 -32.5t59 -12q37 0 64.5 14.5t45.5 38.5t27 54t9 61v227h65zM157 511l-36 19l125 166l58 -29zM352 511l-36 19l125 166l58 -29
z" />
    <glyph glyph-name="Uogonek" unicode="&#x172;" horiz-adv-x="618" 
d="M421 -197q-16 -5 -39 -10t-49 -5q-57 0 -86 28.5t-29 68.5q0 29 15 53t47 49q-47 4 -85.5 24.5t-65.5 52t-41.5 71.5t-14.5 85v480h68v-480q0 -35 12 -66.5t33.5 -55t52.5 -37.5t69 -14q39 0 70 14t53 37.5t34 55t12 66.5v480h68v-480q0 -46 -15.5 -87t-44 -72.5
t-69 -51.5t-90.5 -23q-21 -18 -33 -38.5t-12 -43.5q0 -26 17.5 -45.5t52.5 -19.5q18 0 37 4t34 10z" />
    <glyph glyph-name="uogonek" unicode="&#x173;" horiz-adv-x="560" 
d="M244 -11q-45 0 -78.5 15t-54.5 41q-20 25 -29.5 58t-9.5 80v260h66v-241q0 -33 7 -61t22.5 -48.5t39.5 -32.5t59 -12q37 0 64.5 14.5t45.5 38.5t27 54t9 61v227h65v-443h-14q-40 -19 -65 -44t-25 -58q0 -25 16.5 -42t45.5 -17q16 0 33 3.5t31 8.5l-1 -50q-15 -5 -36 -9
t-45 -4q-56 0 -84 27.5t-28 69.5q0 34 27 62t80 56v93q-19 -45 -62 -76t-106 -31z" />
    <glyph glyph-name="Wcircumflex" unicode="&#x174;" horiz-adv-x="946" 
d="M473 584l-177 -584h-53l-237 700h72l190 -585l178 585h54l177 -585l191 585h72l-237 -700h-53zM474 943l175 -151l-38 -43l-137 121l-136 -121l-39 43z" />
    <glyph glyph-name="wcircumflex" unicode="&#x175;" horiz-adv-x="715" 
d="M357 370l-131 -370h-47l-171 443h70l124 -344l123 344h65l122 -344l125 344h70l-171 -443h-47zM358 728l176 -150l-38 -44l-137 122l-136 -121l-39 43z" />
    <glyph glyph-name="Ycircumflex" unicode="&#x176;" 
d="M209 0h-75l141 277l-266 423h79l222 -353l181 353h75zM302 943l175 -151l-38 -43l-137 121l-136 -121l-39 43z" />
    <glyph glyph-name="ycircumflex" unicode="&#x177;" horiz-adv-x="568" 
d="M281 -267q-201 0 -206 202h66q4 -72 38 -109t103 -37q34 0 60 8t44 27t27.5 49t9.5 75v148q-19 -45 -61 -76t-105 -31q-50 0 -81.5 14t-54.5 40q-21 25 -29.5 58.5t-8.5 86.5v255h66v-236q0 -36 6 -65.5t21 -50t39.5 -32t62.5 -11.5q37 0 64 14.5t45 38.5t27 54t9 61v227
h65v-495q0 -114 -52.5 -164.5t-154.5 -50.5zM285 728l175 -150l-38 -44l-137 122l-136 -121l-39 43z" />
    <glyph glyph-name="Ydieresis" unicode="&#x178;" 
d="M209 0h-75l141 277l-266 423h79l222 -353l181 353h75zM360 831q0 25 16.5 42t40.5 17q25 0 41.5 -17t16.5 -42q0 -24 -16.5 -40.5t-41.5 -16.5q-24 0 -40.5 16.5t-16.5 40.5zM130 831q0 25 16.5 42t40.5 17q25 0 41.5 -17t16.5 -42q0 -24 -16.5 -40.5t-41.5 -16.5
q-24 0 -40.5 16.5t-16.5 40.5z" />
    <glyph glyph-name="Zacute" unicode="&#x179;" horiz-adv-x="552" 
d="M36 700h509l-414 -638h423v-62h-539l414 638h-393v62zM180 753l-32 52l249 137l32 -52z" />
    <glyph glyph-name="zacute" unicode="&#x17a;" horiz-adv-x="431" 
d="M404 443l-265 -384h266v-59h-379l265 384h-255v59h368zM107 509l-32 52l249 137l32 -52z" />
    <glyph glyph-name="Zdotaccent" unicode="&#x17b;" horiz-adv-x="552" 
d="M36 700h509l-414 -638h423v-62h-539l414 638h-393v62zM219 836q0 26 17 43.5t42 17.5q26 0 43.5 -17.5t17.5 -43.5q0 -25 -17.5 -42t-43.5 -17q-25 0 -42 17t-17 42z" />
    <glyph glyph-name="zdotaccent" unicode="&#x17c;" horiz-adv-x="431" 
d="M404 443l-265 -384h266v-59h-379l265 384h-255v59h368zM156 604q0 26 17 43.5t42 17.5q26 0 43 -17.5t17 -43.5q0 -25 -17 -42t-43 -17q-25 0 -42 17t-17 42z" />
    <glyph glyph-name="Zcaron" unicode="&#x17d;" horiz-adv-x="552" 
d="M127 900l39 42l130 -119l133 120l38 -43l-171 -151zM36 700h509l-414 -638h423v-62h-539l414 638h-393v62z" />
    <glyph glyph-name="zcaron" unicode="&#x17e;" horiz-adv-x="431" 
d="M52 673l39 42l131 -120l132 120l38 -42l-171 -151zM404 443l-265 -384h266v-59h-379l265 384h-255v59h368z" />
    <glyph glyph-name="longs" unicode="&#x17f;" horiz-adv-x="335" 
d="M326 638q-12 5 -24 7t-30 2q-15 0 -30 -2.5t-27 -12.5t-19.5 -30t-7.5 -54v-548h-65v387h-101v56h101v99q0 57 14.5 89.5t36 49t46 21t44.5 4.5q22 0 36.5 -3.5t25.5 -8.5v-56z" />
    <glyph glyph-name="florin" unicode="&#x192;" horiz-adv-x="412" 
d="M-55 -167q11 -5 23 -7t30 -2q15 0 29.5 3t28 13t25 29.5t18.5 53.5l82 464h-101l10 56h100l18 99q10 57 30 89.5t44.5 49t50 21t45.5 4.5q22 0 36 -3.5t24 -8.5l-9 -56q-12 5 -24 7t-29 2q-15 0 -30.5 -2.5t-29.5 -12.5t-25 -30t-17 -54l-19 -105h139l-10 -56h-138
l-80 -458q-10 -57 -30.5 -90t-45 -49.5t-50 -20.5t-45.5 -4q-22 0 -35.5 3t-24.5 8z" />
    <glyph glyph-name="Aringacute" unicode="&#x1fa;" horiz-adv-x="546" 
d="M341 752q0 -20 -11 -36.5t-28 -24.5l238 -691h-72l-43 125h-304l-43 -125h-72l238 690q-18 8 -29 24.5t-11 37.5q0 28 19.5 48t48.5 20t49 -20t20 -48zM142 187h262l-131 404zM272 788q-15 0 -25.5 -11t-10.5 -25q0 -15 10 -26t26 -11t26 11t10 26q0 14 -10 25t-26 11z
M152 787l-22 35l249 137l22 -35z" />
    <glyph glyph-name="aringacute" unicode="&#x1fb;" horiz-adv-x="592" 
d="M444 443h65v-443h-65v93q-22 -47 -68 -75.5t-104 -28.5q-51 0 -93.5 18.5t-72.5 50.5t-46.5 74t-16.5 89t16.5 89.5t46.5 74t72.5 50t93.5 18.5q58 0 104 -28t68 -76v94zM275 394q-38 0 -69 -14t-52.5 -37.5t-33.5 -55t-12 -66.5t12 -66t33.5 -54.5t52.5 -37.5t69 -14
q39 0 70 14t53 37.5t34 54.5t12 66q-2 37 -15.5 68.5t-35.5 55t-52 36.5t-66 13zM340 610q0 29 -20.5 50t-50.5 21q-31 0 -51.5 -21t-20.5 -51q0 -29 21 -50t51 -21q29 0 50 21.5t21 50.5zM159 609q0 23 8.5 43t23.5 35t35 23.5t43 8.5q22 0 42 -9t35 -24t23.5 -35t8.5 -42
t-8.5 -42t-23.5 -35t-35 -23.5t-42 -8.5q-23 0 -43 8.5t-35 23.5t-23.5 35t-8.5 42zM122 774l249 137l32 -52l-249 -137z" />
    <glyph glyph-name="AEacute" unicode="&#x1fc;" horiz-adv-x="847" 
d="M453 638v-259h314v-62h-314v-255h314v-62h-382v125h-246l-62 -125h-75l350 700h415v-62h-314zM385 188v436l-216 -436h216zM408 749l-31 53l249 137l31 -53z" />
    <glyph glyph-name="aeacute" unicode="&#x1fd;" horiz-adv-x="916" 
d="M509 443v-61q23 32 61.5 51.5t90.5 19.5q43 0 80.5 -15t65 -42t43.5 -63t16 -78q0 -9 -0.5 -20.5t-2.5 -27.5h-353q0 -34 9.5 -63.5t28.5 -51t48 -34t68 -12.5q56 0 87 24t43 57h67q-6 -27 -22.5 -52t-41.5 -44t-58.5 -30.5t-74.5 -11.5q-54 0 -93 21t-62 53v-63h-65v93
q-22 -47 -68 -75.5t-104 -28.5q-51 0 -93.5 18.5t-72.5 50.5t-46.5 74t-16.5 89t16.5 89.5t46.5 74t72.5 50t93.5 18.5q58 0 104 -28t68 -76v94h65zM660 397q-65 0 -105.5 -37.5t-43.5 -101.5h291q0 31 -11 57t-30 44t-45 28t-56 10zM275 49q39 0 70 14t53 37.5t34 54.5
t12 66q0 36 -12 67.5t-34 55t-53.5 37t-69.5 13.5t-69 -14t-52.5 -37.5t-33.5 -55t-12 -66.5t12 -66t33.5 -54.5t52.5 -37.5t69 -14zM349 501l-31 52l249 137l31 -52z" />
    <glyph glyph-name="Oslashacute" unicode="&#x1fe;" horiz-adv-x="806" 
d="M403 -15q-69 0 -126 21l-35 -81l-48 20l35 82q-45 24 -79.5 58.5t-58 76.5t-36 90t-12.5 98q0 71 24.5 137t71 116.5t113.5 81t151 30.5q60 0 113 -17l33 75l47 -21l-31 -74q47 -23 84 -57.5t62.5 -77.5t38.5 -92.5t13 -100.5q0 -71 -25 -137t-71.5 -116.5t-113 -81
t-150.5 -30.5zM114 350q0 -81 37 -151t104 -111l236 551q-40 14 -88 14q-68 0 -121.5 -25.5t-90.5 -67.5t-57 -96.5t-20 -113.5zM692 350q0 42 -10.5 81.5t-30 75t-48.5 64t-65 47.5l-236 -553q45 -18 101 -18q67 0 120.5 25.5t91 67.5t57.5 96.5t20 113.5zM294 749l-32 52
l249 137l32 -52z" />
    <glyph glyph-name="oslashacute" unicode="&#x1ff;" horiz-adv-x="552" 
d="M381 429q60 -28 94 -84t34 -124q0 -47 -16.5 -89t-47 -74t-74 -50.5t-96.5 -18.5q-41 0 -78 13l-30 -70l-43 18l30 71q-53 30 -82 83.5t-29 116.5q0 47 16.5 89.5t47 74t73 50t95.5 18.5q32 0 64 -8l27 64l43 -17zM275 49q39 0 70 14t53 37.5t34 54.5t12 66q0 49 -23 89
t-64 62l-136 -315q12 -5 25.5 -6.5t28.5 -1.5zM108 221q0 -45 18.5 -82.5t53.5 -60.5l134 311q-10 2 -19 3.5t-20 1.5q-38 0 -69 -14t-52.5 -37.5t-33.5 -55t-12 -66.5zM166 510l-31 52l249 137l31 -52z" />
    <glyph glyph-name="Scommaaccent" unicode="&#x218;" horiz-adv-x="572" 
d="M115 217q0 -77 48.5 -123.5t131.5 -46.5q73 0 117.5 35.5t44.5 97.5q0 37 -14 61t-36 39.5t-50 25t-55 16.5q-46 13 -87.5 27.5t-73 37t-50 57.5t-18.5 89q0 39 15.5 72.5t44 58t69 38t90.5 13.5q48 0 88 -15t68.5 -42t44.5 -66t17 -87h-68q-2 69 -40.5 108.5
t-107.5 39.5q-72 0 -112 -33t-40 -87q0 -35 13 -58.5t34.5 -39t50 -25t58.5 -17.5q40 -11 81 -25.5t73 -37t52.5 -57t20.5 -86.5q0 -49 -17.5 -86.5t-48.5 -63t-74.5 -39t-94.5 -13.5q-53 0 -97.5 16.5t-77 46.5t-50.5 73t-18 96h68zM245 -77q0 20 14 34t36 14
q28 0 45 -22.5t17 -56.5q0 -58 -29 -81.5t-78 -24.5v31q34 0 50 14t17 35q0 8 -1.5 11t-3.5 5q-7 -7 -20 -7q-21 0 -34 14t-13 34z" />
    <glyph glyph-name="scommaaccent" unicode="&#x219;" horiz-adv-x="450" 
d="M181 -63q0 20 13.5 34t35.5 14q29 0 46 -22.5t17 -56.5q0 -58 -29 -81.5t-78 -24.5v31q48 0 57 31q5 11 5.5 19.5t-0.5 14.5q-9 -7 -20 -7q-21 0 -34 14t-13 34zM108 150q0 -30 9.5 -50t26 -33t39.5 -18.5t49 -5.5q50 0 78 19t28 56q0 22 -11 35t-30.5 22t-46 16
l-58.5 16q-27 7 -51.5 15t-43 21t-29 33t-10.5 51t12.5 54.5t34.5 39.5t52 24t65 8q36 0 67.5 -10t54.5 -29t36 -46.5t13 -61.5h-64q0 46 -28.5 70t-79.5 24q-44 0 -71.5 -19.5t-27.5 -54.5q0 -20 9 -32.5t26 -21t42 -15l57 -15.5q27 -7 53 -14.5t46.5 -21t32.5 -34
t12 -53.5q0 -64 -46.5 -97t-124.5 -33q-38 0 -71.5 9.5t-58.5 29.5t-40 50t-15 72h64z" />
    <glyph glyph-name="uni021A" unicode="&#x21a;" horiz-adv-x="474" 
d="M202 638h-188v62h446v-62h-190v-638h-68v638zM187 -67q0 20 13.5 34.5t36.5 14.5q28 0 45 -22.5t17 -57.5q0 -57 -29 -81t-78 -24v31q33 0 49 13.5t18 35.5q0 8 -1.5 11t-3.5 4q-3 -3 -9 -4.5t-11 -1.5q-21 0 -34 13.5t-13 33.5z" />
    <glyph glyph-name="uni021B" unicode="&#x21b;" horiz-adv-x="329" 
d="M20 443h89v164h66v-164h128v-56h-128v-226q0 -36 6 -57t17 -32t26 -14.5t33 -3.5q14 0 32 1.5t30 3.5v-59q-13 -2 -34 -4t-41 -2q-22 0 -45.5 4t-43.5 19.5t-33 46.5t-13 84v239h-89v56zM144 -66q0 20 14 34t36 14q29 0 45.5 -22.5t16.5 -56.5q0 -58 -28.5 -81.5
t-77.5 -24.5v31q46 0 57 31q5 11 5.5 19.5t-0.5 14.5q-9 -7 -20 -7q-21 0 -34.5 14t-13.5 34z" />
    <glyph glyph-name="hsuperior" unicode="&#x2b0;" horiz-adv-x="377" 
d="M72 700h51v-186q11 24 34 40.5t58 16.5q48 0 71 -28q23 -27 23 -81v-147h-51v134q0 33 -14.5 55t-48.5 22q-36 0 -54 -26t-18 -58v-127h-51v385z" />
    <glyph glyph-name="jsuperior" unicode="&#x2b2;" horiz-adv-x="211" 
d="M133 253q0 -43 -18 -60.5t-45 -17.5t-46 7v41q8 -2 13.5 -3.5t13.5 -1.5q30 0 30 38v309h52v-312zM67 658q0 16 11.5 27.5t28.5 11.5t28.5 -11.5t11.5 -27.5q0 -17 -11.5 -28.5t-28.5 -11.5t-28.5 11.5t-11.5 28.5z" />
    <glyph glyph-name="wsuperior" unicode="&#x2b7;" horiz-adv-x="470" 
d="M235 506l-65 -191h-42l-95 250h54l63 -182l60 182h49l60 -182l64 182h54l-95 -250h-42z" />
    <glyph glyph-name="ysuperior" unicode="&#x2b8;" horiz-adv-x="383" 
d="M186 174q-60 0 -88.5 29.5t-29.5 81.5h52q1 -33 16.5 -51.5t53.5 -18.5q35 0 52.5 19t17.5 65v69q-11 -24 -34 -40.5t-58 -16.5q-26 0 -43.5 7.5t-30.5 21.5q-12 14 -16.5 33.5t-4.5 49.5v142h52v-131q0 -37 13 -58.5t51 -21.5q36 0 53.5 26t17.5 59v126h52v-264
q0 -70 -30 -98.5t-96 -28.5z" />
    <glyph glyph-name="circumflex" unicode="&#x2c6;" horiz-adv-x="446" 
d="M222 842l180 -145l-41 -46l-139 112l-139 -112l-41 46z" />
    <glyph glyph-name="caron" unicode="&#x2c7;" horiz-adv-x="402" 
d="M41 749l36 46l123 -114l125 114l36 -46l-161 -145z" />
    <glyph glyph-name="breve" unicode="&#x2d8;" horiz-adv-x="520" 
d="M119 846q12 -47 49.5 -72t90.5 -25t92 25t49 72h56q-5 -33 -22 -60t-43.5 -46t-60.5 -29.5t-71 -10.5t-70.5 10.5t-59.5 30t-43.5 46t-23.5 59.5h57z" />
    <glyph glyph-name="dotaccent" unicode="&#x2d9;" horiz-adv-x="382" 
d="M131 647q0 25 17.5 42.5t42.5 17.5t42.5 -17.5t17.5 -42.5t-17.5 -42.5t-42.5 -17.5t-42.5 17.5t-17.5 42.5z" />
    <glyph glyph-name="ring" unicode="&#x2da;" horiz-adv-x="452" 
d="M226 835q25 0 47.5 -10t39.5 -26.5t26.5 -39t9.5 -47.5t-9.5 -47.5t-26.5 -39t-39.5 -26.5t-47.5 -10q-26 0 -48 10t-39 26.5t-26.5 39t-9.5 47.5t9.5 47.5t26.5 39.5t39 26.5t48 9.5zM226 786q-31 0 -52 -22t-21 -52q0 -29 21.5 -50.5t51.5 -21.5t51.5 21.5t21.5 51.5
q0 29 -21 51t-52 22z" />
    <glyph glyph-name="ogonek" unicode="&#x2db;" horiz-adv-x="410" 
d="M315 -197q-16 -5 -39 -10t-49 -5q-57 0 -86 28.5t-29 68.5q0 32 19.5 59t60.5 56h47q-28 -20 -46 -44t-18 -52q0 -26 17.5 -45.5t52.5 -19.5q17 0 37 4t34 10z" />
    <glyph glyph-name="tilde" unicode="&#x2dc;" horiz-adv-x="469" 
d="M67 662q22 14 38.5 22t28.5 11.5t20.5 4t15.5 0.5q10 0 30 -4t41.5 -9.5t40.5 -9.5t29 -4q8 0 15 1t15.5 4t20 8t29.5 14l27 -44q-39 -26 -61 -31.5t-39 -5.5q-14 0 -32.5 4t-38 9t-38 9t-32.5 4q-16 0 -33.5 -5t-46.5 -22z" />
    <glyph glyph-name="hungarumlaut" unicode="&#x2dd;" horiz-adv-x="459" 
d="M378 734l58 -29l-148 -156l-35 19zM183 734l58 -29l-148 -156l-35 19z" />
    <glyph glyph-name="xsuperior" unicode="&#x2e3;" horiz-adv-x="318" 
d="M279 315h-60l-60 89l-59 -89h-61l89 126l-88 124h61l58 -88l59 88h61l-89 -124z" />
    <glyph glyph-name="Delta" unicode="&#x394;" horiz-adv-x="546" 
d="M101 62h344l-172 529zM540 0h-534l241 700h52z" />
    <glyph glyph-name="Omega" unicode="&#x3a9;" horiz-adv-x="720" 
d="M360 650q-59 0 -105 -19.5t-77 -53.5t-47 -79t-16 -97q0 -47 14 -90.5t41 -78.5t66 -59.5t88 -33.5v-139h-255v62h200v38q-50 15 -91.5 44t-70.5 68t-45 87t-16 100q0 64 21.5 121t62 100t98.5 67.5t132 24.5q73 0 131 -24.5t98.5 -67.5t62 -100t21.5 -121
q0 -52 -16 -100t-45 -87.5t-70 -68.5t-91 -44v-37h200v-62h-255v139q49 9 88 33.5t66 59.5t41 78.5t14 90.5q0 52 -16 97t-47 79t-77 53.5t-105 19.5z" />
    <glyph glyph-name="mu" unicode="&#x3bc;" 
d="M82 443h66v-241q0 -33 7 -61t22.5 -48.5t39.5 -32.5t59 -12q37 0 64.5 14.5t45.5 38.5t27 54t9 61v227h65v-443h-65v96q-19 -45 -62 -76t-106 -31q-70 0 -106 47v-293h-66v700z" />
    <glyph glyph-name="pi" unicode="&#x3c0;" 
d="M506 384h-55v-384h-65v384h-202v-384h-65v384h-56v59h443v-59z" />
    <glyph glyph-name="Wgrave" unicode="&#x1e80;" horiz-adv-x="946" 
d="M473 584l-177 -584h-53l-237 700h72l190 -585l178 585h54l177 -585l191 585h72l-237 -700h-53zM333 886l31 53l249 -137l-31 -53z" />
    <glyph glyph-name="wgrave" unicode="&#x1e81;" horiz-adv-x="715" 
d="M357 370l-131 -370h-47l-171 443h70l124 -344l123 344h65l122 -344l125 344h70l-171 -443h-47zM217 647l32 52l249 -137l-32 -52z" />
    <glyph glyph-name="Wacute" unicode="&#x1e82;" horiz-adv-x="946" 
d="M473 584l-177 -584h-53l-237 700h72l190 -585l178 585h54l177 -585l191 585h72l-237 -700h-53zM364 749l-31 53l249 137l31 -53z" />
    <glyph glyph-name="wacute" unicode="&#x1e83;" horiz-adv-x="715" 
d="M357 370l-131 -370h-47l-171 443h70l124 -344l123 344h65l122 -344l125 344h70l-171 -443h-47zM249 510l-32 52l249 137l32 -52z" />
    <glyph glyph-name="Wdieresis" unicode="&#x1e84;" horiz-adv-x="946" 
d="M473 584l-177 -584h-53l-237 700h72l190 -585l178 585h54l177 -585l191 585h72l-237 -700h-53zM529 839q0 24 17 41t41 17t41 -17t17 -41q0 -25 -17 -41.5t-41 -16.5t-41 16.5t-17 41.5zM300 839q0 24 16.5 41t40.5 17q25 0 41.5 -17t16.5 -41q0 -25 -16.5 -41.5
t-41.5 -16.5q-24 0 -40.5 16.5t-16.5 41.5z" />
    <glyph glyph-name="wdieresis" unicode="&#x1e85;" horiz-adv-x="715" 
d="M357 370l-131 -370h-47l-171 443h70l124 -344l123 344h65l122 -344l125 344h70l-171 -443h-47zM414 605q0 25 16.5 41.5t40.5 16.5q25 0 42 -16.5t17 -41.5q0 -24 -17 -40.5t-42 -16.5q-24 0 -40.5 16.5t-16.5 40.5zM184 605q0 25 16.5 41.5t40.5 16.5q25 0 42 -16.5
t17 -41.5q0 -24 -17 -40.5t-42 -16.5q-24 0 -40.5 16.5t-16.5 40.5z" />
    <glyph glyph-name="Ygrave" unicode="&#x1ef2;" 
d="M209 0h-75l141 277l-266 423h79l222 -353l181 353h75zM142 886l31 53l249 -137l-31 -53z" />
    <glyph glyph-name="ygrave" unicode="&#x1ef3;" horiz-adv-x="568" 
d="M281 -267q-201 0 -206 202h66q4 -72 38 -109t103 -37q34 0 60 8t44 27t27.5 49t9.5 75v148q-19 -45 -61 -76t-105 -31q-50 0 -81.5 14t-54.5 40q-21 25 -29.5 58.5t-8.5 86.5v255h66v-236q0 -36 6 -65.5t21 -50t39.5 -32t62.5 -11.5q37 0 64 14.5t45 38.5t27 54t9 61v227
h65v-495q0 -114 -52.5 -164.5t-154.5 -50.5zM143 647l32 52l249 -137l-32 -52z" />
    <glyph glyph-name="thinspace" unicode="&#x2009;" horiz-adv-x="206" 
 />
    <glyph glyph-name="endash" unicode="&#x2013;" horiz-adv-x="503" 
d="M50 255v59h403v-59h-403z" />
    <glyph glyph-name="emdash" unicode="&#x2014;" horiz-adv-x="1006" 
d="M50 255v59h906v-59h-906z" />
    <glyph glyph-name="quoteleft" unicode="&#x2018;" horiz-adv-x="256" 
d="M196 574q0 -24 -17 -41.5t-44 -17.5q-35 0 -55 27.5t-20 69.5q0 70 34.5 98.5t94.5 29.5v-35q-58 0 -69 -41q-6 -14 -6.5 -23.5t0.5 -17.5q4 4 11 6t13 2q26 0 42 -16.5t16 -40.5z" />
    <glyph glyph-name="quoteright" unicode="&#x2019;" horiz-adv-x="256" 
d="M60 681q0 24 17 41.5t44 17.5q35 0 55 -27.5t20 -69.5q0 -70 -34.5 -98.5t-94.5 -29.5v35q28 0 46 11t23 30q6 14 6.5 24t-0.5 17q-4 -4 -11 -6t-13 -2q-26 0 -42 16.5t-16 40.5z" />
    <glyph glyph-name="quotesinglbase" unicode="&#x201a;" horiz-adv-x="256" 
d="M60 48q0 24 17 41.5t44 17.5q35 0 55 -27.5t20 -69.5q0 -70 -34.5 -98.5t-94.5 -29.5v35q58 0 69 41q6 14 6.5 23.5t-0.5 17.5q-4 -4 -11 -6t-13 -2q-26 0 -42 16.5t-16 40.5z" />
    <glyph glyph-name="quotedblleft" unicode="&#x201c;" horiz-adv-x="418" 
d="M358 574q0 -24 -16.5 -41.5t-43.5 -17.5q-35 0 -55.5 27.5t-20.5 69.5q0 70 35 98.5t94 29.5v-35q-56 0 -69 -41q-5 -14 -6 -23.5t1 -17.5q8 8 24 8q26 0 41.5 -16.5t15.5 -40.5zM196 574q0 -24 -17 -41.5t-44 -17.5q-35 0 -55 27.5t-20 69.5q0 70 34.5 98.5t94.5 29.5
v-35q-58 0 -69 -41q-6 -14 -6.5 -23.5t0.5 -17.5q4 4 11 6t13 2q26 0 42 -16.5t16 -40.5z" />
    <glyph glyph-name="quotedblright" unicode="&#x201d;" horiz-adv-x="418" 
d="M60 681q0 24 17 41.5t44 17.5q35 0 55 -27.5t20 -69.5q0 -70 -34.5 -98.5t-94.5 -29.5v35q28 0 46 11t23 30q6 14 6.5 24t-0.5 17q-4 -4 -11 -6t-13 -2q-26 0 -42 16.5t-16 40.5zM222 681q0 24 17 41.5t44 17.5q35 0 55 -27.5t20 -69.5q0 -70 -34.5 -98.5t-94.5 -29.5v35
q29 0 46.5 11t22.5 30q6 14 7 24t-1 17q-8 -8 -24 -8q-26 0 -42 16.5t-16 40.5z" />
    <glyph glyph-name="quotedblbase" unicode="&#x201e;" horiz-adv-x="418" 
d="M60 48q0 24 17 41.5t44 17.5q35 0 55 -27.5t20 -69.5q0 -70 -34.5 -98.5t-94.5 -29.5v35q58 0 69 41q6 14 6.5 23.5t-0.5 17.5q-4 -4 -11 -6t-13 -2q-26 0 -42 16.5t-16 40.5zM222 48q0 24 17 41.5t44 17.5q35 0 55 -27.5t20 -69.5q0 -70 -34.5 -98.5t-94.5 -29.5v35
q58 0 69 41q6 14 7 23.5t-1 17.5q-8 -8 -24 -8q-26 0 -42 16.5t-16 40.5z" />
    <glyph glyph-name="dagger" unicode="&#x2020;" horiz-adv-x="403" 
d="M169 -182v570h-132v59h132v270h65v-270h132v-59h-132v-570h-65z" />
    <glyph glyph-name="daggerdbl" unicode="&#x2021;" horiz-adv-x="403" 
d="M234 717v-270h132v-58h-132v-313h132v-58h-132v-200h-65v200h-132v58h132v313h-132v58h132v270h65z" />
    <glyph glyph-name="bullet" unicode="&#x2022;" horiz-adv-x="343" 
d="M55 312q0 24 9 45.5t25 37.5t37 25t45 9t45.5 -9t37.5 -25t25 -37.5t9 -45.5t-9 -45t-25 -37t-37.5 -25t-45.5 -9t-45 9t-37 25t-25 37t-9 45z" />
    <glyph glyph-name="ellipsis" unicode="&#x2026;" horiz-adv-x="914" 
d="M55 55q0 26 17 43t42 17q26 0 43.5 -17t17.5 -43q0 -25 -17.5 -42.5t-43.5 -17.5q-25 0 -42 17.5t-17 42.5zM397 54q0 26 17 43.5t42 17.5q26 0 43.5 -17.5t17.5 -43.5q0 -25 -17.5 -42t-43.5 -17q-25 0 -42 17t-17 42zM739 54q0 26 17 43t42 17q26 0 43.5 -17t17.5 -43
q0 -25 -17.5 -42.5t-43.5 -17.5q-25 0 -42 17.5t-17 42.5z" />
    <glyph glyph-name="perthousand" unicode="&#x2030;" horiz-adv-x="1234" 
d="M952 123q0 -34 22 -59t58 -25q37 0 59 25t22 59v139q0 34 -22 59t-59 25q-36 0 -58 -25t-22 -59v-139zM1168 119q0 -26 -10 -49t-28 -40.5t-43 -27.5t-55 -10q-31 0 -56 10.5t-42.5 28.5t-27 41.5t-9.5 50.5v143q0 26 9.5 49t27.5 40.5t43 27.5t55 10q31 0 56 -10.5
t43 -28.5t27.5 -41.5t9.5 -50.5v-143zM681 393q31 0 56 -10.5t42.5 -28.5t27 -41.5t9.5 -50.5v-143q0 -26 -9.5 -49t-27.5 -40.5t-43 -27.5t-55 -10q-31 0 -56 10.5t-42.5 28.5t-27 41.5t-9.5 50.5v143q0 26 9.5 49t27.5 40.5t43 27.5t55 10zM681 346q-37 0 -58.5 -25
t-21.5 -59v-139q0 -34 21.5 -59t58.5 -25t58.5 25t21.5 59v139q0 34 -21.5 59t-58.5 25zM66 580q0 26 9.5 49t27 40.5t42.5 27.5t55 10q31 0 56 -10.5t43 -28.5t27.5 -41.5t9.5 -50.5v-143q0 -26 -9.5 -49t-27.5 -40t-43 -27t-56 -10t-55.5 10.5t-42 28t-27 41t-9.5 50.5
v143zM281 576q0 34 -21.5 59t-59.5 25q-36 0 -57.5 -25t-21.5 -59v-139q0 -34 21.5 -59t57.5 -25q38 0 59.5 25t21.5 59v139zM636 752l52 -31l-437 -753l-52 31z" />
    <glyph glyph-name="guilsinglleft" unicode="&#x2039;" horiz-adv-x="276" 
d="M236 100l-196 170v42l196 170v-67l-142 -124l142 -124v-67z" />
    <glyph glyph-name="guilsinglright" unicode="&#x203a;" horiz-adv-x="276" 
d="M40 167l142 124l-142 124v67l196 -170v-42l-196 -170v67z" />
    <glyph glyph-name="fraction" unicode="&#x2044;" horiz-adv-x="209" 
d="M297 752l52 -31l-437 -753l-52 31z" />
    <glyph glyph-name="zerosuperior" unicode="&#x2070;" horiz-adv-x="388" 
d="M59 581q1 26 11 49t27 40.5t41.5 27.5t55.5 10t56 -10.5t42.5 -28.5t27 -41.5t9.5 -50.5v-143q0 -26 -10 -49t-27.5 -40.5t-42.5 -27.5t-55 -10q-31 0 -56 10.5t-42.5 28.5t-27 41.5t-9.5 50.5v143zM274 577q0 34 -21.5 59t-58.5 25t-58.5 -25t-21.5 -59v-139
q0 -34 21.5 -59t58.5 -25t58.5 25t21.5 59v139z" />
    <glyph glyph-name="foursuperior" unicode="&#x2074;" horiz-adv-x="375" 
d="M217 439h-151v261h55v-213h96v116h56v-116h57v-48h-57v-124h-56v124z" />
    <glyph glyph-name="fivesuperior" unicode="&#x2075;" horiz-adv-x="394" 
d="M74 700h235v-44h-184v-133q11 22 35.5 33t50.5 11q30 0 53 -10.5t39 -28t24 -40.5t8 -48q0 -27 -9.5 -51t-27 -42t-42.5 -28.5t-56 -10.5q-32 0 -57 10.5t-42.5 28.5t-27 42t-9.5 50h54q0 -34 22 -59t60 -25q37 0 59 25t22 60q0 34 -21.5 58.5t-59.5 24.5q-51 0 -73 -45
h-53v222z" />
    <glyph glyph-name="sixsuperior" unicode="&#x2076;" horiz-adv-x="370" 
d="M184 309q-32 0 -57 10.5t-42.5 28.5t-27 41.5t-9.5 50.5q0 41 22 74l117 186h63l-90 -140q8 5 18.5 6.5t21.5 0.5q55 -4 87 -40.5t32 -86.5q0 -27 -9.5 -50.5t-27 -41.5t-42.5 -28.5t-56 -10.5zM184 355q37 0 59 25t22 60t-22 59.5t-59 24.5q-38 0 -59.5 -24.5
t-21.5 -59.5t21.5 -60t59.5 -25z" />
    <glyph glyph-name="sevensuperior" unicode="&#x2077;" horiz-adv-x="326" 
d="M300 700l-175 -385h-59l155 338h-171v47h250z" />
    <glyph glyph-name="eightsuperior" unicode="&#x2078;" horiz-adv-x="383" 
d="M192 308q-32 0 -57 9t-42 24t-26.5 35.5t-9.5 44.5q0 33 19 59.5t53 34.5q-31 8 -47.5 32t-16.5 53q0 45 33.5 76t93.5 31q59 0 92.5 -31t33.5 -76q0 -29 -16.5 -53t-47.5 -32q34 -8 53 -34.5t19 -59.5q0 -47 -35.5 -80t-98.5 -33zM192 534q34 0 53.5 18.5t19.5 45.5
q0 28 -19.5 46.5t-53.5 18.5q-35 0 -54 -18.5t-19 -46.5q0 -27 19 -45.5t54 -18.5zM192 352q37 0 58.5 20.5t21.5 49.5t-21 49.5t-59 20.5t-59 -20.5t-21 -49.5q0 -30 21 -50t59 -20z" />
    <glyph glyph-name="ninesuperior" unicode="&#x2079;" horiz-adv-x="370" 
d="M186 706q31 0 56 -10.5t42.5 -28.5t27 -41.5t9.5 -50.5q0 -41 -22 -74l-117 -186h-62l90 140q-5 -5 -13 -7.5t-16 -2.5q-60 2 -95.5 39t-35.5 91q0 27 9.5 50.5t27 41.5t42.5 28.5t57 10.5zM186 660q-38 0 -59.5 -25t-21.5 -60t21.5 -59.5t59.5 -24.5q37 0 59 24.5
t22 59.5t-22 60t-59 25z" />
    <glyph glyph-name="plussuperior" unicode="&#x207a;" horiz-adv-x="383" 
d="M169 359v91h-89v43h89v91h46v-91h89v-43h-89v-91h-46z" />
    <glyph glyph-name="minussuperior" unicode="&#x207b;" horiz-adv-x="384" 
d="M78 451v43h228v-43h-228z" />
    <glyph glyph-name="equalsuperior" unicode="&#x207c;" horiz-adv-x="384" 
d="M78 498v43h228v-43h-228zM78 400v44h228v-44h-228z" />
    <glyph glyph-name="parenleftsuperior" unicode="&#x207d;" horiz-adv-x="257" 
d="M217 699q-40 0 -63 -26.5t-23 -63.5v-285q0 -37 23 -63.5t63 -26.5v-47q-32 0 -58 11t-44 29.5t-28 43.5t-10 53v285q0 28 10 53t28 43.5t44 29.5t58 11v-47z" />
    <glyph glyph-name="parenrightsuperior" unicode="&#x207e;" horiz-adv-x="257" 
d="M40 746q32 0 58 -11t44 -29.5t28 -43.5t10 -53v-285q0 -28 -10 -53t-28 -43.5t-44 -29.5t-58 -11v47q40 0 63 26.5t23 63.5v285q0 37 -23 63.5t-63 26.5v47z" />
    <glyph glyph-name="nsuperior" unicode="&#x207f;" horiz-adv-x="380" 
d="M72 565h52v-51q11 25 34.5 41t58.5 16q49 0 72 -28q23 -27 23 -81v-147h-52v134q0 33 -15 55t-48 22q-37 0 -55 -26t-18 -58v-127h-52v250z" />
    <glyph glyph-name="zeroinferior" unicode="&#x2080;" horiz-adv-x="388" 
d="M59 66q1 26 11 49t27 40.5t41.5 27.5t55.5 10t56 -10.5t42.5 -28.5t27 -41.5t9.5 -50.5v-143q0 -26 -10 -49t-27.5 -40.5t-42.5 -27.5t-55 -10q-31 0 -56 10.5t-42.5 28.5t-27 41.5t-9.5 50.5v143zM274 62q0 34 -21.5 59t-58.5 25t-58.5 -25t-21.5 -59v-139
q0 -34 21.5 -59t58.5 -25t58.5 25t21.5 59v139z" />
    <glyph glyph-name="oneinferior" unicode="&#x2081;" horiz-adv-x="253" 
d="M47 119q26 0 42.5 4t25.5 12t12.5 20.5t3.5 29.5h50v-385h-56v279h-78v40z" />
    <glyph glyph-name="twoinferior" unicode="&#x2082;" horiz-adv-x="363" 
d="M55 -200q0 46 7 77.5t21.5 53t35.5 36t48 26.5q18 8 34 16.5t28 19t18.5 24t6.5 32.5q0 29 -18.5 46t-50.5 17q-34 0 -54 -20.5t-20 -57.5h-55q0 53 34.5 87.5t94.5 34.5q54 0 89 -28.5t35 -82.5q0 -26 -10 -45.5t-25 -33.5t-33 -24.5t-35 -18.5q-50 -23 -69 -46.5
t-19 -66.5h192v-46h-255v0z" />
    <glyph glyph-name="threeinferior" unicode="&#x2083;" horiz-adv-x="373" 
d="M103 -83q0 -36 22 -57t58 -21t56 20t20 49q0 31 -19.5 50.5t-57.5 19.5h-33v44h33q36 0 53.5 17.5t17.5 46.5t-18.5 45.5t-50.5 16.5q-37 0 -54.5 -19t-17.5 -51h-55q0 48 31 81t94 33q54 0 90 -27.5t36 -77.5q0 -34 -18.5 -57t-47.5 -30q32 -8 52 -33t20 -62
q0 -52 -37.5 -82t-92.5 -30q-63 0 -99.5 34.5t-36.5 89.5h55z" />
    <glyph glyph-name="fourinferior" unicode="&#x2084;" horiz-adv-x="375" 
d="M217 -76h-151v261h55v-213h96v116h56v-116h57v-48h-57v-124h-56v124z" />
    <glyph glyph-name="fiveinferior" unicode="&#x2085;" horiz-adv-x="394" 
d="M74 185h235v-44h-184v-133q11 22 35.5 33t50.5 11q30 0 53 -10.5t39 -28t24 -40.5t8 -48q0 -27 -9.5 -51t-27 -42t-42.5 -28.5t-56 -10.5q-32 0 -57 10.5t-42.5 28.5t-27 42t-9.5 50h54q0 -34 22 -59t60 -25q37 0 59 25t22 60q0 34 -21.5 58.5t-59.5 24.5q-51 0 -73 -45
h-53v222z" />
    <glyph glyph-name="sixinferior" unicode="&#x2086;" horiz-adv-x="370" 
d="M184 -206q-32 0 -57 10.5t-42.5 28.5t-27 41.5t-9.5 50.5q0 41 22 74l117 186h63l-90 -140q8 5 18.5 6.5t21.5 0.5q55 -4 87 -40.5t32 -86.5q0 -27 -9.5 -50.5t-27 -41.5t-42.5 -28.5t-56 -10.5zM184 -160q37 0 59 25t22 60t-22 59.5t-59 24.5q-38 0 -59.5 -24.5
t-21.5 -59.5t21.5 -60t59.5 -25z" />
    <glyph glyph-name="seveninferior" unicode="&#x2087;" horiz-adv-x="326" 
d="M300 185l-175 -385h-59l155 338h-171v47h250z" />
    <glyph glyph-name="eightinferior" unicode="&#x2088;" horiz-adv-x="383" 
d="M192 -207q-32 0 -57 9t-42 24t-26.5 35.5t-9.5 44.5q0 33 19 59.5t53 34.5q-31 8 -47.5 32t-16.5 53q0 45 33.5 76t93.5 31q59 0 92.5 -31t33.5 -76q0 -29 -16.5 -53t-47.5 -32q34 -8 53 -34.5t19 -59.5q0 -47 -35.5 -80t-98.5 -33zM192 19q34 0 53.5 18.5t19.5 45.5
q0 28 -19.5 46.5t-53.5 18.5q-35 0 -54 -18.5t-19 -46.5q0 -27 19 -45.5t54 -18.5zM192 -163q37 0 58.5 20.5t21.5 49.5t-21 49.5t-59 20.5t-59 -20.5t-21 -49.5q0 -30 21 -50t59 -20z" />
    <glyph glyph-name="nineinferior" unicode="&#x2089;" horiz-adv-x="370" 
d="M186 191q31 0 56 -10.5t42.5 -28.5t27 -41.5t9.5 -50.5q0 -41 -22 -74l-117 -186h-62l90 140q-5 -5 -13 -7.5t-16 -2.5q-60 2 -95.5 39t-35.5 91q0 27 9.5 50.5t27 41.5t42.5 28.5t57 10.5zM186 145q-38 0 -59.5 -25t-21.5 -60t21.5 -59.5t59.5 -24.5q37 0 59 24.5
t22 59.5t-22 60t-59 25z" />
    <glyph glyph-name="parenleftinferior" unicode="&#x208d;" horiz-adv-x="257" 
d="M217 184q-40 0 -63 -26.5t-23 -63.5v-285q0 -37 23 -63.5t63 -26.5v-47q-32 0 -58 11t-44 29.5t-28 43.5t-10 53v285q0 28 10 53t28 43.5t44 29.5t58 11v-47z" />
    <glyph glyph-name="parenrightinferior" unicode="&#x208e;" horiz-adv-x="257" 
d="M40 231q32 0 58 -11t44 -29.5t28 -43.5t10 -53v-285q0 -28 -10 -53t-28 -43.5t-44 -29.5t-58 -11v47q40 0 63 26.5t23 63.5v285q0 37 -23 63.5t-63 26.5v47z" />
    <glyph glyph-name="Euro" unicode="&#x20ac;" horiz-adv-x="605" 
d="M554 222q0 -47 -16.5 -89.5t-47.5 -74.5t-74 -50.5t-97 -18.5q-53 0 -95.5 19t-72.5 51t-46.5 74t-16.5 89v20h-64l12 52h52v109h-62l13 51h49v22q0 47 16.5 89.5t46.5 74.5t72.5 50.5t95.5 18.5q52 0 94 -17.5t72.5 -47t48 -69.5t19.5 -85h-69q-2 32 -14.5 60.5
t-33.5 50t-51 34t-66 12.5q-37 0 -67 -13.5t-51.5 -37t-33 -54.5t-11.5 -66v-22h248l-13 -51h-235v-109h245l-12 -52h-233v-20q0 -35 11.5 -65.5t33 -54t51.5 -37t67 -13.5q38 0 68.5 13.5t52.5 36.5t33.5 54t11.5 66h69z" />
    <glyph glyph-name="afii61289" unicode="&#x2113;" horiz-adv-x="387" 
d="M253 -11q-18 0 -44.5 3.5t-50.5 20.5t-41 53.5t-17 101.5v8q-4 -3 -13 -10.5l-19 -15.5l-19 -15.5t-13 -11.5l-31 49l95 76v259q0 50 7 89t23 66t42 41t64 14q66 0 100 -45.5t34 -126.5q0 -41 -14.5 -80.5t-42.5 -79t-67.5 -80t-88.5 -83.5v-58q0 -43 10.5 -66.5
t25.5 -35t33 -13.5t33 -2q28 0 49.5 8.5t33.5 19.5l9 -51q-15 -13 -36 -24t-62 -11zM238 663q-45 0 -63 -39.5t-18 -106.5v-222q42 39 71.5 72.5t48 63.5t27.5 58.5t9 57.5q0 54 -18 85t-57 31z" />
    <glyph glyph-name="afii61352" unicode="&#x2116;" horiz-adv-x="1055" 
d="M510 118v582h69v-700h-76l-352 582v-582h-68v700h76zM831 329q-44 0 -80 15t-61 41t-38.5 60.5t-13.5 72.5q0 39 13.5 73.5t38.5 60.5t61 41t80 15q45 0 80.5 -15t61 -41t39 -60.5t13.5 -73.5q0 -38 -13.5 -72.5t-39 -60.5t-61 -41t-80.5 -15zM831 387q29 0 53 10.5
t41 28.5t26 41.5t9 50.5t-9 51t-26 42t-41 28.5t-53 10.5t-52.5 -10.5t-40.5 -28.5t-26 -42t-9 -51t9 -50.5t26 -41.5t40.5 -28.5t52.5 -10.5zM638 236v59h387v-59h-387z" />
    <glyph glyph-name="trademark" unicode="&#x2122;" horiz-adv-x="805" 
d="M377 700h79l120 -322l120 322h79v-407h-50v341l-126 -341h-46l-126 341v-341h-50v407zM299 700v-46h-104v-361h-51v361h-104v46h259z" />
    <glyph glyph-name="uni2126" unicode="&#x2126;" horiz-adv-x="720" 
d="M360 650q-59 0 -105 -19.5t-77 -53.5t-47 -79t-16 -97q0 -47 14 -90.5t41 -78.5t66 -59.5t88 -33.5v-139h-255v62h200v38q-50 15 -91.5 44t-70.5 68t-45 87t-16 100q0 64 21.5 121t62 100t98.5 67.5t132 24.5q73 0 131 -24.5t98.5 -67.5t62 -100t21.5 -121
q0 -52 -16 -100t-45 -87.5t-70 -68.5t-91 -44v-37h200v-62h-255v139q49 9 88 33.5t66 59.5t41 78.5t14 90.5q0 52 -16 97t-47 79t-77 53.5t-105 19.5z" />
    <glyph glyph-name="estimated" unicode="&#x212e;" horiz-adv-x="519" 
d="M137 227v-170q24 -22 56 -34t74 -12q34 0 62.5 9t50.5 24t37 35t22 42h22q-7 -27 -23.5 -51t-41.5 -42t-57.5 -28.5t-71.5 -10.5q-56 0 -97.5 19.5t-69 51.5t-41 74.5t-13.5 87.5q0 50 14.5 92.5t42.5 73t68.5 48t92.5 17.5q43 0 80 -15t65 -41.5t44 -63t16 -78.5v-12
t-1 -16h-331zM264 432q-39 0 -71 -11.5t-56 -31.5v-140h243v143q-24 19 -53.5 29.5t-62.5 10.5z" />
    <glyph glyph-name="arrowleft" unicode="&#x2190;" horiz-adv-x="710" 
d="M5 350l239 216l37 -40l-166 -149h590v-55h-590l166 -148l-37 -40z" />
    <glyph glyph-name="arrowup" unicode="&#x2191;" horiz-adv-x="482" 
d="M241 700l216 -239l-40 -37l-149 166v-590h-55v589l-147 -165l-41 37z" />
    <glyph glyph-name="arrowright" unicode="&#x2192;" horiz-adv-x="710" 
d="M705 350l-239 -216l-37 40l166 148h-590v55h589l-165 148l37 41z" />
    <glyph glyph-name="arrowdown" unicode="&#x2193;" horiz-adv-x="482" 
d="M241 0l-216 239l41 37l148 -166v590h55v-590l148 166l40 -37z" />
    <glyph glyph-name="uni2196" unicode="&#x2196;" horiz-adv-x="555" 
d="M20 597l322 -15l-3 -56l-222 13l417 -417l-39 -39l-417 417l13 -222l-55 -2z" />
    <glyph glyph-name="uni2197" unicode="&#x2197;" horiz-adv-x="555" 
d="M534 597l-15 -321l-56 2l14 223l-417 -418l-40 39l417 417l-222 -13l-2 56z" />
    <glyph glyph-name="uni2198" unicode="&#x2198;" horiz-adv-x="555" 
d="M534 103l-321 15l2 56l223 -13l-418 417l40 39l416 -417l-13 222l56 2z" />
    <glyph glyph-name="uni2199" unicode="&#x2199;" horiz-adv-x="555" 
d="M20 103l16 321l55 -2l-13 -223l417 418l39 -39l-416 -417l221 13l3 -56z" />
    <glyph glyph-name="partialdiff" unicode="&#x2202;" 
d="M281 438q22 0 46 -5.5t48 -17t45 -30t37 -45.5v15q-2 89 -12.5 147t-31 91.5t-51.5 47t-73 13.5q-39 0 -69.5 -14t-51.5 -39t-32 -58.5t-11 -72.5h-68q0 51 16 95.5t46 78t73 52.5t97 19q61 0 105 -19.5t72.5 -66t42.5 -124.5t14 -195q0 -89 -17 -151t-48.5 -100.5
t-76.5 -56t-102 -17.5q-53 0 -94.5 17.5t-70.5 48t-44.5 71t-15.5 87.5q0 46 16 88t45 73t71 49.5t95 18.5zM281 377q-38 0 -68 -13t-51 -36t-32.5 -53.5t-11.5 -65.5t11 -65t31.5 -51.5t50.5 -34t68 -12.5q39 0 70 10.5t54 36t36.5 68t17.5 105.5q-15 31 -35 52.5
t-43.5 34.5t-48.5 18.5t-49 5.5z" />
    <glyph glyph-name="uni2206" unicode="&#x2206;" horiz-adv-x="546" 
d="M101 62h344l-172 529zM540 0h-534l241 700h52z" />
    <glyph glyph-name="product" unicode="&#x220f;" horiz-adv-x="625" 
d="M604 732h-55v-989h-69v989h-335v-989h-69v989h-55v62h583v-62z" />
    <glyph glyph-name="summation" unicode="&#x2211;" 
d="M15 -257v64l357 464l-357 464v59h519v-62h-432l356 -454l-357 -468h433v-67h-519z" />
    <glyph glyph-name="minus" unicode="&#x2212;" 
d="M83 257v58h404v-58h-404z" />
    <glyph glyph-name="radical" unicode="&#x221a;" horiz-adv-x="687" 
d="M3 232h168l123 -356l318 918h71l-363 -1028h-51l-145 407h-121v59z" />
    <glyph glyph-name="infinity" unicode="&#x221e;" horiz-adv-x="827" 
d="M603 491q49 0 86.5 -16.5t62.5 -44t38 -64.5t13 -77q0 -41 -13 -77.5t-38 -64t-62.5 -44t-86.5 -16.5q-52 0 -103.5 32t-86.5 101q-35 -69 -86.5 -101t-103.5 -32q-50 0 -87 17t-62 45t-37.5 64.5t-12.5 75.5t12.5 75.5t37.5 64.5t62 45t87 17q52 0 103.5 -32.5
t86.5 -100.5q35 68 86.5 100.5t103.5 32.5zM603 431q-21 0 -43 -8.5t-43 -26t-39 -44t-31 -63.5q13 -38 31 -64.5t39 -44t43 -25.5t43 -8q34 0 59.5 11.5t43 31t26 45t8.5 54.5q0 28 -8.5 54t-26 45.5t-43 31t-59.5 11.5zM223 431q-34 0 -59.5 -11.5t-43 -31t-26 -45.5
t-8.5 -54q0 -29 8.5 -54.5t26 -45t43 -31t59.5 -11.5q21 0 43.5 8t43.5 25.5t39 44t30 64.5q-12 37 -30 63.5t-39 44t-43.5 26t-43.5 8.5z" />
    <glyph glyph-name="integral" unicode="&#x222b;" horiz-adv-x="277" 
d="M161 -137q0 -34 -7.5 -58.5t-21 -40.5t-31.5 -23.5t-38 -7.5q-48 0 -73 12v57q15 -6 25 -8t25 -2q26 0 41 18.5t15 56.5v797q0 68 28.5 99t68.5 31q47 0 74 -12v-57q-15 6 -25.5 8.5t-24.5 2.5q-26 0 -41 -19t-15 -57v-797z" />
    <glyph glyph-name="approxequal" unicode="&#x2248;" 
d="M65 267q23 28 51 39t52 11q27 0 57 -9.5t61 -22.5l58 -24t50 -12q34 0 62 17.5t48 36.5v-9l1 1v-60q-23 -26 -52 -39.5t-58 -13.5q-25 0 -52 10t-60 25q-27 13 -56.5 23t-59.5 10q-27 0 -54 -15t-47 -37v10l-1 -1v60z" />
    <glyph glyph-name="notequal" unicode="&#x2260;" 
d="M255 170l-56 -118h-56l57 118h-117v59h143l54 109h-197v59h223l57 118h55l-56 -118h125v-59h-152l-53 -109h205v-59h-232z" />
    <glyph glyph-name="lessequal" unicode="&#x2264;" 
d="M482 256l-394 149v49l394 149v-62l-303 -111l303 -113v-61zM88 48v58h394v-58h-394z" />
    <glyph glyph-name="greaterequal" unicode="&#x2265;" 
d="M88 317l303 113l-303 111v62l394 -149v-49l-394 -149v61zM88 48v58h394v-58h-394z" />
    <glyph glyph-name="lozenge" unicode="&#x25ca;" horiz-adv-x="465" 
d="M5 396l198 398h60l197 -398l-197 -396h-60zM233 70l159 326q-8 15 -20.5 41l-27.5 57.5l-31.5 65l-31.5 65l-27.5 57.5t-20.5 41l-160 -327z" />
    <glyph glyph-name="commaaccent" unicode="&#xf6c3;" horiz-adv-x="219" 
d="M56 46q0 20 13.5 34.5t35.5 14.5q29 0 46 -22.5t17 -56.5q0 -58 -29 -81.5t-78 -24.5v31q47 0 57 31q5 11 5.5 19t-0.5 15q-9 -7 -20 -7q-21 0 -34 13.5t-13 33.5z" />
    <glyph glyph-name="asuperior" unicode="&#xf6e9;" horiz-adv-x="395" 
d="M323 565v-250h-53v50q-11 -24 -35.5 -40t-56.5 -16q-29 0 -52 10t-39.5 28t-25.5 42t-9 51t9 51t25.5 42t39.5 28t52 10q32 0 56.5 -16t35.5 -40v50h53zM187 354q38 0 60.5 25.5t22.5 60.5t-22.5 60.5t-60.5 25.5t-60.5 -25.5t-22.5 -60.5t22.5 -60.5t60.5 -25.5z" />
    <glyph glyph-name="bsuperior" unicode="&#xf6ea;" horiz-adv-x="396" 
d="M124 315h-52v385h52v-185q11 24 36 40t57 16q28 0 51.5 -10t40 -28t25.5 -42t9 -51t-9 -51t-25.5 -42t-40 -28t-51.5 -10q-32 0 -57 16t-36 40v-50zM208 354q38 0 60.5 25.5t22.5 60.5t-22.5 60.5t-60.5 25.5t-61 -25.5t-23 -60.5t23 -60.5t61 -25.5z" />
    <glyph glyph-name="dsuperior" unicode="&#xf6eb;" horiz-adv-x="395" 
d="M270 365q-11 -24 -35.5 -40t-56.5 -16q-29 0 -52 10t-39.5 28t-25.5 42t-9 51t9 51t25.5 42t39.5 28t52 10q32 0 56.5 -16t35.5 -40v185h53v-385h-53v50zM187 354q38 0 60.5 25.5t22.5 60.5t-22.5 60.5t-60.5 25.5t-60.5 -25.5t-22.5 -60.5t22.5 -60.5t60.5 -25.5z" />
    <glyph glyph-name="esuperior" unicode="&#xf6ec;" horiz-adv-x="360" 
d="M106 429q0 -32 18 -56.5t59 -24.5q28 0 44 12.5t22 29.5h51q-6 -33 -36.5 -57t-79.5 -24q-32 0 -56.5 10.5t-41 28.5t-25 42t-8.5 50q0 56 33 93.5t96 37.5q54 0 88 -32.5t34 -80.5v-12t-2 -17h-196zM181 532q-32 0 -52.5 -19t-22.5 -51h146q0 32 -20.5 51t-50.5 19z" />
    <glyph glyph-name="isuperior" unicode="&#xf6ed;" horiz-adv-x="209" 
d="M65 658q0 16 11.5 27.5t27.5 11.5q17 0 28.5 -11.5t11.5 -27.5q0 -17 -11.5 -28.5t-28.5 -11.5q-16 0 -27.5 11.5t-11.5 28.5zM130 565v-250h-52v250h52z" />
    <glyph glyph-name="lsuperior" unicode="&#xf6ee;" horiz-adv-x="197" 
d="M72 700h52v-385h-52v385z" />
    <glyph glyph-name="msuperior" unicode="&#xf6ef;" horiz-adv-x="520" 
d="M401 315v143q0 35 -14.5 51.5t-38.5 16.5q-29 0 -45 -23t-16 -62v-126h-51v138q0 41 -14 57t-37 16q-29 0 -45.5 -23t-16.5 -62v-126h-51v250h51v-51q7 23 27 40t51 17q34 0 53.5 -15.5t25.5 -43.5q8 23 30 41t54 18q45 0 66 -26t21 -74v-156h-50z" />
    <glyph glyph-name="osuperior" unicode="&#xf6f0;" horiz-adv-x="374" 
d="M187 309q-32 0 -57 10.5t-42.5 28.5t-27 41.5t-9.5 50.5t9.5 50.5t27 41.5t42.5 28.5t57 10.5q31 0 56 -10.5t42.5 -28.5t27 -41.5t9.5 -50.5t-9.5 -50.5t-27 -41.5t-42.5 -28.5t-56 -10.5zM187 354q38 0 60.5 25.5t22.5 60.5t-22.5 60.5t-60.5 25.5t-61 -25.5t-23 -60.5
t23 -60.5t61 -25.5z" />
    <glyph glyph-name="rsuperior" unicode="&#xf6f1;" horiz-adv-x="267" 
d="M235 517q-15 4 -26 4q-42 0 -63.5 -28t-21.5 -73v-105h-52v250h52v-55q11 28 34.5 43.5t52.5 15.5q15 0 24 -4v-48z" />
    <glyph glyph-name="ssuperior" unicode="&#xf6f2;" horiz-adv-x="323" 
d="M183 456q16 -4 31.5 -8.5t27.5 -12t19 -19.5t7 -31q0 -40 -29 -58t-75 -18q-50 0 -81 22.5t-31 68.5h52q0 -30 17.5 -42t43.5 -12q24 0 38 9.5t14 27.5q0 21 -20.5 28.5t-55.5 16.5q-16 4 -31 8.5t-26 12t-18 19.5t-7 30q0 37 28 55t74 18q49 0 76 -22.5t27 -60.5h-52
q0 23 -14 35t-38 12q-22 0 -35.5 -9.5t-13.5 -26.5q0 -20 18.5 -27t53.5 -16z" />
    <glyph glyph-name="tsuperior" unicode="&#xf6f3;" horiz-adv-x="252" 
d="M216 315q-8 -2 -20.5 -3t-26.5 -1t-28.5 2.5t-26.5 11.5t-19.5 26.5t-7.5 47.5v125h-47v41h47v89h52v-89h69v-41h-69v-115q0 -36 13 -45.5t30 -9.5q8 0 17.5 0.5t16.5 2.5v-42z" />
    <glyph glyph-name="apple" unicode="&#xf8ff;" horiz-adv-x="800" 
d="M400 717q84 0 151.5 -30.5t114 -81.5t71.5 -117.5t25 -137.5t-25 -137.5t-71.5 -117.5t-114 -81.5t-151.5 -30.5t-151.5 30.5t-114 81.5t-71.5 117.5t-25 137.5t25 137.5t71.5 117.5t114 81.5t151.5 30.5zM400 695q-76 0 -143 -29q-60 -27 -106 -76q-45 -50 -67 -110
q-24 -63 -24 -130q0 -68 24 -129q22 -62 67 -110q46 -50 106 -76q67 -29 143 -29t142 29q60 26 106 76q45 48 67 110q24 61 24 129q0 67 -24 130q-22 60 -67 110q-46 49 -106 76q-66 29 -142 29zM168 228l47 -28t44 -22.5t45.5 -15t51.5 -5.5q21 0 49 1.5t58.5 5t60 11
t52.5 19.5q1 0 3 2q-13 -28 -42 -54t-65 -45q-57 -31 -106 -31t-97.5 37.5t-100.5 124.5zM219 259l179 268l-110 -243h178v-25h-247zM230 169q15 -22 34 -37t38.5 -24t36.5 -12.5t27 -3.5q25 0 52 9t50 20t39 21t20 13l-81 -15.5t-88 -7.5q-13 0 -30.5 1.5t-35.5 6
t-34.5 11.5t-27.5 18zM498 500q0 18 12.5 30.5t29.5 12.5q18 0 30.5 -12.5t12.5 -30.5q0 -17 -12.5 -30t-30.5 -13q-17 0 -29.5 13t-12.5 30zM201 500q0 18 12.5 30.5t29.5 12.5q18 0 30.5 -12.5t12.5 -30.5q0 -17 -12.5 -30t-30.5 -13q-17 0 -29.5 13t-12.5 30zM600 161
q2 5 2 9.5v8.5q-2 9 -4 13q-1 3 -3 5q-1 0 -3 2q-2 0 -4 2l-14 5l-16.5 8t-16.5 11q-10 7 -18 20l-4 11q-1 4 -2 7t-1 7q-2 8 -3 15.5t-1 15.5q1 5 1 10t2 9l15 -5q0 -2 -0.5 -4.5t-0.5 -5.5v-13q1 -7 1.5 -14t2.5 -13q2 -4 2.5 -7t2.5 -5q3 -6 8 -10.5l11 -9.5q6 -4 13 -7
t13 -6l15 -6q3 -1 7 -5q6 -4 7 -9q5 -9 6 -19v-12t-2 -12zM213 331q0 -5 0.5 -10t1.5 -10t1.5 -10t0.5 -10q0 -10 -7 -20q-7 -9 -14 -13q-1 0 -2 -0.5t-2 -0.5q-5 -2 -10.5 -4.5t-10.5 -5.5q-4 -1 -10 -5q-4 -4 -6 -5q-3 -5 -5 -13q-1 -5 -1.5 -9t-0.5 -8h-16q0 5 0.5 10
t1.5 10q2 5 3.5 10t5.5 10q2 2 9 8l11 7q5 3 11.5 5.5t12.5 4.5l1 1q4 1 9 8q4 6 4 10q0 5 -0.5 9t-1.5 9l-3 20z" />
    <glyph glyph-name="commaturn" horiz-adv-x="219" 
d="M168 657q0 -20 -14 -34.5t-36 -14.5q-29 0 -45.5 22.5t-16.5 57.5q0 57 28.5 81t77.5 24v-31q-47 0 -56 -30q-5 -12 -6 -20t0 -14q7 6 20 6q21 0 34.5 -13.5t13.5 -33.5z" />
    <glyph glyph-name="zero.slash" 
d="M284 -12q-53 0 -96 18.5t-73 50t-46.5 73.5t-16.5 89v261q0 47 16.5 89.5t46.5 74t73 50t96 18.5t96.5 -18.5t74 -50t47 -74t16.5 -89.5v-261q0 -47 -16.5 -89t-47 -73.5t-74 -50t-96.5 -18.5zM199 73q17 -11 38 -17t47 -6q38 0 68.5 13.5t52.5 36.5t33.5 53.5t11.5 65.5
v261q0 28 -9 52t-26 43zM120 219q0 -28 9 -52.5t25 -44.5l216 504q-38 24 -86 24q-38 0 -68 -13.5t-51.5 -36.5t-33 -54t-11.5 -66v-261z" />
    <glyph glyph-name="zero.tlfslash" 
d="M52 480q0 47 16.5 89.5t46.5 74t73 50t96 18.5t96.5 -18.5t74 -50t47 -74t16.5 -89.5v-261q0 -47 -16.5 -89t-47 -73.5t-74 -50t-96.5 -18.5t-96 18.5t-73 50t-46.5 73.5t-16.5 89v261zM450 480q0 28 -9 52t-26 43l-216 -502q17 -11 38 -17t47 -6q38 0 68.5 13.5
t52.5 36.5t33.5 53.5t11.5 65.5v261zM120 219q0 -28 9 -52.5t25 -44.5l216 504q-38 24 -86 24q-38 0 -68 -13.5t-51.5 -36.5t-33 -54t-11.5 -66v-261z" />
    <glyph glyph-name="zero.tlf" 
d="M52 480q0 47 16.5 89.5t46.5 74t73 50t96 18.5t96.5 -18.5t74 -50t47 -74t16.5 -89.5v-261q0 -47 -16.5 -89t-47 -73.5t-74 -50t-96.5 -18.5t-96 18.5t-73 50t-46.5 73.5t-16.5 89v261zM450 480q0 35 -11.5 66t-33.5 54t-52.5 36.5t-68.5 13.5t-68 -13.5t-51.5 -36.5
t-33 -54t-11.5 -66v-261q0 -35 11.5 -65.5t33 -53.5t51.5 -36.5t68 -13.5t68.5 13.5t52.5 36.5t33.5 53.5t11.5 65.5v261z" />
    <glyph glyph-name="one.tlf" 
d="M112 584h51q69 0 101.5 28.5t37.5 87.5h66v-700h-71v528h-185v56z" />
    <glyph glyph-name="two.tlf" 
d="M78 0q0 82 13 138t38.5 94.5t64.5 64t90 48.5q31 13 60 27.5t51 34t35 46.5t13 65q0 60 -38 95t-106 35q-35 0 -63 -11t-48.5 -31.5t-31.5 -49t-11 -64.5h-68q0 49 17 89.5t46.5 69.5t70 44.5t88.5 15.5t87.5 -13.5t67 -39t42.5 -62.5t15 -83q0 -49 -19 -85t-47.5 -62
t-62 -43.5t-62.5 -29.5q-49 -23 -81 -45t-51 -48t-26.5 -59.5t-7.5 -78.5h360v-62h-436v0z" />
    <glyph glyph-name="three.tlf" 
d="M118 208q0 -36 12.5 -64.5t34 -49t52 -31.5t66.5 -11q37 0 66 10.5t49.5 29.5t31.5 44.5t11 54.5q0 62 -39 102t-119 40h-53v61h53q73 0 109 36t36 93q0 59 -39 92t-105 33q-75 0 -112.5 -38t-37.5 -100h-68q0 45 15.5 82t44 63.5t67.5 41t87 14.5q46 0 86 -13.5
t68.5 -38t45 -59.5t16.5 -77q0 -62 -32 -104t-89 -56q62 -15 98.5 -59.5t36.5 -111.5q0 -45 -17 -82.5t-48 -64t-73 -41.5t-91 -15t-91 15t-73.5 43.5t-49.5 69t-18 91.5h69z" />
    <glyph glyph-name="four.tlf" 
d="M339 240h-266v460h68v-398h198v221h68v-221h114v-62h-114v-240h-68v240z" />
    <glyph glyph-name="five.tlf" 
d="M69 700h400v-62h-338v-273q11 21 29 37t40.5 26.5t47 16t47.5 5.5q54 0 95.5 -18t70 -49t43.5 -73t15 -89t-16.5 -89t-47 -74t-73.5 -50.5t-97 -18.5q-53 0 -95.5 18.5t-73 50.5t-47 74t-16.5 89h69q0 -35 11.5 -65.5t33 -53.5t51.5 -36.5t67 -13.5q38 0 69 13.5
t52.5 36.5t33 53.5t11.5 65.5q0 34 -11.5 65t-33 53.5t-52.5 36t-69 13.5q-51 0 -87.5 -23t-56.5 -68h-72v402z" />
    <glyph glyph-name="six.tlf" 
d="M284 -11q-53 0 -96 18.5t-73 50.5t-46.5 74t-16.5 89q0 37 10 70.5t28 62.5l216 346h79l-172 -269q11 11 31 16.5t40 5.5q53 0 96.5 -18.5t74 -50t47 -74t16.5 -89.5t-16.5 -89t-47 -74t-74 -50.5t-96.5 -18.5zM284 52q38 0 68.5 13.5t52.5 36.5t33.5 53.5t11.5 65.5
q0 34 -11.5 65t-33.5 54.5t-52.5 37t-68.5 13.5t-68 -13.5t-51.5 -37t-33 -54.5t-11.5 -65q0 -35 11.5 -65.5t33 -53.5t51.5 -36.5t68 -13.5z" />
    <glyph glyph-name="seven.tlf" 
d="M516 700l-324 -700h-73l298 638h-323v62h422z" />
    <glyph glyph-name="eight.tlf" 
d="M279 -11q-54 0 -96.5 15.5t-72.5 43t-46 64.5t-16 80q0 29 8 57t24.5 51t41 39.5t56.5 24.5q-60 17 -88 60t-28 96q0 40 15 75t43 61t68 40.5t91 14.5q50 0 90.5 -15t68.5 -40.5t43 -60.5t15 -75q0 -53 -28.5 -96t-88.5 -60q33 -8 57 -24.5t40.5 -40t24.5 -51t8 -56.5
q0 -42 -16 -79t-45.5 -64.5t-72 -43.5t-96.5 -16zM279 388q70 0 109 37t39 92q0 28 -10 52t-29.5 41.5t-47 27.5t-61.5 10q-69 0 -108.5 -37t-39.5 -94q0 -55 39 -92t109 -37zM279 52q37 0 67 11t51 29.5t32.5 44t11.5 55.5q0 29 -11 54.5t-31.5 44.5t-50.5 30t-69 11
t-69 -11t-50.5 -29.5t-31.5 -44t-11 -55.5t11 -55.5t32 -44.5t51 -29.5t68 -10.5z" />
    <glyph glyph-name="nine.tlf" 
d="M286 711q52 0 95 -18.5t73.5 -50.5t47 -74t16.5 -89q0 -37 -10.5 -70.5t-28.5 -62.5l-216 -346h-78l172 269q-10 -11 -31.5 -16.5t-39.5 -5.5q-54 0 -97 18.5t-73.5 50t-47 74t-16.5 89.5t16.5 89t47 74t73.5 50.5t97 18.5zM286 648q-38 0 -68.5 -13.5t-52.5 -36.5
t-33.5 -54t-11.5 -65q0 -35 11.5 -65.5t33.5 -54t52.5 -37t68.5 -13.5q37 0 67.5 13.5t52 37t33 54t11.5 65.5q0 34 -11.5 65t-33 54t-52 36.5t-67.5 13.5z" />
    <glyph glyph-name="csuperior" horiz-adv-x="361" 
d="M253 470q-2 23 -18.5 39.5t-51.5 16.5q-39 0 -58.5 -26t-19.5 -60q0 -35 19.5 -60.5t60.5 -25.5q32 0 48 14t21 37h53q-6 -41 -36.5 -68.5t-87.5 -27.5q-32 0 -56 11t-40.5 29t-25 41.5t-8.5 49.5t8.5 50t25 42t40.5 29t56 11q30 0 52.5 -8.5t37.5 -23t22.5 -33
t9.5 -37.5h-52z" />
    <glyph glyph-name="fsuperior" horiz-adv-x="252" 
d="M217 658q-11 5 -29 5q-15 0 -29 -8t-14 -41v-49h72v-41h-72v-209h-52v209h-52v41h52v46q0 32 8 51t21 28.5t27.5 12t28.5 2.5t23 -2t16 -5v-40z" />
    <glyph glyph-name="gsuperior" horiz-adv-x="394" 
d="M187 526q-38 0 -60.5 -25.5t-22.5 -60.5t22.5 -60.5t60.5 -25.5t60.5 25.5t22.5 60.5t-22.5 60.5t-60.5 25.5zM323 304q0 -71 -35 -100.5t-103 -29.5t-98.5 32.5t-32.5 78.5h53q2 -28 19.5 -49t58.5 -21q40 0 62.5 19.5t22.5 67.5v64q-11 -25 -35.5 -40t-56.5 -15
q-29 0 -52 10t-39.5 27t-25.5 41t-9 51t9 51t25 42t39 28t52 10q32 0 57 -15t36 -41v50h53v-261z" />
    <glyph glyph-name="ksuperior" horiz-adv-x="330" 
d="M177 440l117 -125h-65l-105 113v-113h-52v385h52v-248l105 113h65z" />
    <glyph glyph-name="psuperior" horiz-adv-x="396" 
d="M124 515q11 24 36 40t57 16q28 0 51.5 -10t40 -28t25.5 -42t9 -51t-9 -51t-25.5 -42t-40 -28t-51.5 -10q-32 0 -57 16t-36 40v-185h-52v385h52v-50zM208 526q-38 0 -61 -25.5t-23 -60.5t23 -60.5t61 -25.5t60.5 25.5t22.5 60.5t-22.5 60.5t-60.5 25.5z" />
    <glyph glyph-name="qsuperior" horiz-adv-x="396" 
d="M271 565h53v-385h-53v185q-11 -24 -35.5 -40t-56.5 -16q-29 0 -52 10t-39.5 28t-25.5 42t-9 51t9 51t25.5 42t39.5 28t52 10q32 0 56.5 -16t35.5 -40v50zM188 526q-38 0 -60.5 -25.5t-22.5 -60.5t22.5 -60.5t60.5 -25.5t60.5 25.5t22.5 60.5t-22.5 60.5t-60.5 25.5z" />
    <glyph glyph-name="usuperior" horiz-adv-x="379" 
d="M306 315h-52v51q-10 -24 -33.5 -40.5t-58.5 -16.5q-24 0 -42.5 7.5t-30.5 21.5t-17 34t-5 47v146h52v-134q0 -33 14.5 -55t48.5 -22q36 0 54 26t18 59v126h52v-250z" />
    <glyph glyph-name="vsuperior" horiz-adv-x="336" 
d="M88 565l80 -187l80 187h56l-116 -250h-41l-115 250h56z" />
    <glyph glyph-name="zsuperior" horiz-adv-x="309" 
d="M266 565l-139 -205h137v-45h-221l139 205h-132v45h216z" />
    <glyph glyph-name="plusinferior" horiz-adv-x="383" 
d="M169 -156v91h-89v43h89v91h46v-91h89v-43h-89v-91h-46z" />
    <glyph glyph-name="minusinferior" horiz-adv-x="384" 
d="M78 -64v43h228v-43h-228z" />
    <glyph glyph-name="equalinferior" horiz-adv-x="384" 
d="M78 -17v43h228v-43h-228zM78 -115v44h228v-44h-228z" />
    <glyph glyph-name="multiply.case" 
d="M404 451l46 -46l-122 -122l120 -120l-42 -42l-119 120l-122 -122l-46 46l121 122l-119 120l42 42l119 -120z" />
    <glyph glyph-name="Iacute.smcp" horiz-adv-x="268" 
d="M99 560h69v-560h-69v560zM44 591l-26 48l206 107l25 -48z" />
    <glyph glyph-name="parenleft.smcp" horiz-adv-x="350" 
d="M303 572q-30 0 -53.5 -10.5t-40.5 -29t-26 -43t-9 -51.5v-434q0 -27 9 -51t26 -42.5t40.5 -29t53.5 -10.5v-60q-45 0 -81 15.5t-61.5 42t-39 61.5t-13.5 74v434q0 39 13.5 74t39 61.5t61.5 42t81 15.5v-59z" />
    <glyph glyph-name="Ibreve.smcp" horiz-adv-x="268" 
d="M100 560h69v-560h-69v560zM24 710q9 -32 38.5 -50t72.5 -18q41 0 71.5 18t37.5 50h57q-4 -28 -19 -50t-37.5 -37.5t-50.5 -24t-59 -8.5t-59 8.5t-50.5 24t-37.5 38t-20 49.5h56z" />
    <glyph glyph-name="uni0438.002" horiz-adv-x="560" 
d="M477 443v-443h-65v96q-19 -45 -62 -76t-106 -31q-45 0 -78 15t-55 41q-20 25 -29.5 58t-9.5 80v260h66v-241q0 -33 7 -61t22.5 -48.5t39.5 -32.5t59 -12q37 0 64.5 14.5t45.5 38.5t27 54t9 61v227h65z" />
    <glyph glyph-name="Dcroat.smcp" horiz-adv-x="630" 
d="M272 560q69 0 123 -23.5t91 -62.5t56.5 -89.5t19.5 -104.5t-19.5 -104.5t-56.5 -89.5t-91 -62.5t-123 -23.5h-172v255h-110v54h110v251h172zM279 255h-112v-195h103q53 0 95 18.5t70.5 49.5t43.5 70.5t15 81.5t-15 81.5t-43.5 70.5t-70.5 49.5t-95 18.5h-103v-191h112
v-54z" />
    <glyph glyph-name="Scaron.smcp" horiz-adv-x="535" 
d="M139 175q0 -59 36.5 -94.5t99.5 -35.5q56 0 89 26.5t33 73.5q0 28 -10.5 46t-27.5 30t-38.5 19.5t-44.5 13.5q-37 11 -70.5 22.5t-59 30t-40.5 46.5t-15 72q0 33 13.5 60t37.5 46.5t57.5 30.5t74.5 11q85 0 131.5 -47.5t48.5 -122.5h-68q-2 53 -30.5 83t-81.5 30
q-55 0 -85 -25t-30 -65q0 -27 10 -45t26.5 -30t38.5 -19.5t46 -13.5q33 -9 66 -20.5t59 -30t42.5 -46.5t16.5 -70q0 -39 -14 -69.5t-39.5 -51.5t-61 -32t-78.5 -11q-44 0 -81 13.5t-63.5 38t-41 59t-14.5 77.5h68zM142 727l33 41l99 -91l101 91l33 -41l-134 -119z" />
    <glyph glyph-name="Nacute.smcp" horiz-adv-x="612" 
d="M445 107v453h67v-560h-72l-273 451v-451h-67v560h73zM220 597l-26 48l205 108l26 -48z" />
    <glyph glyph-name="Q.smcp" horiz-adv-x="716" 
d="M648 280q0 -53 -16 -99.5t-45.5 -83t-70 -61.5t-88.5 -35l51 -70q-5 -2 -13 -6.5l-17 -9.5t-17.5 -9l-12.5 -6l-62 87q-68 0 -121.5 24.5t-91 65t-57 93.5t-19.5 110t20 110t57.5 93.5t91 65t121.5 24.5t121.5 -24.5t91 -65t57.5 -93.5t20 -110zM358 49q51 0 92 19
t69.5 51.5t44 74t15.5 86.5t-15.5 86.5t-44 74t-69.5 51.5t-92 19t-92 -19t-69.5 -51.5t-43.5 -74t-15 -86.5t15 -86.5t43.5 -74t69.5 -51.5t92 -19z" />
    <glyph glyph-name="Eth.smcp" horiz-adv-x="630" 
d="M271 560q69 0 123.5 -23.5t91.5 -62.5t56.5 -89.5t19.5 -104.5t-19.5 -104.5t-56.5 -89.5t-91.5 -62.5t-123.5 -23.5h-171v253h-88v55h88v252h171zM259 253h-92v-193h102q54 0 95.5 18.5t70 49.5t43.5 70.5t15 81.5t-15 81.5t-43.5 70.5t-70 49.5t-95.5 18.5h-102v-192
h92v-55z" />
    <glyph glyph-name="Tbar.smcp" horiz-adv-x="455" 
d="M374 341h-113v-341h-67v341h-109v53h109v106h-147v60h361v-60h-147v-106h113v-53z" />
    <glyph glyph-name="Lcommaaccent.smcp" horiz-adv-x="414" 
d="M100 560h67v-500h188v-60h-255v560zM176 -57q0 17 11.5 30t30.5 13q24 0 38.5 -19t14.5 -48q0 -51 -24.5 -71.5t-67.5 -20.5v27q29 0 42 12t15 29q0 11 -3 13q-8 -6 -17 -6q-18 0 -29 12t-11 29z" />
    <glyph glyph-name="Y.smcp" horiz-adv-x="532" 
d="M214 0h-75l112 218l-211 342h79l168 -274l138 274h75z" />
    <glyph glyph-name="Ncaron.smcp" horiz-adv-x="612" 
d="M445 107v453h67v-560h-72l-273 451v-451h-67v560h73zM178 717l34 41l98 -91l101 91l34 -41l-135 -119z" />
    <glyph glyph-name="Uogonek.smcp" horiz-adv-x="569" 
d="M375 -158q-14 -5 -32 -8.5t-39 -3.5q-48 0 -71.5 23t-23.5 55q0 43 50 81q-39 4 -70 20.5t-53 41.5t-34 57.5t-12 68.5v383h68v-382q0 -27 9 -50.5t25.5 -41t39.5 -28t52 -10.5t52.5 10.5t40.5 28t26 41t9 50.5v382h66v-383q0 -37 -12.5 -70t-35.5 -58.5t-55.5 -41
t-73.5 -18.5q-17 -14 -26.5 -30.5t-9.5 -34.5q0 -21 14.5 -36.5t40.5 -15.5q14 0 29.5 3.5t27.5 8.5z" />
    <glyph glyph-name="Rcaron.smcp" horiz-adv-x="562" 
d="M100 560h203q43 0 78 -15t59.5 -41t38 -60t13.5 -72q0 -62 -34 -110.5t-94 -66.5l125 -195h-79l-117 184h-126v-184h-67v560zM167 502v-260h130q29 0 52.5 10.5t40 28.5t25.5 41.5t9 49.5q0 27 -9 50.5t-25.5 41t-39.5 28t-52 10.5h-131zM141 717l33 41l99 -90l101 90
l33 -41l-134 -118z" />
    <glyph glyph-name="three.denominator" horiz-adv-x="373" 
d="M103 117q0 -36 22 -57t58 -21t56 20t20 49q0 31 -19.5 50.5t-57.5 19.5h-33v44h33q36 0 53.5 17.5t17.5 46.5t-18.5 45.5t-50.5 16.5q-37 0 -54.5 -19t-17.5 -51h-55q0 48 31 81t94 33q54 0 90 -27.5t36 -77.5q0 -34 -18.5 -57t-47.5 -30q32 -8 52 -33t20 -62
q0 -52 -37.5 -82t-92.5 -30q-63 0 -99.5 34.5t-36.5 89.5h55z" />
    <glyph glyph-name="Obreve.smcp" horiz-adv-x="716" 
d="M358 -13q-68 0 -121.5 24.5t-91 65t-57.5 93.5t-20 110t20 110t57.5 93.5t91 65t121.5 24.5t121.5 -24.5t91 -65t57.5 -93.5t20 -110t-20 -110t-57.5 -93.5t-91 -65t-121.5 -24.5zM358 49q51 0 92 19t69.5 51.5t44 74t15.5 86.5t-15.5 86.5t-44 74t-69.5 51.5t-92 19
t-92 -19t-69.5 -51.5t-43.5 -74t-15 -86.5t15 -86.5t43.5 -74t69.5 -51.5t92 -19zM247 710q10 -32 39.5 -50.5t71.5 -18.5t72 18.5t38 50.5h56q-3 -28 -18 -50.5t-37.5 -38t-51 -24t-59.5 -8.5t-59 8.5t-50.5 24t-37.5 38t-19 50.5h55z" />
    <glyph glyph-name="Lacute.smcp" horiz-adv-x="413" 
d="M354 60v-60h-255v560h67v-500h188zM82 597l-25 48l205 108l25 -48z" />
    <glyph glyph-name="two.plf.smcp" horiz-adv-x="514" 
d="M78 0q0 66 10.5 111.5t31 76.5t51 52t71.5 39q27 12 50 23.5t40.5 27t27.5 36t10 49.5q0 45 -28.5 71.5t-79.5 26.5q-53 0 -84.5 -32t-31.5 -88h-68q0 39 13 71t37 55.5t58 36.5t76 13q79 0 127.5 -41.5t48.5 -117.5q0 -38 -14.5 -66.5t-37 -49t-49 -35t-51.5 -25.5
q-38 -17 -63 -34t-40 -37t-21.5 -45.5t-6.5 -59.5h284v-58h-361v0z" />
    <glyph glyph-name="C.smcp" horiz-adv-x="692" 
d="M626 171q-11 -39 -34.5 -72.5t-57.5 -58t-77.5 -39t-94.5 -14.5q-69 0 -123.5 24t-92.5 64.5t-58 93.5t-20 112q0 57 19.5 109.5t56.5 93t90 65t119 24.5q60 0 107.5 -16t81.5 -44t55 -65.5t29 -80.5h-70q-8 31 -24 57t-41 45.5t-58 30.5t-75 11q-53 0 -94 -19t-69.5 -51
t-43.5 -73.5t-15 -86.5q0 -47 15.5 -89.5t45.5 -74t73 -50t97 -18.5q66 0 116.5 34.5t70.5 87.5h72z" />
    <glyph glyph-name="ampersand.smcp" horiz-adv-x="556" 
d="M317 244h188v-57h-52q0 -43 -12 -79t-36 -62t-59.5 -40.5t-81.5 -14.5q-39 0 -74 11.5t-61 32.5t-41 51.5t-15 69.5q0 51 29.5 85.5t78.5 48.5q-46 13 -72 45t-26 83q0 35 13.5 63t37.5 47.5t56.5 30t70.5 10.5q42 0 75 -12t56 -34t35 -51.5t12 -64.5h-67q0 48 -28 77
t-85 29q-50 0 -79.5 -25.5t-29.5 -70.5q0 -42 27.5 -70t86.5 -28h22v-57h-22q-62 0 -92.5 -30t-30.5 -78q0 -45 32.5 -75.5t91.5 -30.5q62 0 91.5 39.5t30.5 99.5h-70v57z" />
    <glyph glyph-name="J.smcp" horiz-adv-x="509" 
d="M418 177q0 -88 -49 -139t-134 -51q-42 0 -76.5 14t-59 39.5t-38 60t-13.5 76.5h67q0 -60 34 -94.5t86 -34.5q53 0 84.5 34t31.5 95v383h67v-383z" />
    <glyph glyph-name="Amacron.smcp" horiz-adv-x="529" 
d="M489 0h-73l-33 97h-238l-33 -97h-72l195 560h58zM163 154h202l-101 313zM408 638h-289v53h289v-53z" />
    <glyph glyph-name="nine.denominator" horiz-adv-x="370" 
d="M186 391q31 0 56 -10.5t42.5 -28.5t27 -41.5t9.5 -50.5q0 -41 -22 -74l-117 -186h-62l90 140q-5 -5 -13 -7.5t-16 -2.5q-60 2 -95.5 39t-35.5 91q0 27 9.5 50.5t27 41.5t42.5 28.5t57 10.5zM186 345q-38 0 -59.5 -25t-21.5 -60t21.5 -59.5t59.5 -24.5q37 0 59 24.5
t22 59.5t-22 60t-59 25z" />
    <glyph glyph-name="Aring.smcp" horiz-adv-x="529" 
d="M489 0h-73l-33 97h-238l-33 -97h-72l195 560h58zM163 154h202l-101 313zM264 785q21 0 39.5 -8t32 -22t21.5 -32t8 -39t-8 -39t-21.5 -32t-32 -22t-39.5 -8t-39.5 8t-32 22t-21.5 32t-8 39t8 39.5t21.5 32t32 21.5t39.5 8zM264 742q-24 0 -40.5 -17t-16.5 -41
q0 -23 16.5 -40t40.5 -17t40.5 17t16.5 40t-16 40.5t-41 17.5z" />
    <glyph glyph-name="Idotaccent.smcp" horiz-adv-x="268" 
d="M100 560h68v-560h-68v560zM82 669q0 23 14.5 38t36.5 15q23 0 37.5 -15t14.5 -38q0 -21 -14.5 -36t-37.5 -15q-22 0 -36.5 15t-14.5 36z" />
    <glyph glyph-name="Hcircumflex.smcp" horiz-adv-x="608" 
d="M441 249h-274v-249h-67v560h67v-252h274v252h68v-560h-68v249zM304 758l148 -119l-37 -41l-111 90l-110 -89l-38 40z" />
    <glyph glyph-name="three.numerator" horiz-adv-x="373" 
d="M103 432q0 -36 22 -57t58 -21t56 20t20 49q0 31 -19.5 50.5t-57.5 19.5h-33v44h33q36 0 53.5 17.5t17.5 46.5t-18.5 45.5t-50.5 16.5q-37 0 -54.5 -19t-17.5 -51h-55q0 48 31 81t94 33q54 0 90 -27.5t36 -77.5q0 -34 -18.5 -57t-47.5 -30q32 -8 52 -33t20 -62
q0 -52 -37.5 -82t-92.5 -30q-63 0 -99.5 34.5t-36.5 89.5h55z" />
    <glyph glyph-name="uni0437.002" horiz-adv-x="469" 
d="M86 -74q1 -31 12.5 -56t30.5 -43t44.5 -28t54.5 -10q57 0 94.5 39.5t37.5 112.5q0 33 -8 62.5t-24.5 52t-42 35.5t-60.5 13h-45v49h45q56 0 88 35t32 93q0 53 -28 86t-82 33q-58 0 -88.5 -32.5t-30.5 -83.5h-64q0 38 13.5 69t38 53.5t58.5 34.5t75 12q81 0 126 -45.5
t45 -119.5q0 -65 -29.5 -104t-82.5 -52q29 -6 53 -22.5t41 -42t26 -57.5t9 -68q0 -50 -15 -89t-41.5 -65.5t-63 -40.5t-80.5 -14q-45 0 -82 13.5t-64 38t-42 60.5t-15 81h64z" />
    <glyph glyph-name="Racute.smcp" horiz-adv-x="562" 
d="M100 560h203q43 0 78 -15t59.5 -41t38 -60t13.5 -72q0 -62 -34 -110.5t-94 -66.5l125 -195h-79l-117 184h-126v-184h-67v560zM167 502v-260h130q29 0 52.5 10.5t40 28.5t25.5 41.5t9 49.5q0 27 -9 50.5t-25.5 41t-39.5 28t-52 10.5h-131zM191 597l-25 48l205 108l25 -48z
" />
    <glyph glyph-name="Scommaaccent.smcp" horiz-adv-x="535" 
d="M139 175q0 -59 36.5 -94.5t99.5 -35.5q56 0 89 26.5t33 73.5q0 28 -10.5 46t-27.5 30t-38.5 19.5t-44.5 13.5q-37 11 -70.5 22.5t-59 30t-40.5 46.5t-15 72q0 33 13 60t37 46.5t57.5 30.5t74.5 11q84 0 131.5 -47.5t49.5 -122.5h-68q-2 53 -30.5 83t-81.5 30
q-55 0 -85 -25t-30 -65q0 -27 10 -45t26.5 -30t38.5 -19.5t46 -13.5q33 -9 66 -20.5t59 -30t42.5 -46.5t16.5 -70q0 -39 -14 -69.5t-39.5 -51.5t-61 -32t-78.5 -11q-44 0 -81 13.5t-63.5 38t-41 59t-14.5 77.5h68zM232 -65q0 17 12 29.5t31 12.5q24 0 38.5 -19t14.5 -48
q0 -50 -25 -70.5t-67 -20.5v27q29 0 42 11.5t15 29.5q0 10 -4 12q-2 -2 -7 -3.5t-9 -1.5q-19 0 -30 12t-11 29z" />
    <glyph glyph-name="Icircumflex.smcp" horiz-adv-x="268" 
d="M100 560h68v-560h-68v560zM134 758l148 -119l-36 -41l-112 90l-110 -90l-37 41z" />
    <glyph glyph-name="A.smcp" horiz-adv-x="529" 
d="M489 0h-73l-33 97h-238l-33 -97h-72l195 560h58zM163 154h202l-101 313z" />
    <glyph glyph-name="E.smcp" horiz-adv-x="507" 
d="M167 502v-196h245v-56h-245v-192h245v-58h-312v560h312v-58h-245z" />
    <glyph glyph-name="AEacute.smcp" horiz-adv-x="757" 
d="M416 502v-196h244v-56h-244v-192h244v-58h-312v98h-191l-47 -98h-74l279 560h345v-58h-244zM348 155v334l-164 -334h164zM365 597l-25 48l205 108l25 -48z" />
    <glyph glyph-name="Adieresis.001.smcp" horiz-adv-x="529" 
d="M237 592h-47l70 104h46zM330 592h-46l69 104h46zM489 0h-73l-33 97h-238l-33 -97h-72l195 560h58zM163 154h202l-101 313z" />
    <glyph glyph-name="Abreve.smcp" horiz-adv-x="529" 
d="M489 0h-73l-33 97h-238l-33 -97h-72l195 560h58zM163 154h202l-101 313zM154 710q9 -32 38.5 -50t71.5 -18t72 18t38 50h56q-3 -28 -18 -50t-37.5 -37.5t-51 -24t-59.5 -8.5t-59 8.5t-50 24t-37 38t-20 49.5h56z" />
    <glyph glyph-name="Udieresis.smcp" horiz-adv-x="569" 
d="M90 560h68v-382q0 -27 9 -50.5t25.5 -41t39.5 -28t52 -10.5t52.5 10.5t40.5 28t26 41t9 50.5v382h66v-383q0 -39 -13.5 -73.5t-39 -60.5t-61 -41t-80.5 -15q-44 0 -80 15t-61.5 41t-39 60.5t-13.5 73.5v383zM325 666q0 21 14.5 36.5t37.5 15.5q22 0 37 -15.5t15 -36.5
q0 -22 -15 -37t-37 -15q-23 0 -37.5 15t-14.5 37zM138 666q0 21 15 36.5t37 15.5t37 -15.5t15 -36.5q0 -22 -15 -37t-37 -15t-37 15t-15 37z" />
    <glyph glyph-name="six.numerator" horiz-adv-x="370" 
d="M184 309q-32 0 -57 10.5t-42.5 28.5t-27 41.5t-9.5 50.5q0 41 22 74l117 186h63l-90 -140q8 5 18.5 6.5t21.5 0.5q55 -4 87 -40.5t32 -86.5q0 -27 -9.5 -50.5t-27 -41.5t-42.5 -28.5t-56 -10.5zM184 355q37 0 59 25t22 60t-22 59.5t-59 24.5q-38 0 -59.5 -24.5
t-21.5 -59.5t21.5 -60t59.5 -25z" />
    <glyph glyph-name="Cacute.smcp" horiz-adv-x="692" 
d="M626 171q-11 -39 -34.5 -72.5t-57.5 -58t-77.5 -39t-94.5 -14.5q-69 0 -123.5 24t-92.5 64.5t-58 93.5t-20 112q0 57 19.5 109.5t56.5 93t90 65t119 24.5q60 0 107.5 -16t81.5 -44t55 -65.5t29 -80.5h-70q-8 31 -24 57t-41 45.5t-58 30.5t-75 11q-53 0 -94 -19t-69.5 -51
t-43.5 -73.5t-15 -86.5q0 -47 15.5 -89.5t45.5 -74t73 -50t97 -18.5q66 0 116.5 34.5t70.5 87.5h72zM263 597l-25 48l206 108l25 -48z" />
    <glyph glyph-name="minus.numerator" horiz-adv-x="384" 
d="M78 451v43h228v-43h-228z" />
    <glyph glyph-name="Uacute.smcp" horiz-adv-x="569" 
d="M90 560h68v-382q0 -27 9 -50.5t25.5 -41t39.5 -28t52 -10.5t52.5 10.5t40.5 28t26 41t9 50.5v382h66v-383q0 -39 -13.5 -73.5t-39 -60.5t-61 -41t-80.5 -15q-44 0 -80 15t-61.5 41t-39 60.5t-13.5 73.5v383zM186 597l-26 48l206 108l25 -48z" />
    <glyph glyph-name="Aacute.smcp" horiz-adv-x="529" 
d="M489 0h-73l-33 97h-238l-33 -97h-72l195 560h58zM163 154h202l-101 313zM174 590l-25 48l206 107l25 -47z" />
    <glyph glyph-name="Imacron.smcp" horiz-adv-x="268" 
d="M99 560h69v-560h-69v560zM278 638h-288v53h288v-53z" />
    <glyph glyph-name="equal.denominator" horiz-adv-x="384" 
d="M78 183v43h228v-43h-228zM78 85v44h228v-44h-228z" />
    <glyph glyph-name="F.smcp" horiz-adv-x="503" 
d="M167 501v-211h245v-59h-245v-231h-67v560h312v-59h-245z" />
    <glyph glyph-name="one.numerator" horiz-adv-x="253" 
d="M47 634q26 0 42.5 4t25.5 12t12.5 20.5t3.5 29.5h50v-385h-56v279h-78v40z" />
    <glyph glyph-name="parenleft.denominator" horiz-adv-x="257" 
d="M217 384q-40 0 -63 -26.5t-23 -63.5v-285q0 -37 23 -63.5t63 -26.5v-47q-32 0 -58 11t-44 29.5t-28 43.5t-10 53v285q0 28 10 53t28 43.5t44 29.5t58 11v-47z" />
    <glyph glyph-name="exclamdown.smcp" horiz-adv-x="303" 
d="M118 391h69v-396h-69v396zM99 514q0 23 15 38.5t38 15.5t38.5 -15.5t15.5 -38.5t-15.5 -38.5t-38.5 -15.5t-38 15.5t-15 38.5z" />
    <glyph glyph-name="brokenbar.smcp" horiz-adv-x="300" 
d="M100 267v364h64v-364h-64zM164 193v-364h-64v364h64z" />
    <glyph glyph-name="D.smcp" horiz-adv-x="630" 
d="M272 560q69 0 123 -23.5t91 -62.5t56.5 -89.5t19.5 -104.5t-19.5 -104.5t-56.5 -89.5t-91 -62.5t-123 -23.5h-172v560h172zM167 500v-440h103q53 0 94.5 18.5t70 49.5t43.5 70.5t15 81.5t-15 81.5t-43.5 70.5t-70 49.5t-94.5 18.5h-103z" />
    <glyph glyph-name="Gdotaccent.smcp" horiz-adv-x="735" 
d="M400 264h280v-55h-58q-7 -50 -27.5 -90.5t-53.5 -70t-79.5 -45.5t-105.5 -16q-70 0 -123.5 24.5t-90 65t-55.5 93.5t-19 110t20 109.5t57 93.5t90.5 65.5t120.5 24.5q47 0 87.5 -13t71.5 -35t51 -51.5t27 -63.5h-71q-13 42 -57.5 72t-108.5 30q-52 0 -92.5 -19.5
t-69 -51.5t-43.5 -74t-15 -88q0 -45 14.5 -87t43 -74.5t70.5 -51.5t98 -19q43 0 76.5 12t57.5 34t38 51.5t18 64.5h-152v55zM304 669q0 23 15 38t36 15q23 0 38 -15t15 -38q0 -21 -15 -36t-38 -15q-21 0 -36 15t-15 36z" />
    <glyph glyph-name="three.plf.smcp" horiz-adv-x="528" 
d="M134 168q0 -55 34.5 -87t89.5 -32q56 0 87.5 30.5t31.5 75.5q0 48 -30 78t-90 30h-46v56h46q57 0 84 27t27 71q0 45 -29.5 70.5t-79.5 25.5q-56 0 -84 -29t-28 -77h-68q0 34 12 64t34.5 51.5t55.5 34t75 12.5q38 0 71 -10.5t57 -30t38 -47.5t14 -63q0 -49 -26.5 -83
t-71.5 -45q48 -11 77.5 -47.5t29.5 -90.5q0 -37 -14.5 -66.5t-39.5 -50.5t-59 -32.5t-74 -11.5q-43 0 -78.5 12.5t-60.5 36t-39 56t-14 72.5h68z" />
    <glyph glyph-name="five.smcp" horiz-adv-x="545" 
d="M95 560h333v-57h-270v-206q9 16 23 28t31 20.5t36 13t38 4.5q43 0 77 -15t56.5 -40t34.5 -58.5t12 -70.5q0 -38 -13.5 -72.5t-38.5 -60t-60.5 -40.5t-80.5 -15q-44 0 -79.5 15t-60.5 40.5t-38.5 60t-13.5 72.5h68q0 -26 8.5 -49.5t25 -41t39 -28t51.5 -10.5t52 10.5
t39.5 28t25.5 41t9 49.5t-9 49t-25.5 40.5t-39.5 27.5t-52 10q-79 0 -110 -69h-68v323z" />
    <glyph glyph-name="Edieresis.001" horiz-adv-x="543" 
d="M244 740h-52l87 130h52zM356 740h-52l87 130h52zM151 638v-259h314v-62h-314v-255h314v-62h-382v700h382v-62h-314z" />
    <glyph glyph-name="Aringacute.smcp" horiz-adv-x="529" 
d="M416 0l-33 97h-238l-33 -97h-72l191 551q-9 2 -18 17.5t-9 32.5q0 25 17 42.5t42 17.5t42.5 -17.5t17.5 -42.5q0 -16 -9 -31.5t-18 -18.5l193 -551h-73zM264 467l-101 -313h202zM169 635l-17 32l196 104l17 -32zM263 631q-12 0 -20.5 -9t-8.5 -21q0 -11 8 -20t21 -9
q14 0 21.5 9.5t7.5 20.5t-8 20t-21 9z" />
    <glyph glyph-name="Gcircumflex.smcp" horiz-adv-x="735" 
d="M400 264h280v-55h-58q-7 -50 -27.5 -90.5t-53.5 -70t-79.5 -45.5t-105.5 -16q-70 0 -123.5 24.5t-90 65t-55.5 93.5t-19 110t20 109.5t57 93.5t90.5 65.5t120.5 24.5q47 0 87.5 -13t71.5 -35t51 -51.5t27 -63.5h-71q-13 42 -57.5 72t-108.5 30q-52 0 -92.5 -19.5
t-69 -51.5t-43.5 -74t-15 -88q0 -45 14.5 -87t43 -74.5t70.5 -51.5t98 -19q43 0 76.5 12t57.5 34t38 51.5t18 64.5h-152v55zM356 759l148 -119l-36 -41l-112 90l-111 -89l-37 40z" />
    <glyph glyph-name="equal.numerator" horiz-adv-x="384" 
d="M78 498v43h228v-43h-228zM78 400v44h228v-44h-228z" />
    <glyph glyph-name="Egrave.smcp" horiz-adv-x="507" 
d="M167 502v-196h245v-56h-245v-192h245v-58h-312v560h312v-58h-245zM149 698l26 48l205 -107l-26 -49z" />
    <glyph glyph-name="Edotaccent.smcp" horiz-adv-x="507" 
d="M167 502v-196h245v-56h-245v-192h245v-58h-312v560h312v-58h-245zM202 669q0 23 14.5 38t36.5 15t37 -15t15 -38q0 -21 -15 -36t-37 -15t-36.5 15t-14.5 36z" />
    <glyph glyph-name="R.smcp" horiz-adv-x="562" 
d="M100 560h203q43 0 78 -15t59.5 -41t38 -60t13.5 -72q0 -62 -34 -110.5t-94 -66.5l125 -195h-79l-117 184h-126v-184h-67v560zM297 242q29 0 52.5 10.5t40 28.5t25.5 41.5t9 49.5q0 27 -9 50.5t-25.5 41t-39.5 28t-52 10.5h-131v-260h130z" />
    <glyph glyph-name="P.smcp" horiz-adv-x="555" 
d="M100 560h203q43 0 78 -15t59.5 -41t38 -60t13.5 -72t-13.5 -72t-38 -60t-59.5 -41t-78 -15h-136v-184h-67v560zM297 242q29 0 52.5 10.5t40 28.5t25.5 41.5t9 49.5q0 27 -9 50.5t-25.5 41t-39.5 28t-52 10.5h-131v-260h130z" />
    <glyph glyph-name="Ecaron.smcp" horiz-adv-x="507" 
d="M167 502v-196h245v-56h-245v-192h245v-58h-312v560h312v-58h-245zM120 717l33 41l100 -91l100 91l34 -41l-134 -119z" />
    <glyph glyph-name="Uring.smcp" horiz-adv-x="569" 
d="M90 560h68v-382q0 -27 9 -50.5t25.5 -41t39.5 -28t52 -10.5t52.5 10.5t40.5 28t26 41t9 50.5v382h66v-383q0 -39 -13.5 -73.5t-39 -60.5t-61 -41t-80.5 -15q-44 0 -80 15t-61.5 41t-39 60.5t-13.5 73.5v383zM285 785q21 0 39 -8t31.5 -22t21.5 -32t8 -39t-8 -39
t-21.5 -32t-31.5 -22t-39 -8t-40 8t-32.5 22t-21.5 32t-8 39t8 39.5t21.5 32t32.5 21.5t40 8zM285 742q-25 0 -41.5 -17t-16.5 -41q0 -23 17 -40t41 -17q23 0 39.5 17t16.5 40t-16.5 40.5t-39.5 17.5z" />
    <glyph glyph-name="Thorn.smcp" horiz-adv-x="478" 
d="M161 457h70q45 0 80 -15t59 -39.5t37 -57.5t13 -69t-13 -68.5t-37 -57.5t-59 -40t-80 -15h-70v-95h-62v560h62v-103zM161 150h70q30 0 53 10.5t39.5 27.5t25 40t8.5 48t-8.5 48t-25 40.5t-39.5 28t-53 10.5h-70v-253z" />
    <glyph glyph-name="M.smcp" horiz-adv-x="734" 
d="M634 0h-67v429l-174 -429h-52l-175 429v-429h-66v560h72l195 -467l195 467h72v-560z" />
    <glyph glyph-name="Wcircumflex.smcp" horiz-adv-x="840" 
d="M420 450l-136 -450h-55l-191 560h71l147 -455l137 455h54l137 -455l147 455h71l-191 -560h-55zM420 758l147 -119l-36 -41l-111 90l-111 -89l-37 40z" />
    <glyph glyph-name="questiondown.smcp" horiz-adv-x="475" 
d="M288 405q0 -30 -4.5 -52.5t-14 -39.5t-24.5 -30.5t-35 -26.5l-25.5 -17.5t-25 -22.5t-19.5 -30.5t-8 -41.5q0 -47 28.5 -71.5t80.5 -24.5t83.5 32t31.5 88h67q0 -39 -13 -71.5t-37 -56t-57.5 -36.5t-74.5 -13q-78 0 -127 40.5t-49 112.5q0 31 9.5 54t23.5 40t29 28.5
t27 19.5q18 12 30.5 22t21 23t12.5 30t4 44h66zM310 516q0 -23 -16 -38.5t-39 -15.5t-39 15.5t-16 38.5t16 39t39 16t39 -16t16 -39z" />
    <glyph glyph-name="Dcaron.smcp" horiz-adv-x="630" 
d="M272 560q69 0 123 -23.5t91 -62.5t56.5 -89.5t19.5 -104.5t-19.5 -104.5t-56.5 -89.5t-91 -62.5t-123 -23.5h-172v560h172zM167 500v-440h103q53 0 94.5 18.5t70 49.5t43.5 70.5t15 81.5t-15 81.5t-43.5 70.5t-70 49.5t-94.5 18.5h-103zM174 717l34 41l99 -91l101 91
l33 -41l-134 -119z" />
    <glyph glyph-name="two.denominator" horiz-adv-x="363" 
d="M55 0q0 46 7 77.5t21.5 53t35.5 36t48 26.5q18 8 34 16.5t28 19t18.5 24t6.5 32.5q0 29 -18.5 46t-50.5 17q-34 0 -54 -20.5t-20 -57.5h-55q0 53 34.5 87.5t94.5 34.5q54 0 89 -28.5t35 -82.5q0 -26 -10 -45.5t-25 -33.5t-33 -24.5t-35 -18.5q-50 -23 -69 -46.5
t-19 -66.5h192v-46h-255v0z" />
    <glyph glyph-name="Kcommaaccent.smcp" horiz-adv-x="542" 
d="M417 0l-250 259v-259h-67v560h67v-260l250 260h84l-268 -280l268 -280h-84zM233 -56q0 17 12 29.5t31 12.5q24 0 38.5 -19t14.5 -48q0 -50 -25 -70.5t-67 -20.5v27q29 0 42 11.5t15 29.5q0 6 -1 8.5t-2 3.5q-8 -6 -17 -6q-18 0 -29.5 12.5t-11.5 29.5z" />
    <glyph glyph-name="H.smcp" horiz-adv-x="608" 
d="M441 249h-274v-249h-67v560h67v-252h274v252h68v-560h-68v249z" />
    <glyph glyph-name="uni021A.smcp" horiz-adv-x="455" 
d="M194 500h-147v60h361v-60h-147v-500h-67v500zM183 -57q0 17 12.5 30t31.5 13q24 0 38.5 -19t14.5 -48q0 -51 -25 -71.5t-67 -20.5v27q28 0 41.5 12t15.5 29q0 10 -3 13q-8 -6 -17 -6q-19 0 -30.5 12t-11.5 29z" />
    <glyph glyph-name="Otilde.smcp" horiz-adv-x="716" 
d="M358 -13q-68 0 -121.5 24.5t-91 65t-57.5 93.5t-20 110t20 110t57.5 93.5t91 65t121.5 24.5t121.5 -24.5t91 -65t57.5 -93.5t20 -110t-20 -110t-57.5 -93.5t-91 -65t-121.5 -24.5zM358 49q51 0 92 19t69.5 51.5t44 74t15.5 86.5t-15.5 86.5t-44 74t-69.5 51.5t-92 19
t-92 -19t-69.5 -51.5t-43.5 -74t-15 -86.5t15 -86.5t43.5 -74t69.5 -51.5t92 -19zM214 671q36 23 54.5 27t29.5 4q9 0 25 -3.5l33.5 -7.5l33 -7.5t23.5 -3.5q7 0 12.5 1t12.5 3t16.5 6.5l23.5 11.5l23 -41q-32 -21 -50.5 -25.5t-31.5 -4.5q-11 0 -26.5 3.5l-31.5 7l-31 7
t-26 3.5q-14 0 -28 -4.5t-37 -17.5z" />
    <glyph glyph-name="braceleft.smcp" horiz-adv-x="382" 
d="M319 631v-52h-37q-32 0 -50.5 -22t-18.5 -56v-198q0 -22 -7.5 -37.5t-18.5 -26t-23.5 -16.5t-22.5 -8q10 -3 22.5 -8.5t23.5 -16.5t18.5 -28t7.5 -41v-176q0 -34 18.5 -56t50.5 -22h37v-51h-56q-21 0 -42 7t-37 21.5t-26 36t-10 50.5v180q0 20 -7.5 34.5t-18.5 23.5
t-23.5 13.5t-22.5 4.5v56q10 0 22.5 4t23.5 12.5t18.5 21.5t7.5 32v202q0 29 10 50.5t26 36t37 22t42 7.5h56z" />
    <glyph glyph-name="G.smcp" horiz-adv-x="735" 
d="M400 264h280v-55h-58q-7 -50 -27.5 -90.5t-53.5 -70t-79.5 -45.5t-105.5 -16q-70 0 -123.5 24.5t-90 65t-55.5 93.5t-19 110t20 109.5t57 93.5t90.5 65.5t120.5 24.5q47 0 87.5 -13t71.5 -35t51 -51.5t27 -63.5h-71q-13 42 -57.5 72t-108.5 30q-52 0 -92.5 -19.5
t-69 -51.5t-43.5 -74t-15 -88q0 -45 14.5 -87t43 -74.5t70.5 -51.5t98 -19q43 0 76.5 12t57.5 34t38 51.5t18 64.5h-152v55z" />
    <glyph glyph-name="Ocircumflex.smcp" horiz-adv-x="716" 
d="M358 -13q-68 0 -121.5 24.5t-91 65t-57.5 93.5t-20 110t20 110t57.5 93.5t91 65t121.5 24.5t121.5 -24.5t91 -65t57.5 -93.5t20 -110t-20 -110t-57.5 -93.5t-91 -65t-121.5 -24.5zM358 49q51 0 92 19t69.5 51.5t44 74t15.5 86.5t-15.5 86.5t-44 74t-69.5 51.5t-92 19
t-92 -19t-69.5 -51.5t-43.5 -74t-15 -86.5t15 -86.5t43.5 -74t69.5 -51.5t92 -19zM358 758l148 -119l-36 -41l-112 90l-110 -90l-37 41z" />
    <glyph glyph-name="Adieresis.smcp" horiz-adv-x="529" 
d="M489 0h-73l-33 97h-238l-33 -97h-72l195 560h58zM163 154h202l-101 313zM305 666q0 21 15 36.5t37 15.5t37.5 -15.5t15.5 -36.5q0 -22 -15.5 -37t-37.5 -15t-37 15t-15 37zM119 666q0 21 15 36.5t37 15.5t37 -15.5t15 -36.5q0 -22 -15 -37t-37 -15t-37 15t-15 37z" />
    <glyph glyph-name="four.smcp" horiz-adv-x="545" 
d="M314 186h-219v374h69v-314h150v172h68v-172h87v-60h-87v-186h-68v186z" />
    <glyph glyph-name="Zcaron.smcp" horiz-adv-x="525" 
d="M146 710l33 41l99 -91l101 91l33 -41l-134 -119zM66 560h417l-324 -501h328v-59h-439l324 501h-306v59z" />
    <glyph glyph-name="zero.denominator" horiz-adv-x="388" 
d="M59 266q1 26 11 49t27 40.5t41.5 27.5t55.5 10t56 -10.5t42.5 -28.5t27 -41.5t9.5 -50.5v-143q0 -26 -10 -49t-27.5 -40.5t-42.5 -27.5t-55 -10q-31 0 -56 10.5t-42.5 28.5t-27 41.5t-9.5 50.5v143zM274 262q0 34 -21.5 59t-58.5 25t-58.5 -25t-21.5 -59v-139
q0 -34 21.5 -59t58.5 -25t58.5 25t21.5 59v139z" />
    <glyph glyph-name="Aogonek.smcp" horiz-adv-x="529" 
d="M518 -158q-14 -5 -32 -8.5t-39 -3.5q-48 0 -71.5 23t-23.5 55q0 26 16 47.5t48 44.5l-33 97h-238l-33 -97h-72l195 560h58l196 -560h-30q-22 -16 -36.5 -34.5t-14.5 -41.5q0 -21 14 -36.5t41 -15.5q14 0 29 3.5t27 8.5zM163 154h202l-101 313z" />
    <glyph glyph-name="Ydieresis.smcp" horiz-adv-x="532" 
d="M214 0h-75l112 218l-211 342h79l168 -274l138 274h75zM324 666q0 20 14 35.5t36 15.5q21 0 36 -15.5t15 -35.5q0 -21 -15 -35.5t-36 -14.5q-22 0 -36 14.5t-14 35.5zM137 666q0 20 14.5 35.5t35.5 15.5q22 0 36.5 -15.5t14.5 -35.5q0 -21 -14.5 -35.5t-36.5 -14.5
q-21 0 -35.5 14.5t-14.5 35.5z" />
    <glyph glyph-name="bracketright.smcp" horiz-adv-x="331" 
d="M65 -184v56h102v702h-102v57h166v-815h-166z" />
    <glyph glyph-name="Rcommaaccent.smcp" horiz-adv-x="562" 
d="M100 560h203q43 0 78 -15t59.5 -41t38 -60t13.5 -72q0 -62 -34 -110.5t-94 -66.5l125 -195h-79l-117 184h-126v-184h-67v560zM167 502v-260h130q29 0 52.5 10.5t40 28.5t25.5 41.5t9 49.5q0 27 -9 50.5t-25.5 41t-39.5 28t-52 10.5h-131zM236 -57q0 17 12 30t32 13
q24 0 38.5 -19t14.5 -48q0 -51 -25 -71.5t-67 -20.5v27q28 0 41 12t15 29q0 10 -3 13q-6 -6 -16 -6q-19 0 -30.5 12t-11.5 29z" />
    <glyph glyph-name="ordfeminine.smcp" horiz-adv-x="552" 
d="M452 359v-359h-64v75q-17 -37 -53.5 -60.5t-84.5 -23.5q-41 0 -74.5 15t-57.5 40.5t-37 59.5t-13 73t13 73t37 59.5t57.5 40.5t74.5 15q48 0 84.5 -23t53.5 -60v75h64zM260 48q29 0 53 10.5t40.5 28.5t25.5 41.5t9 50.5t-9 51t-25.5 42t-40.5 28.5t-53 10.5t-52.5 -10.5
t-40 -28.5t-25.5 -42t-9 -51t9 -50.5t25.5 -41.5t40 -28.5t52.5 -10.5z" />
    <glyph glyph-name="Ccaron.smcp" horiz-adv-x="692" 
d="M626 171q-11 -39 -34.5 -72.5t-57.5 -58t-77.5 -39t-94.5 -14.5q-69 0 -123.5 24t-92.5 64.5t-58 93.5t-20 112q0 57 19.5 109.5t56.5 93t90 65t119 24.5q60 0 107.5 -16t81.5 -44t55 -65.5t29 -80.5h-70q-8 31 -24 57t-41 45.5t-58 30.5t-75 11q-53 0 -94 -19t-69.5 -51
t-43.5 -73.5t-15 -86.5q0 -47 15.5 -89.5t45.5 -74t73 -50t97 -18.5q66 0 116.5 34.5t70.5 87.5h72zM218 718l33 41l99 -91l100 91l34 -41l-134 -119z" />
    <glyph glyph-name="Idieresis.smcp" horiz-adv-x="268" 
d="M99 560h69v-560h-69v560zM180 666q0 21 15 36.5t37 15.5t37 -15.5t15 -36.5q0 -22 -15 -37t-37 -15t-37 15t-15 37zM-7 666q0 21 15 36.5t37 15.5t37 -15.5t15 -36.5q0 -22 -15 -37t-37 -15t-37 15t-15 37z" />
    <glyph glyph-name="Eacute.smcp" horiz-adv-x="507" 
d="M167 502v-196h245v-56h-245v-192h245v-58h-312v560h312v-58h-245zM171 597l-25 48l206 108l25 -48z" />
    <glyph glyph-name="eight.numerator" horiz-adv-x="383" 
d="M192 308q-32 0 -57 9t-42 24t-26.5 35.5t-9.5 44.5q0 33 19 59.5t53 34.5q-31 8 -47.5 32t-16.5 53q0 45 33.5 76t93.5 31q59 0 92.5 -31t33.5 -76q0 -29 -16.5 -53t-47.5 -32q34 -8 53 -34.5t19 -59.5q0 -47 -35.5 -80t-98.5 -33zM192 534q34 0 53.5 18.5t19.5 45.5
q0 28 -19.5 46.5t-53.5 18.5q-35 0 -54 -18.5t-19 -46.5q0 -27 19 -45.5t54 -18.5zM192 352q37 0 58.5 20.5t21.5 49.5t-21 49.5t-59 20.5t-59 -20.5t-21 -49.5q0 -30 21 -50t59 -20z" />
    <glyph glyph-name="Udieresis.001" horiz-adv-x="618" 
d="M264 740h-52l87 130h52zM377 740h-52l87 130h52zM73 700h68v-480q0 -35 12 -66.5t33.5 -55t52.5 -37.5t69 -14q39 0 70 14t53 37.5t34 55t12 66.5v480h68v-480q0 -48 -17 -90.5t-47.5 -74.5t-74.5 -51t-98 -19q-53 0 -96.5 19t-74.5 51t-47.5 74.5t-16.5 90.5v480z" />
    <glyph glyph-name="Tcommaaccent.smcp" horiz-adv-x="455" 
d="M194 500h-147v60h361v-60h-147v-500h-67v500zM183 -57q0 17 12.5 30t31.5 13q24 0 38.5 -19t14.5 -48q0 -51 -25 -71.5t-67 -20.5v27q28 0 41.5 12t15.5 29q0 10 -3 13q-8 -6 -17 -6q-19 0 -30.5 12t-11.5 29z" />
    <glyph glyph-name="plus.denominator" horiz-adv-x="383" 
d="M169 44v91h-89v43h89v91h46v-91h89v-43h-89v-91h-46z" />
    <glyph glyph-name="six.smcp" horiz-adv-x="544" 
d="M271 -9q-44 0 -79.5 15t-60.5 40.5t-38.5 60t-13.5 72.5q0 29 8.5 56.5t22.5 50.5l173 274h77l-135 -210q9 8 24 12.5t30 4.5q42 -1 76.5 -16t58.5 -40.5t37 -59.5t13 -72t-13.5 -72.5t-38.5 -60t-60.5 -40.5t-80.5 -15zM271 51q29 0 52 10t39.5 27.5t25.5 41t9 49.5
t-9 49.5t-25.5 41t-39.5 28t-52 10.5t-51.5 -10.5t-39 -28t-25 -41t-8.5 -49.5t8.5 -49.5t25 -41t39 -27.5t51.5 -10z" />
    <glyph glyph-name="Z.smcp" horiz-adv-x="525" 
d="M66 560h417l-324 -501h328v-59h-439l324 501h-306v59z" />
    <glyph glyph-name="four.denominator" horiz-adv-x="375" 
d="M217 124h-151v261h55v-213h96v116h56v-116h57v-48h-57v-124h-56v124z" />
    <glyph glyph-name="uni04F8.001" horiz-adv-x="833" 
 />
    <glyph glyph-name="five.plf.smcp" horiz-adv-x="560" 
d="M106 560h333v-57h-270v-206q17 32 54 49t75 17q43 0 76.5 -15t56 -40t34.5 -58.5t12 -70.5q0 -38 -13.5 -72.5t-38.5 -60t-60.5 -40.5t-79.5 -15t-79.5 15t-60.5 40.5t-38.5 60t-13.5 72.5h67q0 -26 8.5 -49.5t25 -41t39.5 -28t52 -10.5t52 10.5t39.5 28t25 41t8.5 49.5
t-8.5 49t-25 40.5t-39.5 27.5t-52 10q-79 0 -111 -69h-68v323z" />
    <glyph glyph-name="Ubreve.smcp" horiz-adv-x="569" 
d="M90 560h68v-382q0 -27 9 -50.5t25.5 -41t39.5 -28t52 -10.5t52.5 10.5t40.5 28t26 41t9 50.5v382h66v-383q0 -39 -13.5 -73.5t-39 -60.5t-61 -41t-80.5 -15q-44 0 -80 15t-61.5 41t-39 60.5t-13.5 73.5v383zM175 711q9 -32 38 -50.5t72 -18.5q41 0 71.5 18.5t38.5 50.5
h55q-3 -28 -18 -50.5t-37.5 -38t-50.5 -24t-59 -8.5q-32 0 -60 8.5t-50 24t-37 38t-20 50.5h57z" />
    <glyph glyph-name="Ccircumflex.smcp" horiz-adv-x="692" 
d="M626 171q-11 -39 -34.5 -72.5t-57.5 -58t-77.5 -39t-94.5 -14.5q-69 0 -123.5 24t-92.5 64.5t-58 93.5t-20 112q0 57 19.5 109.5t56.5 93t90 65t119 24.5q60 0 107.5 -16t81.5 -44t55 -65.5t29 -80.5h-70q-8 31 -24 57t-41 45.5t-58 30.5t-75 11q-53 0 -94 -19t-69.5 -51
t-43.5 -73.5t-15 -86.5q0 -47 15.5 -89.5t45.5 -74t73 -50t97 -18.5q66 0 116.5 34.5t70.5 87.5h72zM353 761l148 -119l-36 -41l-112 90l-110 -89l-37 40z" />
    <glyph glyph-name="Lcaron.smcp" horiz-adv-x="414" 
d="M355 60v-60h-255v560h67v-500h188zM0 717l32 41l100 -91l101 91l33 -41l-134 -119z" />
    <glyph glyph-name="parenleft.numerator" horiz-adv-x="257" 
d="M217 699q-40 0 -63 -26.5t-23 -63.5v-285q0 -37 23 -63.5t63 -26.5v-47q-32 0 -58 11t-44 29.5t-28 43.5t-10 53v285q0 28 10 53t28 43.5t44 29.5t58 11v-47z" />
    <glyph glyph-name="seven.smcp" horiz-adv-x="545" 
d="M464 560l-258 -560h-73l233 500h-254v60h352z" />
    <glyph glyph-name="Emacron.smcp" horiz-adv-x="507" 
d="M167 502v-196h245v-56h-245v-192h245v-58h-312v560h312v-58h-245zM397 638h-288v53h288v-53z" />
    <glyph glyph-name="IJ.smcp" horiz-adv-x="707" 
d="M616 177q0 -88 -49.5 -139t-133.5 -51q-42 0 -76.5 14t-59 39.5t-38 60t-13.5 76.5h67q0 -60 34 -94.5t86 -34.5q53 0 84 34t31 95v383h68v-383zM100 560h68v-560h-68v560z" />
    <glyph glyph-name="Cdotaccent.smcp" horiz-adv-x="692" 
d="M626 171q-11 -39 -34.5 -72.5t-57.5 -58t-77.5 -39t-94.5 -14.5q-69 0 -123.5 24t-92.5 64.5t-58 93.5t-20 112q0 57 19.5 109.5t56.5 93t90 65t119 24.5q60 0 107.5 -16t81.5 -44t55 -65.5t29 -80.5h-70q-8 31 -24 57t-41 45.5t-58 30.5t-75 11q-53 0 -94 -19t-69.5 -51
t-43.5 -73.5t-15 -86.5q0 -47 15.5 -89.5t45.5 -74t73 -50t97 -18.5q66 0 116.5 34.5t70.5 87.5h72zM301 669q0 22 15 37.5t37 15.5t37 -15.5t15 -37.5q0 -21 -15 -36t-37 -15t-37 15t-15 36z" />
    <glyph glyph-name="Jcircumflex.smcp" horiz-adv-x="509" 
d="M418 177q0 -88 -49 -139t-134 -51q-42 0 -76.5 14t-59 39.5t-38 60t-13.5 76.5h67q0 -60 34 -94.5t86 -34.5q53 0 84.5 34t31.5 95v383h67v-383zM385 758l147 -119l-36 -41l-111 90l-111 -90l-37 41z" />
    <glyph glyph-name="seven.numerator" horiz-adv-x="326" 
d="M300 700l-175 -385h-59l155 338h-171v47h250z" />
    <glyph glyph-name="Uhungarumlaut.smcp" horiz-adv-x="569" 
d="M90 560h68v-382q0 -27 9 -50.5t25.5 -41t39.5 -28t52 -10.5t52.5 10.5t40.5 28t26 41t9 50.5v382h66v-383q0 -39 -13.5 -73.5t-39 -60.5t-61 -41t-80.5 -15q-44 0 -80 15t-61.5 41t-39 60.5t-13.5 73.5v383zM413 753l50 -27l-119 -124l-31 15zM257 753l50 -27l-119 -124
l-31 15z" />
    <glyph glyph-name="Itilde.smcp" horiz-adv-x="268" 
d="M99 560h69v-560h-69v560zM-9 669q36 22 54.5 26t29.5 4q9 0 24.5 -3.5l33 -7.5l33 -7.5t23.5 -3.5q7 0 13 1t13 3.5t16.5 6.5t23.5 11l22 -40q-32 -22 -50 -26.5t-31 -4.5q-12 0 -27 3.5l-31 7l-31 7t-26 3.5q-14 0 -28.5 -4t-37.5 -17z" />
    <glyph glyph-name="I.smcp" horiz-adv-x="268" 
d="M100 560h68v-560h-68v560z" />
    <glyph glyph-name="eight.plf.smcp" horiz-adv-x="544" 
d="M273 -9q-45 0 -80.5 12.5t-60 34.5t-38 51.5t-13.5 63.5q0 49 27.5 88t78.5 50q-47 12 -70.5 47t-23.5 78q0 32 12.5 60t35.5 48.5t56.5 32.5t75.5 12t75 -12t56 -32.5t35.5 -48.5t12.5 -60q0 -43 -23.5 -78t-71.5 -47q51 -12 78.5 -51t27.5 -87q0 -34 -13 -63.5
t-37.5 -51.5t-60 -34.5t-79.5 -12.5zM273 315q53 0 83 28t30 70q0 43 -30.5 71.5t-82.5 28.5q-53 0 -83 -28.5t-30 -71.5q0 -42 29.5 -70t83.5 -28zM273 47q57 0 90 31t33 76t-32.5 76t-90.5 31q-60 0 -92 -30.5t-32 -76.5t33 -76.5t91 -30.5z" />
    <glyph glyph-name="five.numerator" horiz-adv-x="394" 
d="M74 700h235v-44h-184v-133q11 22 35.5 33t50.5 11q30 0 53 -10.5t39 -28t24 -40.5t8 -48q0 -27 -9.5 -51t-27 -42t-42.5 -28.5t-56 -10.5q-32 0 -57 10.5t-42.5 28.5t-27 42t-9.5 50h54q0 -34 22 -59t60 -25q37 0 59 25t22 60q0 34 -21.5 58.5t-59.5 24.5q-51 0 -73 -45
h-53v222z" />
    <glyph glyph-name="K.smcp" horiz-adv-x="542" 
d="M167 259v-259h-67v560h67v-260l250 260h84l-268 -280l268 -280h-84z" />
    <glyph glyph-name="Ccedilla.smcp" horiz-adv-x="692" 
d="M626 171q-11 -38 -33.5 -70.5t-55 -57t-74 -39t-90.5 -16.5h-11v-37q5 8 15.5 13.5t24.5 5.5q28 0 48 -20t20 -51q0 -29 -20.5 -52t-58.5 -23q-11 0 -23.5 3.5t-23.5 11.5t-19.5 21t-10.5 31h38q2 -15 12 -25t27 -10q19 0 30 12.5t11 30.5q0 17 -11 28.5t-30 11.5
q-11 0 -20 -4t-15 -18h-34v73q-60 7 -107 33t-80 65t-50 89t-17 104q0 57 19.5 109.5t56.5 93t90 65t119 24.5q60 0 107.5 -16t81.5 -44t55 -65.5t29 -80.5h-70q-8 31 -24 57t-41 45.5t-58 30.5t-75 11q-53 0 -94 -19t-69.5 -51t-43.5 -73.5t-15 -86.5q0 -47 15.5 -89.5
t45.5 -74t73 -50t97 -18.5q66 0 116.5 34.5t70.5 87.5h72v0z" />
    <glyph glyph-name="Umacron.smcp" horiz-adv-x="569" 
d="M90 560h68v-382q0 -27 9 -50.5t25.5 -41t39.5 -28t52 -10.5t52.5 10.5t40.5 28t26 41t9 50.5v382h66v-383q0 -39 -13.5 -73.5t-39 -60.5t-61 -41t-80.5 -15q-44 0 -80 15t-61.5 41t-39 60.5t-13.5 73.5v383zM429 642h-289v53h289v-53z" />
    <glyph glyph-name="Wdieresis.smcp" horiz-adv-x="840" 
d="M420 450l-136 -450h-55l-191 560h71l147 -455l137 455h54l137 -455l147 455h71l-191 -560h-55zM462 671q0 21 14.5 36t36.5 15q21 0 35.5 -15t14.5 -36t-14.5 -35.5t-35.5 -14.5q-22 0 -36.5 14.5t-14.5 35.5zM276 671q0 21 14.5 36t35.5 15t36 -15t15 -36t-15 -35.5
t-36 -14.5t-35.5 14.5t-14.5 35.5z" />
    <glyph glyph-name="seven.plf.smcp" horiz-adv-x="458" 
d="M422 560l-258 -560h-73l233 500h-255v60h353z" />
    <glyph glyph-name="Odieresis.001" horiz-adv-x="806" 
d="M384 870h52l-87 -130h-52zM461 740h-52l87 130h52zM403 -15q-84 0 -151 30.5t-113.5 81t-71 116.5t-24.5 137t24.5 137t71 116.5t113.5 81t151 30.5t150.5 -30.5t113 -81t71.5 -116.5t25 -137t-25 -137t-71.5 -116.5t-113 -81t-150.5 -30.5zM403 47q67 0 120.5 25.5
t91 67.5t57.5 96.5t20 113.5t-20 113.5t-57.5 96.5t-91 67.5t-120.5 25.5q-68 0 -121.5 -25.5t-90.5 -67.5t-57 -96.5t-20 -113.5t20 -113.5t57 -96.5t90.5 -67.5t121.5 -25.5z" />
    <glyph glyph-name="Ebreve.smcp" horiz-adv-x="506" 
d="M167 502v-196h244v-56h-244v-192h244v-58h-311v560h311v-58h-244zM143 710q9 -32 39 -50.5t72 -18.5t72 18.5t37 50.5h57q-3 -28 -18 -50.5t-37.5 -38t-51 -24t-59.5 -8.5t-59 8.5t-50.5 24t-37.5 38t-20 50.5h56z" />
    <glyph glyph-name="six.denominator" horiz-adv-x="370" 
d="M184 -6q-32 0 -57 10.5t-42.5 28.5t-27 41.5t-9.5 50.5q0 41 22 74l117 186h63l-90 -140q8 5 18.5 6.5t21.5 0.5q55 -4 87 -40.5t32 -86.5q0 -27 -9.5 -50.5t-27 -41.5t-42.5 -28.5t-56 -10.5zM184 40q37 0 59 25t22 60t-22 59.5t-59 24.5q-38 0 -59.5 -24.5t-21.5 -59.5
t21.5 -60t59.5 -25z" />
    <glyph glyph-name="Scedilla.smcp" horiz-adv-x="535" 
d="M139 175q0 -59 36.5 -94.5t99.5 -35.5q56 0 89 26.5t33 73.5q0 29 -11 47.5t-28.5 30.5t-40.5 19.5t-47 13.5q-35 10 -67.5 22t-57.5 30.5t-39.5 46t-14.5 70.5q0 33 13 60t37 46.5t57.5 30.5t74.5 11q84 0 131.5 -47.5t49.5 -122.5h-68q-2 53 -30.5 83t-81.5 30
q-55 0 -85 -25t-30 -65q0 -27 10 -45t27.5 -30t39.5 -19.5t46 -14.5q33 -9 65.5 -20.5t58.5 -30t42 -46t16 -69.5q0 -77 -49.5 -117.5t-131.5 -44.5v-49q6 11 17 16t23 5q29 0 49 -20t20 -51q0 -30 -20.5 -53.5t-59.5 -23.5q-12 0 -25 4t-24 13t-19.5 22.5t-9.5 32.5h38
q2 -17 12.5 -28t27.5 -11q20 0 31.5 12.5t11.5 31.5q0 17 -11.5 29t-30.5 12q-10 0 -19 -4.5t-17 -19.5h-33v82q-39 4 -71 19t-54.5 39t-35 56.5t-12.5 71.5h68z" />
    <glyph glyph-name="Igrave.smcp" horiz-adv-x="268" 
d="M99 560h69v-560h-69v560zM18 698l26 48l205 -108l-25 -48z" />
    <glyph glyph-name="Odieresis.001.smcp" horiz-adv-x="716" 
d="M315 592h-46l70 104h46zM408 592h-45l69 104h46zM358 -13q-68 0 -121.5 24.5t-91 65t-57.5 93.5t-20 110t20 110t57.5 93.5t91 65t121.5 24.5t121.5 -24.5t91 -65t57.5 -93.5t20 -110t-20 -110t-57.5 -93.5t-91 -65t-121.5 -24.5zM358 49q51 0 92 19t69.5 51.5t44 74
t15.5 86.5t-15.5 86.5t-44 74t-69.5 51.5t-92 19t-92 -19t-69.5 -51.5t-43.5 -74t-15 -86.5t15 -86.5t43.5 -74t69.5 -51.5t92 -19z" />
    <glyph glyph-name="Ugrave.smcp" horiz-adv-x="569" 
d="M90 560h68v-382q0 -27 9 -50.5t25.5 -41t39.5 -28t52 -10.5t52.5 10.5t40.5 28t26 41t9 50.5v382h66v-383q0 -39 -13.5 -73.5t-39 -60.5t-61 -41t-80.5 -15q-44 0 -80 15t-61.5 41t-39 60.5t-13.5 73.5v383zM174 705l25 48l206 -108l-25 -48z" />
    <glyph glyph-name="OE.smcp" horiz-adv-x="986" 
d="M646 502v-196h245v-56h-245v-192h245v-58h-312v119q-12 -27 -31.5 -51t-47 -42t-63 -28.5t-79.5 -10.5q-68 0 -121.5 24t-91 64.5t-57.5 93.5t-20 110t20 110t57.5 93.5t91 65t121.5 24.5q40 0 75.5 -10.5t64 -27.5t49.5 -40.5t32 -48.5v115h312v-58h-245zM358 48
q51 0 92 19t69.5 51.5t44 74t15.5 86.5t-15.5 86.5t-44 74t-69.5 51.5t-92 19t-92 -19t-69.5 -51.5t-43.5 -74t-15 -86.5t15 -86.5t43.5 -74t69.5 -51.5t92 -19z" />
    <glyph glyph-name="Gbreve.smcp" horiz-adv-x="735" 
d="M400 264h280v-55h-58q-7 -50 -27.5 -90.5t-53.5 -70t-79.5 -45.5t-105.5 -16q-70 0 -123.5 24.5t-90 65t-55.5 93.5t-19 110t20 109.5t57 93.5t90.5 65.5t120.5 24.5q47 0 87.5 -13t71.5 -35t51 -51.5t27 -63.5h-71q-13 42 -57.5 72t-108.5 30q-52 0 -92.5 -19.5
t-69 -51.5t-43.5 -74t-15 -88q0 -45 14.5 -87t43 -74.5t70.5 -51.5t98 -19q43 0 76.5 12t57.5 34t38 51.5t18 64.5h-152v55zM246 711q9 -33 38.5 -51t71.5 -18t72 18.5t38 50.5h56q-3 -28 -18 -50.5t-37.5 -38t-51 -24t-59.5 -8.5t-59 8.5t-50.5 24t-37.5 38t-20 50.5h57z
" />
    <glyph glyph-name="minus.denominator" horiz-adv-x="384" 
d="M78 136v43h228v-43h-228z" />
    <glyph glyph-name="AE.smcp" horiz-adv-x="757" 
d="M416 502v-196h244v-56h-244v-192h244v-58h-312v98h-191l-47 -98h-74l279 560h345v-58h-244zM348 155v334l-164 -334h164z" />
    <glyph glyph-name="L.smcp" horiz-adv-x="414" 
d="M355 60v-60h-255v560h67v-500h188z" />
    <glyph glyph-name="Udieresis.001.smcp" horiz-adv-x="569" 
d="M249 592h-46l70 104h46zM342 592h-46l70 104h46zM90 560h68v-382q0 -27 9 -50.5t25.5 -41t39.5 -28t52 -10.5t52.5 10.5t40.5 28t26 41t9 50.5v382h66v-383q0 -39 -13.5 -73.5t-39 -60.5t-61 -41t-80.5 -15q-44 0 -80 15t-61.5 41t-39 60.5t-13.5 73.5v383z" />
    <glyph glyph-name="parenright.smcp" horiz-adv-x="350" 
d="M47 631q45 0 81 -15.5t61.5 -42t39.5 -61.5t14 -74v-434q0 -39 -14 -74t-39.5 -61.5t-61.5 -42t-81 -15.5v60q30 0 53.5 10.5t40.5 29t26 42.5t9 51v434q0 27 -9 51.5t-26 43t-40.5 29t-53.5 10.5v59z" />
    <glyph glyph-name="Ecircumflex.smcp" horiz-adv-x="506" 
d="M167 502v-196h244v-56h-244v-192h244v-58h-312v560h312v-58h-244zM255 758l149 -119l-36 -41l-112 90l-111 -90l-37 41z" />
    <glyph glyph-name="Agrave.smcp" horiz-adv-x="529" 
d="M489 0h-73l-33 97h-238l-33 -97h-72l195 560h58zM163 154h202l-101 313zM157 705l25 47l205 -108l-25 -47z" />
    <glyph glyph-name="Gcommaaccent.smcp" horiz-adv-x="735" 
d="M400 264h280v-55h-58q-7 -50 -27.5 -90.5t-53.5 -70t-79.5 -45.5t-105.5 -16q-70 0 -123.5 24.5t-90 65t-55.5 93.5t-19 110t20 109.5t57 93.5t90.5 65.5t120.5 24.5q47 0 87.5 -13t71.5 -35t51 -51.5t27 -63.5h-71q-13 42 -57.5 72t-108.5 30q-52 0 -92.5 -19.5
t-69 -51.5t-43.5 -74t-15 -88q0 -45 14.5 -87t43 -74.5t70.5 -51.5t98 -19q43 0 76.5 12t57.5 34t38 51.5t18 64.5h-152v55zM313 -65q0 17 12 29.5t31 12.5q24 0 39 -19t15 -48q0 -50 -25 -70.5t-67 -20.5v27q28 0 41 11.5t15 29.5q0 5 -2 9q-1 2 -1 3q-7 -5 -17 -5
q-18 0 -29.5 12t-11.5 29z" />
    <glyph glyph-name="V.smcp" horiz-adv-x="533" 
d="M295 0h-58l-200 560h72l157 -465l157 465h72z" />
    <glyph glyph-name="Yacute.smcp" horiz-adv-x="532" 
d="M214 0h-75l112 218l-211 342h79l168 -274l138 274h75zM203 590l-25 47l205 108l25 -48z" />
    <glyph glyph-name="slash.smcp" horiz-adv-x="416" 
d="M332 637l60 -26l-289 -669l-59 25z" />
    <glyph glyph-name="Omacron.smcp" horiz-adv-x="716" 
d="M358 -13q-68 0 -121.5 24.5t-91 65t-57.5 93.5t-20 110t20 110t57.5 93.5t91 65t121.5 24.5t121.5 -24.5t91 -65t57.5 -93.5t20 -110t-20 -110t-57.5 -93.5t-91 -65t-121.5 -24.5zM358 49q51 0 92 19t69.5 51.5t44 74t15.5 86.5t-15.5 86.5t-44 74t-69.5 51.5t-92 19
t-92 -19t-69.5 -51.5t-43.5 -74t-15 -86.5t15 -86.5t43.5 -74t69.5 -51.5t92 -19zM502 638h-289v53h289v-53z" />
    <glyph glyph-name="parenright.denominator" horiz-adv-x="257" 
d="M40 431q32 0 58 -11t44 -29.5t28 -43.5t10 -53v-285q0 -28 -10 -53t-28 -43.5t-44 -29.5t-58 -11v47q40 0 63 26.5t23 63.5v285q0 37 -23 63.5t-63 26.5v47z" />
    <glyph glyph-name="plus.numerator" horiz-adv-x="383" 
d="M169 359v91h-89v43h89v91h46v-91h89v-43h-89v-91h-46z" />
    <glyph glyph-name="Wacute.smcp" horiz-adv-x="840" 
d="M420 450l-136 -450h-55l-191 560h71l147 -455l137 455h54l137 -455l147 455h71l-191 -560h-55zM330 597l-25 48l205 108l25 -48z" />
    <glyph glyph-name="Zdotaccent.smcp" horiz-adv-x="525" 
d="M66 560h417l-324 -501h328v-59h-439l324 501h-306v59zM213 669q0 23 15 38t37 15t37 -15t15 -38q0 -21 -15 -36t-37 -15t-37 15t-15 36z" />
    <glyph glyph-name="Ycircumflex.smcp" horiz-adv-x="532" 
d="M214 0h-75l112 218l-211 342h79l168 -274l138 274h75zM266 758l148 -119l-37 -41l-111 90l-110 -89l-37 40z" />
    <glyph glyph-name="Tcaron.smcp" horiz-adv-x="455" 
d="M194 500h-147v60h361v-60h-147v-500h-67v500zM94 717l33 41l100 -90l100 90l34 -41l-134 -118z" />
    <glyph glyph-name="Oslash.smcp" horiz-adv-x="716" 
d="M212 25q-69 38 -106.5 107t-37.5 148q0 57 20 110t57.5 93.5t91 65t121.5 24.5q22 0 42.5 -3.5t40.5 -8.5l28 64l55 -23l-27 -64q72 -38 111.5 -107.5t39.5 -150.5q0 -57 -20 -110t-57.5 -93.5t-91 -65t-121.5 -24.5q-25 0 -48 4t-43 11l-27 -63l-54 23zM579 280
q0 61 -28.5 114t-80.5 83l-179 -417q31 -11 67 -11q51 0 92 19t69.5 51.5t44 74t15.5 86.5zM138 280q0 -59 26 -111t74 -83l178 416q-14 4 -28 6.5t-30 2.5q-51 0 -92 -19t-69.5 -51.5t-43.5 -74t-15 -86.5z" />
    <glyph glyph-name="question.smcp" horiz-adv-x="475" 
d="M187 157q0 30 4.5 52.5t14 40t24.5 31t35 26.5q12 7 25.5 16.5t25 22.5t19.5 31t8 42q0 47 -28.5 71.5t-80.5 24.5q-51 0 -83.5 -32t-32.5 -89h-67q0 39 13 71.5t37 56t57.5 36.5t75.5 13q39 0 71 -10.5t55.5 -30t36 -47.5t12.5 -64q0 -32 -9.5 -55t-23 -39.5t-28.5 -28
t-27 -19.5q-18 -12 -31 -22.5t-21.5 -23t-12.5 -30t-4 -44.5h-65zM165 46q0 23 15.5 39t39.5 16q23 0 39 -16t16 -39t-16 -39t-39 -16q-24 0 -39.5 16t-15.5 39z" />
    <glyph glyph-name="nine.numerator" horiz-adv-x="370" 
d="M186 706q31 0 56 -10.5t42.5 -28.5t27 -41.5t9.5 -50.5q0 -41 -22 -74l-117 -186h-62l90 140q-5 -5 -13 -7.5t-16 -2.5q-60 2 -95.5 39t-35.5 91q0 27 9.5 50.5t27 41.5t42.5 28.5t57 10.5zM186 660q-38 0 -59.5 -25t-21.5 -60t21.5 -59.5t59.5 -24.5q37 0 59 24.5
t22 59.5t-22 60t-59 25z" />
    <glyph glyph-name="Ldot.smcp" horiz-adv-x="420" 
d="M355 60v-60h-255v560h67v-500h188zM244 230q0 23 15 38.5t38 15.5t38.5 -15.5t15.5 -38.5t-15.5 -37.5t-38.5 -14.5t-38 14.5t-15 37.5z" />
    <glyph glyph-name="one.denominator" horiz-adv-x="253" 
d="M47 319q26 0 42.5 4t25.5 12t12.5 20.5t3.5 29.5h50v-385h-56v279h-78v40z" />
    <glyph glyph-name="two.smcp" horiz-adv-x="545" 
d="M99 0q0 66 10.5 111.5t31 76.5t51 52t71.5 39q27 12 50 23.5t40.5 27t27.5 36t10 49.5q0 45 -28.5 71.5t-79.5 26.5q-53 0 -84.5 -32t-31.5 -88h-68q0 39 13 71t37 55.5t58 36.5t76 13q79 0 127.5 -41.5t48.5 -117.5q0 -38 -14.5 -66.5t-37 -49t-49 -35t-51.5 -25.5
q-38 -17 -63 -34t-40 -37t-21.5 -45.5t-6.5 -59.5h284v-58h-361v0z" />
    <glyph glyph-name="Oslashacute.smcp" horiz-adv-x="716" 
d="M358 -13q-25 0 -48 4t-43 11l-27 -63l-54 23l26 63q-69 38 -106.5 107t-37.5 148q0 57 20 110t57.5 93.5t91 65t121.5 24.5q22 0 42.5 -3.5t40.5 -8.5l28 64l55 -23l-27 -64q72 -38 111.5 -107.5t39.5 -150.5q0 -57 -20 -110t-57.5 -93.5t-91 -65t-121.5 -24.5zM242 645
l206 107l25 -47l-206 -108zM291 60q31 -11 67 -11q51 0 92 19t69.5 51.5t44 74t15.5 86.5q0 61 -28.5 114t-80.5 83zM416 502q-14 4 -28 6.5t-30 2.5q-51 0 -92 -19t-69.5 -51.5t-43.5 -74t-15 -86.5q0 -59 26 -111t74 -83z" />
    <glyph glyph-name="Ucircumflex.smcp" horiz-adv-x="569" 
d="M90 560h68v-382q0 -27 9 -50.5t25.5 -41t39.5 -28t52 -10.5t52.5 10.5t40.5 28t26 41t9 50.5v382h66v-383q0 -39 -13.5 -73.5t-39 -60.5t-61 -41t-80.5 -15q-44 0 -80 15t-61.5 41t-39 60.5t-13.5 73.5v383zM282 758l148 -119l-36 -41l-112 90l-111 -90l-36 41z" />
    <glyph glyph-name="four.numerator" horiz-adv-x="375" 
d="M217 439h-151v261h55v-213h96v116h56v-116h57v-48h-57v-124h-56v124z" />
    <glyph glyph-name="Lslash.smcp" horiz-adv-x="414" 
d="M355 60v-60h-255v224l-43 -21v58l43 20v279h67v-252l122 59v-57l-122 -59v-191h188z" />
    <glyph glyph-name="T.smcp" horiz-adv-x="455" 
d="M194 500h-147v60h361v-60h-147v-500h-67v500z" />
    <glyph glyph-name="Zacute.smcp" horiz-adv-x="525" 
d="M66 560h417l-324 -501h328v-59h-439l324 501h-306v59zM183 600l-26 48l205 108l26 -48z" />
    <glyph glyph-name="eight.smcp" horiz-adv-x="545" 
d="M269 -9q-45 0 -80.5 12.5t-60.5 34.5t-38 51.5t-13 63.5q0 49 27.5 88t78.5 50q-47 12 -71 47t-24 78q0 32 12.5 60t35.5 48.5t57 32.5t76 12t75 -12t56 -32.5t35.5 -48.5t12.5 -60q0 -43 -23.5 -78t-71.5 -47q51 -12 78.5 -51t27.5 -87q0 -34 -13 -63.5t-37.5 -51.5
t-60 -34.5t-79.5 -12.5zM269 315q53 0 83 28t30 70q0 43 -30.5 71.5t-82.5 28.5q-53 0 -83 -28.5t-30 -71.5q0 -42 29.5 -70t83.5 -28zM269 47q57 0 90 31t33 76t-32.5 76t-90.5 31q-60 0 -92 -30.5t-32 -76.5t33 -76.5t91 -30.5z" />
    <glyph glyph-name="zero.plf.smcp" horiz-adv-x="551" 
d="M83 384q0 38 13.5 72t39 59.5t60.5 40.5t79 15t79.5 -15t60.5 -40.5t38.5 -60t13.5 -72.5v-208q0 -38 -13.5 -71.5t-38.5 -59t-60.5 -40.5t-79.5 -15t-79.5 15t-60.5 40.5t-38.5 60t-13.5 72.5v207zM399 383q0 26 -8.5 49t-25 40.5t-39.5 28t-51 10.5t-51 -10.5t-39 -28
t-24.5 -40.5t-8.5 -49v-206q0 -26 8.5 -49t24.5 -40.5t39 -28t51 -10.5t51 10.5t39.5 28t25 40.5t8.5 49v206z" />
    <glyph glyph-name="Hbar.smcp" horiz-adv-x="607" 
d="M441 407h-274v-99h274v99zM167 560v-105h274v105h68v-560h-68v249h-274v-249h-67v560h67z" />
    <glyph glyph-name="Ohungarumlaut.smcp" horiz-adv-x="716" 
d="M358 -13q-68 0 -121.5 24.5t-91 65t-57.5 93.5t-20 110t20 110t57.5 93.5t91 65t121.5 24.5t121.5 -24.5t91 -65t57.5 -93.5t20 -110t-20 -110t-57.5 -93.5t-91 -65t-121.5 -24.5zM358 49q51 0 92 19t69.5 51.5t44 74t15.5 86.5t-15.5 86.5t-44 74t-69.5 51.5t-92 19
t-92 -19t-69.5 -51.5t-43.5 -74t-15 -86.5t15 -86.5t43.5 -74t69.5 -51.5t92 -19zM489 794l50 -27l-119 -124l-31 15zM333 794l50 -27l-119 -124l-31 15z" />
    </font>
</defs>
</svg>
