<?xml version="1.0" standalone="no"?>

<!DOCTYPE svg PUBLIC "-//W3C//DTD SVG 1.1//EN" 
"http://www.w3.org/Graphics/SVG/1.1/DTD/svg11.dtd">

<svg version="1.1" id="Layer_1" xmlns="http://www.w3.org/2000/svg" xmlns:xlink="http://www.w3.org/1999/xlink" x="0px" y="0px" viewBox="0 0 61.7 42.8" style="enable-background:new 0 0 61.7 42.8;" xml:space="preserve">
    <g id="Cloud_3">
        <g id="White_cloud_3">
            <path id="XMLID_24_" style="fill: #FFFFFF" d="M47.2,42.8H7.9c-4.3,0-7.9-3.5-7.9-7.9l0,0C0,30.5,3.5,27,7.9,27h39.4c4.3,0,7.9,3.5,7.9,7.9 v0C55.1,39.2,51.6,42.8,47.2,42.8z" />
            <circle id="XMLID_23_" style="fill: #FFFFFF" cx="17.4" cy="25.5" r="9.3" />
            <circle id="XMLID_22_" style="fill: #FFFFFF" cx="34.5" cy="23.9" r="15.6" />
            <animateTransform attributeName="transform" attributeType="XML" dur="6s" keyTimes="0;0.5;1" repeatCount="indefinite" type="translate" values="0;5;0" calcMode="linear">
            </animateTransform>
        </g>
        <g id="Sun_3">
            <circle id="XMLID_30_" style="fill: #FFEB3B" cx="31.4" cy="18.5" r="9" />
            <g>
                <path id="XMLID_31_" style="fill: #FFEB3B" d="M31.4,6.6L31.4,6.6c-0.4,0-0.6-0.3-0.6-0.6V0.6C30.8,0.3,31,0,31.3,0l0.1,0 C31.7,0,32,0.3,32,0.6v5.5C32,6.4,31.7,6.6,31.4,6.6z" />
                <path id="XMLID_34_" style="fill: #FFEB3B" d="M31.4,30.1L31.4,30.1c-0.4,0-0.6,0.3-0.6,0.6v5.5c0,0.3,0.3,0.6,0.6,0.6h0.1 c0.3,0,0.6-0.3,0.6-0.6v-5.5C32,30.4,31.7,30.1,31.4,30.1z" />
                <path id="XMLID_35_" style="fill: #FFEB3B" d="M19.6,18.3L19.6,18.3c0,0.4-0.3,0.6-0.6,0.6h-5.5c-0.3,0-0.6-0.3-0.6-0.6v-0.1 c0-0.3,0.3-0.6,0.6-0.6H19C19.3,17.8,19.6,18,19.6,18.3z" />
                <path id="XMLID_33_" style="fill: #FFEB3B" d="M43.1,18.3L43.1,18.3c0,0.4,0.3,0.6,0.6,0.6h5.5c0.3,0,0.6-0.3,0.6-0.6v-0.1 c0-0.3-0.3-0.6-0.6-0.6h-5.5C43.4,17.8,43.1,18,43.1,18.3z" />
                <path id="XMLID_37_" style="fill: #FFEB3B" d="M22.4,26L22.4,26c0.3,0.3,0.2,0.7,0,0.9l-4.2,3.6c-0.2,0.2-0.6,0.2-0.8-0.1l-0.1-0.1 c-0.2-0.2-0.2-0.6,0.1-0.8l4.2-3.6C21.9,25.8,22.2,25.8,22.4,26z" />
                <path id="XMLID_36_" style="fill: #FFEB3B" d="M40.3,10.7L40.3,10.7c0.3,0.3,0.6,0.3,0.8,0.1l4.2-3.6c0.2-0.2,0.3-0.6,0.1-0.8l-0.1-0.1 c-0.2-0.2-0.6-0.3-0.8-0.1l-4.2,3.6C40.1,10.1,40,10.5,40.3,10.7z" />
                <path id="XMLID_39_" style="fill: #FFEB3B" d="M22.4,10.8L22.4,10.8c0.3-0.3,0.2-0.7,0-0.9l-4.2-3.6c-0.2-0.2-0.6-0.2-0.8,0.1l-0.1,0.1 c-0.2,0.2-0.2,0.6,0.1,0.8l4.2,3.6C21.9,11,22.2,11,22.4,10.8z" />
                <path id="XMLID_38_" style="fill: #FFEB3B" d="M40.3,26.1L40.3,26.1c0.3-0.3,0.6-0.3,0.8-0.1l4.2,3.6c0.2,0.2,0.3,0.6,0.1,0.8l-0.1,0.1 c-0.2,0.2-0.6,0.3-0.8,0.1l-4.2-3.6C40.1,26.7,40,26.3,40.3,26.1z" />
                <animate attributeName="opacity" attributeType="XML" dur="0.5s" keyTimes="0;0.5;1" repeatCount="indefinite" values="1;0.6;1" calcMode="linear" />
            </g>
        </g>
        <animateTransform attributeName="transform" attributeType="XML" dur="2s" keyTimes="0;1" repeatCount="indefinite" type="scale" values="1;1" calcMode="linear">
        </animateTransform>
    </g>
    <g id="Gray_cloud_3">
        <path id="XMLID_20_" style="fill: #E0E0E0" d="M55.7,25.1H34.4c-3.3,0-6-2.7-6-6v0c0-3.3,2.7-6,6-6h21.3c3.3,0,6,2.7,6,6v0 C61.7,22.4,59,25.1,55.7,25.1z" />
        <circle id="XMLID_19_" style="fill: #E0E0E0" cx="46.7" cy="13.4" r="10.7" />
        <animateTransform attributeName="transform" attributeType="XML" dur="6s" keyTimes="0;0.5;1" repeatCount="indefinite" type="translate" values="0;-3;0" calcMode="linear">
        </animateTransform>
    </g>
</svg>