<?xml version="1.0" standalone="no"?>

<!DOCTYPE svg PUBLIC "-//W3C//DTD SVG 1.1//EN" 
"http://www.w3.org/Graphics/SVG/1.1/DTD/svg11.dtd">

<svg version="1.1" id="Layer_1" xmlns="http://www.w3.org/2000/svg" xmlns:xlink="http://www.w3.org/1999/xlink" x="0px" y="0px" viewBox="0 0 45.1 47.6" style="enable-background:new 0 0 45.1 47.6;" xml:space="preserve" height="45px" width="45px">
    <style type="text/css">
        .st1 {
            fill: none;
            stroke: #FFFFFF;
            stroke-width: 2;
            stroke-miterlimit: 10;
        }
    </style>
    <g id="Wind_Sun">
        <g id="Sun_1_">
            <circle id="XMLID_25_" style="fill: #FFEB3B" cx="27.1" cy="18.1" r="8.9" />
            <g>
                <path id="XMLID_21_" style="fill: #FFEB3B" d="M27.2,6.5L27.2,6.5c-0.4,0-0.6-0.3-0.6-0.6V0.6c0-0.3,0.3-0.6,0.6-0.6l0.1,0 c0.3,0,0.6,0.3,0.6,0.6v5.4C27.7,6.2,27.5,6.5,27.2,6.5z" />
                <path id="XMLID_18_" style="fill: #FFEB3B" d="M27.2,29.5L27.2,29.5c-0.4,0-0.6,0.3-0.6,0.6v5.4c0,0.3,0.3,0.6,0.6,0.6h0.1 c0.3,0,0.6-0.3,0.6-0.6v-5.4C27.7,29.8,27.5,29.5,27.2,29.5z" />
                <path id="XMLID_17_" style="fill: #FFEB3B" d="M15.6,18L15.6,18c0,0.4-0.3,0.6-0.6,0.6H9.7c-0.3,0-0.6-0.3-0.6-0.6V18c0-0.3,0.3-0.6,0.6-0.6 h5.4C15.4,17.4,15.6,17.7,15.6,18z" />
                <path id="XMLID_16_" style="fill: #FFEB3B" d="M38.7,18L38.7,18c0,0.4,0.3,0.6,0.6,0.6h5.4c0.3,0,0.6-0.3,0.6-0.6V18c0-0.3-0.3-0.6-0.6-0.6 h-5.4C38.9,17.4,38.7,17.7,38.7,18z" />
                <path id="XMLID_15_" style="fill: #FFEB3B" d="M18.4,25.5L18.4,25.5c0.2,0.3,0.2,0.6,0,0.8l-4.1,3.5c-0.2,0.2-0.6,0.2-0.8-0.1l0,0 c-0.2-0.2-0.2-0.6,0.1-0.8l4.1-3.5C17.8,25.2,18.2,25.2,18.4,25.5z" />
                <path id="XMLID_12_" style="fill: #FFEB3B" d="M35.9,10.5L35.9,10.5c0.2,0.3,0.6,0.3,0.8,0.1l4.1-3.5C41,6.9,41,6.5,40.8,6.3l0,0 C40.6,6,40.2,6,40,6.2l-4.1,3.5C35.7,9.9,35.7,10.2,35.9,10.5z" />
                <path id="XMLID_11_" style="fill: #FFEB3B" d="M18.4,10.5L18.4,10.5c0.2-0.3,0.2-0.6,0-0.8l-4.1-3.5C14.1,6,13.7,6,13.5,6.3l0,0 c-0.2,0.2-0.2,0.6,0.1,0.8l4.1,3.5C17.8,10.8,18.2,10.8,18.4,10.5z" />
                <path id="XMLID_9_" style="fill: #FFEB3B" d="M35.9,25.5L35.9,25.5c0.2-0.3,0.6-0.3,0.8-0.1l4.1,3.5c0.2,0.2,0.3,0.6,0.1,0.8l0,0 C40.6,30,40.2,30,40,29.8l-4.1-3.5C35.7,26.1,35.7,25.8,35.9,25.5z" />
                <animate attributeName="opacity" attributeType="XML" dur="0.5s" keyTimes="0;0.5;1" repeatCount="indefinite" values="1;0.6;1" calcMode="linear" />
            </g>
        </g>
        <g id="Wind">
            <path id="XMLID_27_" class="st1" d="M1.3,33.1h19.3c2.1,0,3.8-1.3,3.8-3v0v0c0-1.7-1.7-3-3.8-3h-2.1" />
            <path id="XMLID_40_" class="st1" d="M2.4,42.4h18.2c2,0,3.6,0.9,3.6,2.1l0,0v0c0,1.2-1.6,2.1-3.6,2.1h-2" />
            <line id="XMLID_28_" class="st1" x1="5.3" y1="36.3" x2="25.5" y2="36.3" />
            <line id="XMLID_29_" class="st1" x1="0" y1="39.3" x2="27" y2="39.3" />
            <animateTransform attributeName="transform" attributeType="XML" dur="1.5s" keyTimes="0;1" repeatCount="indefinite" type="translate" values="0;3" calcMode="linear">
            </animateTransform>
            <animate attributeName="opacity" attributeType="XML" dur="1.5s" keyTimes="0;1" repeatCount="indefinite" values="0.3;0.9" calcMode="linear" />
        </g>
    </g>
</svg>